<svg width="180" height="180" viewBox="0 0 180 180" xmlns="http://www.w3.org/2000/svg"><title>logo-square</title><g fill="#FFF" fill-rule="evenodd"><path d="M115.163 53.98c0-.535.314-.89.838-.89h7.333c.565 0 .922.4.922.91 0 .537-.357.936-.922.936h-6.18c-.083 0-.126.045-.126.134v4.453c0 .09.043.133.127.133h5.152c.565 0 .922.4.922.913 0 .533-.357.935-.922.935h-5.152c-.084 0-.127.043-.127.132v4.608c0 .09.043.134.127.134h6.18c.564 0 .92.4.92.912 0 .534-.356.935-.92.935H116c-.523 0-.837-.355-.837-.89V53.978M108.523 54.047c0-.67.378-1.07.943-1.07.545 0 .922.4.922 1.07V67.27c0 .667-.377 1.068-.922 1.068-.565 0-.943-.4-.943-1.068V54.047M102.304 57.453c0-1.582-.984-2.517-2.64-2.517h-3.33c-.084 0-.125.045-.125.134v4.764c0 .09.04.134.123.134h3.33c1.657 0 2.64-.936 2.64-2.515zm-7.96 9.817V53.98c0-.535.314-.89.838-.89h4.462c2.764 0 4.504 1.714 4.504 4.363 0 2.025-1.006 3.494-2.703 4.073L104 66.87c.085.177.126.333.126.533 0 .49-.335.935-.9.935-.378 0-.67-.2-.9-.623l-2.808-5.9h-3.185c-.083 0-.124.045-.124.134v5.32c0 .667-.38 1.068-.924 1.068-.566 0-.943-.4-.943-1.068zM90.052 53.09c.565 0 .922.4.922.934 0 .513-.357.912-.922.912h-3.29c-.083 0-.124.045-.124.134v12.2c0 .667-.378 1.068-.923 1.068-.566 0-.943-.4-.943-1.068v-12.2c0-.09-.04-.134-.124-.134h-3.29c-.565 0-.92-.4-.92-.912 0-.535.355-.935.92-.935h8.694M76.415 62.884l-2.262-6.88h-.063l-2.304 6.88h4.63zm-7.897 4.096l4.38-12.89c.23-.712.585-1.112 1.213-1.112.63 0 1.028.4 1.258 1.11l4.316 12.892c.042.135.083.29.083.446 0 .556-.397.912-.88.912-.418 0-.753-.245-.9-.712l-.963-2.916H71.18l-.965 2.916c-.146.467-.482.712-.9.712-.483 0-.88-.356-.88-.912 0-.156.04-.31.083-.446zM65.17 57.607c0-1.646-1.03-2.67-2.788-2.67h-3.184c-.083 0-.125.044-.125.133v5.076c0 .09.042.133.125.133h3.184c1.76 0 2.787-1.024 2.787-2.673zm-7.962-3.628c0-.535.314-.89.838-.89h4.4c2.847 0 4.566 1.824 4.566 4.517 0 2.695-1.72 4.52-4.567 4.52h-3.247c-.083 0-.125.045-.125.134v5.01c0 .667-.377 1.068-.923 1.068-.565 0-.942-.4-.942-1.068V53.98zM98.064 38.95c.386 0 .683.33.683.694 0 .35-.297.68-.683.68H95.82c-.055 0-.085.03-.085.09v7.687c0 .455-.31.786-.68.786-.387 0-.697-.33-.697-.785v-7.685c0-.06-.03-.09-.086-.09H92.03c-.386 0-.683-.33-.683-.68 0-.365.297-.696.683-.696h6.034M82.906 39.556c0-.364.215-.607.572-.607h5.106c.385 0 .628.33.628.68 0 .364-.243.694-.628.694H84.37c-.056 0-.085.03-.085.09v2.634c0 .06.03.09.086.09h3.514c.386 0 .628.332.628.68 0 .365-.242.696-.628.696H84.37c-.056 0-.085.03-.085.09v2.74c0 .06.03.09.086.09h4.214c.385 0 .628.332.628.68 0 .366-.243.696-.628.696h-5.106c-.357 0-.572-.244-.572-.607v-8.647M127.815 14.797c.146-.18.314-.29.566-.29.4 0 .713.312.713.735 0 .222-.083.423-.21.578l-1.445 1.692c-.19.224-.377.334-.63.334-.356 0-.67-.312-.67-.712 0-.223.084-.423.23-.602l1.447-1.735zm-5.28 5.565c0-.535.315-.89.84-.89h7.33c.566 0 .923.4.923.912 0 .535-.357.935-.923.935h-6.18c-.082 0-.125.044-.125.133v4.452c0 .09.043.134.126.134h5.153c.564 0 .922.4.922.91 0 .536-.358.937-.923.937h-5.154c-.083 0-.126.043-.126.133v4.608c0 .09.043.133.126.133h6.18c.565 0 .922.403.922.915 0 .533-.357.935-.923.935h-7.33c-.525 0-.84-.356-.84-.89V20.362zM118.243 19.472c.565 0 .922.4.922.934 0 .513-.357.913-.922.913h-3.29c-.082 0-.124.044-.124.133v12.2c0 .667-.378 1.067-.924 1.067-.564 0-.942-.4-.942-1.068v-12.2c0-.088-.04-.133-.125-.133h-3.29c-.565 0-.922-.4-.922-.914 0-.534.357-.934.922-.934h8.693M103.916 23.835c0-1.58-.984-2.516-2.64-2.516h-3.33c-.083 0-.126.044-.126.133v4.764c0 .09.043.133.127.133h3.33c1.655 0 2.64-.935 2.64-2.515zm-7.96 9.817v-13.29c0-.535.314-.89.838-.89h4.462c2.766 0 4.504 1.714 4.504 4.363 0 2.025-1.006 3.494-2.702 4.074l2.556 5.342c.083.178.125.334.125.533 0 .49-.337.935-.902.935-.376 0-.67-.2-.9-.622l-2.808-5.9h-3.183c-.084 0-.127.045-.127.133v5.322c0 .668-.376 1.068-.92 1.068-.568 0-.944-.4-.944-1.068zM82.907 20.362c0-.535.315-.89.84-.89h7.33c.566 0 .922.4.922.912 0 .535-.357.935-.922.935h-6.18c-.084 0-.126.044-.126.133v4.452c0 .09.042.134.126.134h5.154c.565 0 .92.4.92.91 0 .536-.355.937-.92.937h-5.154c-.084 0-.126.043-.126.133v4.608c0 .09.042.133.126.133h6.18c.565 0 .92.403.92.915 0 .533-.355.935-.92.935h-7.332c-.524 0-.84-.356-.84-.89V20.362M70.99 32.806h3.33c1.698 0 2.62-.978 2.62-2.493 0-1.49-.922-2.493-2.62-2.493h-3.33c-.083 0-.125.044-.125.133v4.72c0 .088.042.133.125.133zm3.226-6.79c1.572 0 2.493-.957 2.493-2.36 0-1.446-.922-2.38-2.494-2.38H70.99c-.083 0-.125.043-.125.132v4.475c0 .088.042.133.125.133h3.226zM69 20.362c0-.535.315-.89.84-.89h4.418c2.85 0 4.295 1.558 4.295 3.963 0 1.758-.754 2.85-1.927 3.316v.046c1.026.288 2.178 1.514 2.178 3.495 0 2.85-1.717 4.32-4.61 4.32H69.84c-.525 0-.84-.335-.84-.89V20.362zM62.36 20.43c0-.67.378-1.07.944-1.07.544 0 .92.4.92 1.07V33.65c0 .668-.376 1.068-.92 1.068-.566 0-.943-.4-.943-1.068V20.43M49.836 20.43c0-.67.377-1.07.92-1.07.547 0 .945.4.945 1.07v12.198c0 .09.042.133.126.133h6.18c.565 0 .92.403.92.915 0 .533-.355.935-.92.935h-7.27c-.565 0-.9-.378-.9-.98v-13.2"/><path d="M154.973 23.605c-.275 13.192-1.03 25.253-2.244 35.837-.635 5.343-1.606 10.823-2.888 16.313H31.41c-1.29-5.552-2.23-10.907-2.864-16.32-1.623-13.336-2.196-26.847-2.392-35.833-.14-6.343-.12-11.392-.087-14.17h128.968c.033 2.78.06 7.83-.062 14.173zm-9.3 66.666l-6.606-9.66h9.557c-.87 3.242-1.863 6.46-2.952 9.66zm-81.596-9.66l47.084 68.872c-1.503 1.813-3.056 3.632-4.65 5.458L55.698 80.61h8.38zm11.91 0l41.582 60.824c-1.447 1.893-2.942 3.792-4.485 5.696L67.607 80.61h8.38zm11.91 0L123.71 133c-1.377 1.988-2.808 3.98-4.29 5.975L79.515 80.61h8.38zm11.91 0l29.736 43.5c-1.298 2.1-2.656 4.2-4.068 6.304L91.425 80.61h8.382zm11.91 0l23.286 34.06c-1.205 2.237-2.474 4.47-3.802 6.7L103.34 80.61h8.38zm11.91 0l16.385 23.97c-1.095 2.412-2.254 4.803-3.474 7.173l-21.29-31.142h8.38zm11.91 0l8.932 13.068c-.955 2.604-1.98 5.188-3.078 7.753l-14.234-20.82h8.378zM99.75 162.473l-55.964-81.86h8.38l52.356 76.58c-.385.434-.763.864-1.153 1.297-1.31 1.423-2.508 2.75-3.62 3.982zm-5.305 5.724c-.638.643-1.173 1.137-1.64 1.537l-59.67-87.28c-.17-.615-.354-1.227-.517-1.842h7.638l57.483 84.083c-1.217 1.337-2.323 2.53-3.295 3.503zm-13.963-6.788c-.817-.916-1.68-1.885-2.595-2.904-14.282-15.768-25.113-30.977-33.113-46.495-3.35-6.498-6.23-13.18-8.623-19.98l53.928 78.88c-.644-.324-1.69-1.068-3.36-2.734-1.717-1.694-3.812-4.045-6.236-6.768zm79.082-154.47c-.033-1.314-1.046-2.362-2.285-2.362H23.82c-1.238 0-2.25 1.047-2.284 2.362-.002.067-.17 6.88.048 16.776.198 9.103.78 22.797 2.426 36.332.61 5.213 1.514 10.386 2.71 15.71h-.045l.74 3.03.002.007v.002c2.973 12.184 7.464 24.144 13.346 35.548 8.197 15.9 19.262 31.447 33.82 47.522.907 1.006 1.764 1.97 2.577 2.882 2.48 2.785 4.62 5.19 6.438 6.98 2.856 2.85 4.912 4.123 6.88 4.262l.15.01.15-.012c1.967-.14 3.94-1.375 6.804-4.263 1.522-1.52 3.27-3.458 5.294-5.703 1.148-1.272 2.395-2.656 3.776-4.155 14.555-16.172 25.6-31.717 33.76-47.522 5.91-11.42 10.422-23.38 13.414-35.548l.747-3.042h-.047c1.193-5.284 2.123-10.555 2.736-15.715 1.233-10.754 2-22.977 2.278-36.333.19-9.894.023-16.7.022-16.768z"/></g></svg>