<?xml version="1.0" encoding="utf-8"?>
<!-- Generator: Adobe Illustrator 19.0.0, SVG Export Plug-In . SVG Version: 6.00 Build 0)  -->
<svg version="1.1" id="Calque_1" xmlns="http://www.w3.org/2000/svg" xmlns:xlink="http://www.w3.org/1999/xlink" x="0px" y="0px"
	 viewBox="0 0 133.1 4.5" style="enable-background:new 0 0 133.1 4.5;" xml:space="preserve">
<style type="text/css">
	.st0{fill:#DBE2E6;}
	.st1{fill:#FFFFFF;}
</style>
<polygon id="XMLID_4_" class="st0" points="31.3,0 27.7,4.5 29.6,4.5 33.2,0 "/>
<polygon id="XMLID_17_" class="st1" points="13.7,0 10.1,4.5 12,4.5 15.6,0 "/>
<polygon id="XMLID_32_" class="st0" points="11.7,0 8.1,4.5 10.1,4.5 13.7,0 "/>
<polygon id="XMLID_50_" class="st1" points="9.8,0 6.2,4.5 8.1,4.5 11.7,0 "/>
<polygon id="XMLID_51_" class="st0" points="7.8,0 4.2,4.5 6.2,4.5 9.8,0 "/>
<polygon id="XMLID_79_" class="st1" points="5.9,0 2.3,4.5 4.2,4.5 7.8,0 "/>
<polygon id="XMLID_81_" class="st0" points="3.9,0 0.3,4.5 2.3,4.5 5.9,0 "/>
<polygon id="XMLID_82_" class="st1" points="2,0 -1.7,4.5 0.3,4.5 3.9,0 "/>
<polygon id="XMLID_83_" class="st0" points="0,0 -3.6,4.5 -1.7,4.5 2,0 "/>
<polygon id="XMLID_6_" class="st1" points="29.3,0 25.7,4.5 27.7,4.5 31.3,0 "/>
<polygon id="XMLID_7_" class="st0" points="27.4,0 23.7,4.5 25.7,4.5 29.3,0 "/>
<polygon id="XMLID_8_" class="st1" points="25.4,0 21.8,4.5 23.7,4.5 27.4,0 "/>
<polygon id="XMLID_9_" class="st0" points="23.4,0 19.8,4.5 21.8,4.5 25.4,0 "/>
<polygon id="XMLID_10_" class="st1" points="21.5,0 17.9,4.5 19.8,4.5 23.4,0 "/>
<polygon id="XMLID_11_" class="st0" points="19.5,0 15.9,4.5 17.9,4.5 21.5,0 "/>
<polygon id="XMLID_80_" class="st1" points="17.6,0 14,4.5 15.9,4.5 19.5,0 "/>
<polygon id="XMLID_85_" class="st0" points="15.6,0 12,4.5 14,4.5 17.6,0 "/>
<polygon id="XMLID_86_" class="st1" points="-2,0 -5.6,4.5 -3.6,4.5 0,0 "/>
<polygon id="XMLID_26_" class="st0" points="66.4,0 62.8,4.5 64.8,4.5 68.4,0 "/>
<polygon id="XMLID_25_" class="st1" points="48.8,0 45.2,4.5 47.2,4.5 50.8,0 "/>
<polygon id="XMLID_24_" class="st0" points="46.9,0 43.3,4.5 45.2,4.5 48.8,0 "/>
<polygon id="XMLID_23_" class="st1" points="44.9,0 41.3,4.5 43.3,4.5 46.9,0 "/>
<polygon id="XMLID_22_" class="st0" points="43,0 39.4,4.5 41.3,4.5 44.9,0 "/>
<polygon id="XMLID_21_" class="st1" points="41,0 37.4,4.5 39.4,4.5 43,0 "/>
<polygon id="XMLID_20_" class="st0" points="39.1,0 35.5,4.5 37.4,4.5 41,0 "/>
<polygon id="XMLID_19_" class="st1" points="37.1,0 33.5,4.5 35.5,4.5 39.1,0 "/>
<polygon id="XMLID_18_" class="st0" points="35.2,0 31.6,4.5 33.5,4.5 37.1,0 "/>
<polygon id="XMLID_16_" class="st1" points="64.5,0 60.9,4.5 62.8,4.5 66.4,0 "/>
<polygon id="XMLID_15_" class="st0" points="62.5,0 58.9,4.5 60.9,4.5 64.5,0 "/>
<polygon id="XMLID_14_" class="st1" points="60.6,0 57,4.5 58.9,4.5 62.5,0 "/>
<polygon id="XMLID_13_" class="st0" points="58.6,0 55,4.5 57,4.5 60.6,0 "/>
<polygon id="XMLID_12_" class="st1" points="56.7,0 53,4.5 55,4.5 58.6,0 "/>
<polygon id="XMLID_5_" class="st0" points="54.7,0 51.1,4.5 53,4.5 56.7,0 "/>
<polygon id="XMLID_3_" class="st1" points="52.7,0 49.1,4.5 51.1,4.5 54.7,0 "/>
<polygon id="XMLID_2_" class="st0" points="50.8,0 47.2,4.5 49.1,4.5 52.7,0 "/>
<polygon id="XMLID_27_" class="st1" points="33.2,0 29.6,4.5 31.6,4.5 35.2,0 "/>
<polygon id="XMLID_65_" class="st0" points="101.5,0 97.9,4.5 99.8,4.5 103.4,0 "/>
<polygon id="XMLID_64_" class="st1" points="83.9,0 80.3,4.5 82.3,4.5 85.9,0 "/>
<polygon id="XMLID_63_" class="st0" points="82,0 78.3,4.5 80.3,4.5 83.9,0 "/>
<polygon id="XMLID_62_" class="st1" points="80,0 76.4,4.5 78.3,4.5 82,0 "/>
<polygon id="XMLID_61_" class="st0" points="78,0 74.4,4.5 76.4,4.5 80,0 "/>
<polygon id="XMLID_60_" class="st1" points="76.1,0 72.5,4.5 74.4,4.5 78,0 "/>
<polygon id="XMLID_59_" class="st0" points="74.1,0 70.5,4.5 72.5,4.5 76.1,0 "/>
<polygon id="XMLID_58_" class="st1" points="72.2,0 68.6,4.5 70.5,4.5 74.1,0 "/>
<polygon id="XMLID_57_" class="st0" points="70.2,0 66.6,4.5 68.6,4.5 72.2,0 "/>
<polygon id="XMLID_56_" class="st1" points="99.5,0 95.9,4.5 97.9,4.5 101.5,0 "/>
<polygon id="XMLID_55_" class="st0" points="97.6,0 94,4.5 95.9,4.5 99.5,0 "/>
<polygon id="XMLID_54_" class="st1" points="95.6,0 92,4.5 94,4.5 97.6,0 "/>
<polygon id="XMLID_53_" class="st0" points="93.7,0 90.1,4.5 92,4.5 95.6,0 "/>
<polygon id="XMLID_52_" class="st1" points="91.7,0 88.1,4.5 90.1,4.5 93.7,0 "/>
<polygon id="XMLID_49_" class="st0" points="89.8,0 86.2,4.5 88.1,4.5 91.7,0 "/>
<polygon id="XMLID_48_" class="st1" points="87.8,0 84.2,4.5 86.2,4.5 89.8,0 "/>
<polygon id="XMLID_47_" class="st0" points="85.9,0 82.3,4.5 84.2,4.5 87.8,0 "/>
<polygon id="XMLID_46_" class="st1" points="68.3,0 64.7,4.5 66.6,4.5 70.2,0 "/>
<polygon id="XMLID_44_" class="st1" points="119.1,0 115.5,4.5 117.4,4.5 121,0 "/>
<polygon id="XMLID_43_" class="st0" points="117.1,0 113.5,4.5 115.5,4.5 119.1,0 "/>
<polygon id="XMLID_42_" class="st1" points="115.2,0 111.6,4.5 113.5,4.5 117.1,0 "/>
<polygon id="XMLID_41_" class="st0" points="113.2,0 109.6,4.5 111.6,4.5 115.2,0 "/>
<polygon id="XMLID_40_" class="st1" points="111.3,0 107.6,4.5 109.6,4.5 113.2,0 "/>
<polygon id="XMLID_39_" class="st0" points="109.3,0 105.7,4.5 107.6,4.5 111.3,0 "/>
<polygon id="XMLID_38_" class="st1" points="107.3,0 103.7,4.5 105.7,4.5 109.3,0 "/>
<polygon id="XMLID_37_" class="st0" points="105.4,0 101.8,4.5 103.7,4.5 107.3,0 "/>
<polygon id="XMLID_36_" class="st1" points="134.7,0 131.1,4.5 133,4.5 136.7,0 "/>
<polygon id="XMLID_35_" class="st0" points="132.7,0 129.1,4.5 131.1,4.5 134.7,0 "/>
<polygon id="XMLID_34_" class="st1" points="130.8,0 127.2,4.5 129.1,4.5 132.7,0 "/>
<polygon id="XMLID_33_" class="st0" points="128.8,0 125.2,4.5 127.2,4.5 130.8,0 "/>
<polygon id="XMLID_31_" class="st1" points="126.9,0 123.3,4.5 125.2,4.5 128.8,0 "/>
<polygon id="XMLID_30_" class="st0" points="124.9,0 121.3,4.5 123.3,4.5 126.9,0 "/>
<polygon id="XMLID_29_" class="st1" points="123,0 119.4,4.5 121.3,4.5 124.9,0 "/>
<polygon id="XMLID_28_" class="st0" points="121,0 117.4,4.5 119.4,4.5 123,0 "/>
<polygon id="XMLID_45_" class="st1" points="103.4,0 99.8,4.5 101.8,4.5 105.4,0 "/>
</svg>
