<svg id="vecteurs" xmlns="http://www.w3.org/2000/svg" viewBox="443.7 500.9 211.3 37.3"><style>.st0{fill:#9f3}.st1{fill:#40d940}.st2{fill:#fff}.st3{fill:#d5dee3}.st4{fill:#546674}.st5{fill:#1f5e03}.st6{fill:#231f20}</style><path class="st0" d="M444.8 533.1h5v5.1h-5z"/><path class="st1" d="M449.8 533.1h5v5.1h-5z"/><path class="st2" d="M454.8 533.1h5v5.1h-5z"/><path class="st1" d="M459.7 533.1h5v5.1h-5z"/><path class="st2" d="M464.7 533.1h5v5.1h-5z"/><path class="st1" d="M469.6 533.1h5v5.1h-5z"/><path class="st3" d="M474.6 533.1h5v5.1h-5z"/><path class="st1" d="M479.5 533.1h5v5.1h-5z"/><path class="st3" d="M484.5 533.1h5v5.1h-5z"/><path class="st1" d="M489.4 533.1h5v5.1h-5z"/><path class="st3" d="M494.4 533.1h5v5.1h-5z"/><path class="st0" d="M499.3 533.1h5v5.1h-5z"/><path class="st2" d="M504.3 533.1h5v5.1h-5z"/><path class="st0" d="M509.3 533.1h5v5.1h-5z"/><path class="st2" d="M514.2 533.1h5v5.1h-5z"/><path class="st4" d="M519.2 533.1h5v5.1h-5z"/><path class="st2" d="M524.1 533.1h5v5.1h-5z"/><path class="st4" d="M529.1 533.1h5v5.1h-5z"/><path class="st0" d="M534 533.1h5v5.1h-5z"/><path class="st4" d="M539 533.1h5v5.1h-5z"/><path class="st0" d="M543.9 533.1h5v5.1h-5z"/><path class="st4" d="M548.9 533.1h5v5.1h-5z"/><path class="st0" d="M553.8 533.1h5v5.1h-5z"/><path class="st1" d="M558.8 533.1h5v5.1h-5z"/><path class="st5" d="M563.8 533.1h5v5.1h-5z"/><path class="st1" d="M568.7 533.1h5v5.1h-5z"/><path class="st5" d="M573.7 533.1h5v5.1h-5z"/><path class="st2" d="M578.6 533.1h5v5.1h-5z"/><path class="st5" d="M583.6 533.1h5v5.1h-5z"/><path class="st1" d="M588.5 533.1h5v5.1h-5z"/><path d="M593.5 533.1h5v5.1h-5z"/><path class="st1" d="M598.4 533.1h5v5.1h-5z"/><path d="M603.4 533.1h5v5.1h-5z"/><path class="st1" d="M608.3 533.1h5v5.1h-5z"/><path d="M613.3 533.1h5v5.1h-5z"/><path class="st1" d="M618.3 533.1h5v5.1h-5z"/><path class="st2" d="M623.2 533.1h5v5.1h-5z"/><path class="st1" d="M628.2 533.1h5v5.1h-5z"/><path class="st3" d="M633.1 533.1h5v5.1h-5z"/><path class="st0" d="M638.1 533.1h5v5.1h-5z"/><path class="st1" d="M643 533.1h5v5.1h-5z"/><path class="st0" d="M648 533.1h5v5.1h-5z"/><g><path class="st6" d="M444.8 508.5h14.1v3.8h-9.2v5h7.4v3.6h-7.4v5.4h9.7v3.8h-14.6v-21.6zm7-5.6h4.7l-3 4.2h-3.3l1.6-4.2zM468 512.3h-5.8v-3.8h16.6v3.8H473v17.8h-5v-17.8zM485.2 508.5h6.4l7 21.6h-5.1l-1.5-4.8h-7.8l-1.5 4.8h-4.6l7.1-21.6zm0 13.3h5.7l-2.8-9.3-2.9 9.3zM504.1 512.3h-5.8v-3.8h16.6v3.8H509v17.8h-4.9v-17.8zM525 508.5h7.1c7.6 0 11.3 4.1 11.3 10.6v.2c0 6.5-3.8 10.8-11.4 10.8h-7v-21.6zm6.9 17.8c4.3 0 6.4-2.4 6.4-6.9v-.2c0-4.4-1.9-6.8-6.5-6.8h-1.9v14h2zM547.4 508.5h14.1v3.8h-9.2v5h7.4v3.6h-7.4v5.4h9.7v3.8h-14.6v-21.6zM571.1 508.5h5.2l5.1 16.6 5.1-16.6h4.6l-7.2 21.6h-5.6l-7.2-21.6zM597.3 508.5h6.4l7 21.6h-5.1l-1.5-4.8h-7.8l-1.5 4.8h-4.6l7.1-21.6zm0 13.3h5.7l-2.8-9.3-2.9 9.3zM612.5 521.7v-13.2h4.9v12.9c0 3.6 1.1 5.2 4 5.2s4.2-1.4 4.2-5.3v-12.7h4.9v13c0 5.9-3.3 8.9-9.1 8.9-5.6-.1-8.9-3.1-8.9-8.8zM635.2 508.5h7.1c7.6 0 11.3 4.1 11.3 10.6v.2c0 6.5-3.8 10.8-11.4 10.8h-7v-21.6zm6.9 17.8c4.3 0 6.4-2.4 6.4-6.9v-.2c0-4.4-1.9-6.8-6.5-6.8h-1.9v14h2z"/></g></svg>