<svg id="vecteurs" xmlns="http://www.w3.org/2000/svg" viewBox="464.8 423 208.7 54.2"><style>.st0{fill:#9f3}.st1{fill:#40d940}.st2{fill:#fff}.st3{fill:#d5dee3}.st4{fill:#546674}.st5{fill:#1f5e03}</style><path class="st0" d="M464.8 472.1h5v5.1h-5z"/><path class="st1" d="M469.8 472.1h5v5.1h-5z"/><path class="st2" d="M474.8 472.1h5v5.1h-5z"/><path class="st1" d="M479.7 472.1h5v5.1h-5z"/><path class="st2" d="M484.7 472.1h5v5.1h-5z"/><path class="st1" d="M489.6 472.1h5v5.1h-5z"/><path class="st3" d="M494.6 472.1h5v5.1h-5z"/><path class="st1" d="M499.5 472.1h5v5.1h-5z"/><path class="st3" d="M504.5 472.1h5v5.1h-5z"/><path class="st1" d="M509.4 472.1h5v5.1h-5z"/><path class="st3" d="M514.4 472.1h5v5.1h-5z"/><path class="st0" d="M519.3 472.1h5v5.1h-5z"/><path class="st2" d="M524.3 472.1h5v5.1h-5z"/><path class="st0" d="M529.3 472.1h5v5.1h-5z"/><path class="st2" d="M534.2 472.1h5v5.1h-5z"/><path class="st4" d="M539.2 472.1h5v5.1h-5z"/><path class="st2" d="M544.1 472.1h5v5.1h-5z"/><path class="st4" d="M549.1 472.1h5v5.1h-5z"/><path class="st0" d="M554 472.1h5v5.1h-5z"/><path class="st4" d="M559 472.1h5v5.1h-5z"/><path class="st0" d="M563.9 472.1h5v5.1h-5z"/><path class="st4" d="M568.9 472.1h5v5.1h-5z"/><path class="st0" d="M573.8 472.1h5v5.1h-5z"/><path class="st1" d="M578.8 472.1h5v5.1h-5z"/><path class="st5" d="M583.8 472.1h5v5.1h-5z"/><path class="st1" d="M588.7 472.1h5v5.1h-5z"/><path class="st5" d="M593.7 472.1h5v5.1h-5z"/><path class="st2" d="M598.6 472.1h5v5.1h-5z"/><path class="st5" d="M603.6 472.1h5v5.1h-5z"/><path class="st1" d="M608.5 472.1h5v5.1h-5z"/><path d="M613.5 472.1h5v5.1h-5z"/><path class="st1" d="M618.4 472.1h5v5.1h-5z"/><path d="M623.4 472.1h5v5.1h-5z"/><path class="st1" d="M628.3 472.1h5v5.1h-5z"/><path d="M633.3 472.1h5v5.1h-5z"/><path class="st1" d="M638.3 472.1h5v5.1h-5z"/><path class="st2" d="M643.2 472.1h5v5.1h-5z"/><path class="st1" d="M648.2 472.1h5v5.1h-5z"/><path class="st3" d="M653.1 472.1h5v5.1h-5z"/><path class="st0" d="M658.1 472.1h5v5.1h-5z"/><path class="st1" d="M663 472.1h5v5.1h-5z"/><path class="st0" d="M668 472.1h5v5.1h-5z"/><path d="M464.8 447.5h14.1v3.8h-9.2v5h7.4v3.6h-7.4v5.4h9.7v3.8h-14.6v-21.6zm7-5.6h4.7l-3 4.2h-3.3l1.6-4.2zm16.2 9.4h-5.8v-3.8h16.6v3.8H493v17.8h-5v-17.8zm17.2-3.8h6.4l7 21.6h-5.1l-1.5-4.8h-7.8l-1.5 4.8h-4.6l7.1-21.6zm0 13.3h5.7l-2.8-9.3-2.9 9.3zm18.9-9.5h-5.8v-3.8h16.6v3.8H529v17.8h-4.9v-17.8zm20.9-3.8h7.1c7.6 0 11.3 4.1 11.3 10.6v.2c0 6.5-3.8 10.8-11.4 10.8h-7v-21.6zm6.9 17.8c4.3 0 6.4-2.4 6.4-6.9v-.2c0-4.4-1.9-6.8-6.5-6.8h-1.9v14h2zm15.5-17.8h14.1v3.8h-9.2v5h7.4v3.6h-7.4v5.4h9.7v3.8h-14.6v-21.6zm23.7 0h5.2l5.1 16.6 5.1-16.6h4.6l-7.2 21.6h-5.6l-7.2-21.6zm26.2 0h6.4l7 21.6h-5.1l-1.5-4.8h-7.8l-1.5 4.8h-4.6l7.1-21.6zm0 13.3h5.7l-2.8-9.3-2.9 9.3zm15.2-.1v-13.2h4.9v12.9c0 3.6 1.1 5.2 4 5.2s4.2-1.4 4.2-5.3v-12.7h4.9v13c0 5.9-3.3 8.9-9.1 8.9-5.6-.1-8.9-3.1-8.9-8.8zm22.7-13.2h7.1c7.6 0 11.3 4.1 11.3 10.6v.2c0 6.5-3.8 10.8-11.4 10.8h-7v-21.6zm6.9 17.8c4.3 0 6.4-2.4 6.4-6.9v-.2c0-4.4-1.9-6.8-6.5-6.8h-1.9v14h2z" fill="#231f20"/><path d="M465 432h.9c.2 1.4 1 2.7 3.4 2.7 1.8 0 2.9-1 2.9-2.4 0-1.6-.8-2.1-3-2.5-2.5-.4-3.7-1.2-3.7-3s1.4-3 3.6-3c2.1 0 3.4 1 3.7 2.9h-.8c-.3-1.4-1.2-2.1-2.8-2.1-1.7 0-2.7.8-2.7 2.2 0 1.2.6 1.9 3 2.3 2.5.4 3.8 1.1 3.8 3.2 0 1.8-1.5 3.2-3.8 3.2-3.1-.1-4.3-1.6-4.5-3.5zm10-7.4c0-.3.3-.6.6-.6s.6.3.6.6-.3.6-.6.6-.6-.3-.6-.6zm.2 2.4h.8v8.3h-.8V427zm3.8 6.3v-5.6h-1.2v-.7h1.2v-1.9h.8v1.9h2.2v.7h-2.2v5.5c0 1 .5 1.5 1.2 1.5.4 0 .8-.1 1-.2v.7c-.3.1-.6.2-1.1.2-1.2 0-1.9-.8-1.9-2.1zm4.3-2.1v-.1c0-2.5 1.6-4.2 3.8-4.2 2 0 3.6 1.3 3.6 4.1v.3h-6.6c0 2.2 1.1 3.5 3.1 3.5 1.4 0 2.3-.6 2.6-1.7h.8c-.3 1.6-1.7 2.4-3.4 2.4-2.3-.1-3.9-1.8-3.9-4.3zm6.6-.7c-.1-2-1.1-3-2.8-3-1.6 0-2.7 1.1-2.9 3h5.7zm6.2.7v-.1c0-2.5 1.8-4.2 4-4.2s4 1.7 4 4.2v.1c0 2.5-1.8 4.2-4 4.2-2.3 0-4-1.8-4-4.2zm7.1 0v-.1c0-2.2-1.4-3.5-3.1-3.5-1.8 0-3.1 1.3-3.1 3.5v.1c0 2.1 1.3 3.5 3.1 3.5s3.1-1.4 3.1-3.5zm3.2-3.5h-1.3v-.7h1.3v-1.4c0-1.7 1-2.5 2.4-2.5.4 0 .6 0 .9.1v.7c-.2-.1-.5-.1-.9-.1-.9 0-1.5.5-1.5 1.7v1.4h3.6v-1.5c0-1.7 1-2.5 2.4-2.5.4 0 .6 0 .9.1v.7c-.2-.1-.5-.1-.9-.1-.9 0-1.5.5-1.5 1.7v1.6h2.3v.7h-2.3v7.6h-.8v-7.6h-3.6v7.6h-.8v-7.5zm9.2-3.1c0-.3.3-.6.6-.6s.6.3.6.6-.3.6-.6.6-.6-.3-.6-.6zm.2 2.4h.8v8.3h-.8V427zm2.9 4.2v-.1c0-2.5 1.8-4.2 4-4.2 1.7 0 3.2.9 3.5 2.8h-.8c-.2-1.4-1.3-2-2.6-2-1.7 0-3.1 1.3-3.1 3.5v.1c0 2.2 1.4 3.5 3.1 3.5 1.4 0 2.6-.8 2.8-2.3h.8c-.2 1.8-1.7 3-3.5 3-2.5-.1-4.2-1.8-4.2-4.3zm9.3-6.6c0-.3.3-.6.6-.6s.6.3.6.6-.3.6-.6.6-.6-.3-.6-.6zm.2 2.4h.8v8.3h-.8V427zm2.8 4.2v-.1c0-2.5 1.6-4.2 3.8-4.2 2 0 3.6 1.3 3.6 4.1v.3h-6.6c0 2.2 1.1 3.5 3.1 3.5 1.4 0 2.3-.6 2.6-1.7h.8c-.3 1.6-1.7 2.4-3.4 2.4-2.3-.1-3.9-1.8-3.9-4.3zm6.6-.7c-.1-2-1.1-3-2.8-3-1.6 0-2.7 1.1-2.9 3h5.7zm2.9-7.5h.9v12.3h-.9V423z"/></svg>