<svg version="1" xmlns="http://www.w3.org/2000/svg" width="933.333" height="933.333" viewBox="0 0 700 700"><path d="M0 350v350h700V0H0v350zm591.7-163.3c-.4 84.1-.6 86.7-6.7 119.3-15 80.2-52 156.3-109.2 224.6-32.2 38.3-78.1 80.3-102.2 93.5l-5 2.7-5.6-2.8c-15.7-7.9-54.4-41-80.2-68.5C213.1 481 168.3 395.8 151.6 306c-6.5-34.9-7.6-54.8-7.6-134.3V109h448.1l-.4 77.7z"/><path d="M163 179.2c0 52.8.9 77.5 3.5 98.3 1.7 13 5.8 36.7 7.5 42.7l1.1 3.8 193.2-.3 193.1-.2 1.3-4.3c1.8-6.5 6-29.9 7.9-45.2 1.5-11.3 1.8-24.4 2.1-79.8l.4-66.2H163v51.2zm309.8-24c-1.4 1.8-3.5 3.4-4.7 3.6-2.1.3-2.1.3-.4-3.2 1.4-2.9 2.2-3.6 4.6-3.6h3l-2.5 3.2zM256 181v18h10c8.2 0 10 .3 10 1.5 0 1.3-2.1 1.5-12.5 1.5H251v-39h5v18zm35 1.5V202h-5v-39h5v19.5zm35-18c3.5 1.8 5 4.3 5 8.4 0 3-2.9 7.1-5 7.1-.5 0-1 .4-1 1 0 .5.7 1 1.5 1 .9 0 2.7 1.1 4 2.5 4.3 4.3 2.6 12.7-3.2 15.4-1.5.8-7.4 1.6-13 1.9l-10.3.5V163h9.5c6.6 0 10.5.5 12.5 1.5zm43 0c0 1.2-1.8 1.5-10 1.5h-10v14h8c7.3 0 8 .2 8 2s-.7 2-8 2h-8v15h11c9.1 0 11 .3 11 1.5 0 1.3-2.2 1.5-13.5 1.5H344v-39h12.5c10.4 0 12.5.2 12.5 1.5zm33.5-.1c3.9 1.7 5.7 4.5 5.7 9.2 0 4.6-2.4 8-6.7 9.4-1.9.6-3.5 1.4-3.5 1.7 0 .4 2.7 4.1 6 8.4 3.3 4.2 6 8 6 8.3 0 .3-1.1.6-2.4.6-1.9 0-4.1-2-9.2-8.5-6-7.6-7.1-8.5-10.1-8.5H385v9c0 8.9 0 9-2.5 9H380v-40h9.5c6 0 10.8.5 13 1.4zm43.5.1c0 1.1-1.6 1.5-6.7 1.7l-6.8.3-.3 17.7c-.2 16.9-.3 17.8-2.2 17.8-1.9 0-2-.9-2.2-17.8l-.3-17.7-6.2-.3c-4.7-.2-6.3-.7-6.3-1.7 0-1.3 2.6-1.5 15.5-1.5s15.5.2 15.5 1.5zm34 0c0 1.2-1.8 1.5-10 1.5h-10v14h8c7.3 0 8 .2 8 2s-.7 2-8 2h-8v15h11c9.1 0 11 .3 11 1.5 0 1.3-2.2 1.5-13.5 1.5H455v-39h12.5c10.4 0 12.5.2 12.5 1.5zm-116 50c0 1.2-1.5 1.5-7.5 1.5H349v10h6c4.7 0 6 .3 6 1.5s-1.3 1.5-6 1.5h-6v10h7.5c6 0 7.5.3 7.5 1.5s-1.7 1.5-9 1.5h-9v-29h9c7.3 0 9 .3 9 1.5zm26 0c0 1.1-1.2 1.5-4.5 1.5H381v12.5c0 11.8-.1 12.5-2 12.5s-2-.7-2-12.5V216h-4.5c-4.2 0-5.4-.7-3.8-2.3.3-.4 5.3-.7 11-.7 8.5 0 10.3.3 10.3 1.5zm-98.7 40c5.2 2.5 7.2 9 4.6 14.8-1.6 3.5-5.3 5-13.9 5.7l-7.5.5-.3 8.2c-.3 8.1-.3 8.3-2.7 8.3H269v-19.3c0-10.7.3-19.7.8-20.1 1.2-1.3 17.9.1 21.5 1.9zm39 17.6l7.5 20-2.6-.3c-2.2-.2-3-1.3-4.7-5.8l-2.1-5.5h-18.9l-2 5.7c-1.6 4.7-2.4 5.8-4.2 5.8h-2.2l1.8-5.3c1.7-4.6 9.1-24.6 12-32 .9-2.2 1.7-2.7 4.4-2.7h3.4l7.6 20.1zM369 254c0 1.8-.7 2-6.5 2H356v36h-5v-36h-6.5c-5.8 0-6.5-.2-6.5-2 0-1.9.7-2 15.5-2s15.5.1 15.5 2zm31.8 0c5.6 2 8 10 4.6 14.9-.9 1.2-3.4 3-5.5 3.9l-3.8 1.7 6.5 8.7c6.4 8.8 6.5 8.8 3.7 8.8-2.4 0-3.9-1.4-9.3-8.5-6.1-8-6.7-8.5-10.2-8.5H383v8.5c0 8.4 0 8.5-2.5 8.5H378v-40.3l9.8.6c5.3.3 11.2 1.1 13 1.7zm23.2 18v20h-5v-40h5v20zm38-18c0 1.9-.7 2-10 2h-10v14h8c6.4 0 8 .3 8 1.5s-1.6 1.5-8 1.5h-8v15h10.5c9.8 0 10.5.1 10.5 2s-.7 2-13.5 2H436v-40h13c12.3 0 13 .1 13 2z"/><path d="M309 173v7h6.3c8.4 0 10.9-1.7 10.5-7.3-.4-5.2-2.9-6.7-11-6.7H309v7zm-1 19.1v8.2l7.2-.6c10.2-.9 14-4 12.4-10.3-.9-3.4-6-5.4-13.6-5.4h-6v8.1zm77-17.6v7.5h4.3c5.4 0 11.1-1.6 12.7-3.6 2-2.3 1.4-7.6-1.1-9.6-1.6-1.3-3.9-1.8-9-1.8H385v7.5zm-110.5 82.7c-.3.8-.5 4.6-.3 8.4l.3 6.9 5.8-.1c7.8-.2 11.1-2.5 11.5-8.2.3-3.4-.1-4.3-2.2-5.7-3.6-2.4-14.4-3.3-15.1-1.3zm40.4 9.6l-3.6 9.7 3.9.3c2.1.2 5.6.2 7.7 0l3.9-.3-3.7-9.7c-2-5.4-3.8-9.8-4.1-9.8-.3 0-2.1 4.4-4.1 9.8zm68.8-10.1c-.4.3-.7 4-.7 8.1v7.5l6.5-.6c7.7-.7 10.3-1.9 11.6-5.4 1.4-3.6-.8-7.5-5.1-9-3.8-1.3-11.3-1.7-12.3-.6zM200 355.2c108.5 147.5 177.8 241.2 178.6 241.5 1.4.5 18.9-13.6 18.8-15.1-.1-.6-39.4-54.4-87.4-119.6l-87.2-118.5-15.9-.3-15.9-.2 9 12.2zm41.2-11.3c.6 1.8 167.3 228 168 228.1 1.6 0 17.9-16.4 17.4-17.6-.3-.8-35.3-48.6-77.7-106.4l-77.2-105h-15.4c-8.5 0-15.3.4-15.1.9zm50.7 3.3c12.7 18.3 144.9 196.3 145.7 196.3 1 0 17.4-17.3 17.4-18.4-.1-.3-30.1-41.3-66.9-91.1l-66.8-90.5-16.2-.3-16.2-.3 3 4.3zm107.3 77.5c33 45 61.3 83.5 62.8 85.6l2.8 3.8 8-10.2c4.9-6.1 7.8-10.7 7.4-11.5-.4-.6-25.2-34.5-55.2-75.2l-54.5-74.1-15.7-.1h-15.7l60.1 81.7zm-10.6-80.5c1 1.5 99.4 134.9 100.5 136.2.7.8 14.9-19.6 14.9-21.4 0-.5-19-26.7-42.3-58.2l-42.3-57.3-15.8-.3c-12.4-.2-15.6 0-15 1zm49.5.8c7.6 11.3 73.6 99.8 74.3 99.6 1.5-.4 13.4-23 12.8-24.2-.4-.7-13.3-18.3-28.7-39.3l-28-38-15.9-.1c-15.7 0-15.8 0-14.5 2zm70.9 29c12.6 17.1 23.2 31.1 23.7 31.2.8.1 11.1-22.7 11.2-24.9.1-.7-5.9-9.4-13.1-19.3l-13.3-18h-31.4l22.9 31zm28.7-27.2c1.5 2.1 4.8 6.6 7.3 10 2.5 3.4 4.8 6.2 5.1 6.2.6 0 5.9-16.7 5.9-18.8 0-.9-2.8-1.2-10.6-1.2h-10.6l2.9 3.8zM186.8 365c12.2 35.2 31.7 73.8 54.5 108 28.8 43.2 72 90 111 120.4 9.5 7.3 12 9 10 6.3-.6-.6-40.1-54.3-87.8-119.2-47.7-64.9-87.4-118.7-88.2-119.5-1-1.1-.8 0 .5 4z"/></svg>