<svg xmlns="http://www.w3.org/2000/svg" width="1503" height="4" viewBox="0 0 1503.7001 4"><path fill="#40D940" d="M0 0h3.8v4H0z"/><path fill="#9F3" d="M3.8 0h3.8v4H3.8z"/><path fill="#40D940" d="M7.6 0h3.8v4H7.6z"/><path fill="#9F3" d="M11.4 0h3.8v4h-3.8z"/><path fill="#40D940" d="M15.3 0h3.8v4h-3.8z"/><path fill="#9F3" d="M19.1 0h3.8v4h-3.8z"/><path fill="#FFF" d="M22.9 0h3.8v4h-3.8z"/><path fill="#9F3" d="M26.7 0h3.8v4h-3.8z"/><path fill="#FFF" d="M30.5 0h3.8v4h-3.8z"/><path fill="#9F3" d="M34.3 0h3.8v4h-3.8z"/><path fill="#FFF" d="M38.2 0H42v4h-3.8z"/><path fill="#9F3" d="M42 0h3.8v4H42z"/><path fill="#FFF" d="M45.8 0h3.8v4h-3.8z"/><path fill="#9F3" d="M49.6 0h3.8v4h-3.8z"/><path fill="#FFF" d="M53.4 0h3.8v4h-3.8z"/><path fill="#9F3" d="M57.2 0H61v4h-3.8z"/><path fill="#FFF" d="M61.1 0h3.8v4h-3.8z"/><path fill="#9F3" d="M64.9 0h3.8v4h-3.8z"/><path fill="#DCE3E8" d="M68.7 0h3.8v4h-3.8z"/><path fill="#536571" d="M72.5 0h3.8v4h-3.8z"/><path fill="#DCE3E8" d="M76.3 0h3.8v4h-3.8z"/><path fill="#536571" d="M80.1 0h3.8v4h-3.8z"/><path fill="#DCE3E8" d="M84 0h3.8v4H84z"/><path fill="#536571" d="M87.8 0h3.8v4h-3.8z"/><path fill="#DCE3E8" d="M91.6 0h3.8v4h-3.8z"/><path fill="#536571" d="M95.4 0h3.8v4h-3.8z"/><path fill="#DCE3E8" d="M99.2 0h3.8v4h-3.8z"/><path fill="#40D940" d="M103 0h3.8v4H103z"/><path fill="#DCE3E8" d="M106.9 0h3.8v4h-3.8z"/><path fill="#40D940" d="M110.7 0h3.8v4h-3.8z"/><path fill="#DCE3E8" d="M114.5 0h3.8v4h-3.8z"/><path fill="#40D940" d="M118.3 0h3.8v4h-3.8z"/><path fill="#DCE3E8" d="M122.1 0h3.8v4h-3.8z"/><path fill="#40D940" d="M125.9 0h3.8v4h-3.8z"/><path fill="#9F3" d="M129.8 0h3.8v4h-3.8z"/><path fill="#40D940" d="M133.6 0h3.8v4h-3.8z"/><path fill="#FFF" d="M137.4 0h3.8v4h-3.8z"/><path fill="#40D940" d="M141.2 0h3.8v4h-3.8z"/><path fill="#FFF" d="M145 0h3.8v4H145z"/><path fill="#40D940" d="M148.8 0h3.8v4h-3.8z"/><path fill="#028B02" d="M152.7 0h3.8v4h-3.8z"/><path fill="#9F3" d="M156.5 0h3.8v4h-3.8z"/><path fill="#FFF" d="M160.3 0h3.8v4h-3.8z"/><path fill="#273C46" d="M164.1 0h3.8v4h-3.8z"/><path fill="#9F3" d="M167.9 0h3.8v4h-3.8z"/><path fill="#273C46" d="M171.7 0h3.8v4h-3.8z"/><path fill="#9F3" d="M175.6 0h3.8v4h-3.8z"/><path fill="#273C46" d="M179.4 0h3.8v4h-3.8z"/><path fill="#DCE3E8" d="M183.2 0h3.8v4h-3.8z"/><path fill="#028B02" d="M187 0h3.8v4H187z"/><path fill="#9F3" d="M190.8 0h3.8v4h-3.8z"/><path fill="#40D940" d="M194.6 0h3.8v4h-3.8z"/><path fill="#DCE3E8" d="M198.5 0h3.8v4h-3.8z"/><path fill="#40D940" d="M202.3 0h3.8v4h-3.8z"/><path fill="#FFF" d="M206.1 0h3.8v4h-3.8z"/><path fill="#40D940" d="M209.9 0h3.8v4h-3.8z"/><path fill="#FFF" d="M213.7 0h3.8v4h-3.8z"/><path fill="#028B02" d="M217.5 0h3.8v4h-3.8z"/><path fill="#FFF" d="M221.4 0h3.8v4h-3.8z"/><path fill="#028B02" d="M225.2 0h3.8v4h-3.8z"/><path fill="#FFF" d="M229 0h3.8v4H229z"/><path fill="#028B02" d="M232.8 0h3.8v4h-3.8z"/><path fill="#CF9" d="M236.6 0h3.8v4h-3.8z"/><path fill="#028B02" d="M240.4 0h3.8v4h-3.8z"/><path fill="#CF9" d="M244.3 0h3.8v4h-3.8z"/><path fill="#028B02" d="M248.1 0h3.8v4h-3.8z"/><path fill="#CF9" d="M251.9 0h3.8v4h-3.8z"/><path d="M255.7 0h3.8v4h-3.8z"/><path fill="#40D940" d="M259.5 0h3.8v4h-3.8z"/><path d="M263.3 0h3.8v4h-3.8z"/><path fill="#40D940" d="M267.2 0h3.8v4h-3.8z"/><path d="M271 0h3.8v4H271z"/><path fill="#40D940" d="M274.8 0h3.8v4h-3.8z"/><path fill="#FFF" d="M278.6 0h3.8v4h-3.8z"/><path fill="#40D940" d="M282.4 0h3.8v4h-3.8z"/><path fill="#028B02" d="M286.2 0h3.8v4h-3.8z"/><path fill="#40D940" d="M290.1 0h3.8v4h-3.8z"/><path fill="#028B02" d="M293.9 0h3.8v4h-3.8z"/><path fill="#40D940" d="M297.7 0h3.8v4h-3.8z"/><path fill="#028B02" d="M301.5 0h3.8v4h-3.8z"/><path fill="#CF9" d="M305.3 0h3.8v4h-3.8z"/><path fill="#9F3" d="M309.1 0h3.8v4h-3.8z"/><path fill="#FFF" d="M312.9 0h3.8v4h-3.8z"/><path fill="#9F3" d="M316.8 0h3.8v4h-3.8z"/><path fill="#FFF" d="M320.6 0h3.8v4h-3.8z"/><path fill="#9F3" d="M324.4 0h3.8v4h-3.8z"/><path fill="#C3D1DC" d="M328.2 0h3.8v4h-3.8z"/><path fill="#9F3" d="M332 0h3.8v4H332z"/><path fill="#C3D1DC" d="M335.8 0h3.8v4h-3.8z"/><path fill="#9F3" d="M339.7 0h3.8v4h-3.8z"/><path fill="#C3D1DC" d="M343.5 0h3.8v4h-3.8z"/><path fill="#9F3" d="M347.3 0h3.8v4h-3.8z"/><path fill="#FFF" d="M351.1 0h3.8v4h-3.8z"/><path fill="#40D940" d="M354.9 0h3.8v4h-3.8z"/><path fill="#FFF" d="M358.7 0h3.8v4h-3.8z"/><path fill="#40D940" d="M362.6 0h3.8v4h-3.8z"/><path fill="#FFF" d="M366.4 0h3.8v4h-3.8z"/><path fill="#40D940" d="M370.2 0h3.8v4h-3.8z"/><path fill="#FFF" d="M374 0h3.8v4H374z"/><path fill="#028B02" d="M377.8 0h3.8v4h-3.8z"/><path fill="#FFF" d="M381.6 0h3.8v4h-3.8z"/><path fill="#028B02" d="M385.5 0h3.8v4h-3.8z"/><path fill="#FFF" d="M389.3 0h3.8v4h-3.8z"/><path fill="#028B02" d="M393.1 0h3.8v4h-3.8z"/><path fill="#FFF" d="M396.9 0h3.8v4h-3.8z"/><path fill="#028B02" d="M400.7 0h3.8v4h-3.8z"/><path fill="#FFF" d="M404.5 0h3.8v4h-3.8z"/><path fill="#028B02" d="M408.4 0h3.8v4h-3.8z"/><path fill="#40D940" d="M412.2 0h3.8v4h-3.8z"/><path fill="#028B02" d="M416 0h3.8v4H416z"/><path fill="#40D940" d="M419.8 0h3.8v4h-3.8z"/><path fill="#FFF" d="M423.6 0h3.8v4h-3.8z"/><path fill="#40D940" d="M427.4 0h3.8v4h-3.8z"/><path fill="#9F3" d="M431.3 0h3.8v4h-3.8z"/><path fill="#FFF" d="M435.1 0h3.8v4h-3.8z"/><path fill="#40D940" d="M438.9 0h3.8v4h-3.8z"/><path fill="#FFF" d="M442.7 0h3.8v4h-3.8z"/><path fill="#40D940" d="M446.5 0h3.8v4h-3.8z"/><path fill="#FFF" d="M450.3 0h3.8v4h-3.8z"/><path fill="#40D940" d="M454.2 0h3.8v4h-3.8z"/><path fill="#9F3" d="M458 0h3.8v4H458z"/><path fill="#40D940" d="M461.8 0h3.8v4h-3.8z"/><path fill="#9F3" d="M465.6 0h3.8v4h-3.8z"/><path fill="#40D940" d="M469.4 0h3.8v4h-3.8z"/><path fill="#9F3" d="M473.2 0h3.8v4h-3.8z"/><path fill="#40D940" d="M477.1 0h3.8v4h-3.8z"/><path fill="#CF9" d="M480.9 0h3.8v4h-3.8z"/><path fill="#40D940" d="M484.7 0h3.8v4h-3.8z"/><path fill="#CF9" d="M488.5 0h3.8v4h-3.8z"/><path fill="#40D940" d="M492.3 0h3.8v4h-3.8z"/><path fill="#CF9" d="M496.1 0h3.8v4h-3.8z"/><path fill="#40D940" d="M500 0h3.8v4H500z"/><path fill="#028B02" d="M503.8 0h3.8v4h-3.8z"/><path fill="#40D940" d="M507.6 0h3.8v4h-3.8z"/><path fill="#028B02" d="M511.4 0h3.8v4h-3.8z"/><path fill="#9F3" d="M515.2 0h3.8v4h-3.8z"/><path fill="#1E5E02" d="M519 0h3.8v4H519z"/><path fill="#9F3" d="M522.9 0h3.8v4h-3.8z"/><path fill="#1E5E02" d="M526.7 0h3.8v4h-3.8z"/><path fill="#9F3" d="M530.5 0h3.8v4h-3.8z"/><path fill="#1E5E02" d="M534.3 0h3.8v4h-3.8z"/><path fill="#9F3" d="M538.1 0h3.8v4h-3.8z"/><path fill="#1E5E02" d="M541.9 0h3.8v4h-3.8z"/><path fill="#9F3" d="M545.8 0h3.8v4h-3.8z"/><path fill="#DCE3E8" d="M549.6 0h3.8v4h-3.8z"/><path fill="#1E5E02" d="M553.4 0h3.8v4h-3.8z"/><path fill="#40D940" d="M557.2 0h3.8v4h-3.8z"/><path fill="#1E5E02" d="M561 0h3.8v4H561z"/><path fill="#40D940" d="M564.8 0h3.8v4h-3.8z"/><path fill="#1E5E02" d="M568.7 0h3.8v4h-3.8z"/><path fill="#9F3" d="M572.5 0h3.8v4h-3.8z"/><path fill="#1E5E02" d="M576.3 0h3.8v4h-3.8z"/><path fill="#028B02" d="M580.1 0h3.8v4h-3.8z"/><path fill="#9F3" d="M583.9 0h3.8v4h-3.8z"/><path fill="#028B02" d="M587.7 0h3.8v4h-3.8z"/><path fill="#40D940" d="M591.5 0h3.8v4h-3.8z"/><path fill="#028B02" d="M595.4 0h3.8v4h-3.8z"/><path fill="#40D940" d="M599.2 0h3.8v4h-3.8z"/><path fill="#028B02" d="M603 0h3.8v4H603z"/><path fill="#40D940" d="M606.8 0h3.8v4h-3.8z"/><path fill="#DCE3E8" d="M610.6 0h3.8v4h-3.8z"/><path fill="#40D940" d="M614.4 0h3.8v4h-3.8z"/><path fill="#DCE3E8" d="M618.3 0h3.8v4h-3.8z"/><path fill="#40D940" d="M622.1 0h3.8v4h-3.8z"/><path fill="#DCE3E8" d="M625.9 0h3.8v4h-3.8z"/><path fill="#40D940" d="M629.7 0h3.8v4h-3.8z"/><path fill="#FFF" d="M633.5 0h3.8v4h-3.8z"/><path fill="#40D940" d="M637.3 0h3.8v4h-3.8z"/><path d="M641.2 0h3.8v4h-3.8z"/><path fill="#40D940" d="M645 0h3.8v4H645z"/><path d="M648.8 0h3.8v4h-3.8z"/><path fill="#9F3" d="M652.6 0h3.8v4h-3.8z"/><path d="M656.4 0h3.8v4h-3.8z"/><path fill="#9F3" d="M660.2 0h3.8v4h-3.8z"/><path fill="#1E5E02" d="M664.1 0h3.8v4h-3.8z"/><path fill="#9F3" d="M667.9 0h3.8v4h-3.8z"/><path fill="#028B02" d="M671.7 0h3.8v4h-3.8z"/><path fill="#9F3" d="M675.5 0h3.8v4h-3.8z"/><path fill="#028B02" d="M679.3 0h3.8v4h-3.8z"/><path fill="#40D940" d="M683.1 0h3.8v4h-3.8z"/><path fill="#028B02" d="M687 0h3.8v4H687z"/><path fill="#40D940" d="M690.8 0h3.8v4h-3.8z"/><path fill="#028B02" d="M694.6 0h3.8v4h-3.8z"/><path fill="#40D940" d="M698.4 0h3.8v4h-3.8z"/><path fill="#028B02" d="M702.2 0h3.8v4h-3.8z"/><path fill="#40D940" d="M706 0h3.8v4H706z"/><path fill="#9F3" d="M709.9 0h3.8v4h-3.8z"/><path fill="#028B02" d="M713.7 0h3.8v4h-3.8z"/><path fill="#9F3" d="M717.5 0h3.8v4h-3.8z"/><path fill="#028B02" d="M721.3 0h3.8v4h-3.8z"/><path fill="#CF9" d="M725.1 0h3.8v4h-3.8z"/><path fill="#028B02" d="M728.9 0h3.8v4h-3.8z"/><path fill="#CF9" d="M732.8 0h3.8v4h-3.8z"/><path fill="#028B02" d="M736.6 0h3.8v4h-3.8z"/><path fill="#CF9" d="M740.4 0h3.8v4h-3.8z"/><path d="M744.2 0h3.8v4h-3.8z"/><path fill="#40D940" d="M748 0h3.8v4H748z"/><path d="M751.8 0h3.8v4h-3.8z"/><path fill="#40D940" d="M755.7 0h3.8v4h-3.8z"/><path d="M759.5 0h3.8v4h-3.8z"/><path fill="#40D940" d="M763.3 0h3.8v4h-3.8z"/><path fill="#FFF" d="M767.1 0h3.8v4h-3.8z"/><path fill="#40D940" d="M770.9 0h3.8v4h-3.8z"/><path fill="#FFF" d="M774.7 0h3.8v4h-3.8z"/><path fill="#40D940" d="M778.6 0h3.8v4h-3.8z"/><path fill="#FFF" d="M782.4 0h3.8v4h-3.8z"/><path fill="#40D940" d="M786.2 0h3.8v4h-3.8z"/><path fill="#FFF" d="M790 0h3.8v4H790z"/><path fill="#40D940" d="M793.8 0h3.8v4h-3.8z"/><path fill="#9F3" d="M797.6 0h3.8v4h-3.8z"/><path fill="#40D940" d="M801.5 0h3.8v4h-3.8z"/><path fill="#9F3" d="M805.3 0h3.8v4h-3.8z"/><path fill="#40D940" d="M809.1 0h3.8v4h-3.8z"/><path fill="#9F3" d="M812.9 0h3.8v4h-3.8z"/><path fill="#40D940" d="M816.7 0h3.8v4h-3.8z"/><path fill="#9F3" d="M820.5 0h3.8v4h-3.8z"/><path fill="#40D940" d="M824.4 0h3.8v4h-3.8z"/><path fill="#9F3" d="M828.2 0h3.8v4h-3.8z"/><path fill="#40D940" d="M832 0h3.8v4H832z"/><path fill="#9F3" d="M835.8 0h3.8v4h-3.8z"/><path d="M839.6 0h3.8v4h-3.8z"/><path fill="#40D940" d="M843.4 0h3.8v4h-3.8z"/><path d="M847.3 0h3.8v4h-3.8z"/><path fill="#40D940" d="M851.1 0h3.8v4h-3.8z"/><path d="M854.9 0h3.8v4h-3.8z"/><path fill="#40D940" d="M858.7 0h3.8v4h-3.8z"/><path d="M862.5 0h3.8v4h-3.8z"/><path fill="#40D940" d="M866.3 0h3.8v4h-3.8z"/><path d="M870.2 0h3.8v4h-3.8z"/><path fill="#40D940" d="M874 0h3.8v4H874z"/><path d="M877.8 0h3.8v4h-3.8z"/><path fill="#40D940" d="M881.6 0h3.8v4h-3.8z"/><path fill="#9F3" d="M885.4 0h3.8v4h-3.8z"/><path fill="#40D940" d="M889.2 0h3.8v4h-3.8z"/><path fill="#9F3" d="M893 0h3.8v4H893z"/><path fill="#697983" d="M896.9 0h3.8v4h-3.8z"/><path fill="#40D940" d="M900.7 0h3.8v4h-3.8z"/><path fill="#697983" d="M904.5 0h3.8v4h-3.8z"/><path fill="#DCE3E8" d="M908.3 0h3.8v4h-3.8z"/><path fill="#697983" d="M912.1 0h3.8v4h-3.8z"/><path fill="#DCE3E8" d="M915.9 0h3.8v4h-3.8z"/><path fill="#697983" d="M919.8 0h3.8v4h-3.8z"/><path fill="#DCE3E8" d="M923.6 0h3.8v4h-3.8z"/><path fill="#697983" d="M927.4 0h3.8v4h-3.8z"/><path fill="#DCE3E8" d="M931.2 0h3.8v4h-3.8z"/><path fill="#697983" d="M935 0h3.8v4H935z"/><path fill="#9F3" d="M938.8 0h3.8v4h-3.8z"/><path fill="#697983" d="M942.7 0h3.8v4h-3.8z"/><path fill="#9F3" d="M946.5 0h3.8v4h-3.8z"/><path fill="#697983" d="M950.3 0h3.8v4h-3.8z"/><path fill="#9F3" d="M954.1 0h3.8v4h-3.8z"/><path fill="#697983" d="M957.9 0h3.8v4h-3.8z"/><path fill="#9F3" d="M961.7 0h3.8v4h-3.8z"/><path fill="#FFF" d="M965.6 0h3.8v4h-3.8z"/><path fill="#9F3" d="M969.4 0h3.8v4h-3.8z"/><path fill="#FFF" d="M973.2 0h3.8v4h-3.8z"/><path fill="#FFF" d="M973.2 0h3.8v4h-3.8z"/><path fill="#40D940" d="M977 0h3.8v4H977z"/><path fill="#FFF" d="M980.8 0h3.8v4h-3.8z"/><path fill="#40D940" d="M984.6 0h3.8v4h-3.8z"/><path fill="#9F3" d="M988.5 0h3.8v4h-3.8z"/><path fill="#FFF" d="M992.3 0h3.8v4h-3.8z"/><path fill="#9F3" d="M996.1 0h3.8v4h-3.8z"/><path fill="#FFF" d="M999.9 0h3.8v4h-3.8z"/><path fill="#9F3" d="M1003.7 0h3.8v4h-3.8z"/><path fill="#FFF" d="M1007.5 0h3.8v4h-3.8z"/><path fill="#9F3" d="M1011.4 0h3.8v4h-3.8z"/><path fill="#FFF" d="M1015.2 0h3.8v4h-3.8z"/><path fill="#9F3" d="M1019 0h3.8v4h-3.8z"/><path fill="#FFF" d="M1022.8 0h3.8v4h-3.8z"/><path fill="#9F3" d="M1026.6 0h3.8v4h-3.8z"/><path fill="#028B02" d="M1030.4 0h3.8v4h-3.8z"/><path fill="#9F3" d="M1034.3 0h3.8v4h-3.8z"/><path fill="#028B02" d="M1038.1 0h3.8v4h-3.8z"/><path fill="#9F3" d="M1041.9 0h3.8v4h-3.8z"/><path fill="#DCE3E8" d="M1045.7 0h3.8v4h-3.8z"/><path fill="#028B02" d="M1049.5 0h3.8v4h-3.8z"/><path fill="#DCE3E8" d="M1053.3 0h3.8v4h-3.8z"/><path fill="#028B02" d="M1057.2 0h3.8v4h-3.8z"/><path fill="#DCE3E8" d="M1061 0h3.8v4h-3.8z"/><path fill="#40D940" d="M1064.8 0h3.8v4h-3.8z"/><path fill="#028B02" d="M1068.6 0h3.8v4h-3.8z"/><path fill="#40D940" d="M1072.4 0h3.8v4h-3.8z"/><path fill="#028B02" d="M1076.2 0h3.8v4h-3.8z"/><path fill="#40D940" d="M1080.1 0h3.8v4h-3.8z"/><path fill="#9F3" d="M1083.9 0h3.8v4h-3.8z"/><path fill="#40D940" d="M1087.7 0h3.8v4h-3.8z"/><path fill="#9F3" d="M1091.5 0h3.8v4h-3.8z"/><path fill="#40D940" d="M1095.3 0h3.8v4h-3.8z"/><path fill="#FFF" d="M1099.1 0h3.8v4h-3.8z"/><path fill="#40D940" d="M1103 0h3.8v4h-3.8z"/><path fill="#FFF" d="M1106.8 0h3.8v4h-3.8z"/><path fill="#40D940" d="M1110.6 0h3.8v4h-3.8z"/><path fill="#FFF" d="M1114.4 0h3.8v4h-3.8z"/><path fill="#40D940" d="M1118.2 0h3.8v4h-3.8z"/><path fill="#9F3" d="M1122 0h3.8v4h-3.8z"/><path fill="#40D940" d="M1125.9 0h3.8v4h-3.8z"/><path fill="#9F3" d="M1129.7 0h3.8v4h-3.8z"/><path fill="#273C46" d="M1133.5 0h3.8v4h-3.8z"/><path fill="#9F3" d="M1137.3 0h3.8v4h-3.8z"/><path fill="#273C46" d="M1141.1 0h3.8v4h-3.8z"/><path fill="#9F3" d="M1144.9 0h3.8v4h-3.8z"/><path fill="#273C46" d="M1148.8 0h3.8v4h-3.8z"/><path fill="#DCE3E8" d="M1152.6 0h3.8v4h-3.8z"/><path fill="#273C46" d="M1156.4 0h3.8v4h-3.8z"/><path fill="#DCE3E8" d="M1160.2 0h3.8v4h-3.8z"/><path fill="#40D940" d="M1164 0h3.8v4h-3.8z"/><path fill="#DCE3E8" d="M1167.8 0h3.8v4h-3.8z"/><path fill="#40D940" d="M1171.7 0h3.8v4h-3.8z"/><path fill="#DCE3E8" d="M1175.5 0h3.8v4h-3.8z"/><path fill="#40D940" d="M1179.3 0h3.8v4h-3.8z"/><path fill="#FFF" d="M1183.1 0h3.8v4h-3.8z"/><path fill="#028B02" d="M1186.9 0h3.8v4h-3.8z"/><path fill="#FFF" d="M1190.7 0h3.8v4h-3.8z"/><path fill="#028B02" d="M1194.5 0h3.8v4h-3.8z"/><path fill="#FFF" d="M1198.4 0h3.8v4h-3.8z"/><path fill="#028B02" d="M1202.2 0h3.8v4h-3.8z"/><path fill="#CF9" d="M1206 0h3.8v4h-3.8z"/><path fill="#028B02" d="M1209.8 0h3.8v4h-3.8z"/><path fill="#CF9" d="M1213.6 0h3.8v4h-3.8z"/><path fill="#028B02" d="M1217.4 0h3.8v4h-3.8z"/><path fill="#CF9" d="M1221.3 0h3.8v4h-3.8z"/><path d="M1225.1 0h3.8v4h-3.8z"/><path fill="#40D940" d="M1228.9 0h3.8v4h-3.8z"/><path d="M1232.7 0h3.8v4h-3.8z"/><path fill="#9F3" d="M1236.5 0h3.8v4h-3.8z"/><path d="M1240.3 0h3.8v4h-3.8z"/><path fill="#9F3" d="M1244.2 0h3.8v4h-3.8z"/><path fill="#FFF" d="M1248 0h3.8v4h-3.8z"/><path fill="#9F3" d="M1251.8 0h3.8v4h-3.8z"/><path fill="#FFF" d="M1255.6 0h3.8v4h-3.8z"/><path fill="#40D940" d="M1259.4 0h3.8v4h-3.8z"/><path fill="#028B02" d="M1263.2 0h3.8v4h-3.8z"/><path fill="#40D940" d="M1267.1 0h3.8v4h-3.8z"/><path fill="#028B02" d="M1270.9 0h3.8v4h-3.8z"/><path fill="#CF9" d="M1274.7 0h3.8v4h-3.8z"/><path fill="#9F3" d="M1278.5 0h3.8v4h-3.8z"/><path fill="#028B02" d="M1282.3 0h3.8v4h-3.8z"/><path fill="#9F3" d="M1286.1 0h3.8v4h-3.8z"/><path fill="#028B02" d="M1290 0h3.8v4h-3.8z"/><path fill="#9F3" d="M1293.8 0h3.8v4h-3.8z"/><path fill="#C3D1DC" d="M1297.6 0h3.8v4h-3.8z"/><path fill="#9F3" d="M1301.4 0h3.8v4h-3.8z"/><path fill="#C3D1DC" d="M1305.2 0h3.8v4h-3.8z"/><path fill="#9F3" d="M1309 0h3.8v4h-3.8z"/><path fill="#028B02" d="M1312.9 0h3.8v4h-3.8z"/><path fill="#9F3" d="M1316.7 0h3.8v4h-3.8z"/><path fill="#028B02" d="M1320.5 0h3.8v4h-3.8z"/><path fill="#40D940" d="M1324.3 0h3.8v4h-3.8z"/><path fill="#028B02" d="M1328.1 0h3.8v4h-3.8z"/><path fill="#40D940" d="M1331.9 0h3.8v4h-3.8z"/><path fill="#9F3" d="M1335.8 0h3.8v4h-3.8z"/><path fill="#40D940" d="M1339.6 0h3.8v4h-3.8z"/><path d="M1343.4 0h3.8v4h-3.8z"/><path fill="#40D940" d="M1347.2 0h3.8v4h-3.8z"/><path d="M1351 0h3.8v4h-3.8z"/><path fill="#40D940" d="M1354.8 0h3.8v4h-3.8z"/><path d="M1358.7 0h3.8v4h-3.8z"/><path fill="#40D940" d="M1362.5 0h3.8v4h-3.8z"/><path fill="#CF9" d="M1366.3 0h3.8v4h-3.8z"/><path fill="#40D940" d="M1370.1 0h3.8v4h-3.8z"/><path fill="#CF9" d="M1373.9 0h3.8v4h-3.8z"/><path fill="#40D940" d="M1377.7 0h3.8v4h-3.8z"/><path fill="#028B02" d="M1381.6 0h3.8v4h-3.8z"/><path fill="#9F3" d="M1385.4 0h3.8v4h-3.8z"/><path fill="#028B02" d="M1389.2 0h3.8v4h-3.8z"/><path fill="#9F3" d="M1393 0h3.8v4h-3.8z"/><path fill="#FFF" d="M1396.8 0h3.8v4h-3.8z"/><path fill="#028B02" d="M1400.6 0h3.8v4h-3.8z"/><path fill="#FFF" d="M1404.5 0h3.8v4h-3.8z"/><path fill="#028B02" d="M1408.3 0h3.8v4h-3.8z"/><path fill="#40D940" d="M1412.1 0h3.8v4h-3.8z"/><path fill="#FFF" d="M1415.9 0h3.8v4h-3.8z"/><path fill="#40D940" d="M1419.7 0h3.8v4h-3.8z"/><path fill="#DCE3E8" d="M1423.5 0h3.8v4h-3.8z"/><path fill="#40D940" d="M1427.4 0h3.8v4h-3.8z"/><path fill="#028B02" d="M1431.2 0h3.8v4h-3.8z"/><path fill="#40D940" d="M1435 0h3.8v4h-3.8z"/><path fill="#CF9" d="M1438.8 0h3.8v4h-3.8z"/><path fill="#40D940" d="M1442.6 0h3.8v4h-3.8z"/><path fill="#CF9" d="M1446.4 0h3.8v4h-3.8z"/><path fill="#40D940" d="M1450.3 0h3.8v4h-3.8z"/><path fill="#028B02" d="M1454.1 0h3.8v4h-3.8z"/><path fill="#9F3" d="M1457.9 0h3.8v4h-3.8z"/><path fill="#273C46" d="M1461.7 0h3.8v4h-3.8z"/><path fill="#9F3" d="M1465.5 0h3.8v4h-3.8z"/><path fill="#028B02" d="M1469.3 0h3.8v4h-3.8z"/><path fill="#40D940" d="M1473.1 0h3.8v4h-3.8z"/><path fill="#9F3" d="M1477 0h3.8v4h-3.8z"/><path fill="#FFF" d="M1480.8 0h3.8v4h-3.8z"/><path fill="#9F3" d="M1484.6 0h3.8v4h-3.8z"/><path fill="#273C46" d="M1488.4 0h3.8v4h-3.8z"/><path fill="#9F3" d="M1492.2 0h3.8v4h-3.8z"/><path fill="#273C46" d="M1496 0h3.8v4h-3.8z"/><path fill="#9F3" d="M1499.9 0h3.8v4h-3.8z"/></svg>