<?xml version="1.0" encoding="utf-8"?>
<!-- Generator: Adobe Illustrator 19.0.0, SVG Export Plug-In . SVG Version: 6.00 Build 0)  -->
<svg version="1.1" id="Calque_1" xmlns="http://www.w3.org/2000/svg" xmlns:xlink="http://www.w3.org/1999/xlink" x="0px" y="0px"
	 viewBox="0 0 1433.9 4.5" style="enable-background:new 0 0 1433.9 4.5;" xml:space="preserve">
<style type="text/css">
	.st0{fill:#028B02;}
	.st1{fill:#FFFFFF;}
	.st2{fill:#40D941;}
	.st3{fill:#C3D1DC;}
	.st4{fill:#1E5E02;}
	.st5{fill:#DBE2E6;}
	.st6{fill:#CCFF9A;}
	.st7{fill:#99FF33;}
	.st8{fill:#536571;}
	.st9{fill:#CCFF99;}
	.st10{fill:#DCE3E8;}
	.st11{fill:#D5DCE4;}
	.st12{fill:#697983;}
	.st13{fill:#1D1D1B;}
</style>
<polygon id="XMLID_54_" class="st0" points="67,4.5 62.6,0 59.3,0 63.8,4.5 "/>
<polygon id="XMLID_55_" class="st1" points="63.8,4.5 59.3,0 56,0 60.5,4.5 "/>
<polygon id="XMLID_56_" class="st2" points="60.5,4.5 56,0 52.7,0 57.2,4.5 "/>
<polygon id="XMLID_65_" class="st1" points="57.2,4.5 52.7,0 49.4,0 53.9,4.5 "/>
<polygon id="XMLID_45_" class="st2" points="53.9,4.5 49.4,0 46.1,0 50.6,4.5 "/>
<polygon id="XMLID_37_" class="st3" points="50.6,4.5 46.1,0 42.9,0 47.3,4.5 "/>
<polygon id="XMLID_38_" class="st2" points="47.3,4.5 42.9,0 39.6,0 44,4.5 "/>
<polygon id="XMLID_39_" class="st3" points="44,4.5 39.6,0 36.3,0 40.7,4.5 "/>
<polygon id="XMLID_40_" class="st2" points="40.7,4.5 36.3,0 33,0 37.4,4.5 "/>
<polygon id="XMLID_41_" class="st3" points="37.4,4.5 33,0 29.7,0 34.1,4.5 "/>
<polygon id="XMLID_42_" class="st2" points="34.1,4.5 29.7,0 26.4,0 30.8,4.5 "/>
<polygon id="XMLID_43_" class="st3" points="30.8,4.5 26.4,0 23.1,0 27.5,4.5 "/>
<polygon id="XMLID_44_" class="st2" points="27.5,4.5 23.1,0 19.8,0 24.2,4.5 "/>
<polygon id="XMLID_29_" class="st3" points="24.2,4.5 19.8,0 16.5,0 20.9,4.5 "/>
<polygon id="XMLID_30_" points="20.9,4.5 16.5,0 13.2,0 17.6,4.5 "/>
<polygon id="XMLID_31_" class="st3" points="17.6,4.5 13.2,0 9.9,0 14.3,4.5 "/>
<polygon id="XMLID_33_" points="14.3,4.5 9.9,0 6.6,0 11,4.5 "/>
<polygon id="XMLID_34_" class="st1" points="11,4.5 6.6,0 3.3,0 7.7,4.5 "/>
<polygon id="XMLID_35_" points="7.7,4.5 3.3,0 0,0 4.4,4.5 "/>
<polygon id="XMLID_36_" class="st1" points="4.4,4.5 0,0 -3.3,0 1.1,4.5 "/>
<polygon id="XMLID_223_" points="1.1,4.5 -3.3,0 -6.6,0 -2.2,4.5 "/>
<polygon id="XMLID_23_" class="st4" points="139.6,4.5 135.2,0 131.9,0 136.3,4.5 "/>
<polygon id="XMLID_22_" class="st1" points="136.3,4.5 131.9,0 128.6,0 133,4.5 "/>
<polygon id="XMLID_21_" class="st4" points="133,4.5 128.6,0 125.3,0 129.7,4.5 "/>
<polygon id="XMLID_20_" class="st1" points="129.7,4.5 125.3,0 122,0 126.4,4.5 "/>
<polygon id="XMLID_19_" class="st4" points="126.4,4.5 122,0 118.7,0 123.1,4.5 "/>
<polygon id="XMLID_18_" class="st1" points="123.1,4.5 118.7,0 115.4,0 119.8,4.5 "/>
<polygon id="XMLID_17_" class="st4" points="119.8,4.5 115.4,0 112.1,0 116.5,4.5 "/>
<polygon id="XMLID_16_" class="st1" points="116.5,4.5 112.1,0 108.8,0 113.2,4.5 "/>
<polygon id="XMLID_15_" class="st4" points="113.2,4.5 108.8,0 105.5,0 109.9,4.5 "/>
<polygon id="XMLID_14_" class="st1" points="109.9,4.5 105.5,0 102.2,0 106.6,4.5 "/>
<polygon id="XMLID_13_" class="st2" points="106.6,4.5 102.2,0 98.9,0 103.3,4.5 "/>
<polygon id="XMLID_12_" class="st5" points="103.3,4.5 98.9,0 95.6,0 100,4.5 "/>
<polygon id="XMLID_11_" class="st2" points="100,4.5 95.6,0 92.3,0 96.7,4.5 "/>
<polygon id="XMLID_10_" class="st5" points="96.7,4.5 92.3,0 89,0 93.4,4.5 "/>
<polygon id="XMLID_9_" class="st2" points="93.4,4.5 89,0 85.7,0 90.1,4.5 "/>
<polygon id="XMLID_8_" class="st1" points="90.1,4.5 85.7,0 82.4,0 86.8,4.5 "/>
<polygon id="XMLID_7_" class="st0" points="86.8,4.5 82.4,0 79.1,0 83.5,4.5 "/>
<polygon id="XMLID_6_" class="st1" points="83.5,4.5 79.1,0 75.8,0 80.2,4.5 "/>
<polygon id="XMLID_5_" class="st0" points="80.2,4.5 75.8,0 72.5,0 76.9,4.5 "/>
<polygon id="XMLID_4_" class="st1" points="76.9,4.5 72.5,0 69.2,0 73.6,4.5 "/>
<polygon id="XMLID_3_" class="st0" points="73.6,4.5 69.2,0 65.9,0 70.3,4.5 "/>
<polygon id="XMLID_2_" class="st1" points="70.3,4.5 65.9,0 62.6,0 67,4.5 "/>
<polygon id="XMLID_216_" class="st1" points="212.1,4.5 207.7,0 204.4,0 208.8,4.5 "/>
<polygon id="XMLID_215_" class="st2" points="208.8,4.5 204.4,0 201.1,0 205.5,4.5 "/>
<polygon id="XMLID_214_" class="st1" points="205.5,4.5 201.1,0 197.8,0 202.2,4.5 "/>
<polygon id="XMLID_213_" class="st2" points="202.2,4.5 197.8,0 194.5,0 198.9,4.5 "/>
<polygon id="XMLID_212_" class="st1" points="198.9,4.5 194.5,0 191.2,0 195.6,4.5 "/>
<polygon id="XMLID_211_" class="st2" points="195.6,4.5 191.2,0 187.9,0 192.3,4.5 "/>
<polygon id="XMLID_210_" class="st1" points="192.3,4.5 187.9,0 184.6,0 189,4.5 "/>
<polygon id="XMLID_209_" class="st2" points="189,4.5 184.6,0 181.3,0 185.7,4.5 "/>
<polygon id="XMLID_208_" class="st1" points="185.7,4.5 181.3,0 178,0 182.4,4.5 "/>
<polygon id="XMLID_207_" class="st2" points="182.4,4.5 178,0 174.7,0 179.1,4.5 "/>
<polygon id="XMLID_206_" class="st1" points="179.1,4.5 174.7,0 171.4,0 175.8,4.5 "/>
<polygon id="XMLID_205_" class="st2" points="175.8,4.5 171.4,0 168.1,0 172.5,4.5 "/>
<polygon id="XMLID_204_" points="172.5,4.5 168.1,0 164.8,0 169.2,4.5 "/>
<polygon id="XMLID_203_" class="st2" points="169.2,4.5 164.8,0 161.5,0 165.9,4.5 "/>
<polygon id="XMLID_202_" points="165.9,4.5 161.5,0 158.2,0 162.6,4.5 "/>
<polygon id="XMLID_86_" class="st2" points="162.6,4.5 158.2,0 154.9,0 159.3,4.5 "/>
<polygon id="XMLID_85_" points="159.3,4.5 154.9,0 151.6,0 156.1,4.5 "/>
<polygon id="XMLID_83_" class="st6" points="156.1,4.5 151.6,0 148.3,0 152.8,4.5 "/>
<polygon id="XMLID_82_" points="152.8,4.5 148.3,0 145,0 149.5,4.5 "/>
<polygon id="XMLID_81_" class="st6" points="149.5,4.5 145,0 141.7,0 146.2,4.5 "/>
<polygon id="XMLID_80_" class="st4" points="146.2,4.5 141.7,0 138.4,0 142.9,4.5 "/>
<polygon id="XMLID_79_" class="st6" points="142.9,4.5 138.4,0 135.2,0 139.6,4.5 "/>
<polygon id="XMLID_64_" class="st7" points="284.6,4.5 280.2,0 276.9,0 281.3,4.5 "/>
<polygon id="XMLID_63_" class="st1" points="281.3,4.5 276.9,0 273.6,0 278,4.5 "/>
<polygon id="XMLID_62_" class="st7" points="278,4.5 273.6,0 270.3,0 274.7,4.5 "/>
<polygon id="XMLID_61_" class="st1" points="274.7,4.5 270.3,0 267,0 271.4,4.5 "/>
<polygon id="XMLID_60_" class="st7" points="271.4,4.5 267,0 263.7,0 268.1,4.5 "/>
<polygon id="XMLID_59_" class="st1" points="268.1,4.5 263.7,0 260.4,0 264.8,4.5 "/>
<polygon id="XMLID_58_" class="st7" points="264.8,4.5 260.4,0 257.1,0 261.5,4.5 "/>
<polygon id="XMLID_57_" class="st1" points="261.5,4.5 257.1,0 253.8,0 258.2,4.5 "/>
<polygon id="XMLID_53_" class="st7" points="258.2,4.5 253.8,0 250.5,0 254.9,4.5 "/>
<polygon id="XMLID_52_" class="st1" points="254.9,4.5 250.5,0 247.2,0 251.6,4.5 "/>
<polygon id="XMLID_51_" class="st7" points="251.6,4.5 247.2,0 243.9,0 248.3,4.5 "/>
<polygon id="XMLID_50_" class="st2" points="248.3,4.5 243.9,0 240.6,0 245.1,4.5 "/>
<polygon id="XMLID_49_" class="st7" points="245.1,4.5 240.6,0 237.3,0 241.8,4.5 "/>
<polygon id="XMLID_48_" class="st2" points="241.8,4.5 237.3,0 234,0 238.5,4.5 "/>
<polygon id="XMLID_47_" class="st7" points="238.5,4.5 234,0 230.7,0 235.2,4.5 "/>
<polygon id="XMLID_46_" class="st2" points="235.2,4.5 230.7,0 227.5,0 231.9,4.5 "/>
<polygon id="XMLID_32_" class="st7" points="231.9,4.5 227.5,0 224.2,0 228.6,4.5 "/>
<polygon id="XMLID_28_" class="st2" points="228.6,4.5 224.2,0 220.9,0 225.3,4.5 "/>
<polygon id="XMLID_27_" class="st7" points="225.3,4.5 220.9,0 217.6,0 222,4.5 "/>
<polygon id="XMLID_26_" class="st2" points="222,4.5 217.6,0 214.3,0 218.7,4.5 "/>
<polygon id="XMLID_25_" class="st7" points="218.7,4.5 214.3,0 211,0 215.4,4.5 "/>
<polygon id="XMLID_24_" class="st2" points="215.4,4.5 211,0 207.7,0 212.1,4.5 "/>
<polygon id="XMLID_306_" class="st2" points="357.1,4.5 352.7,0 349.4,0 353.8,4.5 "/>
<polygon id="XMLID_305_" class="st3" points="353.8,4.5 349.4,0 346.1,0 350.5,4.5 "/>
<polygon id="XMLID_304_" class="st2" points="350.5,4.5 346.1,0 342.8,0 347.2,4.5 "/>
<polygon id="XMLID_303_" class="st3" points="347.2,4.5 342.8,0 339.5,0 343.9,4.5 "/>
<polygon id="XMLID_302_" class="st2" points="343.9,4.5 339.5,0 336.2,0 340.6,4.5 "/>
<polygon id="XMLID_301_" class="st3" points="340.6,4.5 336.2,0 332.9,0 337.4,4.5 "/>
<polygon id="XMLID_300_" class="st2" points="337.4,4.5 332.9,0 329.6,0 334.1,4.5 "/>
<polygon id="XMLID_299_" class="st3" points="334.1,4.5 329.6,0 326.3,0 330.8,4.5 "/>
<polygon id="XMLID_298_" class="st2" points="330.8,4.5 326.3,0 323,0 327.5,4.5 "/>
<polygon id="XMLID_297_" class="st3" points="327.5,4.5 323,0 319.8,0 324.2,4.5 "/>
<polygon id="XMLID_296_" class="st8" points="324.2,4.5 319.8,0 316.5,0 320.9,4.5 "/>
<polygon id="XMLID_295_" class="st3" points="320.9,4.5 316.5,0 313.2,0 317.6,4.5 "/>
<polygon id="XMLID_294_" class="st8" points="317.6,4.5 313.2,0 309.9,0 314.3,4.5 "/>
<polygon id="XMLID_293_" class="st3" points="314.3,4.5 309.9,0 306.6,0 311,4.5 "/>
<polygon id="XMLID_292_" class="st8" points="311,4.5 306.6,0 303.3,0 307.7,4.5 "/>
<polygon id="XMLID_291_" class="st3" points="307.7,4.5 303.3,0 300,0 304.4,4.5 "/>
<polygon id="XMLID_290_" class="st8" points="304.4,4.5 300,0 296.7,0 301.1,4.5 "/>
<polygon id="XMLID_289_" class="st3" points="301.1,4.5 296.7,0 293.4,0 297.8,4.5 "/>
<polygon id="XMLID_288_" class="st8" points="297.8,4.5 293.4,0 290.1,0 294.5,4.5 "/>
<polygon id="XMLID_287_" class="st3" points="294.5,4.5 290.1,0 286.8,0 291.2,4.5 "/>
<polygon id="XMLID_286_" class="st7" points="291.2,4.5 286.8,0 283.5,0 287.9,4.5 "/>
<polygon id="XMLID_285_" class="st3" points="287.9,4.5 283.5,0 280.2,0 284.6,4.5 "/>
<polygon id="XMLID_284_" class="st2" points="429.7,4.5 425.2,0 421.9,0 426.4,4.5 "/>
<polygon id="XMLID_283_" class="st1" points="426.4,4.5 421.9,0 418.6,0 423.1,4.5 "/>
<polygon id="XMLID_282_" class="st2" points="423.1,4.5 418.6,0 415.3,0 419.8,4.5 "/>
<polygon id="XMLID_281_" class="st1" points="419.8,4.5 415.3,0 412,0 416.5,4.5 "/>
<polygon id="XMLID_280_" class="st2" points="416.5,4.5 412,0 408.8,0 413.2,4.5 "/>
<polygon id="XMLID_279_" class="st1" points="413.2,4.5 408.8,0 405.5,0 409.9,4.5 "/>
<polygon id="XMLID_278_" class="st2" points="409.9,4.5 405.5,0 402.2,0 406.6,4.5 "/>
<polygon id="XMLID_277_" class="st1" points="406.6,4.5 402.2,0 398.9,0 403.3,4.5 "/>
<polygon id="XMLID_276_" class="st2" points="403.3,4.5 398.9,0 395.6,0 400,4.5 "/>
<polygon id="XMLID_275_" class="st1" points="400,4.5 395.6,0 392.3,0 396.7,4.5 "/>
<polygon id="XMLID_274_" class="st2" points="396.7,4.5 392.3,0 389,0 393.4,4.5 "/>
<polygon id="XMLID_273_" class="st1" points="393.4,4.5 389,0 385.7,0 390.1,4.5 "/>
<polygon id="XMLID_272_" class="st2" points="390.1,4.5 385.7,0 382.4,0 386.8,4.5 "/>
<polygon id="XMLID_271_" class="st3" points="386.8,4.5 382.4,0 379.1,0 383.5,4.5 "/>
<polygon id="XMLID_270_" class="st2" points="383.5,4.5 379.1,0 375.8,0 380.2,4.5 "/>
<polygon id="XMLID_269_" class="st3" points="380.2,4.5 375.8,0 372.5,0 376.9,4.5 "/>
<polygon id="XMLID_268_" class="st2" points="376.9,4.5 372.5,0 369.2,0 373.6,4.5 "/>
<polygon id="XMLID_267_" class="st3" points="373.6,4.5 369.2,0 365.9,0 370.3,4.5 "/>
<polygon id="XMLID_266_" class="st2" points="370.3,4.5 365.9,0 362.6,0 367,4.5 "/>
<polygon id="XMLID_265_" class="st3" points="367,4.5 362.6,0 359.3,0 363.7,4.5 "/>
<polygon id="XMLID_264_" class="st2" points="363.7,4.5 359.3,0 356,0 360.4,4.5 "/>
<polygon id="XMLID_263_" class="st3" points="360.4,4.5 356,0 352.7,0 357.1,4.5 "/>
<polygon id="XMLID_262_" class="st1" points="502.2,4.5 497.8,0 494.5,0 498.9,4.5 "/>
<polygon id="XMLID_261_" points="498.9,4.5 494.5,0 491.2,0 495.6,4.5 "/>
<polygon id="XMLID_260_" class="st2" points="495.6,4.5 491.2,0 487.9,0 492.3,4.5 "/>
<polygon id="XMLID_259_" points="492.3,4.5 487.9,0 484.6,0 489,4.5 "/>
<polygon id="XMLID_258_" class="st2" points="489,4.5 484.6,0 481.3,0 485.7,4.5 "/>
<polygon id="XMLID_257_" points="485.7,4.5 481.3,0 478,0 482.4,4.5 "/>
<polygon id="XMLID_256_" class="st2" points="482.4,4.5 478,0 474.7,0 479.1,4.5 "/>
<polygon id="XMLID_255_" class="st1" points="479.1,4.5 474.7,0 471.4,0 475.8,4.5 "/>
<polygon id="XMLID_254_" class="st7" points="475.8,4.5 471.4,0 468.1,0 472.5,4.5 "/>
<polygon id="XMLID_253_" class="st1" points="472.5,4.5 468.1,0 464.8,0 469.2,4.5 "/>
<polygon id="XMLID_252_" class="st7" points="469.2,4.5 464.8,0 461.5,0 465.9,4.5 "/>
<polygon id="XMLID_251_" class="st9" points="465.9,4.5 461.5,0 458.2,0 462.6,4.5 "/>
<polygon id="XMLID_250_" class="st7" points="462.6,4.5 458.2,0 454.9,0 459.3,4.5 "/>
<polygon id="XMLID_249_" class="st9" points="459.3,4.5 454.9,0 451.6,0 456,4.5 "/>
<polygon id="XMLID_248_" class="st1" points="456,4.5 451.6,0 448.3,0 452.7,4.5 "/>
<polygon id="XMLID_247_" class="st9" points="452.7,4.5 448.3,0 445,0 449.4,4.5 "/>
<polygon id="XMLID_246_" class="st2" points="449.4,4.5 445,0 441.7,0 446.1,4.5 "/>
<polygon id="XMLID_245_" class="st9" points="446.1,4.5 441.7,0 438.4,0 442.8,4.5 "/>
<polygon id="XMLID_244_" class="st2" points="442.8,4.5 438.4,0 435.1,0 439.5,4.5 "/>
<polygon id="XMLID_243_" class="st9" points="439.5,4.5 435.1,0 431.8,0 436.2,4.5 "/>
<polygon id="XMLID_242_" class="st2" points="436.2,4.5 431.8,0 428.5,0 432.9,4.5 "/>
<polygon id="XMLID_241_" class="st1" points="432.9,4.5 428.5,0 425.2,0 429.7,4.5 "/>
<polygon id="XMLID_240_" class="st1" points="574.7,4.5 570.3,0 567,0 571.4,4.5 "/>
<polygon id="XMLID_239_" class="st0" points="571.4,4.5 567,0 563.7,0 568.1,4.5 "/>
<polygon id="XMLID_238_" class="st1" points="568.1,4.5 563.7,0 560.4,0 564.8,4.5 "/>
<polygon id="XMLID_237_" class="st0" points="564.8,4.5 560.4,0 557.1,0 561.5,4.5 "/>
<polygon id="XMLID_236_" class="st2" points="561.5,4.5 557.1,0 553.8,0 558.2,4.5 "/>
<polygon id="XMLID_235_" class="st0" points="558.2,4.5 553.8,0 550.5,0 554.9,4.5 "/>
<polygon id="XMLID_234_" class="st2" points="554.9,4.5 550.5,0 547.2,0 551.6,4.5 "/>
<polygon id="XMLID_233_" class="st0" points="551.6,4.5 547.2,0 543.9,0 548.3,4.5 "/>
<polygon id="XMLID_232_" class="st2" points="548.3,4.5 543.9,0 540.6,0 545,4.5 "/>
<polygon id="XMLID_231_" class="st9" points="545,4.5 540.6,0 537.3,0 541.7,4.5 "/>
<polygon id="XMLID_230_" class="st1" points="541.7,4.5 537.3,0 534,0 538.4,4.5 "/>
<polygon id="XMLID_229_" class="st9" points="538.4,4.5 534,0 530.7,0 535.1,4.5 "/>
<polygon id="XMLID_228_" class="st1" points="535.1,4.5 530.7,0 527.4,0 531.8,4.5 "/>
<polygon id="XMLID_227_" class="st9" points="531.8,4.5 527.4,0 524.1,0 528.5,4.5 "/>
<polygon id="XMLID_226_" class="st1" points="528.5,4.5 524.1,0 520.8,0 525.2,4.5 "/>
<polygon id="XMLID_224_" class="st9" points="525.2,4.5 520.8,0 517.5,0 522,4.5 "/>
<polygon id="XMLID_222_" class="st7" points="522,4.5 517.5,0 514.2,0 518.7,4.5 "/>
<polygon id="XMLID_221_" class="st1" points="518.7,4.5 514.2,0 510.9,0 515.4,4.5 "/>
<polygon id="XMLID_220_" class="st7" points="515.4,4.5 510.9,0 507.6,0 512.1,4.5 "/>
<polygon id="XMLID_219_" class="st1" points="512.1,4.5 507.6,0 504.3,0 508.8,4.5 "/>
<polygon id="XMLID_218_" class="st7" points="508.8,4.5 504.3,0 501.1,0 505.5,4.5 "/>
<polygon id="XMLID_217_" points="505.5,4.5 501.1,0 497.8,0 502.2,4.5 "/>
<polygon id="XMLID_484_" class="st5" points="647.2,4.5 642.8,0 639.5,0 643.9,4.5 "/>
<polygon id="XMLID_483_" class="st0" points="643.9,4.5 639.5,0 636.2,0 640.6,4.5 "/>
<polygon id="XMLID_482_" class="st5" points="640.6,4.5 636.2,0 632.9,0 637.3,4.5 "/>
<polygon id="XMLID_481_" class="st2" points="637.3,4.5 632.9,0 629.6,0 634,4.5 "/>
<polygon id="XMLID_480_" class="st5" points="634,4.5 629.6,0 626.3,0 630.7,4.5 "/>
<polygon id="XMLID_479_" class="st2" points="630.7,4.5 626.3,0 623,0 627.4,4.5 "/>
<polygon id="XMLID_478_" class="st10" points="627.4,4.5 623,0 619.7,0 624.1,4.5 "/>
<polygon id="XMLID_477_" class="st2" points="624.1,4.5 619.7,0 616.4,0 620.8,4.5 "/>
<polygon id="XMLID_476_" class="st10" points="620.8,4.5 616.4,0 613.1,0 617.5,4.5 "/>
<polygon id="XMLID_475_" class="st2" points="617.5,4.5 613.1,0 609.8,0 614.2,4.5 "/>
<polygon id="XMLID_474_" class="st10" points="614.2,4.5 609.8,0 606.5,0 611,4.5 "/>
<polygon id="XMLID_473_" class="st2" points="611,4.5 606.5,0 603.2,0 607.7,4.5 "/>
<polygon id="XMLID_472_" class="st10" points="607.7,4.5 603.2,0 599.9,0 604.4,4.5 "/>
<polygon id="XMLID_471_" class="st2" points="604.4,4.5 599.9,0 596.6,0 601.1,4.5 "/>
<polygon id="XMLID_470_" class="st10" points="601.1,4.5 596.6,0 593.4,0 597.8,4.5 "/>
<polygon id="XMLID_469_" points="597.8,4.5 593.4,0 590.1,0 594.5,4.5 "/>
<polygon id="XMLID_468_" class="st10" points="594.5,4.5 590.1,0 586.8,0 591.2,4.5 "/>
<polygon id="XMLID_467_" points="591.2,4.5 586.8,0 583.5,0 587.9,4.5 "/>
<polygon id="XMLID_466_" class="st1" points="587.9,4.5 583.5,0 580.2,0 584.6,4.5 "/>
<polygon id="XMLID_465_" points="584.6,4.5 580.2,0 576.9,0 581.3,4.5 "/>
<polygon id="XMLID_464_" class="st1" points="581.3,4.5 576.9,0 573.6,0 578,4.5 "/>
<polygon id="XMLID_463_" points="578,4.5 573.6,0 570.3,0 574.7,4.5 "/>
<polygon id="XMLID_462_" class="st4" points="719.7,4.5 715.3,0 712,0 716.4,4.5 "/>
<polygon id="XMLID_461_" class="st7" points="716.4,4.5 712,0 708.7,0 713.1,4.5 "/>
<polygon id="XMLID_460_" class="st5" points="713.1,4.5 708.7,0 705.4,0 709.8,4.5 "/>
<polygon id="XMLID_459_" points="709.8,4.5 705.4,0 702.1,0 706.5,4.5 "/>
<polygon id="XMLID_458_" class="st5" points="706.5,4.5 702.1,0 698.8,0 703.3,4.5 "/>
<polygon id="XMLID_457_" points="703.3,4.5 698.8,0 695.5,0 700,4.5 "/>
<polygon id="XMLID_456_" class="st5" points="700,4.5 695.5,0 692.2,0 696.7,4.5 "/>
<polygon id="XMLID_455_" points="696.7,4.5 692.2,0 688.9,0 693.4,4.5 "/>
<polygon id="XMLID_454_" class="st5" points="693.4,4.5 688.9,0 685.7,0 690.1,4.5 "/>
<polygon id="XMLID_453_" points="690.1,4.5 685.7,0 682.4,0 686.8,4.5 "/>
<polygon id="XMLID_452_" class="st5" points="686.8,4.5 682.4,0 679.1,0 683.5,4.5 "/>
<polygon id="XMLID_451_" points="683.5,4.5 679.1,0 675.8,0 680.2,4.5 "/>
<polygon id="XMLID_450_" class="st7" points="680.2,4.5 675.8,0 672.5,0 676.9,4.5 "/>
<polygon id="XMLID_449_" class="st4" points="676.9,4.5 672.5,0 669.2,0 673.6,4.5 "/>
<polygon id="XMLID_448_" class="st7" points="673.6,4.5 669.2,0 665.9,0 670.3,4.5 "/>
<polygon id="XMLID_447_" class="st4" points="670.3,4.5 665.9,0 662.6,0 667,4.5 "/>
<polygon id="XMLID_446_" class="st5" points="667,4.5 662.6,0 659.3,0 663.7,4.5 "/>
<polygon id="XMLID_445_" class="st4" points="663.7,4.5 659.3,0 656,0 660.4,4.5 "/>
<polygon id="XMLID_444_" class="st5" points="660.4,4.5 656,0 652.7,0 657.1,4.5 "/>
<polygon id="XMLID_443_" class="st0" points="657.1,4.5 652.7,0 649.4,0 653.8,4.5 "/>
<polygon id="XMLID_442_" class="st5" points="653.8,4.5 649.4,0 646.1,0 650.5,4.5 "/>
<polygon id="XMLID_441_" class="st0" points="650.5,4.5 646.1,0 642.8,0 647.2,4.5 "/>
<polygon id="XMLID_440_" class="st1" points="792.3,4.5 787.8,0 784.5,0 789,4.5 "/>
<polygon id="XMLID_439_" class="st2" points="789,4.5 784.5,0 781.2,0 785.7,4.5 "/>
<polygon id="XMLID_438_" class="st7" points="785.7,4.5 781.2,0 777.9,0 782.4,4.5 "/>
<polygon id="XMLID_437_" class="st2" points="782.4,4.5 777.9,0 774.7,0 779.1,4.5 "/>
<polygon id="XMLID_436_" class="st7" points="779.1,4.5 774.7,0 771.4,0 775.8,4.5 "/>
<polygon id="XMLID_435_" class="st1" points="775.8,4.5 771.4,0 768.1,0 772.5,4.5 "/>
<polygon id="XMLID_434_" class="st7" points="772.5,4.5 768.1,0 764.8,0 769.2,4.5 "/>
<polygon id="XMLID_433_" class="st1" points="769.2,4.5 764.8,0 761.5,0 765.9,4.5 "/>
<polygon id="XMLID_432_" class="st7" points="765.9,4.5 761.5,0 758.2,0 762.6,4.5 "/>
<polygon id="XMLID_431_" class="st1" points="762.6,4.5 758.2,0 754.9,0 759.3,4.5 "/>
<polygon id="XMLID_430_" class="st4" points="759.3,4.5 754.9,0 751.6,0 756,4.5 "/>
<polygon id="XMLID_429_" class="st1" points="756,4.5 751.6,0 748.3,0 752.7,4.5 "/>
<polygon id="XMLID_428_" class="st4" points="752.7,4.5 748.3,0 745,0 749.4,4.5 "/>
<polygon id="XMLID_427_" class="st7" points="749.4,4.5 745,0 741.7,0 746.1,4.5 "/>
<polygon id="XMLID_426_" class="st4" points="746.1,4.5 741.7,0 738.4,0 742.8,4.5 "/>
<polygon id="XMLID_425_" class="st7" points="742.8,4.5 738.4,0 735.1,0 739.5,4.5 "/>
<polygon id="XMLID_424_" class="st4" points="739.5,4.5 735.1,0 731.8,0 736.2,4.5 "/>
<polygon id="XMLID_423_" class="st7" points="736.2,4.5 731.8,0 728.5,0 732.9,4.5 "/>
<polygon id="XMLID_422_" class="st4" points="732.9,4.5 728.5,0 725.2,0 729.6,4.5 "/>
<polygon id="XMLID_421_" class="st7" points="729.6,4.5 725.2,0 721.9,0 726.3,4.5 "/>
<polygon id="XMLID_420_" class="st4" points="726.3,4.5 721.9,0 718.6,0 723,4.5 "/>
<polygon id="XMLID_419_" class="st7" points="723,4.5 718.6,0 715.3,0 719.7,4.5 "/>
<polygon id="XMLID_418_" class="st1" points="864.8,4.5 860.4,0 857.1,0 861.5,4.5 "/>
<polygon id="XMLID_417_" class="st9" points="861.5,4.5 857.1,0 853.8,0 858.2,4.5 "/>
<polygon id="XMLID_416_" class="st4" points="858.2,4.5 853.8,0 850.5,0 854.9,4.5 "/>
<polygon id="XMLID_415_" class="st9" points="854.9,4.5 850.5,0 847.2,0 851.6,4.5 "/>
<polygon id="XMLID_414_" class="st4" points="851.6,4.5 847.2,0 843.9,0 848.3,4.5 "/>
<polygon id="XMLID_413_" class="st9" points="848.3,4.5 843.9,0 840.6,0 845,4.5 "/>
<polygon id="XMLID_412_" class="st4" points="845,4.5 840.6,0 837.3,0 841.7,4.5 "/>
<polygon id="XMLID_411_" class="st1" points="841.7,4.5 837.3,0 834,0 838.4,4.5 "/>
<polygon id="XMLID_410_" class="st4" points="838.4,4.5 834,0 830.7,0 835.1,4.5 "/>
<polygon id="XMLID_409_" class="st1" points="835.1,4.5 830.7,0 827.4,0 831.8,4.5 "/>
<polygon id="XMLID_408_" class="st4" points="831.8,4.5 827.4,0 824.1,0 828.5,4.5 "/>
<polygon id="XMLID_407_" class="st2" points="828.5,4.5 824.1,0 820.8,0 825.2,4.5 "/>
<polygon id="XMLID_406_" class="st4" points="825.2,4.5 820.8,0 817.5,0 821.9,4.5 "/>
<polygon id="XMLID_405_" class="st2" points="821.9,4.5 817.5,0 814.2,0 818.6,4.5 "/>
<polygon id="XMLID_404_" class="st1" points="818.6,4.5 814.2,0 810.9,0 815.3,4.5 "/>
<polygon id="XMLID_403_" class="st2" points="815.3,4.5 810.9,0 807.6,0 812,4.5 "/>
<polygon id="XMLID_402_" class="st1" points="812,4.5 807.6,0 804.3,0 808.7,4.5 "/>
<polygon id="XMLID_401_" class="st2" points="808.7,4.5 804.3,0 801,0 805.4,4.5 "/>
<polygon id="XMLID_400_" class="st1" points="805.4,4.5 801,0 797.7,0 802.1,4.5 "/>
<polygon id="XMLID_399_" class="st2" points="802.1,4.5 797.7,0 794.4,0 798.8,4.5 "/>
<polygon id="XMLID_398_" class="st1" points="798.8,4.5 794.4,0 791.1,0 795.6,4.5 "/>
<polygon id="XMLID_397_" class="st2" points="795.6,4.5 791.1,0 787.8,0 792.3,4.5 "/>
<polygon id="XMLID_396_" class="st11" points="937.3,4.5 932.9,0 929.6,0 934,4.5 "/>
<polygon id="XMLID_395_" class="st2" points="934,4.5 929.6,0 926.3,0 930.7,4.5 "/>
<polygon id="XMLID_394_" class="st11" points="930.7,4.5 926.3,0 923,0 927.4,4.5 "/>
<polygon id="XMLID_393_" class="st2" points="927.4,4.5 923,0 919.7,0 924.1,4.5 "/>
<polygon id="XMLID_392_" class="st11" points="924.1,4.5 919.7,0 916.4,0 920.8,4.5 "/>
<polygon id="XMLID_391_" class="st2" points="920.8,4.5 916.4,0 913.1,0 917.5,4.5 "/>
<polygon id="XMLID_390_" class="st11" points="917.5,4.5 913.1,0 909.8,0 914.2,4.5 "/>
<polygon id="XMLID_389_" class="st2" points="914.2,4.5 909.8,0 906.5,0 910.9,4.5 "/>
<polygon id="XMLID_388_" class="st11" points="910.9,4.5 906.5,0 903.2,0 907.6,4.5 "/>
<polygon id="XMLID_387_" class="st2" points="907.6,4.5 903.2,0 899.9,0 904.3,4.5 "/>
<polygon id="XMLID_386_" class="st1" points="904.3,4.5 899.9,0 896.6,0 901,4.5 "/>
<polygon id="XMLID_385_" class="st2" points="901,4.5 896.6,0 893.3,0 897.7,4.5 "/>
<polygon id="XMLID_384_" points="897.7,4.5 893.3,0 890,0 894.4,4.5 "/>
<polygon id="XMLID_383_" class="st1" points="894.4,4.5 890,0 886.7,0 891.1,4.5 "/>
<polygon id="XMLID_382_" points="891.1,4.5 886.7,0 883.4,0 887.9,4.5 "/>
<polygon id="XMLID_381_" class="st1" points="887.9,4.5 883.4,0 880.1,0 884.6,4.5 "/>
<polygon id="XMLID_380_" points="884.6,4.5 880.1,0 876.8,0 881.3,4.5 "/>
<polygon id="XMLID_379_" class="st1" points="881.3,4.5 876.8,0 873.5,0 878,4.5 "/>
<polygon id="XMLID_378_" points="878,4.5 873.5,0 870.2,0 874.7,4.5 "/>
<polygon id="XMLID_377_" class="st9" points="874.7,4.5 870.2,0 867,0 871.4,4.5 "/>
<polygon id="XMLID_376_" points="871.4,4.5 867,0 863.7,0 868.1,4.5 "/>
<polygon id="XMLID_375_" class="st9" points="868.1,4.5 863.7,0 860.4,0 864.8,4.5 "/>
<polygon id="XMLID_374_" class="st1" points="1009.8,4.5 1005.4,0 1002.1,0 1006.5,4.5 "/>
<polygon id="XMLID_373_" class="st5" points="1006.5,4.5 1002.1,0 998.8,0 1003.2,4.5 "/>
<polygon id="XMLID_372_" class="st1" points="1003.2,4.5 998.8,0 995.5,0 999.9,4.5 "/>
<polygon id="XMLID_371_" class="st5" points="999.9,4.5 995.5,0 992.2,0 996.6,4.5 "/>
<polygon id="XMLID_370_" class="st7" points="996.6,4.5 992.2,0 988.9,0 993.3,4.5 "/>
<polygon id="XMLID_369_" class="st5" points="993.3,4.5 988.9,0 985.6,0 990,4.5 "/>
<polygon id="XMLID_368_" class="st7" points="990,4.5 985.6,0 982.3,0 986.7,4.5 "/>
<polygon id="XMLID_367_" class="st1" points="986.7,4.5 982.3,0 979,0 983.4,4.5 "/>
<polygon id="XMLID_366_" class="st7" points="983.4,4.5 979,0 975.7,0 980.1,4.5 "/>
<polygon id="XMLID_365_" class="st4" points="980.1,4.5 975.7,0 972.4,0 976.9,4.5 "/>
<polygon id="XMLID_364_" class="st7" points="976.9,4.5 972.4,0 969.1,0 973.6,4.5 "/>
<polygon id="XMLID_363_" class="st4" points="973.6,4.5 969.1,0 965.8,0 970.3,4.5 "/>
<polygon id="XMLID_362_" class="st7" points="970.3,4.5 965.8,0 962.5,0 967,4.5 "/>
<polygon id="XMLID_361_" class="st4" points="967,4.5 962.5,0 959.3,0 963.7,4.5 "/>
<polygon id="XMLID_360_" class="st1" points="963.7,4.5 959.3,0 956,0 960.4,4.5 "/>
<polygon id="XMLID_359_" class="st4" points="960.4,4.5 956,0 952.7,0 957.1,4.5 "/>
<polygon id="XMLID_358_" class="st1" points="957.1,4.5 952.7,0 949.4,0 953.8,4.5 "/>
<polygon id="XMLID_357_" class="st4" points="953.8,4.5 949.4,0 946.1,0 950.5,4.5 "/>
<polygon id="XMLID_356_" class="st1" points="950.5,4.5 946.1,0 942.8,0 947.2,4.5 "/>
<polygon id="XMLID_355_" class="st4" points="947.2,4.5 942.8,0 939.5,0 943.9,4.5 "/>
<polygon id="XMLID_354_" class="st1" points="943.9,4.5 939.5,0 936.2,0 940.6,4.5 "/>
<polygon id="XMLID_353_" class="st4" points="940.6,4.5 936.2,0 932.9,0 937.3,4.5 "/>
<polygon id="XMLID_352_" class="st2" points="1082.3,4.5 1077.9,0 1074.6,0 1079,4.5 "/>
<polygon id="XMLID_351_" class="st7" points="1079,4.5 1074.6,0 1071.3,0 1075.7,4.5 "/>
<polygon id="XMLID_350_" class="st2" points="1075.7,4.5 1071.3,0 1068,0 1072.4,4.5 "/>
<polygon id="XMLID_349_" class="st7" points="1072.4,4.5 1068,0 1064.7,0 1069.2,4.5 "/>
<polygon id="XMLID_348_" class="st2" points="1069.2,4.5 1064.7,0 1061.4,0 1065.9,4.5 "/>
<polygon id="XMLID_347_" class="st1" points="1065.9,4.5 1061.4,0 1058.1,0 1062.6,4.5 "/>
<polygon id="XMLID_346_" class="st2" points="1062.6,4.5 1058.1,0 1054.8,0 1059.3,4.5 "/>
<polygon id="XMLID_345_" class="st1" points="1059.3,4.5 1054.8,0 1051.6,0 1056,4.5 "/>
<polygon id="XMLID_344_" class="st2" points="1056,4.5 1051.6,0 1048.3,0 1052.7,4.5 "/>
<polygon id="XMLID_343_" class="st1" points="1052.7,4.5 1048.3,0 1045,0 1049.4,4.5 "/>
<polygon id="XMLID_342_" class="st2" points="1049.4,4.5 1045,0 1041.7,0 1046.1,4.5 "/>
<polygon id="XMLID_341_" class="st1" points="1046.1,4.5 1041.7,0 1038.4,0 1042.8,4.5 "/>
<polygon id="XMLID_340_" class="st2" points="1042.8,4.5 1038.4,0 1035.1,0 1039.5,4.5 "/>
<polygon id="XMLID_339_" class="st5" points="1039.5,4.5 1035.1,0 1031.8,0 1036.2,4.5 "/>
<polygon id="XMLID_338_" class="st2" points="1036.2,4.5 1031.8,0 1028.5,0 1032.9,4.5 "/>
<polygon id="XMLID_337_" class="st5" points="1032.9,4.5 1028.5,0 1025.2,0 1029.6,4.5 "/>
<polygon id="XMLID_336_" class="st2" points="1029.6,4.5 1025.2,0 1021.9,0 1026.3,4.5 "/>
<polygon id="XMLID_335_" class="st5" points="1026.3,4.5 1021.9,0 1018.6,0 1023,4.5 "/>
<polygon id="XMLID_334_" class="st2" points="1023,4.5 1018.6,0 1015.3,0 1019.7,4.5 "/>
<polygon id="XMLID_333_" class="st5" points="1019.7,4.5 1015.3,0 1012,0 1016.4,4.5 "/>
<polygon id="XMLID_332_" class="st2" points="1016.4,4.5 1012,0 1008.7,0 1013.1,4.5 "/>
<polygon id="XMLID_331_" class="st5" points="1013.1,4.5 1008.7,0 1005.4,0 1009.8,4.5 "/>
<polygon id="XMLID_330_" class="st5" points="1154.9,4.5 1150.4,0 1147.1,0 1151.6,4.5 "/>
<polygon id="XMLID_329_" class="st1" points="1151.6,4.5 1147.1,0 1143.8,0 1148.3,4.5 "/>
<polygon id="XMLID_328_" class="st5" points="1148.3,4.5 1143.8,0 1140.6,0 1145,4.5 "/>
<polygon id="XMLID_327_" class="st7" points="1145,4.5 1140.6,0 1137.3,0 1141.7,4.5 "/>
<polygon id="XMLID_326_" class="st5" points="1141.7,4.5 1137.3,0 1134,0 1138.4,4.5 "/>
<polygon id="XMLID_325_" class="st7" points="1138.4,4.5 1134,0 1130.7,0 1135.1,4.5 "/>
<polygon id="XMLID_324_" class="st1" points="1135.1,4.5 1130.7,0 1127.4,0 1131.8,4.5 "/>
<polygon id="XMLID_323_" class="st7" points="1131.8,4.5 1127.4,0 1124.1,0 1128.5,4.5 "/>
<polygon id="XMLID_322_" class="st1" points="1128.5,4.5 1124.1,0 1120.8,0 1125.2,4.5 "/>
<polygon id="XMLID_321_" class="st7" points="1125.2,4.5 1120.8,0 1117.5,0 1121.9,4.5 "/>
<polygon id="XMLID_320_" class="st1" points="1121.9,4.5 1117.5,0 1114.2,0 1118.6,4.5 "/>
<polygon id="XMLID_319_" class="st7" points="1118.6,4.5 1114.2,0 1110.9,0 1115.3,4.5 "/>
<polygon id="XMLID_318_" class="st1" points="1115.3,4.5 1110.9,0 1107.6,0 1112,4.5 "/>
<polygon id="XMLID_317_" class="st7" points="1112,4.5 1107.6,0 1104.3,0 1108.7,4.5 "/>
<polygon id="XMLID_316_" class="st1" points="1108.7,4.5 1104.3,0 1101,0 1105.4,4.5 "/>
<polygon id="XMLID_315_" class="st7" points="1105.4,4.5 1101,0 1097.7,0 1102.1,4.5 "/>
<polygon id="XMLID_314_" class="st1" points="1102.1,4.5 1097.7,0 1094.4,0 1098.8,4.5 "/>
<polygon id="XMLID_313_" class="st7" points="1098.8,4.5 1094.4,0 1091.1,0 1095.5,4.5 "/>
<polygon id="XMLID_312_" class="st1" points="1095.5,4.5 1091.1,0 1087.8,0 1092.2,4.5 "/>
<polygon id="XMLID_311_" class="st7" points="1092.2,4.5 1087.8,0 1084.5,0 1088.9,4.5 "/>
<polygon id="XMLID_310_" class="st1" points="1088.9,4.5 1084.5,0 1081.2,0 1085.6,4.5 "/>
<polygon id="XMLID_309_" class="st7" points="1085.6,4.5 1081.2,0 1077.9,0 1082.3,4.5 "/>
<polygon id="XMLID_661_" class="st5" points="1227.4,4.5 1223,0 1219.7,0 1224.1,4.5 "/>
<polygon id="XMLID_660_" class="st2" points="1224.1,4.5 1219.7,0 1216.4,0 1220.8,4.5 "/>
<polygon id="XMLID_659_" class="st5" points="1220.8,4.5 1216.4,0 1213.1,0 1217.5,4.5 "/>
<polygon id="XMLID_658_" class="st2" points="1217.5,4.5 1213.1,0 1209.8,0 1214.2,4.5 "/>
<polygon id="XMLID_657_" class="st5" points="1214.2,4.5 1209.8,0 1206.5,0 1210.9,4.5 "/>
<polygon id="XMLID_656_" class="st2" points="1210.9,4.5 1206.5,0 1203.2,0 1207.6,4.5 "/>
<polygon id="XMLID_655_" class="st5" points="1207.6,4.5 1203.2,0 1199.9,0 1204.3,4.5 "/>
<polygon id="XMLID_654_" class="st2" points="1204.3,4.5 1199.9,0 1196.6,0 1201,4.5 "/>
<polygon id="XMLID_653_" class="st5" points="1201,4.5 1196.6,0 1193.3,0 1197.7,4.5 "/>
<polygon id="XMLID_652_" class="st2" points="1197.7,4.5 1193.3,0 1190,0 1194.4,4.5 "/>
<polygon id="XMLID_651_" class="st5" points="1194.4,4.5 1190,0 1186.7,0 1191.1,4.5 "/>
<polygon id="XMLID_650_" class="st2" points="1191.1,4.5 1186.7,0 1183.4,0 1187.8,4.5 "/>
<polygon id="XMLID_649_" class="st5" points="1187.8,4.5 1183.4,0 1180.1,0 1184.5,4.5 "/>
<polygon id="XMLID_648_" class="st12" points="1184.5,4.5 1180.1,0 1176.8,0 1181.2,4.5 "/>
<polygon id="XMLID_647_" class="st5" points="1181.2,4.5 1176.8,0 1173.5,0 1177.9,4.5 "/>
<polygon id="XMLID_646_" class="st12" points="1177.9,4.5 1173.5,0 1170.2,0 1174.6,4.5 "/>
<polygon id="XMLID_645_" class="st5" points="1174.6,4.5 1170.2,0 1166.9,0 1171.3,4.5 "/>
<polygon id="XMLID_644_" class="st12" points="1171.3,4.5 1166.9,0 1163.6,0 1168,4.5 "/>
<polygon id="XMLID_643_" class="st5" points="1168,4.5 1163.6,0 1160.3,0 1164.7,4.5 "/>
<polygon id="XMLID_642_" class="st12" points="1164.7,4.5 1160.3,0 1157,0 1161.5,4.5 "/>
<polygon id="XMLID_641_" class="st5" points="1161.5,4.5 1157,0 1153.7,0 1158.2,4.5 "/>
<polygon id="XMLID_640_" class="st1" points="1158.2,4.5 1153.7,0 1150.4,0 1154.9,4.5 "/>
<polygon id="XMLID_639_" class="st7" points="1299.9,4.5 1295.5,0 1292.2,0 1296.6,4.5 "/>
<polygon id="XMLID_638_" class="st9" points="1296.6,4.5 1292.2,0 1288.9,0 1293.3,4.5 "/>
<polygon id="XMLID_637_" class="st7" points="1293.3,4.5 1288.9,0 1285.6,0 1290,4.5 "/>
<polygon id="XMLID_636_" class="st9" points="1290,4.5 1285.6,0 1282.3,0 1286.7,4.5 "/>
<polygon id="XMLID_635_" class="st1" points="1286.7,4.5 1282.3,0 1279,0 1283.4,4.5 "/>
<polygon id="XMLID_634_" class="st9" points="1283.4,4.5 1279,0 1275.7,0 1280.1,4.5 "/>
<polygon id="XMLID_633_" class="st1" points="1280.1,4.5 1275.7,0 1272.4,0 1276.8,4.5 "/>
<polygon id="XMLID_632_" class="st9" points="1276.8,4.5 1272.4,0 1269.1,0 1273.5,4.5 "/>
<polygon id="XMLID_631_" class="st1" points="1273.5,4.5 1269.1,0 1265.8,0 1270.2,4.5 "/>
<polygon id="XMLID_630_" class="st2" points="1270.2,4.5 1265.8,0 1262.5,0 1266.9,4.5 "/>
<polygon id="XMLID_629_" class="st1" points="1266.9,4.5 1262.5,0 1259.2,0 1263.6,4.5 "/>
<polygon id="XMLID_628_" class="st2" points="1263.6,4.5 1259.2,0 1255.9,0 1260.3,4.5 "/>
<polygon id="XMLID_627_" class="st1" points="1260.3,4.5 1255.9,0 1252.6,0 1257,4.5 "/>
<polygon id="XMLID_626_" class="st2" points="1257,4.5 1252.6,0 1249.3,0 1253.8,4.5 "/>
<polygon id="XMLID_625_" class="st5" points="1253.8,4.5 1249.3,0 1246,0 1250.5,4.5 "/>
<polygon id="XMLID_624_" class="st2" points="1250.5,4.5 1246,0 1242.7,0 1247.2,4.5 "/>
<polygon id="XMLID_623_" class="st5" points="1247.2,4.5 1242.7,0 1239.4,0 1243.9,4.5 "/>
<polygon id="XMLID_622_" class="st2" points="1243.9,4.5 1239.4,0 1236.1,0 1240.6,4.5 "/>
<polygon id="XMLID_621_" class="st5" points="1240.6,4.5 1236.1,0 1232.9,0 1237.3,4.5 "/>
<polygon id="XMLID_620_" class="st2" points="1237.3,4.5 1232.9,0 1229.6,0 1234,4.5 "/>
<polygon id="XMLID_619_" class="st5" points="1234,4.5 1229.6,0 1226.3,0 1230.7,4.5 "/>
<polygon id="XMLID_618_" class="st2" points="1230.7,4.5 1226.3,0 1223,0 1227.4,4.5 "/>
<polygon id="XMLID_617_" class="st13" points="1372.4,4.5 1368,0 1364.7,0 1369.1,4.5 "/>
<polygon id="XMLID_616_" class="st2" points="1369.1,4.5 1364.7,0 1361.4,0 1365.8,4.5 "/>
<polygon id="XMLID_615_" class="st13" points="1365.8,4.5 1361.4,0 1358.1,0 1362.5,4.5 "/>
<polygon id="XMLID_614_" class="st2" points="1362.5,4.5 1358.1,0 1354.8,0 1359.2,4.5 "/>
<polygon id="XMLID_613_" class="st1" points="1359.2,4.5 1354.8,0 1351.5,0 1355.9,4.5 "/>
<polygon id="XMLID_612_" class="st2" points="1355.9,4.5 1351.5,0 1348.2,0 1352.6,4.5 "/>
<polygon id="XMLID_611_" class="st1" points="1352.6,4.5 1348.2,0 1344.9,0 1349.3,4.5 "/>
<polygon id="XMLID_610_" class="st2" points="1349.3,4.5 1344.9,0 1341.6,0 1346,4.5 "/>
<polygon id="XMLID_609_" class="st1" points="1346,4.5 1341.6,0 1338.3,0 1342.8,4.5 "/>
<polygon id="XMLID_608_" class="st2" points="1342.8,4.5 1338.3,0 1335,0 1339.5,4.5 "/>
<polygon id="XMLID_607_" class="st1" points="1339.5,4.5 1335,0 1331.7,0 1336.2,4.5 "/>
<polygon id="XMLID_606_" class="st2" points="1336.2,4.5 1331.7,0 1328.4,0 1332.9,4.5 "/>
<polygon id="XMLID_605_" class="st7" points="1332.9,4.5 1328.4,0 1325.2,0 1329.6,4.5 "/>
<polygon id="XMLID_604_" class="st1" points="1329.6,4.5 1325.2,0 1321.9,0 1326.3,4.5 "/>
<polygon id="XMLID_603_" class="st7" points="1326.3,4.5 1321.9,0 1318.6,0 1323,4.5 "/>
<polygon id="XMLID_602_" class="st1" points="1323,4.5 1318.6,0 1315.3,0 1319.7,4.5 "/>
<polygon id="XMLID_601_" class="st7" points="1319.7,4.5 1315.3,0 1312,0 1316.4,4.5 "/>
<polygon id="XMLID_600_" class="st1" points="1316.4,4.5 1312,0 1308.7,0 1313.1,4.5 "/>
<polygon id="XMLID_599_" class="st7" points="1313.1,4.5 1308.7,0 1305.4,0 1309.8,4.5 "/>
<polygon id="XMLID_598_" class="st9" points="1309.8,4.5 1305.4,0 1302.1,0 1306.5,4.5 "/>
<polygon id="XMLID_597_" class="st7" points="1306.5,4.5 1302.1,0 1298.8,0 1303.2,4.5 "/>
<polygon id="XMLID_596_" class="st9" points="1303.2,4.5 1298.8,0 1295.5,0 1299.9,4.5 "/>
<polygon id="XMLID_591_" class="st1" points="1431.8,4.5 1427.3,0 1424,0 1428.5,4.5 "/>
<polygon id="XMLID_590_" class="st7" points="1428.5,4.5 1424,0 1420.7,0 1425.2,4.5 "/>
<polygon id="XMLID_589_" class="st1" points="1425.2,4.5 1420.7,0 1417.4,0 1421.9,4.5 "/>
<polygon id="XMLID_588_" class="st7" points="1421.9,4.5 1417.4,0 1414.2,0 1418.6,4.5 "/>
<polygon id="XMLID_587_" class="st1" points="1418.6,4.5 1414.2,0 1410.9,0 1415.3,4.5 "/>
<polygon id="XMLID_586_" class="st7" points="1415.3,4.5 1410.9,0 1407.6,0 1412,4.5 "/>
<polygon id="XMLID_585_" class="st1" points="1412,4.5 1407.6,0 1404.3,0 1408.7,4.5 "/>
<polygon id="XMLID_584_" class="st7" points="1408.7,4.5 1404.3,0 1401,0 1405.4,4.5 "/>
<polygon id="XMLID_583_" class="st1" points="1405.4,4.5 1401,0 1397.7,0 1402.1,4.5 "/>
<polygon id="XMLID_582_" class="st7" points="1402.1,4.5 1397.7,0 1394.4,0 1398.8,4.5 "/>
<polygon id="XMLID_581_" class="st1" points="1398.8,4.5 1394.4,0 1391.1,0 1395.5,4.5 "/>
<polygon id="XMLID_580_" class="st7" points="1395.5,4.5 1391.1,0 1387.8,0 1392.2,4.5 "/>
<polygon id="XMLID_579_" class="st13" points="1392.2,4.5 1387.8,0 1384.5,0 1388.9,4.5 "/>
<polygon id="XMLID_578_" class="st7" points="1388.9,4.5 1384.5,0 1381.2,0 1385.6,4.5 "/>
<polygon id="XMLID_577_" class="st13" points="1385.6,4.5 1381.2,0 1377.9,0 1382.3,4.5 "/>
<polygon id="XMLID_576_" class="st1" points="1382.3,4.5 1377.9,0 1374.6,0 1379,4.5 "/>
<polygon id="XMLID_575_" class="st13" points="1379,4.5 1374.6,0 1371.3,0 1375.7,4.5 "/>
<polygon id="XMLID_574_" class="st1" points="1375.7,4.5 1371.3,0 1368,0 1372.4,4.5 "/>
<polygon id="XMLID_149_" class="st13" points="1441.6,4.5 1437.2,0 1433.9,0 1438.3,4.5 "/>
<polygon id="XMLID_148_" class="st1" points="1438.3,4.5 1433.9,0 1430.6,0 1435.1,4.5 "/>
<polygon id="XMLID_147_" class="st13" points="1435.1,4.5 1430.6,0 1427.3,0 1431.8,4.5 "/>
</svg>
