<?xml version="1.0" encoding="utf-8"?>
<!-- Generator: Adobe Illustrator 19.0.0, SVG Export Plug-In . SVG Version: 6.00 Build 0)  -->
<svg version="1.1" id="vecteurs" xmlns="http://www.w3.org/2000/svg" xmlns:xlink="http://www.w3.org/1999/xlink" x="0px" y="0px"
	 viewBox="452 419 370.2 4" style="enable-background:new 452 419 370.2 4;" xml:space="preserve">
<style type="text/css">
	.st0{fill:#536571;}
	.st1{fill:#FFFFFF;}
	.st2{fill:#9CB2BC;}
	.st3{fill:#DCE3E8;}
</style>
<rect x="452" y="419" class="st0" width="3.8" height="4"/>
<rect x="455.8" y="419" class="st1" width="3.8" height="4"/>
<rect x="459.6" y="419" class="st0" width="3.8" height="4"/>
<rect x="463.4" y="419" class="st1" width="3.8" height="4"/>
<rect x="467.3" y="419" width="3.8" height="4"/>
<rect x="471.1" y="419" class="st2" width="3.8" height="4"/>
<rect x="474.9" y="419" width="3.8" height="4"/>
<rect x="478.7" y="419" class="st2" width="3.8" height="4"/>
<rect x="482.5" y="419" class="st1" width="3.8" height="4"/>
<rect x="486.3" y="419" width="3.8" height="4"/>
<rect x="490.2" y="419" class="st1" width="3.8" height="4"/>
<rect x="494" y="419" width="3.8" height="4"/>
<rect x="497.8" y="419" class="st3" width="3.8" height="4"/>
<rect x="501.6" y="419" width="3.8" height="4"/>
<rect x="505.4" y="419" class="st3" width="3.8" height="4"/>
<rect x="509.2" y="419" width="3.8" height="4"/>
<rect x="513.1" y="419" class="st3" width="3.8" height="4"/>
<rect x="516.9" y="419" width="3.8" height="4"/>
<rect x="520.7" y="419" class="st1" width="3.8" height="4"/>
<rect x="524.5" y="419" class="st2" width="3.8" height="4"/>
<rect x="528.3" y="419" class="st1" width="3.8" height="4"/>
<rect x="532.1" y="419" class="st2" width="3.8" height="4"/>
<rect x="536" y="419" class="st1" width="3.8" height="4"/>
<rect x="539.8" y="419" class="st3" width="3.8" height="4"/>
<rect x="543.6" y="419" width="3.8" height="4"/>
<rect x="547.4" y="419" class="st3" width="3.8" height="4"/>
<rect x="551.2" y="419" width="3.8" height="4"/>
<rect x="555" y="419" class="st2" width="3.8" height="4"/>
<rect x="558.9" y="419" width="3.8" height="4"/>
<rect x="562.7" y="419" class="st2" width="3.8" height="4"/>
<rect x="566.5" y="419" class="st3" width="3.8" height="4"/>
<rect x="570.3" y="419" class="st2" width="3.8" height="4"/>
<rect x="574.1" y="419" class="st3" width="3.8" height="4"/>
<rect x="577.9" y="419" class="st2" width="3.8" height="4"/>
<rect x="581.8" y="419" class="st3" width="3.8" height="4"/>
<rect x="585.6" y="419" class="st2" width="3.8" height="4"/>
<rect x="589.4" y="419" class="st3" width="3.8" height="4"/>
<rect x="593.2" y="419" class="st1" width="3.8" height="4"/>
<rect x="597" y="419" class="st3" width="3.8" height="4"/>
<rect x="600.8" y="419" class="st1" width="3.8" height="4"/>
<rect x="604.7" y="419" class="st3" width="3.8" height="4"/>
<rect x="608.5" y="419" class="st1" width="3.8" height="4"/>
<rect x="612.3" y="419" class="st3" width="3.8" height="4"/>
<rect x="616.1" y="419" class="st1" width="3.8" height="4"/>
<rect x="619.9" y="419" class="st3" width="3.8" height="4"/>
<rect x="623.7" y="419" class="st2" width="3.8" height="4"/>
<rect x="627.6" y="419" class="st3" width="3.8" height="4"/>
<rect x="631.4" y="419" class="st2" width="3.8" height="4"/>
<rect x="635.2" y="419" class="st3" width="3.8" height="4"/>
<rect x="639" y="419" class="st2" width="3.8" height="4"/>
<rect x="642.8" y="419" class="st1" width="3.8" height="4"/>
<rect x="646.6" y="419" class="st2" width="3.8" height="4"/>
<rect x="650.5" y="419" class="st0" width="3.8" height="4"/>
<rect x="654.3" y="419" class="st1" width="3.8" height="4"/>
<rect x="658.1" y="419" class="st0" width="3.8" height="4"/>
<rect x="661.9" y="419" class="st1" width="3.8" height="4"/>
<rect x="665.7" y="419" class="st0" width="3.8" height="4"/>
<rect x="669.5" y="419" class="st1" width="3.8" height="4"/>
<rect x="673.4" y="419" class="st0" width="3.8" height="4"/>
<rect x="677.2" y="419" class="st1" width="3.8" height="4"/>
<rect x="681" y="419" class="st0" width="3.8" height="4"/>
<rect x="684.8" y="419" class="st2" width="3.8" height="4"/>
<rect x="688.6" y="419" class="st0" width="3.8" height="4"/>
<rect x="692.4" y="419" class="st3" width="3.8" height="4"/>
<rect x="696.3" y="419" class="st0" width="3.8" height="4"/>
<rect x="700.1" y="419" class="st3" width="3.8" height="4"/>
<rect x="703.9" y="419" class="st0" width="3.8" height="4"/>
<rect x="707.7" y="419" class="st3" width="3.8" height="4"/>
<rect x="711.5" y="419" class="st2" width="3.8" height="4"/>
<rect x="715.3" y="419" class="st3" width="3.8" height="4"/>
<rect x="719.2" y="419" class="st2" width="3.8" height="4"/>
<rect x="723" y="419" class="st3" width="3.8" height="4"/>
<rect x="726.8" y="419" class="st1" width="3.8" height="4"/>
<rect x="730.6" y="419" class="st3" width="3.8" height="4"/>
<rect x="734.4" y="419" width="3.8" height="4"/>
<rect x="738.2" y="419" class="st3" width="3.8" height="4"/>
<rect x="742.1" y="419" width="3.8" height="4"/>
<rect x="745.9" y="419" class="st2" width="3.8" height="4"/>
<rect x="749.7" y="419" width="3.8" height="4"/>
<rect x="753.5" y="419" class="st2" width="3.8" height="4"/>
<rect x="757.3" y="419" class="st1" width="3.8" height="4"/>
<rect x="761.1" y="419" class="st0" width="3.8" height="4"/>
<rect x="764.9" y="419" class="st2" width="3.8" height="4"/>
<rect x="768.8" y="419" class="st0" width="3.8" height="4"/>
<rect x="772.6" y="419" class="st2" width="3.8" height="4"/>
<rect x="776.4" y="419" class="st1" width="3.8" height="4"/>
<rect x="780.2" y="419" class="st2" width="3.8" height="4"/>
<rect x="784" y="419" width="3.8" height="4"/>
<rect x="787.8" y="419" class="st1" width="3.8" height="4"/>
<rect x="791.7" y="419" width="3.8" height="4"/>
<rect x="795.5" y="419" class="st1" width="3.8" height="4"/>
<rect x="799.3" y="419" width="3.8" height="4"/>
<rect x="803.1" y="419" class="st3" width="3.8" height="4"/>
<rect x="806.9" y="419" width="3.8" height="4"/>
<rect x="810.7" y="419" class="st2" width="3.8" height="4"/>
<rect x="814.6" y="419" width="3.8" height="4"/>
<rect x="818.4" y="419" class="st2" width="3.8" height="4"/>
</svg>
