<?xml version="1.0" encoding="utf-8"?>
<!-- Generator: Adobe Illustrator 19.0.0, SVG Export Plug-In . SVG Version: 6.00 Build 0)  -->
<svg version="1.1" id="vecteurs" xmlns="http://www.w3.org/2000/svg" xmlns:xlink="http://www.w3.org/1999/xlink" x="0px" y="0px"
	 viewBox="455.8 419 160.3 4" style="enable-background:new 455.8 419 160.3 4;" xml:space="preserve">
<style type="text/css">
	.st0{fill:#99FF33;}
	.st1{fill:#40D940;}
	.st2{fill:#FFFFFF;}
	.st3{fill:#D5DEE3;}
	.st4{fill:#546674;}
	.st5{fill:#1F5E03;}
</style>
<rect x="455.8" y="419" class="st0" width="3.8" height="4"/>
<rect x="459.6" y="419" class="st1" width="3.8" height="4"/>
<rect x="463.4" y="419" class="st2" width="3.8" height="4"/>
<rect x="467.3" y="419" class="st1" width="3.8" height="4"/>
<rect x="471.1" y="419" class="st2" width="3.8" height="4"/>
<rect x="474.9" y="419" class="st1" width="3.8" height="4"/>
<rect x="478.7" y="419" class="st3" width="3.8" height="4"/>
<rect x="482.5" y="419" class="st1" width="3.8" height="4"/>
<rect x="486.3" y="419" class="st3" width="3.8" height="4"/>
<rect x="490.2" y="419" class="st1" width="3.8" height="4"/>
<rect x="494" y="419" class="st3" width="3.8" height="4"/>
<rect x="497.8" y="419" class="st0" width="3.8" height="4"/>
<rect x="501.6" y="419" class="st2" width="3.8" height="4"/>
<rect x="505.4" y="419" class="st0" width="3.8" height="4"/>
<rect x="509.2" y="419" class="st2" width="3.8" height="4"/>
<rect x="513.1" y="419" class="st4" width="3.8" height="4"/>
<rect x="516.9" y="419" class="st2" width="3.8" height="4"/>
<rect x="520.7" y="419" class="st4" width="3.8" height="4"/>
<rect x="524.5" y="419" class="st0" width="3.8" height="4"/>
<rect x="528.3" y="419" class="st4" width="3.8" height="4"/>
<rect x="532.1" y="419" class="st0" width="3.8" height="4"/>
<rect x="536" y="419" class="st4" width="3.8" height="4"/>
<rect x="539.8" y="419" class="st0" width="3.8" height="4"/>
<rect x="543.6" y="419" class="st1" width="3.8" height="4"/>
<rect x="547.4" y="419" class="st5" width="3.8" height="4"/>
<rect x="551.2" y="419" class="st1" width="3.8" height="4"/>
<rect x="555" y="419" class="st5" width="3.8" height="4"/>
<rect x="558.9" y="419" class="st2" width="3.8" height="4"/>
<rect x="562.7" y="419" class="st5" width="3.8" height="4"/>
<rect x="566.5" y="419" class="st1" width="3.8" height="4"/>
<rect x="570.3" y="419" width="3.8" height="4"/>
<rect x="574.1" y="419" class="st1" width="3.8" height="4"/>
<rect x="577.9" y="419" width="3.8" height="4"/>
<rect x="581.8" y="419" class="st1" width="3.8" height="4"/>
<rect x="585.6" y="419" width="3.8" height="4"/>
<rect x="589.4" y="419" class="st1" width="3.8" height="4"/>
<rect x="593.2" y="419" class="st2" width="3.8" height="4"/>
<rect x="597" y="419" class="st1" width="3.8" height="4"/>
<rect x="600.8" y="419" class="st3" width="3.8" height="4"/>
<rect x="604.7" y="419" class="st0" width="3.8" height="4"/>
<rect x="608.5" y="419" class="st1" width="3.8" height="4"/>
<rect x="612.3" y="419" class="st0" width="3.8" height="4"/>
</svg>
