<svg id="XMLID_1_" xmlns="http://www.w3.org/2000/svg" viewBox="0 0 370.2 4"><style>.st0{fill:#536571}.st1{fill:#fff}.st2{fill:#9cb2bc}.st3{fill:#dce3e8}</style><g id="pattern_x5F_squares_x5F_gray"><path class="st0" d="M0 0h3.8v4H0z"/><path class="st1" d="M3.8 0h3.8v4H3.8z"/><path class="st0" d="M7.6 0h3.8v4H7.6z"/><path class="st1" d="M11.4 0h3.8v4h-3.8z"/><path d="M15.3 0h3.8v4h-3.8z"/><path class="st2" d="M19.1 0h3.8v4h-3.8z"/><path d="M22.9 0h3.8v4h-3.8z"/><path class="st2" d="M26.7 0h3.8v4h-3.8z"/><path class="st1" d="M30.5 0h3.8v4h-3.8z"/><path d="M34.3 0h3.8v4h-3.8z"/><path class="st1" d="M38.2 0H42v4h-3.8z"/><path d="M42 0h3.8v4H42z"/><path class="st3" d="M45.8 0h3.8v4h-3.8z"/><path d="M49.6 0h3.8v4h-3.8z"/><path class="st3" d="M53.4 0h3.8v4h-3.8z"/><path d="M57.2 0H61v4h-3.8z"/><path class="st3" d="M61.1 0h3.8v4h-3.8z"/><path d="M64.9 0h3.8v4h-3.8z"/><path class="st1" d="M68.7 0h3.8v4h-3.8z"/><path class="st2" d="M72.5 0h3.8v4h-3.8z"/><path class="st1" d="M76.3 0h3.8v4h-3.8z"/><path class="st2" d="M80.1 0h3.8v4h-3.8z"/><path class="st1" d="M84 0h3.8v4H84z"/><path class="st3" d="M87.8 0h3.8v4h-3.8z"/><path d="M91.6 0h3.8v4h-3.8z"/><path class="st3" d="M95.4 0h3.8v4h-3.8z"/><path d="M99.2 0h3.8v4h-3.8z"/><path class="st2" d="M103 0h3.8v4H103z"/><path d="M106.9 0h3.8v4h-3.8z"/><path class="st2" d="M110.7 0h3.8v4h-3.8z"/><path class="st3" d="M114.5 0h3.8v4h-3.8z"/><path class="st2" d="M118.3 0h3.8v4h-3.8z"/><path class="st3" d="M122.1 0h3.8v4h-3.8z"/><path class="st2" d="M125.9 0h3.8v4h-3.8z"/><path class="st3" d="M129.8 0h3.8v4h-3.8z"/><path class="st2" d="M133.6 0h3.8v4h-3.8z"/><path class="st3" d="M137.4 0h3.8v4h-3.8z"/><path class="st1" d="M141.2 0h3.8v4h-3.8z"/><path class="st3" d="M145 0h3.8v4H145z"/><path class="st1" d="M148.8 0h3.8v4h-3.8z"/><path class="st3" d="M152.7 0h3.8v4h-3.8z"/><path class="st1" d="M156.5 0h3.8v4h-3.8z"/><path class="st3" d="M160.3 0h3.8v4h-3.8z"/><path class="st1" d="M164.1 0h3.8v4h-3.8z"/><path class="st3" d="M167.9 0h3.8v4h-3.8z"/><path class="st2" d="M171.7 0h3.8v4h-3.8z"/><path class="st3" d="M175.6 0h3.8v4h-3.8z"/><path class="st2" d="M179.4 0h3.8v4h-3.8z"/><path class="st3" d="M183.2 0h3.8v4h-3.8z"/><path class="st2" d="M187 0h3.8v4H187z"/><path class="st1" d="M190.8 0h3.8v4h-3.8z"/><path class="st2" d="M194.6 0h3.8v4h-3.8z"/><path class="st0" d="M198.5 0h3.8v4h-3.8z"/><path class="st1" d="M202.3 0h3.8v4h-3.8z"/><path class="st0" d="M206.1 0h3.8v4h-3.8z"/><path class="st1" d="M209.9 0h3.8v4h-3.8z"/><path class="st0" d="M213.7 0h3.8v4h-3.8z"/><path class="st1" d="M217.5 0h3.8v4h-3.8z"/><path class="st0" d="M221.4 0h3.8v4h-3.8z"/><path class="st1" d="M225.2 0h3.8v4h-3.8z"/><path class="st0" d="M229 0h3.8v4H229z"/><path class="st2" d="M232.8 0h3.8v4h-3.8z"/><path class="st0" d="M236.6 0h3.8v4h-3.8z"/><path class="st3" d="M240.4 0h3.8v4h-3.8z"/><path class="st0" d="M244.3 0h3.8v4h-3.8z"/><path class="st3" d="M248.1 0h3.8v4h-3.8z"/><path class="st0" d="M251.9 0h3.8v4h-3.8z"/><path class="st3" d="M255.7 0h3.8v4h-3.8z"/><path class="st2" d="M259.5 0h3.8v4h-3.8z"/><path class="st3" d="M263.3 0h3.8v4h-3.8z"/><path class="st2" d="M267.2 0h3.8v4h-3.8z"/><path class="st3" d="M271 0h3.8v4H271z"/><path class="st1" d="M274.8 0h3.8v4h-3.8z"/><path class="st3" d="M278.6 0h3.8v4h-3.8z"/><path d="M282.4 0h3.8v4h-3.8z"/><path class="st3" d="M286.2 0h3.8v4h-3.8z"/><path d="M290.1 0h3.8v4h-3.8z"/><path class="st2" d="M293.9 0h3.8v4h-3.8z"/><path d="M297.7 0h3.8v4h-3.8z"/><path class="st2" d="M301.5 0h3.8v4h-3.8z"/><path class="st1" d="M305.3 0h3.8v4h-3.8z"/><path class="st0" d="M309.1 0h3.8v4h-3.8z"/><path class="st2" d="M312.9 0h3.8v4h-3.8z"/><path class="st0" d="M316.8 0h3.8v4h-3.8z"/><path class="st2" d="M320.6 0h3.8v4h-3.8z"/><path class="st1" d="M324.4 0h3.8v4h-3.8z"/><path class="st2" d="M328.2 0h3.8v4h-3.8z"/><path d="M332 0h3.8v4H332z"/><path class="st1" d="M335.8 0h3.8v4h-3.8z"/><path d="M339.7 0h3.8v4h-3.8z"/><path class="st1" d="M343.5 0h3.8v4h-3.8z"/><path d="M347.3 0h3.8v4h-3.8z"/><path class="st3" d="M351.1 0h3.8v4h-3.8z"/><path d="M354.9 0h3.8v4h-3.8z"/><path class="st2" d="M358.7 0h3.8v4h-3.8z"/><path d="M362.6 0h3.8v4h-3.8z"/><path class="st2" d="M366.4 0h3.8v4h-3.8z"/></g></svg>