<?xml version="1.0" encoding="utf-8"?>
<!-- Generator: Adobe Illustrator 19.0.0, SVG Export Plug-In . SVG Version: 6.00 Build 0)  -->
<svg version="1.1" id="XMLID_1_" xmlns="http://www.w3.org/2000/svg" xmlns:xlink="http://www.w3.org/1999/xlink" x="0px" y="0px"
	 viewBox="0 0 370.2 4" enable-background="new 0 0 370.2 4" xml:space="preserve">
	 <style type="text/css">
	 	.st0{fill:#536571;}
	 	.st1{fill:#FFFFFF;}
	 	.st2{fill:#9CB2BC;}
	 	.st3{fill:#DCE3E8;}
	 </style>
<g id="pattern_x5F_squares_x5F_gray">
	<rect class="st0" width="3.8" height="4"/>
	<rect x="3.8" class="st1" width="3.8" height="4"/>
	<rect x="7.6" class="st0" width="3.8" height="4"/>
	<rect x="11.4" class="st1" width="3.8" height="4"/>
	<rect x="15.3" width="3.8" height="4"/>
	<rect x="19.1" class="st2" width="3.8" height="4"/>
	<rect x="22.9" width="3.8" height="4"/>
	<rect x="26.7" class="st2" width="3.8" height="4"/>
	<rect x="30.5" class="st1" width="3.8" height="4"/>
	<rect x="34.3" width="3.8" height="4"/>
	<rect x="38.2" class="st1" width="3.8" height="4"/>
	<rect x="42" width="3.8" height="4"/>
	<rect x="45.8" class="st3" width="3.8" height="4"/>
	<rect x="49.6" width="3.8" height="4"/>
	<rect x="53.4" class="st3" width="3.8" height="4"/>
	<rect x="57.2" width="3.8" height="4"/>
	<rect x="61.1" class="st3" width="3.8" height="4"/>
	<rect x="64.9" width="3.8" height="4"/>
	<rect x="68.7" class="st1" width="3.8" height="4"/>
	<rect x="72.5" class="st2" width="3.8" height="4"/>
	<rect x="76.3" class="st1" width="3.8" height="4"/>
	<rect x="80.1" class="st2" width="3.8" height="4"/>
	<rect x="84" class="st1" width="3.8" height="4"/>
	<rect x="87.8" class="st3" width="3.8" height="4"/>
	<rect x="91.6" width="3.8" height="4"/>
	<rect x="95.4" class="st3" width="3.8" height="4"/>
	<rect x="99.2" width="3.8" height="4"/>
	<rect x="103" class="st2" width="3.8" height="4"/>
	<rect x="106.9" width="3.8" height="4"/>
	<rect x="110.7" class="st2" width="3.8" height="4"/>
	<rect x="114.5" class="st3" width="3.8" height="4"/>
	<rect x="118.3" class="st2" width="3.8" height="4"/>
	<rect x="122.1" class="st3" width="3.8" height="4"/>
	<rect x="125.9" class="st2" width="3.8" height="4"/>
	<rect x="129.8" class="st3" width="3.8" height="4"/>
	<rect x="133.6" class="st2" width="3.8" height="4"/>
	<rect x="137.4" class="st3" width="3.8" height="4"/>
	<rect x="141.2" class="st1" width="3.8" height="4"/>
	<rect x="145" class="st3" width="3.8" height="4"/>
	<rect x="148.8" class="st1" width="3.8" height="4"/>
	<rect x="152.7" class="st3" width="3.8" height="4"/>
	<rect x="156.5" class="st1" width="3.8" height="4"/>
	<rect x="160.3" class="st3" width="3.8" height="4"/>
	<rect x="164.1" class="st1" width="3.8" height="4"/>
	<rect x="167.9" class="st3" width="3.8" height="4"/>
	<rect x="171.7" class="st2" width="3.8" height="4"/>
	<rect x="175.6" class="st3" width="3.8" height="4"/>
	<rect x="179.4" class="st2" width="3.8" height="4"/>
	<rect x="183.2" class="st3" width="3.8" height="4"/>
	<rect x="187" class="st2" width="3.8" height="4"/>
	<rect x="190.8" class="st1" width="3.8" height="4"/>
	<rect x="194.6" class="st2" width="3.8" height="4"/>
	<rect x="198.5" class="st0" width="3.8" height="4"/>
	<rect x="202.3" class="st1" width="3.8" height="4"/>
	<rect x="206.1" class="st0" width="3.8" height="4"/>
	<rect x="209.9" class="st1" width="3.8" height="4"/>
	<rect x="213.7" class="st0" width="3.8" height="4"/>
	<rect x="217.5" class="st1" width="3.8" height="4"/>
	<rect x="221.4" class="st0" width="3.8" height="4"/>
	<rect x="225.2" class="st1" width="3.8" height="4"/>
	<rect x="229" class="st0" width="3.8" height="4"/>
	<rect x="232.8" class="st2" width="3.8" height="4"/>
	<rect x="236.6" class="st0" width="3.8" height="4"/>
	<rect x="240.4" class="st3" width="3.8" height="4"/>
	<rect x="244.3" class="st0" width="3.8" height="4"/>
	<rect x="248.1" class="st3" width="3.8" height="4"/>
	<rect x="251.9" class="st0" width="3.8" height="4"/>
	<rect x="255.7" class="st3" width="3.8" height="4"/>
	<rect x="259.5" class="st2" width="3.8" height="4"/>
	<rect x="263.3" class="st3" width="3.8" height="4"/>
	<rect x="267.2" class="st2" width="3.8" height="4"/>
	<rect x="271" class="st3" width="3.8" height="4"/>
	<rect x="274.8" class="st1" width="3.8" height="4"/>
	<rect x="278.6" class="st3" width="3.8" height="4"/>
	<rect x="282.4" width="3.8" height="4"/>
	<rect x="286.2" class="st3" width="3.8" height="4"/>
	<rect x="290.1" width="3.8" height="4"/>
	<rect x="293.9" class="st2" width="3.8" height="4"/>
	<rect x="297.7" width="3.8" height="4"/>
	<rect x="301.5" class="st2" width="3.8" height="4"/>
	<rect x="305.3" class="st1" width="3.8" height="4"/>
	<rect x="309.1" class="st0" width="3.8" height="4"/>
	<rect x="312.9" class="st2" width="3.8" height="4"/>
	<rect x="316.8" class="st0" width="3.8" height="4"/>
	<rect x="320.6" class="st2" width="3.8" height="4"/>
	<rect x="324.4" class="st1" width="3.8" height="4"/>
	<rect x="328.2" class="st2" width="3.8" height="4"/>
	<rect x="332" width="3.8" height="4"/>
	<rect x="335.8" class="st1" width="3.8" height="4"/>
	<rect x="339.7" width="3.8" height="4"/>
	<rect x="343.5" class="st1" width="3.8" height="4"/>
	<rect x="347.3" width="3.8" height="4"/>
	<rect x="351.1" class="st3" width="3.8" height="4"/>
	<rect x="354.9" width="3.8" height="4"/>
	<rect x="358.7" class="st2" width="3.8" height="4"/>
	<rect x="362.6" width="3.8" height="4"/>
	<rect x="366.4" class="st2" width="3.8" height="4"/>
</g>
</svg>
