<?xml version="1.0" encoding="utf-8"?>
<!-- Generator: Adobe Illustrator 19.0.0, SVG Export Plug-In . SVG Version: 6.00 Build 0)  -->
<svg version="1.1" id="XMLID_1_" xmlns="http://www.w3.org/2000/svg" xmlns:xlink="http://www.w3.org/1999/xlink" x="0px" y="0px"
	 viewBox="0 0 41 41" enable-background="new 0 0 41 41" xml:space="preserve">
<g id="cross">
	<path d="M23.1942,20.5l8.5327-8.5326c0.7442-0.7438,0.7442-1.9504,0-2.6942c-0.7442-0.7442-1.9499-0.7442-2.6942,0L20.5,17.8059
		l-8.5328-8.5326c-0.7442-0.7442-1.9509-0.7442-2.6942,0c-0.7442,0.7438-0.7442,1.9504,0,2.6942L17.8058,20.5L9.273,29.0326
		c-0.7442,0.7442-0.7442,1.9499,0,2.6942c0.3721,0.3721,0.8596,0.5582,1.3471,0.5582c0.4875,0,0.9754-0.1861,1.3471-0.5582
		L20.5,23.1941l8.5328,8.5326c0.3721,0.3721,0.8596,0.5582,1.3471,0.5582s0.975-0.1861,1.3471-0.5582
		c0.7442-0.7442,0.7442-1.9499,0-2.6942L23.1942,20.5z"/>
</g>
</svg>
