<?xml version="1.0" standalone="no"?>
<!DOCTYPE svg PUBLIC "-//W3C//DTD SVG 1.1//EN" "http://www.w3.org/Graphics/SVG/1.1/DTD/svg11.dtd" >
<svg xmlns="http://www.w3.org/2000/svg">
<metadata></metadata>
<defs>
<font id="museo_sans_cond300" horiz-adv-x="642" >
<font-face units-per-em="1000" ascent="750" descent="-250" />
<missing-glyph horiz-adv-x="198" />
<glyph unicode="&#xfb01;" horiz-adv-x="451" d="M31 446v57h48v18q0 58 15 98.5t39 58t44 24t40 6.5q18 0 29 -2v-58q-10 2 -17 2q-84 0 -84 -129v-18h242v-503h-65v446h-177v-446h-66v446h-48zM319 617v86h71v-86h-71z" />
<glyph unicode="&#xfb02;" horiz-adv-x="475" d="M329 119v584h66v-569q0 -47 11.5 -62.5t31.5 -15.5q9 0 13 1v-59q-12 -2 -23 -2q-99 0 -99 123zM79 0v442h-48v57h48v22q0 58 14.5 98t38.5 57.5t44.5 24.5t42.5 7q19 0 29 -2v-59q-10 2 -17 2q-85 0 -85 -128v-22h95v-57h-95v-442h-67z" />
<glyph unicode="&#xfb03;" horiz-adv-x="723" d="M31 446v57h48v18q0 58 15 98.5t39 58t44 24t40 6.5q18 0 29 -2v-58q-10 2 -17 2q-84 0 -84 -129v-18h199v18q0 58 15 98.5t39 58t44 24t40 6.5q18 0 29 -2v-58q-10 2 -18 2q-13 0 -25.5 -4.5t-26.5 -16.5t-22.5 -40t-8.5 -68v-18h250v-503h-66v446h-184v-446h-66v446 h-199v-446h-66v446h-48zM591 617v86h71v-86h-71z" />
<glyph unicode="&#xfb04;" horiz-adv-x="740" d="M31 446v57h48v18q0 58 15 98.5t39 58t44 24t40 6.5q18 0 29 -2v-58q-10 2 -17 2q-84 0 -84 -129v-18h199v18q0 58 15 98.5t39 58t44 24t40 6.5q18 0 29 -2v-58q-10 2 -18 2q-13 0 -25.5 -4.5t-26.5 -16.5t-22.5 -40t-8.5 -68v-18h95v-57h-95v-446h-66v446h-199v-446h-66 v446h-48zM594 119v584h66v-569q0 -47 11.5 -62.5t31.5 -15.5q9 0 13 1v-59q-12 -2 -23 -2q-99 0 -99 123z" />
<glyph horiz-adv-x="0" />
<glyph horiz-adv-x="333" />
<glyph unicode=" "  horiz-adv-x="198" />
<glyph unicode="&#x09;" horiz-adv-x="198" />
<glyph unicode="&#xa0;" horiz-adv-x="198" />
<glyph unicode="!" horiz-adv-x="217" d="M79 184l-4 519h67l-4 -519h-59zM74 0v77h69v-77h-69z" />
<glyph unicode="&#x22;" horiz-adv-x="279" d="M164 544v169h53v-169h-53zM62 544v169h53v-169h-53z" />
<glyph unicode="#" horiz-adv-x="564" d="M116 0l27 195h-105l8 55h105l25 198h-103l9 55h102l27 200h56l-27 -200h127l27 200h55l-27 -200h104l-9 -55h-103l-26 -198h103l-8 -55h-104l-25 -195h-55l26 195h-128l-25 -195h-56zM206 250h127l26 198h-127z" />
<glyph unicode="$" horiz-adv-x="439" d="M41 64l33 54q62 -55 135 -55q54 0 86.5 31.5t32.5 84.5q0 45 -28 78.5t-68.5 56.5t-80.5 48t-68 65.5t-28 95.5q0 66 38 114t106 60v110h50v-106q76 0 137 -40l-26 -59q-22 16 -56 27t-63 11q-54 0 -85.5 -33t-31.5 -82q0 -42 28 -74t68.5 -55t81 -48t68.5 -67t28 -98 q0 -70 -39.5 -118.5t-109.5 -60.5v-107h-50v105q-92 3 -158 62z" />
<glyph unicode="%" horiz-adv-x="586" d="M157 437q-51 0 -82 39.5t-31 98.5q0 60 31 100t82 40t82.5 -40.5t31.5 -99.5q0 -58 -31.5 -98t-82.5 -40zM52 0l418 703h63l-417 -703h-64zM157 491q29 0 43 23.5t14 61.5q0 37 -14.5 61t-42.5 24q-29 0 -43 -24t-14 -61q0 -85 57 -85zM316 127q0 59 31 99t82 40 t82.5 -40.5t31.5 -98.5q0 -59 -31.5 -99t-82.5 -40t-82 40t-31 99zM373 127q0 -85 56 -85q29 0 43.5 23.5t14.5 61.5q0 37 -14.5 61t-43.5 24q-28 0 -42 -24t-14 -61z" />
<glyph unicode="&#x26;" horiz-adv-x="522" d="M47 192q0 68 29 117t78 69v4q-84 44 -84 157q0 84 49.5 130t119.5 46q40 0 68 -11l-16 -58q-25 9 -48 9q-46 0 -75.5 -34t-29.5 -86q0 -50 27.5 -89.5t83.5 -39.5h103v98h65v-98h73v-61h-73v-128q0 -116 -51.5 -172.5t-131.5 -56.5q-83 0 -135 55.5t-52 148.5zM116 196 q0 -65 31.5 -104.5t86.5 -39.5q51 0 84.5 40.5t33.5 136.5v116h-105q-59 0 -95 -39.5t-36 -109.5z" />
<glyph unicode="'" horiz-adv-x="178" d="M62 544v169h54v-169h-54z" />
<glyph unicode="(" horiz-adv-x="228" d="M134 -95q-88 192 -88 432q0 209 88 393h59q-88 -190 -88 -393q0 -227 88 -432h-59z" />
<glyph unicode=")" horiz-adv-x="228" d="M35 -95q87 199 87 432q0 208 -87 393h59q89 -186 89 -393q0 -238 -89 -432h-59z" />
<glyph unicode="*" horiz-adv-x="405" d="M133 337l-53 33l81 125v2l-115 43l23 62l107 -52l-5 153h63l-6 -153l108 51l24 -61l-115 -43v-2l79 -126l-51 -33l-69 126h-2z" />
<glyph unicode="+" horiz-adv-x="477" d="M36 255v58h174v255h57v-255h174v-58h-174v-255h-57v255h-174z" />
<glyph unicode="," horiz-adv-x="214" d="M33 -97l47 180h68l-61 -180h-54z" />
<glyph unicode="-" horiz-adv-x="340" d="M59 253v62h222v-62h-222z" />
<glyph unicode="." horiz-adv-x="188" d="M59 0v80h70v-80h-70z" />
<glyph unicode="/" horiz-adv-x="322" d="M34 -42l196 784h59l-196 -784h-59z" />
<glyph unicode="0" horiz-adv-x="490" d="M245 -12q-56 0 -94.5 27.5t-59 79t-29 113.5t-8.5 144q0 81 8.5 143t29 113.5t59.5 79t94 27.5q56 0 94.5 -27.5t59 -79.5t29 -113.5t8.5 -142.5q0 -82 -8.5 -144t-29 -113.5t-59 -79t-94.5 -27.5zM245 51q38 0 63 22t37.5 66t17 93.5t4.5 119.5t-4.5 119t-17 93 t-37.5 66t-63 22t-63 -22t-37.5 -66t-17 -93t-4.5 -119t4.5 -119.5t17 -93.5t37.5 -66t63 -22z" />
<glyph unicode="1" horiz-adv-x="379" d="M47 0v59h121v514l1 38h-2q-5 -14 -25 -41l-54 -67l-42 40l127 160h60v-644h118v-59h-304z" />
<glyph unicode="2" horiz-adv-x="452" d="M57 0q-4 21 -4 47q0 55 20 102.5t50 79.5t65.5 67t65.5 64.5t50 71.5t20 89q0 61 -30.5 95.5t-83.5 34.5q-35 0 -67 -16.5t-51 -45.5l-47 37q24 40 72.5 64.5t99.5 24.5q81 0 129 -51.5t48 -138.5q0 -63 -27.5 -116.5t-67.5 -92t-79.5 -75.5t-68 -83t-29.5 -97h280v-61 h-345z" />
<glyph unicode="3" horiz-adv-x="443" d="M39 50l34 53q51 -51 119 -51q58 0 96.5 41t38.5 114q0 72 -41.5 110t-116.5 38h-46l-14 43l166 210l30 35v2q-16 -2 -44 -2h-196v60h322v-52l-192 -238q89 -5 145 -56t56 -148q0 -98 -54.5 -159.5t-144.5 -61.5q-97 0 -158 62z" />
<glyph unicode="4" horiz-adv-x="473" d="M30 191v48l256 464h76v-450h76v-62h-76v-191h-65v191h-267zM102 253h195v297l2 63h-2q-9 -26 -22 -50l-173 -308v-2z" />
<glyph unicode="5" horiz-adv-x="442" d="M44 50l35 53q47 -51 115 -51q61 0 99 47t38 121q0 76 -40.5 119t-101.5 43q-43 0 -81 -20l-40 17l27 324h270v-60h-211l-15 -172l-5 -40h2q27 12 68 12q80 0 138.5 -61t58.5 -163q0 -100 -58 -165.5t-145 -65.5q-90 0 -154 62z" />
<glyph unicode="6" horiz-adv-x="472" d="M253 -12q-97 0 -150 91t-53 242q0 71 12 135.5t38 125t76 97t118 36.5q61 0 102 -24l-21 -59q-34 20 -81 20q-152 0 -173 -272h1q48 68 134 68q81 0 128.5 -62t47.5 -166q0 -106 -48 -169t-131 -63zM256 51q53 0 80 46t27 121q0 77 -30.5 123.5t-89.5 46.5q-52 0 -87 -37 t-35 -91q0 -29 7 -62.5t21.5 -67.5t42.5 -56.5t64 -22.5z" />
<glyph unicode="7" horiz-adv-x="416" d="M77 0l220 576l29 67v2q-14 -2 -39 -2h-251v60h358v-49l-248 -654h-69z" />
<glyph unicode="8" horiz-adv-x="473" d="M44 181q0 41 13 78.5t34 63t36 39.5t30 25q-91 66 -91 160q0 69 43 118.5t128 49.5q90 0 133.5 -48t43.5 -121q0 -107 -89 -196q100 -69 100 -169q0 -80 -53 -136.5t-140 -56.5q-86 0 -137 55t-51 138zM357 177q0 17 -4 33t-9 28t-17 25.5t-19 20.5t-24.5 19.5t-24 17 t-28 17.5t-26.5 16q-12 -7 -24 -17.5t-29.5 -31t-28 -51.5t-10.5 -67q0 -62 32.5 -99.5t88.5 -37.5q58 0 90.5 37.5t32.5 89.5zM134 551q0 -74 76 -129q15 -11 67 -42q70 70 70 160q0 51 -27.5 82t-82.5 31q-53 0 -78 -28.5t-25 -73.5z" />
<glyph unicode="9" horiz-adv-x="471" d="M68 12l23 59q32 -20 80 -20q45 0 79.5 23.5t54.5 64.5t30.5 86t14.5 98h-2q-48 -68 -133 -68q-80 0 -125.5 62t-45.5 165q0 107 48 170t130 63q90 0 144.5 -92.5t54.5 -240.5q0 -70 -13 -135.5t-40 -126t-78 -96.5t-119 -36q-59 0 -103 24zM228 315q52 0 87 37t35 91 q0 40 -12 85.5t-43.5 84.5t-75.5 39q-51 0 -79 -46.5t-28 -120.5q0 -77 29.5 -123.5t86.5 -46.5z" />
<glyph unicode=":" horiz-adv-x="189" d="M59 423v80h71v-80h-71zM59 0v81h71v-81h-71z" />
<glyph unicode=";" horiz-adv-x="233" d="M92 423v80h70v-80h-70zM51 -97l40 180h69l-55 -180h-54z" />
<glyph unicode="&#x3c;" horiz-adv-x="477" d="M51 261v45l355 206v-68l-279 -159v-2l279 -159v-68z" />
<glyph unicode="=" horiz-adv-x="477" d="M56 342v58h364v-58h-364zM56 167v59h364v-59h-364z" />
<glyph unicode="&#x3e;" horiz-adv-x="477" d="M71 56v68l278 159v2l-278 159v68l354 -206v-45z" />
<glyph unicode="?" horiz-adv-x="361" d="M121 184v42q0 44 13.5 80t33 60.5t39.5 47t33.5 52t13.5 63.5q0 53 -28 88t-77 35q-53 0 -85 -28l-29 51q46 41 121 41q77 0 122 -50.5t45 -132.5q0 -44 -14 -79t-34.5 -59t-41 -47.5t-34.5 -56t-14 -71.5v-36h-64zM119 0v77h69v-77h-69z" />
<glyph unicode="@" horiz-adv-x="614" d="M48 250q0 156 77.5 257.5t207.5 101.5q89 0 139 -52t50 -134v-320h55v-54h-200q-76 0 -118.5 55t-42.5 137t42.5 137t118.5 55h81q0 54 -34.5 86t-91.5 32q-101 0 -159.5 -85t-58.5 -216q0 -137 63 -226.5t160 -89.5v-58q-125 0 -207 106t-82 268zM277 242 q0 -60 27.5 -98.5t77.5 -38.5h76v275h-74q-51 0 -79 -39.5t-28 -98.5z" />
<glyph unicode="A" horiz-adv-x="495" d="M16 0l195 703h72l196 -703h-68l-61 224h-205l-61 -224h-68zM158 283h179l-69 255l-19 92h-3q-10 -58 -19 -92z" />
<glyph unicode="B" horiz-adv-x="484" d="M76 0v703h167q78 0 127.5 -47.5t49.5 -128.5q0 -104 -82 -154v-2q45 -15 74.5 -62.5t29.5 -114.5q0 -93 -54 -143.5t-150 -50.5h-162zM143 398h112q40 0 68 34.5t28 89.5t-30.5 88t-80.5 33h-97v-245zM143 61h92q138 0 138 135q0 66 -31.5 104.5t-79.5 38.5h-119v-278z " />
<glyph unicode="C" horiz-adv-x="544" d="M43 355q0 159 80 259.5t217 100.5q102 0 166 -57l-29 -58q-24 23 -62.5 37.5t-75.5 14.5q-105 0 -166 -83t-61 -212q0 -130 61.5 -218t163.5 -88q85 0 155 57l26 -57q-71 -63 -183 -63q-133 0 -212.5 104t-79.5 263z" />
<glyph unicode="D" horiz-adv-x="575" d="M76 0v703h180q125 0 200 -93.5t75 -257.5q0 -166 -74.5 -259t-200.5 -93h-180zM143 61h107q98 0 154.5 75.5t56.5 215.5q0 138 -57 214t-154 76h-107v-581z" />
<glyph unicode="E" horiz-adv-x="433" d="M76 0v703h312v-60h-245v-258h199v-60h-199v-264h258v-61h-325z" />
<glyph unicode="F" horiz-adv-x="397" d="M76 0v703h293v-60h-226v-266h194v-60h-194v-317h-67z" />
<glyph unicode="G" horiz-adv-x="594" d="M43 352q0 166 81.5 264.5t214.5 98.5q103 0 177 -60l-29 -57q-59 54 -150 54q-102 0 -163.5 -80.5t-61.5 -217.5q0 -138 62.5 -220t156.5 -82q47 0 88 19t64 55v149h-90v61h152v-336h-57v31l2 28h-2q-24 -30 -68.5 -50.5t-96.5 -20.5q-117 0 -198.5 99.5t-81.5 264.5z " />
<glyph unicode="H" horiz-adv-x="581" d="M76 0v703h67v-321h296v321h66v-703h-66v322h-296v-322h-67z" />
<glyph unicode="I" horiz-adv-x="219" d="M76 0v703h67v-703h-67z" />
<glyph unicode="J" horiz-adv-x="413" d="M25 192v33h67v-33q0 -141 92 -141q90 0 90 141v451h-131v60h198v-511q0 -108 -45 -156t-112 -48q-68 0 -113.5 48t-45.5 156z" />
<glyph unicode="K" horiz-adv-x="468" d="M76 0v703h67v-304h81l147 304h73l-161 -332v-2l170 -369h-74l-155 336h-81v-336h-67z" />
<glyph unicode="L" horiz-adv-x="405" d="M76 0v703h67v-642h247v-61h-314z" />
<glyph unicode="M" horiz-adv-x="660" d="M56 0l44 703h72l133 -402l25 -94h2q13 57 24 94l132 402h72l44 -703h-63l-30 490l-1 97h-2q-14 -68 -27 -105l-117 -351h-67l-117 351l-27 107h-2q0 -60 -2 -99l-29 -490h-64z" />
<glyph unicode="N" horiz-adv-x="583" d="M76 0v703h68l261 -497q8 -16 18 -39t16 -38l6 -15h2q-5 57 -5 94v495h64v-703h-68l-261 500l-39 93h-2q5 -58 5 -95v-498h-65z" />
<glyph unicode="O" d="M43 356q0 163 78.5 261t199.5 98t199.5 -98t78.5 -261q0 -166 -78.5 -267t-199.5 -101t-199.5 101t-78.5 267zM112 356q0 -140 59 -222t150 -82t149.5 82.5t58.5 221.5q0 136 -58.5 215.5t-149.5 79.5q-92 0 -150.5 -79.5t-58.5 -215.5z" />
<glyph unicode="P" horiz-adv-x="473" d="M76 0v703h171q88 0 144 -58t56 -155q0 -96 -56.5 -155t-143.5 -59h-104v-276h-67zM143 336h95q63 0 101.5 41.5t38.5 112.5t-38.5 112t-101.5 41h-95v-307z" />
<glyph unicode="Q" d="M43 357q0 162 78.5 260t199.5 98t199.5 -98t78.5 -261q0 -152 -74 -254l77 -75l-40 -44l-74 74q-71 -69 -167 -69q-121 0 -199.5 101t-78.5 268zM112 357q0 -141 59 -223.5t150 -82.5q70 0 123 52l-86 87l40 44l79 -85q52 82 52 207q0 136 -58.5 215.5t-149.5 79.5 q-92 0 -150.5 -79t-58.5 -215z" />
<glyph unicode="R" horiz-adv-x="489" d="M76 0v703h179q52 0 93 -23q41 -22 65.5 -68t24.5 -107q0 -72 -33 -119.5t-77 -69.5v-2q8 -14 15 -31l121 -283h-74l-121 296h-126v-296h-67zM143 357h108q47 0 83 40t36 106q0 85 -52 118q-31 21 -71 21h-104v-285z" />
<glyph unicode="S" horiz-adv-x="420" d="M32 53l33 57q59 -59 132 -59q51 0 83 33t32 89q0 47 -27.5 82t-66 59t-77.5 50t-66.5 68t-27.5 99q0 79 51 131.5t138 52.5q78 0 140 -43l-26 -60q-20 16 -53 28t-61 12q-57 0 -88.5 -35t-31.5 -86q0 -44 27.5 -77.5t66 -56.5t77.5 -49t66.5 -69t27.5 -102 q0 -83 -49 -136t-135 -53q-95 0 -165 65z" />
<glyph unicode="T" horiz-adv-x="476" d="M204 0v643h-190v60h447v-60h-191v-643h-66z" />
<glyph unicode="U" horiz-adv-x="566" d="M72 221v482h66v-480q0 -84 38.5 -128t105.5 -44t106 44.5t39 129.5v478h67v-482q0 -109 -57.5 -171t-153.5 -62t-153.5 62t-57.5 171z" />
<glyph unicode="V" horiz-adv-x="498" d="M213 0l-198 703h71l142 -533l20 -89h2q10 53 19 89l144 533h70l-198 -703h-72z" />
<glyph unicode="W" horiz-adv-x="715" d="M161 0l-136 703h66l100 -545l11 -76h2q4 42 11 76l115 545h69l103 -545l9 -76h3q5 43 11 76l100 545h66l-136 -703h-80l-95 494l-15 105h-3q-7 -59 -16 -104l-106 -495h-79z" />
<glyph unicode="X" horiz-adv-x="456" d="M15 0l172 367l-160 336h74l95 -207l32 -80h2q15 43 31 80l95 207h74l-161 -336l173 -367h-72l-110 242l-32 76h-2q-13 -39 -30 -77l-109 -241h-72z" />
<glyph unicode="Y" horiz-adv-x="456" d="M195 0v302l-183 401h74l111 -255l30 -82h2q16 45 32 82l110 255h73l-183 -401v-302h-66z" />
<glyph unicode="Z" horiz-adv-x="452" d="M27 0v50l277 528l38 65v2q-14 -2 -40 -2h-262v60h377v-49l-277 -529l-39 -65v-2q15 3 40 3h279v-61h-393z" />
<glyph unicode="[" horiz-adv-x="233" d="M73 -95v825h118v-54h-59v-716h59v-55h-118z" />
<glyph unicode="\" horiz-adv-x="322" d="M229 -42l-196 784h59l196 -784h-59z" />
<glyph unicode="]" horiz-adv-x="233" d="M43 -40h58v716h-58v54h117v-825h-117v55z" />
<glyph unicode="^" horiz-adv-x="469" d="M54 250l153 453h44l153 -453h-61l-114 355l-114 -355h-61z" />
<glyph unicode="_" horiz-adv-x="465" d="M29 0h407v-58h-407v58z" />
<glyph unicode="`" horiz-adv-x="386" d="M204 752l-70 119h71l56 -119h-57z" />
<glyph unicode="a" horiz-adv-x="411" d="M31 140q0 169 228 169h26v15q0 73 -23.5 103t-67.5 30q-61 0 -113 -37l-20 52q56 43 137 43q152 0 152 -193v-322h-60v44l2 43h-2q-44 -95 -129 -95q-53 0 -91.5 38t-38.5 110zM94 145q0 -42 22.5 -69.5t56.5 -27.5q52 0 82 53.5t30 113.5v42h-25q-166 0 -166 -112z" />
<glyph unicode="b" horiz-adv-x="469" d="M65 0v703h65v-235l-3 -41h2q32 88 130 88q82 0 126 -71.5t44 -191.5q0 -121 -47 -192.5t-129 -71.5q-45 0 -78.5 22t-48.5 61h-2q3 -17 3 -38v-33h-62zM128 251q0 -89 27 -146.5t89 -57.5q55 0 86 53.5t31 150.5q0 96 -29 150.5t-86 54.5q-118 0 -118 -205z" />
<glyph unicode="c" horiz-adv-x="424" d="M39 251q0 117 59.5 190.5t158.5 73.5q83 0 130 -50l-26 -54q-42 45 -103 45q-69 0 -110.5 -57t-41.5 -148t41.5 -147.5t111.5 -56.5q69 0 117 53l20 -54q-21 -25 -60.5 -41.5t-84.5 -16.5q-94 0 -153 73t-59 190z" />
<glyph unicode="d" horiz-adv-x="469" d="M41 252q0 121 46 192t129 71q90 0 124 -79h2q-3 18 -3 39v228h65v-703h-63v42l3 38h-2q-32 -92 -132 -92q-83 0 -126 71.5t-43 192.5zM108 251q0 -96 29 -150t86 -54q118 0 118 204q0 88 -27.5 146.5t-87.5 58.5q-57 0 -87.5 -53.5t-30.5 -151.5z" />
<glyph unicode="e" horiz-adv-x="437" d="M40 256q0 118 52 188.5t140 70.5q85 0 126 -64.5t41 -159.5q0 -10 -2 -42h-290q1 -98 40.5 -149.5t101.5 -51.5q73 0 122 52l19 -53q-24 -26 -64 -42.5t-83 -16.5q-94 0 -148.5 73.5t-54.5 194.5zM107 302h226q-1 156 -102 156q-50 0 -82.5 -40.5t-41.5 -115.5z" />
<glyph unicode="f" horiz-adv-x="263" d="M79 0v442h-48v57h48v22q0 58 14.5 98t38.5 57.5t44.5 24.5t42.5 7q19 0 29 -2v-59q-10 2 -17 2q-85 0 -85 -128v-22h95v-57h-95v-442h-67z" />
<glyph unicode="g" horiz-adv-x="463" d="M97 -116q47 -33 105 -33q59 0 95 38.5t36 119.5v43l1 37h-1q-35 -86 -119 -86q-80 0 -126.5 71.5t-46.5 185.5q0 116 45.5 185.5t124.5 69.5q45 0 78 -22t47 -61h1v17v54h61v-491q0 -112 -55.5 -167t-136.5 -55q-69 0 -129 38zM226 64q48 0 78.5 46.5t30.5 150.5 q0 193 -115 193q-54 0 -83 -50t-29 -142q0 -91 31.5 -144.5t86.5 -53.5z" />
<glyph unicode="h" horiz-adv-x="472" d="M65 0v703h65v-251l-3 -34h2q16 38 54 67.5t99 29.5q129 0 129 -163v-352h-66v336q0 54 -16 85t-63 31q-59 0 -97.5 -49.5t-38.5 -113.5v-289h-65z" />
<glyph unicode="i" horiz-adv-x="195" d="M62 617v86h71v-86h-71zM65 0v503h65v-503h-65z" />
<glyph unicode="j" horiz-adv-x="195" d="M61 617v86h71v-86h-71zM65 -17v520h65v-522q0 -59 -15 -99t-40 -57.5t-45.5 -24t-42.5 -6.5q-16 0 -25 3v57q8 -2 17 -2q13 0 26 4.5t27.5 17t23.5 41t9 68.5z" />
<glyph unicode="k" horiz-adv-x="404" d="M65 0v703h65v-391h58l114 191h73l-132 -219v-2l145 -282h-74l-126 252h-58v-252h-65z" />
<glyph unicode="l" horiz-adv-x="211" d="M65 119v584h66v-569q0 -47 11.5 -62.5t31.5 -15.5q9 0 13 1v-59q-12 -2 -23 -2q-99 0 -99 123z" />
<glyph unicode="m" horiz-adv-x="716" d="M65 0v503h64v-51l-3 -31h2q9 21 23 39.5t46.5 36.5t74.5 18q90 0 113 -94h3q43 94 146 94q121 0 121 -160v-355h-66v340q0 113 -73 113q-53 0 -88.5 -45.5t-35.5 -108.5v-299h-65v340q0 113 -73 113q-53 0 -88.5 -46.5t-35.5 -110.5v-296h-65z" />
<glyph unicode="n" horiz-adv-x="472" d="M65 0v503h64v-51l-3 -31h2q15 35 53.5 64.5t99.5 29.5q130 0 130 -160v-355h-66v341q0 51 -16 81.5t-63 30.5q-59 0 -97.5 -48t-38.5 -110v-295h-65z" />
<glyph unicode="o" horiz-adv-x="493" d="M39 253q0 114 57.5 188t150.5 74t150 -74t57 -188t-57.5 -189.5t-150.5 -75.5q-92 0 -149.5 75t-57.5 190zM106 254q0 -91 38 -149t102 -58q65 0 103 58t38 149q0 90 -38 146t-103 56q-64 0 -102 -56t-38 -146z" />
<glyph unicode="p" horiz-adv-x="469" d="M65 -200v703h62v-41l-3 -38h2q32 91 132 91q83 0 126.5 -71.5t43.5 -191.5q0 -121 -46.5 -192.5t-128.5 -71.5q-42 0 -76 21.5t-48 58.5h-2q3 -18 3 -41v-227h-65zM128 251q0 -57 9.5 -100t36.5 -73.5t69 -30.5q56 0 87 53.5t31 150.5q0 96 -29 150.5t-86 54.5 q-118 0 -118 -205z" />
<glyph unicode="q" horiz-adv-x="469" d="M211 -12q-83 0 -126.5 71.5t-43.5 192.5t46 192t130 71q44 0 77.5 -22t48.5 -61h2q-3 18 -3 40v31h62v-703h-65v236l3 41h-2q-14 -43 -49 -66t-80 -23zM223 47q118 0 118 205q0 56 -9.5 99.5t-36.5 74t-69 30.5q-56 0 -87 -53.5t-31 -151.5q0 -96 29 -150t86 -54z" />
<glyph unicode="r" horiz-adv-x="292" d="M65 0v503h64v-77l-2 -39h2q13 51 47.5 86t74.5 35q11 0 21 -3v-66q-8 2 -21 2q-58 0 -89.5 -70t-31.5 -153v-218h-65z" />
<glyph unicode="s" horiz-adv-x="348" d="M30 42l27 52q53 -48 109 -48q38 0 61 21.5t23 58.5q0 33 -21 56t-50.5 38t-59.5 32t-51 48.5t-21 76.5q0 63 38.5 100.5t105.5 37.5q63 0 110 -36l-22 -55q-42 33 -89 33q-35 0 -57 -20.5t-22 -56.5q0 -33 21 -56t50.5 -38t59.5 -32t51 -48t21 -75q0 -61 -38 -102 t-110 -41q-79 0 -136 54z" />
<glyph unicode="t" horiz-adv-x="261" d="M75 183v259h-51v57h52v143h64v-143h95v-57h-95v-253q0 -133 85 -133q12 0 17 2v-60q-6 -2 -25 -2q-17 0 -33.5 3t-37 14.5t-35.5 30.5t-25.5 55t-10.5 84z" />
<glyph unicode="u" horiz-adv-x="468" d="M61 148v355h65v-340q0 -52 16 -82.5t64 -30.5q55 0 93.5 47.5t38.5 109.5v296h65v-503h-64v51l3 32h-2q-15 -36 -52.5 -65.5t-96.5 -29.5q-130 0 -130 160z" />
<glyph unicode="v" horiz-adv-x="412" d="M169 0l-146 503h68l102 -368l13 -61h1q6 35 12 61l103 368h67l-145 -503h-75z" />
<glyph unicode="w" horiz-adv-x="644" d="M149 0l-125 503h67l86 -374l11 -54h1q5 31 10 54l90 372h66l90 -372l10 -54h2q5 29 11 54l87 374h65l-125 -503h-74l-88 358l-10 55h-2q-4 -31 -10 -55l-87 -358h-75z" />
<glyph unicode="x" horiz-adv-x="386" d="M18 0l133 265l-122 238h69l81 -166l12 -30h2q6 17 12 30l83 166h69l-122 -238l133 -265h-68l-94 191l-11 29h-2q-5 -14 -12 -29l-94 -191h-69z" />
<glyph unicode="y" horiz-adv-x="419" d="M40 -132q21 -19 49 -19q46 0 71 84l22 70l-164 500h70l109 -366l11 -55h2q7 32 13 55l105 366h68l-182 -597q-16 -54 -48 -85t-74 -31q-20 0 -38 6t-26 12l-9 7z" />
<glyph unicode="z" horiz-adv-x="394" d="M31 0v45l217 353l30 47v2q-12 -2 -37 -2h-201v58h316v-45l-217 -354l-32 -46v-2q13 2 38 2h218v-58h-332z" />
<glyph unicode="{" horiz-adv-x="274" d="M101 83v95q0 98 -66 115v60q66 17 66 116v83q0 57 13 96t35 55t38.5 21.5t33.5 5.5h16v-55q-3 1 -9 1q-10 0 -19.5 -4t-21.5 -15.5t-19.5 -39t-7.5 -67.5v-99q0 -91 -63 -127v-2q32 -15 47.5 -50.5t15.5 -76.5v-111q0 -40 7.5 -67.5t19.5 -38.5t21.5 -15t19.5 -4h9v-55 q-7 -1 -16 -1q-13 0 -25.5 2.5t-31 13.5t-31.5 29t-22.5 53t-9.5 82z" />
<glyph unicode="|" horiz-adv-x="200" d="M71 -157v945h58v-945h-58z" />
<glyph unicode="}" horiz-adv-x="274" d="M37 -41h9q10 0 19.5 4t21.5 15t19.5 38.5t7.5 67.5v111q0 97 62 127v2q-62 34 -62 127v99q0 40 -7.5 67.5t-19.5 39t-21.5 15.5t-19.5 4l-9 -1v55h16q17 0 33.5 -5.5t38 -21.5t35 -55t13.5 -96v-83q0 -41 15.5 -74t50.5 -42v-60q-32 -7 -49 -40t-17 -75v-95 q0 -58 -13.5 -97.5t-35 -55.5t-38 -21.5t-33.5 -5.5l-16 1v55z" />
<glyph unicode="~" horiz-adv-x="474" d="M57 208q0 80 28.5 118.5t76.5 38.5q30 0 53 -16.5t34.5 -36t27.5 -36t35 -16.5q20 0 32.5 18.5t16 39t3.5 43.5h54q0 -80 -28.5 -118.5t-76.5 -38.5q-30 0 -53 16.5t-34.5 36t-27.5 36t-34 16.5q-20 0 -32.5 -18t-16 -39t-3.5 -44h-55z" />
<glyph unicode="&#xa1;" horiz-adv-x="199" d="M129 319l4 -519h-67l4 519h59zM134 503v-77h-69v77h69z" />
<glyph unicode="&#xa2;" horiz-adv-x="439" d="M202 -13v85q-73 11 -117 89.5t-44 190.5q0 111 44 189.5t117 89.5v84h51v-84q95 -13 139 -122l-58 -26q-36 85 -102 85q-58 0 -91 -61.5t-33 -154.5q0 -95 33 -156t91 -61q66 0 102 86l58 -26q-44 -112 -139 -123v-85h-51z" />
<glyph unicode="&#xa3;" horiz-adv-x="439" d="M35 327v54h50v147q0 85 45 136t119 51q78 0 126 -44l-35 -51q-41 32 -90 32q-47 0 -71.5 -36t-24.5 -90v-145h143v-54h-143v-266h254v-61h-370v61h47v266h-50z" />
<glyph unicode="&#xa5;" horiz-adv-x="439" d="M61 353v51h80l-130 302h74l106 -255l28 -83h2q14 44 29 83l105 255h74l-130 -302h79v-51h-103l-21 -49v-40h124v-50h-124v-214h-67v214h-126v50h126v40l-22 49h-104z" />
<glyph unicode="&#xa7;" horiz-adv-x="338" d="M109 86l-54 433q-3 17 -3 34q0 67 35.5 114.5t103.5 47.5q59 0 99 -32l-26 -47q-30 21 -72 21q-44 0 -63 -32t-19 -77q0 -18 3 -31l52 -431h-56zM48 -30l26 47q32 -21 72 -21q44 0 63 32t19 77q0 15 -3 31l-52 431h56l54 -433q2 -11 2 -33q0 -67 -35 -115t-103 -48 q-60 0 -99 32z" />
<glyph unicode="&#xa8;" horiz-adv-x="385" d="M227 785v86h55v-86h-55zM103 785v86h55v-86h-55z" />
<glyph unicode="&#xa9;" horiz-adv-x="658" d="M49 352q0 159 77 261t204 102q128 0 203.5 -101.5t75.5 -261.5q0 -161 -75.5 -262.5t-203.5 -101.5q-127 0 -204 102t-77 262zM105 352q0 -139 60.5 -225.5t164.5 -86.5q106 0 165 86t59 226q0 139 -59 225.5t-165 86.5q-104 0 -164.5 -87t-60.5 -225zM182 350 q0 84 39.5 145t112.5 61q40 0 74.5 -23.5t47.5 -61.5l-40 -23q-8 24 -31 40t-49 16q-47 0 -72 -45.5t-25 -108.5q0 -62 24.5 -107t71.5 -45q26 0 49 16t33 41l39 -24q-13 -37 -47 -61t-75 -24q-73 0 -112.5 60t-39.5 144z" />
<glyph unicode="&#xaa;" horiz-adv-x="337" d="M148 382q-35 0 -60 25t-25 70q0 111 143 111h12v6q0 74 -53 74q-28 0 -65 -22l-20 38q34 29 91 29q98 0 98 -123v-202h-47v50h-2q-26 -56 -72 -56zM156 428q27 0 44 32t17 72v14h-10q-95 0 -95 -64q0 -22 12 -38t32 -16zM62 264v47h210v-47h-210z" />
<glyph unicode="&#xab;" horiz-adv-x="428" d="M316 77l-126 205l126 206h67l-126 -206l126 -205h-67zM167 77l-126 205l126 206h68l-127 -206l127 -205h-68z" />
<glyph unicode="&#xac;" horiz-adv-x="492" d="M64 342v58h364v-243h-56v185h-308z" />
<glyph unicode="&#xad;" horiz-adv-x="340" d="M59 253v62h222v-62h-222z" />
<glyph unicode="&#xae;" horiz-adv-x="658" d="M49 352q0 159 77 261t204 102q128 0 203.5 -101.5t75.5 -261.5q0 -161 -75.5 -262.5t-203.5 -101.5q-127 0 -204 102t-77 262zM105 352q0 -139 60.5 -225.5t164.5 -86.5q106 0 165 86t59 226q0 139 -59 225.5t-165 86.5q-104 0 -164.5 -87t-60.5 -225zM233 158v389h115 q43 0 68.5 -31.5t25.5 -84.5q0 -41 -17.5 -68.5t-41.5 -34.5v-2q5 -5 11 -22l55 -146h-57l-57 157h-48v-157h-54zM287 360h50q23 0 36.5 18.5t13.5 52.5q0 33 -13 51t-36 18h-51v-140z" />
<glyph unicode="&#xaf;" horiz-adv-x="385" d="M96 785v55h193v-55h-193z" />
<glyph unicode="&#xb0;" horiz-adv-x="320" d="M160 436q-51 0 -82 39.5t-31 98.5q0 60 31 100t82 40t82.5 -40.5t31.5 -99.5q0 -58 -31.5 -98t-82.5 -40zM160 490q29 0 44 24t15 61t-15 61t-44 24t-44 -24t-15 -61q0 -38 15 -61.5t44 -23.5z" />
<glyph unicode="&#xb1;" horiz-adv-x="477" d="M209 0v256h-174v57h174v255h59v-255h174v-57h-174v-256h-59zM47 -106h382v-57h-382v57z" />
<glyph unicode="&#xb2;" horiz-adv-x="297" d="M39 423q-3 30 -3 31q0 42 17 76.5t41 58t48.5 45t41.5 49.5t17 61q0 36 -18.5 55t-48.5 19q-43 0 -65 -39l-34 30q12 25 40.5 42t65.5 17q49 0 81 -31.5t32 -88.5q0 -39 -17 -72t-41 -56.5t-48 -45t-41.5 -48t-18.5 -55.5h171v-48h-220z" />
<glyph unicode="&#xb3;" horiz-adv-x="297" d="M128 413q-57 0 -98 39l25 42q27 -32 69 -32q35 0 58.5 23.5t23.5 64.5q0 40 -24 62t-68 22h-29l-10 33l89 122l18 20v2q-10 -1 -29 -1h-108v48h204v-33l-111 -149q54 -4 87.5 -35.5t33.5 -89.5q0 -61 -36.5 -99.5t-94.5 -38.5z" />
<glyph unicode="&#xb4;" horiz-adv-x="386" d="M129 752l55 119h73l-72 -119h-56z" />
<glyph unicode="&#xb6;" horiz-adv-x="457" d="M217 -50v291q-80 0 -132 67t-52 165t52 164t131 66h200v-62h-145v-691h-54zM316 -50v630h54v-630h-54z" />
<glyph unicode="&#xb7;" horiz-adv-x="186" d="M59 248v80h68v-80h-68z" />
<glyph unicode="&#xb8;" horiz-adv-x="385" d="M134 -154q15 -6 32 -6q38 0 38 36t-42 36l-13 -1l21 109l35 -7v-8l-8 -60q25 -5 41 -23.5t16 -47.5q0 -40 -23.5 -59.5t-56.5 -19.5q-24 0 -40 5v46z" />
<glyph unicode="&#xb9;" horiz-adv-x="297" d="M57 423v48h74v295l2 24h-3q-1 -9 -14 -26l-31 -38l-31 31l81 101h47v-387h71v-48h-196z" />
<glyph unicode="&#xba;" horiz-adv-x="382" d="M190 383q-57 0 -93.5 47.5t-36.5 119.5q0 70 36 117t93 47q59 0 95.5 -46.5t36.5 -117.5q0 -72 -36.5 -119.5t-94.5 -47.5zM190 433q35 0 56.5 33t21.5 84q0 50 -21 82t-57 32t-57 -32t-21 -82q0 -51 21.5 -84t56.5 -33zM72 264v47h238v-47h-238z" />
<glyph unicode="&#xbb;" horiz-adv-x="428" d="M194 77l126 205l-126 206h67l126 -206l-126 -205h-67zM46 77l126 205l-126 206h66l127 -206l-127 -205h-66z" />
<glyph unicode="&#xbc;" horiz-adv-x="740" d="M608 0v116h-164v39l157 280h56v-274h49v-45h-49v-116h-49zM499 161h109v146l1 56h-2q-10 -25 -22 -47l-86 -153v-2zM50 268v48h74v295l2 24h-3q-1 -9 -14 -26l-31 -38l-31 31l81 101h47v-387h71v-48h-196zM261 0h-54l259 703h53z" />
<glyph unicode="&#xbd;" horiz-adv-x="733" d="M470 0q-3 30 -3 31q0 42 17 76.5t41.5 58t48.5 45t41 49.5t17 61q0 36 -18.5 55t-48.5 19q-43 0 -65 -39l-34 30q12 25 40.5 42t65.5 17q49 0 81 -31.5t32 -88.5q0 -39 -17 -72t-41 -56.5t-48 -45t-41.5 -48t-18.5 -55.5h171v-48h-220zM261 0h-54l259 703h53zM49 268v48 h74v295l2 24h-3q-1 -9 -14 -26l-31 -38l-31 31l81 101h47v-387h71v-48h-196z" />
<glyph unicode="&#xbe;" horiz-adv-x="751" d="M618 0v116h-164v39l157 280h56v-274h49v-45h-49v-116h-49zM509 161h109v146l1 56h-2q-10 -25 -22 -47l-86 -153v-2zM138 258q-57 0 -98 39l25 42q27 -32 69 -32q35 0 58.5 23.5t23.5 64.5q0 40 -24 62t-68 22h-29l-10 33l89 122l18 20v2q-10 -1 -29 -1h-108v48h204v-33 l-111 -149q54 -4 87.5 -35.5t33.5 -89.5q0 -61 -36.5 -99.5t-94.5 -38.5zM272 0h-54l259 703h53z" />
<glyph unicode="&#xbf;" horiz-adv-x="352" d="M235 319v-42q0 -44 -13.5 -80t-33 -60.5t-39.5 -47t-33.5 -52t-13.5 -63.5q0 -53 28 -88t77 -35q53 0 85 28l29 -51q-46 -41 -121 -41q-77 0 -122 50.5t-45 132.5q0 44 14 79t34.5 59t41 47.5t34.5 56t14 71.5v36h64zM237 503v-77h-69v77h69z" />
<glyph unicode="&#xc0;" horiz-adv-x="495" d="M16 0l195 703h72l196 -703h-68l-61 224h-205l-61 -224h-68zM158 283h179l-69 255l-19 92h-3q-10 -58 -19 -92zM218 752l-70 119h71l56 -119h-57z" />
<glyph unicode="&#xc1;" horiz-adv-x="495" d="M16 0l195 703h72l196 -703h-68l-61 224h-205l-61 -224h-68zM158 283h179l-69 255l-19 92h-3q-10 -58 -19 -92zM215 752l55 119h73l-72 -119h-56z" />
<glyph unicode="&#xc2;" horiz-adv-x="495" d="M16 0l195 703h72l196 -703h-68l-61 224h-205l-61 -224h-68zM158 283h179l-69 255l-19 92h-3q-10 -58 -19 -92zM146 752l67 119h69l67 -119h-60l-41 81h-2l-40 -81h-60z" />
<glyph unicode="&#xc3;" horiz-adv-x="495" d="M16 0l195 703h72l196 -703h-68l-61 224h-205l-61 -224h-68zM158 283h179l-69 255l-19 92h-3q-10 -58 -19 -92zM121 755q0 117 74 117q24 0 41.5 -18t30.5 -35.5t27 -17.5q30 0 30 68h49q0 -117 -74 -117q-24 0 -41.5 18t-31 35.5t-27.5 17.5q-29 0 -29 -68h-49z" />
<glyph unicode="&#xc4;" horiz-adv-x="495" d="M16 0l195 703h72l196 -703h-68l-61 224h-205l-61 -224h-68zM158 283h179l-69 255l-19 92h-3q-10 -58 -19 -92zM282 785v86h55v-86h-55zM158 785v86h55v-86h-55z" />
<glyph unicode="&#xc5;" horiz-adv-x="495" d="M16 0l195 703h72l196 -703h-68l-61 224h-205l-61 -224h-68zM158 283h179l-69 255l-19 92h-3q-10 -58 -19 -92zM247 741q-27 0 -45.5 20t-18.5 51t18.5 51t45.5 20t45.5 -20t18.5 -51t-18.5 -51t-45.5 -20zM247 778q25 0 25 34q0 36 -25 36q-26 0 -26 -36q0 -34 26 -34z " />
<glyph unicode="&#xc6;" horiz-adv-x="670" d="M13 0l224 703h387v-60h-244v-258h199v-60h-199v-264h258v-61h-325v310h-134l-98 -310h-68zM283 640l-85 -270h115v270h-30z" />
<glyph unicode="&#xc7;" horiz-adv-x="545" d="M280 -154q15 -6 32 -6q38 0 38 36t-42 36l-13 -1l15 78q-123 10 -195 112.5t-72 253.5q0 159 80 259.5t217 100.5q102 0 166 -57l-29 -58q-24 23 -62.5 37.5t-75.5 14.5q-105 0 -166 -83t-61 -212q0 -130 61.5 -218t163.5 -88q85 0 155 57l26 -57q-64 -58 -169 -63 l-6 -43q25 -5 41 -23.5t16 -47.5q0 -40 -23.5 -59.5t-56.5 -19.5q-24 0 -40 5v46z" />
<glyph unicode="&#xc8;" horiz-adv-x="433" d="M76 0v703h312v-60h-245v-258h199v-60h-199v-264h258v-61h-325zM214 752l-70 119h71l56 -119h-57z" />
<glyph unicode="&#xc9;" horiz-adv-x="433" d="M211 752l55 119h73l-72 -119h-56zM76 0v703h312v-60h-245v-258h199v-60h-199v-264h258v-61h-325z" />
<glyph unicode="&#xca;" horiz-adv-x="433" d="M142 752l67 119h69l67 -119h-60l-41 81h-2l-40 -81h-60zM76 0v703h312v-60h-245v-258h199v-60h-199v-264h258v-61h-325z" />
<glyph unicode="&#xcb;" horiz-adv-x="433" d="M278 785v86h55v-86h-55zM154 785v86h55v-86h-55zM76 0v703h312v-60h-245v-258h199v-60h-199v-264h258v-61h-325z" />
<glyph unicode="&#xcc;" horiz-adv-x="219" d="M76 0v703h67v-703h-67zM82 752l-70 119h71l56 -119h-57z" />
<glyph unicode="&#xcd;" horiz-adv-x="219" d="M76 0v703h67v-703h-67zM79 752l55 119h73l-72 -119h-56z" />
<glyph unicode="&#xce;" horiz-adv-x="219" d="M76 0v703h67v-703h-67zM10 752l67 119h69l67 -119h-60l-41 81h-2l-40 -81h-60z" />
<glyph unicode="&#xcf;" horiz-adv-x="219" d="M76 0v703h67v-703h-67zM146 785v86h55v-86h-55zM22 785v86h55v-86h-55z" />
<glyph unicode="&#xd0;" horiz-adv-x="576" d="M31 323v60h47v320h179q126 0 200.5 -93t74.5 -258q0 -166 -74.5 -259t-200.5 -93h-179v323h-47zM144 61h108q98 0 154.5 75.5t56.5 215.5q0 138 -57 214t-154 76h-108v-259h125v-60h-125v-262z" />
<glyph unicode="&#xd1;" horiz-adv-x="583" d="M76 0v703h68l261 -497q8 -16 18 -39t16 -38l6 -15h2q-5 57 -5 94v495h64v-703h-68l-261 500l-39 93h-2q5 -58 5 -95v-498h-65zM169 755q0 117 74 117q24 0 41.5 -18t30.5 -35.5t27 -17.5q30 0 30 68h49q0 -117 -74 -117q-24 0 -41.5 18t-31 35.5t-27.5 17.5 q-29 0 -29 -68h-49z" />
<glyph unicode="&#xd2;" d="M43 356q0 163 78.5 261t199.5 98t199.5 -98t78.5 -261q0 -166 -78.5 -267t-199.5 -101t-199.5 101t-78.5 267zM112 356q0 -140 59 -222t150 -82t149.5 82.5t58.5 221.5q0 136 -58.5 215.5t-149.5 79.5q-92 0 -150.5 -79.5t-58.5 -215.5zM292 752l-70 119h71l56 -119h-57z " />
<glyph unicode="&#xd3;" d="M289 752l55 119h73l-72 -119h-56zM43 356q0 163 78.5 261t199.5 98t199.5 -98t78.5 -261q0 -166 -78.5 -267t-199.5 -101t-199.5 101t-78.5 267zM112 356q0 -140 59 -222t150 -82t149.5 82.5t58.5 221.5q0 136 -58.5 215.5t-149.5 79.5q-92 0 -150.5 -79.5t-58.5 -215.5z " />
<glyph unicode="&#xd4;" d="M220 752l67 119h69l67 -119h-60l-41 81h-2l-40 -81h-60zM43 356q0 163 78.5 261t199.5 98t199.5 -98t78.5 -261q0 -166 -78.5 -267t-199.5 -101t-199.5 101t-78.5 267zM112 356q0 -140 59 -222t150 -82t149.5 82.5t58.5 221.5q0 136 -58.5 215.5t-149.5 79.5 q-92 0 -150.5 -79.5t-58.5 -215.5z" />
<glyph unicode="&#xd5;" d="M43 356q0 163 78.5 261t199.5 98t199.5 -98t78.5 -261q0 -166 -78.5 -267t-199.5 -101t-199.5 101t-78.5 267zM112 356q0 -140 59 -222t150 -82t149.5 82.5t58.5 221.5q0 136 -58.5 215.5t-149.5 79.5q-92 0 -150.5 -79.5t-58.5 -215.5zM195 755q0 117 74 117 q24 0 41.5 -18t30.5 -35.5t27 -17.5q30 0 30 68h49q0 -117 -74 -117q-24 0 -41.5 18t-31 35.5t-27.5 17.5q-29 0 -29 -68h-49z" />
<glyph unicode="&#xd6;" d="M356 785v86h55v-86h-55zM232 785v86h55v-86h-55zM43 356q0 163 78.5 261t199.5 98t199.5 -98t78.5 -261q0 -166 -78.5 -267t-199.5 -101t-199.5 101t-78.5 267zM112 356q0 -140 59 -222t150 -82t149.5 82.5t58.5 221.5q0 136 -58.5 215.5t-149.5 79.5q-92 0 -150.5 -79.5 t-58.5 -215.5z" />
<glyph unicode="&#xd7;" horiz-adv-x="477" d="M33 35l169 246l-170 248l46 38l160 -235l160 235l46 -38l-171 -248l170 -246l-45 -37l-160 232l-160 -232z" />
<glyph unicode="&#xd8;" d="M43 357q0 163 78 260.5t200 97.5q83 0 145 -47l33 61l43 -25l-38 -68q95 -98 95 -279q0 -167 -78.5 -268t-199.5 -101q-84 0 -148 49l-34 -60l-43 24l38 71q-91 101 -91 285zM530 357q0 136 -60 217l-266 -479q50 -43 117 -43q92 0 150.5 82.5t58.5 222.5zM113 357 q0 -139 58 -221l263 475q-49 40 -113 40q-93 0 -150.5 -79t-57.5 -215z" />
<glyph unicode="&#xd9;" horiz-adv-x="566" d="M72 221v482h66v-480q0 -84 38.5 -128t105.5 -44t106 44.5t39 129.5v478h67v-482q0 -109 -57.5 -171t-153.5 -62t-153.5 62t-57.5 171zM253 752l-70 119h71l56 -119h-57z" />
<glyph unicode="&#xda;" horiz-adv-x="566" d="M251 752l55 119h73l-72 -119h-56zM72 221v482h66v-480q0 -84 38.5 -128t105.5 -44t106 44.5t39 129.5v478h67v-482q0 -109 -57.5 -171t-153.5 -62t-153.5 62t-57.5 171z" />
<glyph unicode="&#xdb;" horiz-adv-x="566" d="M181 752l67 119h69l67 -119h-60l-41 81h-2l-40 -81h-60zM72 221v482h66v-480q0 -84 38.5 -128t105.5 -44t106 44.5t39 129.5v478h67v-482q0 -109 -57.5 -171t-153.5 -62t-153.5 62t-57.5 171z" />
<glyph unicode="&#xdc;" horiz-adv-x="566" d="M317 785v86h55v-86h-55zM193 785v86h55v-86h-55zM72 221v482h66v-480q0 -84 38.5 -128t105.5 -44t106 44.5t39 129.5v478h67v-482q0 -109 -57.5 -171t-153.5 -62t-153.5 62t-57.5 171z" />
<glyph unicode="&#xdd;" horiz-adv-x="456" d="M195 0v302l-183 401h74l111 -255l30 -82h2q16 45 32 82l110 255h73l-183 -401v-302h-66zM195 752l55 119h73l-72 -119h-56z" />
<glyph unicode="&#xde;" horiz-adv-x="472" d="M76 0v703h67v-126h104q88 0 144 -58t56 -155q0 -96 -56.5 -155t-143.5 -59h-104v-150h-67zM143 210h95q63 0 101.5 41.5t38.5 112.5t-38.5 112t-101.5 41h-95v-307z" />
<glyph unicode="&#xdf;" horiz-adv-x="460" d="M65 0v531q0 89 48 136.5t114 47.5q63 0 102.5 -42.5t39.5 -108.5q0 -42 -20 -78t-40 -64t-20 -50q0 -21 14.5 -40.5t35.5 -38t42.5 -39t36 -52t14.5 -69.5q0 -62 -35.5 -101t-100.5 -39q-60 0 -104 32v64q45 -37 96 -37q36 0 57 21.5t21 58.5q0 30 -14.5 55.5t-36 44 t-42.5 37t-35.5 43.5t-14.5 56q0 42 41 99.5t41 96.5t-20 65.5t-58 26.5q-41 0 -69 -33t-28 -97v-526h-65z" />
<glyph unicode="&#xe0;" horiz-adv-x="411" d="M31 140q0 169 228 169h26v15q0 73 -23.5 103t-67.5 30q-61 0 -113 -37l-20 52q56 43 137 43q152 0 152 -193v-322h-60v44l2 43h-2q-44 -95 -129 -95q-53 0 -91.5 38t-38.5 110zM94 145q0 -42 22.5 -69.5t56.5 -27.5q52 0 82 53.5t30 113.5v42h-25q-166 0 -166 -112z M173 585l-70 119h71l56 -119h-57z" />
<glyph unicode="&#xe1;" horiz-adv-x="411" d="M31 140q0 169 228 169h26v15q0 73 -23.5 103t-67.5 30q-61 0 -113 -37l-20 52q56 43 137 43q152 0 152 -193v-322h-60v44l2 43h-2q-44 -95 -129 -95q-53 0 -91.5 38t-38.5 110zM94 145q0 -42 22.5 -69.5t56.5 -27.5q52 0 82 53.5t30 113.5v42h-25q-166 0 -166 -112z M170 585l55 119h73l-72 -119h-56z" />
<glyph unicode="&#xe2;" horiz-adv-x="411" d="M31 140q0 169 228 169h26v15q0 73 -23.5 103t-67.5 30q-61 0 -113 -37l-20 52q56 43 137 43q152 0 152 -193v-322h-60v44l2 43h-2q-44 -95 -129 -95q-53 0 -91.5 38t-38.5 110zM94 145q0 -42 22.5 -69.5t56.5 -27.5q52 0 82 53.5t30 113.5v42h-25q-166 0 -166 -112z M100 585l67 119h69l67 -119h-60l-41 81h-2l-40 -81h-60z" />
<glyph unicode="&#xe3;" horiz-adv-x="411" d="M31 140q0 169 228 169h26v15q0 73 -23.5 103t-67.5 30q-61 0 -113 -37l-20 52q56 43 137 43q152 0 152 -193v-322h-60v44l2 43h-2q-44 -95 -129 -95q-53 0 -91.5 38t-38.5 110zM94 145q0 -42 22.5 -69.5t56.5 -27.5q52 0 82 53.5t30 113.5v42h-25q-166 0 -166 -112z M76 588q0 117 74 117q24 0 41.5 -17.5t30.5 -35.5t27 -18q30 0 30 68h49q0 -117 -74 -117q-24 0 -41.5 17.5t-31 35.5t-27.5 18q-29 0 -29 -68h-49z" />
<glyph unicode="&#xe4;" horiz-adv-x="411" d="M31 140q0 169 228 169h26v15q0 73 -23.5 103t-67.5 30q-61 0 -113 -37l-20 52q56 43 137 43q152 0 152 -193v-322h-60v44l2 43h-2q-44 -95 -129 -95q-53 0 -91.5 38t-38.5 110zM94 145q0 -42 22.5 -69.5t56.5 -27.5q52 0 82 53.5t30 113.5v42h-25q-166 0 -166 -112z M236 618v86h55v-86h-55zM112 618v86h55v-86h-55z" />
<glyph unicode="&#xe5;" horiz-adv-x="411" d="M31 140q0 169 228 169h26v15q0 73 -23.5 103t-67.5 30q-61 0 -113 -37l-20 52q56 43 137 43q152 0 152 -193v-322h-60v44l2 43h-2q-44 -95 -129 -95q-53 0 -91.5 38t-38.5 110zM94 145q0 -42 22.5 -69.5t56.5 -27.5q52 0 82 53.5t30 113.5v42h-25q-166 0 -166 -112z M201 574q-27 0 -45.5 20t-18.5 51t18.5 51t45.5 20t45.5 -20t18.5 -51t-18.5 -51t-45.5 -20zM201 611q25 0 25 34q0 36 -25 36q-26 0 -26 -36q0 -34 26 -34z" />
<glyph unicode="&#xe6;" horiz-adv-x="681" d="M30 140q0 43 17.5 75t41.5 48.5t58 26.5t59.5 12.5t53.5 2.5h25v19q0 133 -90 133q-62 0 -114 -36l-20 51q58 43 138 43q96 0 126 -90h2q51 90 148 90q85 0 126 -64t41 -157q0 -28 -3 -42h-288q2 -100 41.5 -152t100.5 -52q67 0 121 52l19 -53q-54 -59 -146 -59 q-122 0 -171 122h-3q-19 -55 -57.5 -88.5t-90.5 -33.5q-55 0 -95 39t-40 113zM352 305h225q-4 154 -103 154q-48 0 -81 -41t-41 -113zM94 145q0 -44 22 -72.5t57 -28.5q54 0 83 55.5t29 116.5v36h-21q-30 0 -51 -2.5t-52.5 -11.5t-49 -32.5t-17.5 -60.5z" />
<glyph unicode="&#xe7;" horiz-adv-x="425" d="M197 -154q15 -6 32 -6q38 0 38 36t-42 36l-13 -1l15 79q-84 9 -136 80t-52 181q0 117 59.5 190.5t158.5 73.5q83 0 130 -50l-26 -54q-42 45 -103 45q-69 0 -110.5 -57t-41.5 -148t41.5 -147.5t111.5 -56.5q69 0 117 53l20 -54q-44 -52 -130 -57l-6 -44q25 -5 41 -23.5 t16 -47.5q0 -40 -23.5 -59.5t-56.5 -19.5q-24 0 -40 5v46z" />
<glyph unicode="&#xe8;" horiz-adv-x="437" d="M40 256q0 118 52 188.5t140 70.5q85 0 126 -64.5t41 -159.5q0 -10 -2 -42h-290q1 -98 40.5 -149.5t101.5 -51.5q73 0 122 52l19 -53q-24 -26 -64 -42.5t-83 -16.5q-94 0 -148.5 73.5t-54.5 194.5zM107 302h226q-1 156 -102 156q-50 0 -82.5 -40.5t-41.5 -115.5zM203 585 l-70 119h71l56 -119h-57z" />
<glyph unicode="&#xe9;" horiz-adv-x="437" d="M199 585l55 119h73l-72 -119h-56zM40 256q0 118 52 188.5t140 70.5q85 0 126 -64.5t41 -159.5q0 -10 -2 -42h-290q1 -98 40.5 -149.5t101.5 -51.5q73 0 122 52l19 -53q-24 -26 -64 -42.5t-83 -16.5q-94 0 -148.5 73.5t-54.5 194.5zM107 302h226q-1 156 -102 156 q-50 0 -82.5 -40.5t-41.5 -115.5z" />
<glyph unicode="&#xea;" horiz-adv-x="437" d="M130 585l67 119h69l67 -119h-60l-41 81h-2l-40 -81h-60zM40 256q0 118 52 188.5t140 70.5q85 0 126 -64.5t41 -159.5q0 -10 -2 -42h-290q1 -98 40.5 -149.5t101.5 -51.5q73 0 122 52l19 -53q-24 -26 -64 -42.5t-83 -16.5q-94 0 -148.5 73.5t-54.5 194.5zM107 302h226 q-1 156 -102 156q-50 0 -82.5 -40.5t-41.5 -115.5z" />
<glyph unicode="&#xeb;" horiz-adv-x="437" d="M266 618v86h55v-86h-55zM142 618v86h55v-86h-55zM40 256q0 118 52 188.5t140 70.5q85 0 126 -64.5t41 -159.5q0 -10 -2 -42h-290q1 -98 40.5 -149.5t101.5 -51.5q73 0 122 52l19 -53q-24 -26 -64 -42.5t-83 -16.5q-94 0 -148.5 73.5t-54.5 194.5zM107 302h226 q-1 156 -102 156q-50 0 -82.5 -40.5t-41.5 -115.5z" />
<glyph unicode="&#xec;" horiz-adv-x="195" d="M65 0v503h65v-503h-65zM68 585l-70 119h71l56 -119h-57z" />
<glyph unicode="&#xed;" horiz-adv-x="195" d="M66 585l55 119h73l-72 -119h-56zM65 0v503h65v-503h-65z" />
<glyph unicode="&#xee;" horiz-adv-x="195" d="M-4 585l67 119h69l67 -119h-60l-41 81h-2l-40 -81h-60zM65 0v503h65v-503h-65z" />
<glyph unicode="&#xef;" horiz-adv-x="195" d="M132 618v86h55v-86h-55zM8 618v86h55v-86h-55zM65 0v503h65v-503h-65z" />
<glyph unicode="&#xf0;" horiz-adv-x="455" d="M39 230q0 96 48.5 166t128.5 70q35 0 63.5 -13.5t38.5 -26.5l11 -14l4 2q-25 92 -95 155l-150 -83l2 54l107 59q-38 31 -110 57l17 56q91 -28 155 -78l116 65l-2 -54l-79 -47q55 -52 87 -133t32 -178q0 -81 -19.5 -147t-63.5 -109t-106 -43q-86 0 -135.5 72.5 t-49.5 169.5zM107 230q0 -73 30.5 -128t84.5 -55q41 0 70.5 35t41.5 80t12 92q0 72 -31 114t-84 42q-60 0 -92 -53t-32 -127z" />
<glyph unicode="&#xf1;" horiz-adv-x="472" d="M65 0v503h64v-51l-3 -31h2q15 35 53.5 64.5t99.5 29.5q130 0 130 -160v-355h-66v341q0 51 -16 81.5t-63 30.5q-59 0 -97.5 -48t-38.5 -110v-295h-65zM119 588q0 117 74 117q24 0 41.5 -17.5t30.5 -35.5t27 -18q30 0 30 68h49q0 -117 -74 -117q-24 0 -41.5 17.5t-31 35.5 t-27.5 18q-29 0 -29 -68h-49z" />
<glyph unicode="&#xf2;" horiz-adv-x="493" d="M39 253q0 114 57.5 188t150.5 74t150 -74t57 -188t-57.5 -189.5t-150.5 -75.5q-92 0 -149.5 75t-57.5 190zM106 254q0 -91 38 -149t102 -58q65 0 103 58t38 149q0 90 -38 146t-103 56q-64 0 -102 -56t-38 -146zM217 585l-70 119h71l56 -119h-57z" />
<glyph unicode="&#xf3;" horiz-adv-x="493" d="M214 585l55 119h73l-72 -119h-56zM39 253q0 114 57.5 188t150.5 74t150 -74t57 -188t-57.5 -189.5t-150.5 -75.5q-92 0 -149.5 75t-57.5 190zM106 254q0 -91 38 -149t102 -58q65 0 103 58t38 149q0 90 -38 146t-103 56q-64 0 -102 -56t-38 -146z" />
<glyph unicode="&#xf4;" horiz-adv-x="493" d="M145 585l67 119h69l67 -119h-60l-41 81h-2l-40 -81h-60zM39 253q0 114 57.5 188t150.5 74t150 -74t57 -188t-57.5 -189.5t-150.5 -75.5q-92 0 -149.5 75t-57.5 190zM106 254q0 -91 38 -149t102 -58q65 0 103 58t38 149q0 90 -38 146t-103 56q-64 0 -102 -56t-38 -146z " />
<glyph unicode="&#xf5;" horiz-adv-x="493" d="M39 253q0 114 57.5 188t150.5 74t150 -74t57 -188t-57.5 -189.5t-150.5 -75.5q-92 0 -149.5 75t-57.5 190zM106 254q0 -91 38 -149t102 -58q65 0 103 58t38 149q0 90 -38 146t-103 56q-64 0 -102 -56t-38 -146zM120 588q0 117 74 117q24 0 41.5 -17.5t30.5 -35.5t27 -18 q30 0 30 68h49q0 -117 -74 -117q-24 0 -41.5 17.5t-31 35.5t-27.5 18q-29 0 -29 -68h-49z" />
<glyph unicode="&#xf6;" horiz-adv-x="493" d="M281 618v86h55v-86h-55zM157 618v86h55v-86h-55zM39 253q0 114 57.5 188t150.5 74t150 -74t57 -188t-57.5 -189.5t-150.5 -75.5q-92 0 -149.5 75t-57.5 190zM106 254q0 -91 38 -149t102 -58q65 0 103 58t38 149q0 90 -38 146t-103 56q-64 0 -102 -56t-38 -146z" />
<glyph unicode="&#xf7;" horiz-adv-x="477" d="M205 433v74h66v-74h-66zM46 255v58h384v-58h-384zM205 60v75h66v-75h-66z" />
<glyph unicode="&#xf8;" horiz-adv-x="493" d="M39 253q0 114 57.5 188t150.5 74q55 0 101 -30l27 50l42 -27l-31 -56q68 -73 68 -199q0 -114 -57.5 -189.5t-149.5 -75.5q-59 0 -101 28l-29 -52l-41 26l31 58q-68 74 -68 205zM105 253q0 -86 37 -143l177 321q-30 26 -72 26q-66 0 -104 -56.5t-38 -147.5zM387 253 q0 88 -34 140l-178 -323q32 -23 72 -23q65 0 102.5 57.5t37.5 148.5z" />
<glyph unicode="&#xf9;" horiz-adv-x="468" d="M61 148v355h65v-340q0 -52 16 -82.5t64 -30.5q55 0 93.5 47.5t38.5 109.5v296h65v-503h-64v51l3 32h-2q-15 -36 -52.5 -65.5t-96.5 -29.5q-130 0 -130 160zM202 585l-70 119h71l56 -119h-57z" />
<glyph unicode="&#xfa;" horiz-adv-x="468" d="M198 585l55 119h73l-72 -119h-56zM61 148v355h65v-340q0 -52 16 -82.5t64 -30.5q55 0 93.5 47.5t38.5 109.5v296h65v-503h-64v51l3 32h-2q-15 -36 -52.5 -65.5t-96.5 -29.5q-130 0 -130 160z" />
<glyph unicode="&#xfb;" horiz-adv-x="468" d="M129 585l67 119h69l67 -119h-60l-41 81h-2l-40 -81h-60zM61 148v355h65v-340q0 -52 16 -82.5t64 -30.5q55 0 93.5 47.5t38.5 109.5v296h65v-503h-64v51l3 32h-2q-15 -36 -52.5 -65.5t-96.5 -29.5q-130 0 -130 160z" />
<glyph unicode="&#xfc;" horiz-adv-x="468" d="M265 618v86h55v-86h-55zM141 618v86h55v-86h-55zM61 148v355h65v-340q0 -52 16 -82.5t64 -30.5q55 0 93.5 47.5t38.5 109.5v296h65v-503h-64v51l3 32h-2q-15 -36 -52.5 -65.5t-96.5 -29.5q-130 0 -130 160z" />
<glyph unicode="&#xfd;" horiz-adv-x="419" d="M40 -132q21 -19 49 -19q46 0 71 84l22 70l-164 500h70l109 -366l11 -55h2q7 32 13 55l105 366h68l-182 -597q-16 -54 -48 -85t-74 -31q-20 0 -38 6t-26 12l-9 7zM178 585l55 119h73l-72 -119h-56z" />
<glyph unicode="&#xfe;" horiz-adv-x="469" d="M65 -200v903h65v-238l-3 -39h2q14 42 48 65.5t81 23.5q84 0 127 -71t43 -192q0 -122 -46.5 -193t-128.5 -71q-42 0 -75 21t-49 60h-2q3 -18 3 -41v-228h-65zM128 251q0 -204 115 -204q56 0 87.5 53.5t31.5 150.5q0 96 -29.5 150t-86.5 54q-118 0 -118 -204z" />
<glyph unicode="&#xff;" horiz-adv-x="419" d="M40 -132q21 -19 49 -19q46 0 71 84l22 70l-164 500h70l109 -366l11 -55h2q7 32 13 55l105 366h68l-182 -597q-16 -54 -48 -85t-74 -31q-20 0 -38 6t-26 12l-9 7zM244 618v86h55v-86h-55zM120 618v86h55v-86h-55z" />
<glyph unicode="&#x152;" horiz-adv-x="731" d="M43 357q0 162 78 260t199 98q42 0 74 -12h292v-60h-245v-258h200v-60h-200v-264h258v-61h-306q-36 -12 -73 -12q-120 0 -198.5 101.5t-78.5 267.5zM112 357q0 -141 59 -224.5t149 -83.5q27 0 55 8v589q-28 8 -55 8q-90 0 -149 -80t-59 -217z" />
<glyph unicode="&#x153;" horiz-adv-x="787" d="M39 253q0 114 57.5 188t150.5 74q58 0 102 -32t69 -90h2q22 59 64.5 90.5t97.5 31.5q84 0 125 -64.5t41 -159.5l-2 -42h-290q1 -98 42 -149.5t104 -51.5q69 0 118 52l19 -53q-24 -27 -63.5 -43t-81.5 -16q-59 0 -104.5 33t-69.5 94h-2q-24 -59 -68.5 -93t-102.5 -34 q-93 0 -150.5 75.5t-57.5 189.5zM457 302h226q-3 157 -102 157q-51 0 -83.5 -41t-40.5 -116zM106 254q0 -90 38 -148.5t103 -58.5q64 0 102 58.5t38 147.5q0 90 -37.5 146.5t-102.5 56.5t-103 -56t-38 -146z" />
<glyph unicode="&#x178;" horiz-adv-x="456" d="M195 0v302l-183 401h74l111 -255l30 -82h2q16 45 32 82l110 255h73l-183 -401v-302h-66zM263 785v86h55v-86h-55zM139 785v86h55v-86h-55z" />
<glyph unicode="&#x2c6;" horiz-adv-x="385" d="M91 752l67 119h69l67 -119h-60l-41 81h-2l-40 -81h-60z" />
<glyph unicode="&#x2dc;" horiz-adv-x="386" d="M67 755q0 117 74 117q24 0 41.5 -18t30.5 -35.5t27 -17.5q30 0 30 68h49q0 -117 -74 -117q-24 0 -41.5 18t-31 35.5t-27.5 17.5q-29 0 -29 -68h-49z" />
<glyph unicode="&#x2000;" horiz-adv-x="441" />
<glyph unicode="&#x2001;" horiz-adv-x="883" />
<glyph unicode="&#x2002;" horiz-adv-x="441" />
<glyph unicode="&#x2003;" horiz-adv-x="883" />
<glyph unicode="&#x2004;" horiz-adv-x="294" />
<glyph unicode="&#x2005;" horiz-adv-x="220" />
<glyph unicode="&#x2006;" horiz-adv-x="147" />
<glyph unicode="&#x2007;" horiz-adv-x="147" />
<glyph unicode="&#x2008;" horiz-adv-x="110" />
<glyph unicode="&#x2009;" horiz-adv-x="176" />
<glyph unicode="&#x200a;" horiz-adv-x="49" />
<glyph unicode="&#x2010;" horiz-adv-x="340" d="M59 253v62h222v-62h-222z" />
<glyph unicode="&#x2011;" horiz-adv-x="340" d="M59 253v62h222v-62h-222z" />
<glyph unicode="&#x2012;" horiz-adv-x="340" d="M59 253v62h222v-62h-222z" />
<glyph unicode="&#x2013;" horiz-adv-x="515" d="M59 255v58h397v-58h-397z" />
<glyph unicode="&#x2014;" horiz-adv-x="668" d="M59 255v58h551v-58h-551z" />
<glyph unicode="&#x2018;" horiz-adv-x="196" d="M52 539l48 173h49l-32 -173h-65z" />
<glyph unicode="&#x2019;" horiz-adv-x="192" d="M55 541l31 172h65l-46 -172h-50z" />
<glyph unicode="&#x201a;" horiz-adv-x="206" d="M45 -90l32 173h64l-48 -173h-48z" />
<glyph unicode="&#x201c;" horiz-adv-x="298" d="M154 539l47 173h50l-32 -173h-65zM52 539l48 173h50l-33 -173h-65z" />
<glyph unicode="&#x201d;" horiz-adv-x="294" d="M157 541l32 172h65l-48 -172h-49zM55 541l31 172h66l-47 -172h-50z" />
<glyph unicode="&#x201e;" horiz-adv-x="307" d="M145 -90l32 173h65l-48 -173h-49zM45 -90l32 173h64l-48 -173h-48z" />
<glyph unicode="&#x2022;" horiz-adv-x="378" d="M190 148q-52 0 -84 41t-32 102t32 102t84 41q51 0 82.5 -41t31.5 -102t-31.5 -102t-82.5 -41z" />
<glyph unicode="&#x2026;" horiz-adv-x="571" d="M443 0v80h69v-80h-69zM251 0v80h69v-80h-69zM59 0v80h68v-80h-68z" />
<glyph unicode="&#x202f;" horiz-adv-x="176" />
<glyph unicode="&#x2039;" horiz-adv-x="280" d="M167 77l-126 205l126 206h68l-127 -206l127 -205h-68z" />
<glyph unicode="&#x203a;" horiz-adv-x="280" d="M46 77l126 205l-126 206h66l127 -206l-127 -205h-66z" />
<glyph unicode="&#x205f;" horiz-adv-x="220" />
<glyph unicode="&#x20ac;" horiz-adv-x="439" d="M18 267v47h46q-3 52 2 96h-48v47h55q24 116 93 187t168 71q36 0 71 -9l-12 -65q-28 10 -61 10q-67 0 -119.5 -53.5t-72.5 -140.5h227l-8 -47h-225q-5 -52 0 -96h211l-7 -47h-195q11 -56 32 -101.5t62.5 -79t96.5 -33.5q31 0 68 11l12 -64q-36 -12 -82 -12 q-101 0 -172 77.5t-90 201.5h-52z" />
<glyph unicode="&#x2122;" horiz-adv-x="774" d="M369 265l26 438h57l77 -242l10 -43h3q4 24 10 43l78 242h55l27 -438h-53l-18 296l2 38h-3l-79 -252h-42l-79 252h-2l1 -38l-17 -296h-53zM174 265v386h-119v52h292v-52h-119v-386h-54z" />
<glyph unicode="&#x25fc;" horiz-adv-x="505" d="M0 505h505v-505h-505v505z" />
</font>
</defs>
</svg>
