<svg viewBox="0 0 159 21" xmlns="http://www.w3.org/2000/svg"><title>État de Vaud</title><path d="M0 4.3h10.7v2.9h-7V11h5.6v2.7H3.7v4.1h7.4v2.9H0V4.3zM5.3 0h3.6L6.6 3.2H4.1L5.3 0zm11.9 7.2h-4.4V4.3h12.6v2.9H21v13.5h-3.7V7.2zm13.3-2.9h4.9l5.3 16.4h-3.9L35.7 17h-6l-1.1 3.7h-3.5l5.4-16.4zm0 10.1h4.3l-2.2-7.1-2.1 7.1zm14-7.2h-4.4V4.3h12.6v2.9h-4.4v13.5h-3.7V7.2zm15.7-2.9h5.4c5.8 0 8.6 3.1 8.6 8v.2c0 4.9-2.9 8.2-8.6 8.2h-5.4V4.3zm5.2 13.5c3.3 0 4.9-1.9 4.9-5.3v-.2c0-3.4-1.4-5.2-4.9-5.2h-1.5v10.6h1.5v.1zM76.9 4.3h10.7v2.9h-7V11h5.6v2.7h-5.6v4.1H88v2.9H76.9zm17.4 0h3.9l3.9 12.6L106 4.3h3.5L104 20.7h-4.3zm20.1 0h4.9l5.3 16.4h-3.9l-1.1-3.7h-6l-1.1 3.7H109l5.4-16.4zm.1 10.1h4.3l-2.2-7.1-2.1 7.1zm11.6-.1v-10h3.7v9.8c0 2.7.8 3.9 3.1 3.9 2.2 0 3.2-1.1 3.2-4.1V4.3h3.7v9.9c0 4.5-2.5 6.8-6.9 6.8s-6.8-2.3-6.8-6.7zm17.4-10h5.4c5.8 0 8.6 3.1 8.6 8v.2c0 4.9-2.9 8.2-8.6 8.2h-5.4V4.3zm5.2 13.5c3.3 0 4.9-1.9 4.9-5.3v-.2c0-3.4-1.4-5.2-4.9-5.2h-1.5v10.6h1.5v.1z"/></svg>