<svg id="Calque_1" xmlns="http://www.w3.org/2000/svg" viewBox="0 0 1433.9 4.5"><style>.st0{fill:#028b02}.st1{fill:#fff}.st2{fill:#40d941}.st3{fill:#c3d1dc}.st4{fill:#1e5e02}.st5{fill:#dbe2e6}.st6{fill:#ccff9a}.st7{fill:#9f3}.st8{fill:#536571}.st9{fill:#cf9}.st10{fill:#dce3e8}.st11{fill:#d5dce4}.st12{fill:#697983}.st13{fill:#1d1d1b}</style><path id="XMLID_54_" class="st0" d="M67 4.5L62.6 0h-3.3l4.5 4.5z"/><path id="XMLID_55_" class="st1" d="M63.8 4.5L59.3 0H56l4.5 4.5z"/><path id="XMLID_56_" class="st2" d="M60.5 4.5L56 0h-3.3l4.5 4.5z"/><path id="XMLID_65_" class="st1" d="M57.2 4.5L52.7 0h-3.3l4.5 4.5z"/><path id="XMLID_45_" class="st2" d="M53.9 4.5L49.4 0h-3.3l4.5 4.5z"/><path id="XMLID_37_" class="st3" d="M50.6 4.5L46.1 0h-3.2l4.4 4.5z"/><path id="XMLID_38_" class="st2" d="M47.3 4.5L42.9 0h-3.3L44 4.5z"/><path id="XMLID_39_" class="st3" d="M44 4.5L39.6 0h-3.3l4.4 4.5z"/><path id="XMLID_40_" class="st2" d="M40.7 4.5L36.3 0H33l4.4 4.5z"/><path id="XMLID_41_" class="st3" d="M37.4 4.5L33 0h-3.3l4.4 4.5z"/><path id="XMLID_42_" class="st2" d="M34.1 4.5L29.7 0h-3.3l4.4 4.5z"/><path id="XMLID_43_" class="st3" d="M30.8 4.5L26.4 0h-3.3l4.4 4.5z"/><path id="XMLID_44_" class="st2" d="M27.5 4.5L23.1 0h-3.3l4.4 4.5z"/><path id="XMLID_29_" class="st3" d="M24.2 4.5L19.8 0h-3.3l4.4 4.5z"/><path id="XMLID_30_" d="M20.9 4.5L16.5 0h-3.3l4.4 4.5z"/><path id="XMLID_31_" class="st3" d="M17.6 4.5L13.2 0H9.9l4.4 4.5z"/><path id="XMLID_33_" d="M14.3 4.5L9.9 0H6.6L11 4.5z"/><path id="XMLID_34_" class="st1" d="M11 4.5L6.6 0H3.3l4.4 4.5z"/><path id="XMLID_35_" d="M7.7 4.5L3.3 0H0l4.4 4.5z"/><path id="XMLID_36_" class="st1" d="M4.4 4.5L0 0h-3.3l4.4 4.5z"/><path id="XMLID_223_" d="M1.1 4.5L-3.3 0h-3.3l4.4 4.5z"/><path id="XMLID_23_" class="st4" d="M139.6 4.5L135.2 0h-3.3l4.4 4.5z"/><path id="XMLID_22_" class="st1" d="M136.3 4.5L131.9 0h-3.3l4.4 4.5z"/><path id="XMLID_21_" class="st4" d="M133 4.5L128.6 0h-3.3l4.4 4.5z"/><path id="XMLID_20_" class="st1" d="M129.7 4.5L125.3 0H122l4.4 4.5z"/><path id="XMLID_19_" class="st4" d="M126.4 4.5L122 0h-3.3l4.4 4.5z"/><path id="XMLID_18_" class="st1" d="M123.1 4.5L118.7 0h-3.3l4.4 4.5z"/><path id="XMLID_17_" class="st4" d="M119.8 4.5L115.4 0h-3.3l4.4 4.5z"/><path id="XMLID_16_" class="st1" d="M116.5 4.5L112.1 0h-3.3l4.4 4.5z"/><path id="XMLID_15_" class="st4" d="M113.2 4.5L108.8 0h-3.3l4.4 4.5z"/><path id="XMLID_14_" class="st1" d="M109.9 4.5L105.5 0h-3.3l4.4 4.5z"/><path id="XMLID_13_" class="st2" d="M106.6 4.5L102.2 0h-3.3l4.4 4.5z"/><path id="XMLID_12_" class="st5" d="M103.3 4.5L98.9 0h-3.3l4.4 4.5z"/><path id="XMLID_11_" class="st2" d="M100 4.5L95.6 0h-3.3l4.4 4.5z"/><path id="XMLID_10_" class="st5" d="M96.7 4.5L92.3 0H89l4.4 4.5z"/><path id="XMLID_9_" class="st2" d="M93.4 4.5L89 0h-3.3l4.4 4.5z"/><path id="XMLID_8_" class="st1" d="M90.1 4.5L85.7 0h-3.3l4.4 4.5z"/><path id="XMLID_7_" class="st0" d="M86.8 4.5L82.4 0h-3.3l4.4 4.5z"/><path id="XMLID_6_" class="st1" d="M83.5 4.5L79.1 0h-3.3l4.4 4.5z"/><path id="XMLID_5_" class="st0" d="M80.2 4.5L75.8 0h-3.3l4.4 4.5z"/><path id="XMLID_4_" class="st1" d="M76.9 4.5L72.5 0h-3.3l4.4 4.5z"/><path id="XMLID_3_" class="st0" d="M73.6 4.5L69.2 0h-3.3l4.4 4.5z"/><path id="XMLID_2_" class="st1" d="M70.3 4.5L65.9 0h-3.3L67 4.5z"/><path id="XMLID_216_" class="st1" d="M212.1 4.5L207.7 0h-3.3l4.4 4.5z"/><path id="XMLID_215_" class="st2" d="M208.8 4.5L204.4 0h-3.3l4.4 4.5z"/><path id="XMLID_214_" class="st1" d="M205.5 4.5L201.1 0h-3.3l4.4 4.5z"/><path id="XMLID_213_" class="st2" d="M202.2 4.5L197.8 0h-3.3l4.4 4.5z"/><path id="XMLID_212_" class="st1" d="M198.9 4.5L194.5 0h-3.3l4.4 4.5z"/><path id="XMLID_211_" class="st2" d="M195.6 4.5L191.2 0h-3.3l4.4 4.5z"/><path id="XMLID_210_" class="st1" d="M192.3 4.5L187.9 0h-3.3l4.4 4.5z"/><path id="XMLID_209_" class="st2" d="M189 4.5L184.6 0h-3.3l4.4 4.5z"/><path id="XMLID_208_" class="st1" d="M185.7 4.5L181.3 0H178l4.4 4.5z"/><path id="XMLID_207_" class="st2" d="M182.4 4.5L178 0h-3.3l4.4 4.5z"/><path id="XMLID_206_" class="st1" d="M179.1 4.5L174.7 0h-3.3l4.4 4.5z"/><path id="XMLID_205_" class="st2" d="M175.8 4.5L171.4 0h-3.3l4.4 4.5z"/><path id="XMLID_204_" d="M172.5 4.5L168.1 0h-3.3l4.4 4.5z"/><path id="XMLID_203_" class="st2" d="M169.2 4.5L164.8 0h-3.3l4.4 4.5z"/><path id="XMLID_202_" d="M165.9 4.5L161.5 0h-3.3l4.4 4.5z"/><path id="XMLID_86_" class="st2" d="M162.6 4.5L158.2 0h-3.3l4.4 4.5z"/><path id="XMLID_85_" d="M159.3 4.5L154.9 0h-3.3l4.5 4.5z"/><path id="XMLID_83_" class="st6" d="M156.1 4.5L151.6 0h-3.3l4.5 4.5z"/><path id="XMLID_82_" d="M152.8 4.5L148.3 0H145l4.5 4.5z"/><path id="XMLID_81_" class="st6" d="M149.5 4.5L145 0h-3.3l4.5 4.5z"/><path id="XMLID_80_" class="st4" d="M146.2 4.5L141.7 0h-3.3l4.5 4.5z"/><path id="XMLID_79_" class="st6" d="M142.9 4.5L138.4 0h-3.2l4.4 4.5z"/><path id="XMLID_64_" class="st7" d="M284.6 4.5L280.2 0h-3.3l4.4 4.5z"/><path id="XMLID_63_" class="st1" d="M281.3 4.5L276.9 0h-3.3l4.4 4.5z"/><path id="XMLID_62_" class="st7" d="M278 4.5L273.6 0h-3.3l4.4 4.5z"/><path id="XMLID_61_" class="st1" d="M274.7 4.5L270.3 0H267l4.4 4.5z"/><path id="XMLID_60_" class="st7" d="M271.4 4.5L267 0h-3.3l4.4 4.5z"/><path id="XMLID_59_" class="st1" d="M268.1 4.5L263.7 0h-3.3l4.4 4.5z"/><path id="XMLID_58_" class="st7" d="M264.8 4.5L260.4 0h-3.3l4.4 4.5z"/><path id="XMLID_57_" class="st1" d="M261.5 4.5L257.1 0h-3.3l4.4 4.5z"/><path id="XMLID_53_" class="st7" d="M258.2 4.5L253.8 0h-3.3l4.4 4.5z"/><path id="XMLID_52_" class="st1" d="M254.9 4.5L250.5 0h-3.3l4.4 4.5z"/><path id="XMLID_51_" class="st7" d="M251.6 4.5L247.2 0h-3.3l4.4 4.5z"/><path id="XMLID_50_" class="st2" d="M248.3 4.5L243.9 0h-3.3l4.5 4.5z"/><path id="XMLID_49_" class="st7" d="M245.1 4.5L240.6 0h-3.3l4.5 4.5z"/><path id="XMLID_48_" class="st2" d="M241.8 4.5L237.3 0H234l4.5 4.5z"/><path id="XMLID_47_" class="st7" d="M238.5 4.5L234 0h-3.3l4.5 4.5z"/><path id="XMLID_46_" class="st2" d="M235.2 4.5L230.7 0h-3.2l4.4 4.5z"/><path id="XMLID_32_" class="st7" d="M231.9 4.5L227.5 0h-3.3l4.4 4.5z"/><path id="XMLID_28_" class="st2" d="M228.6 4.5L224.2 0h-3.3l4.4 4.5z"/><path id="XMLID_27_" class="st7" d="M225.3 4.5L220.9 0h-3.3l4.4 4.5z"/><path id="XMLID_26_" class="st2" d="M222 4.5L217.6 0h-3.3l4.4 4.5z"/><path id="XMLID_25_" class="st7" d="M218.7 4.5L214.3 0H211l4.4 4.5z"/><path id="XMLID_24_" class="st2" d="M215.4 4.5L211 0h-3.3l4.4 4.5z"/><path id="XMLID_306_" class="st2" d="M357.1 4.5L352.7 0h-3.3l4.4 4.5z"/><path id="XMLID_305_" class="st3" d="M353.8 4.5L349.4 0h-3.3l4.4 4.5z"/><path id="XMLID_304_" class="st2" d="M350.5 4.5L346.1 0h-3.3l4.4 4.5z"/><path id="XMLID_303_" class="st3" d="M347.2 4.5L342.8 0h-3.3l4.4 4.5z"/><path id="XMLID_302_" class="st2" d="M343.9 4.5L339.5 0h-3.3l4.4 4.5z"/><path id="XMLID_301_" class="st3" d="M340.6 4.5L336.2 0h-3.3l4.5 4.5z"/><path id="XMLID_300_" class="st2" d="M337.4 4.5L332.9 0h-3.3l4.5 4.5z"/><path id="XMLID_299_" class="st3" d="M334.1 4.5L329.6 0h-3.3l4.5 4.5z"/><path id="XMLID_298_" class="st2" d="M330.8 4.5L326.3 0H323l4.5 4.5z"/><path id="XMLID_297_" class="st3" d="M327.5 4.5L323 0h-3.2l4.4 4.5z"/><path id="XMLID_296_" class="st8" d="M324.2 4.5L319.8 0h-3.3l4.4 4.5z"/><path id="XMLID_295_" class="st3" d="M320.9 4.5L316.5 0h-3.3l4.4 4.5z"/><path id="XMLID_294_" class="st8" d="M317.6 4.5L313.2 0h-3.3l4.4 4.5z"/><path id="XMLID_293_" class="st3" d="M314.3 4.5L309.9 0h-3.3l4.4 4.5z"/><path id="XMLID_292_" class="st8" d="M311 4.5L306.6 0h-3.3l4.4 4.5z"/><path id="XMLID_291_" class="st3" d="M307.7 4.5L303.3 0H300l4.4 4.5z"/><path id="XMLID_290_" class="st8" d="M304.4 4.5L300 0h-3.3l4.4 4.5z"/><path id="XMLID_289_" class="st3" d="M301.1 4.5L296.7 0h-3.3l4.4 4.5z"/><path id="XMLID_288_" class="st8" d="M297.8 4.5L293.4 0h-3.3l4.4 4.5z"/><path id="XMLID_287_" class="st3" d="M294.5 4.5L290.1 0h-3.3l4.4 4.5z"/><path id="XMLID_286_" class="st7" d="M291.2 4.5L286.8 0h-3.3l4.4 4.5z"/><path id="XMLID_285_" class="st3" d="M287.9 4.5L283.5 0h-3.3l4.4 4.5z"/><path id="XMLID_284_" class="st2" d="M429.7 4.5L425.2 0h-3.3l4.5 4.5z"/><path id="XMLID_283_" class="st1" d="M426.4 4.5L421.9 0h-3.3l4.5 4.5z"/><path id="XMLID_282_" class="st2" d="M423.1 4.5L418.6 0h-3.3l4.5 4.5z"/><path id="XMLID_281_" class="st1" d="M419.8 4.5L415.3 0H412l4.5 4.5z"/><path id="XMLID_280_" class="st2" d="M416.5 4.5L412 0h-3.2l4.4 4.5z"/><path id="XMLID_279_" class="st1" d="M413.2 4.5L408.8 0h-3.3l4.4 4.5z"/><path id="XMLID_278_" class="st2" d="M409.9 4.5L405.5 0h-3.3l4.4 4.5z"/><path id="XMLID_277_" class="st1" d="M406.6 4.5L402.2 0h-3.3l4.4 4.5z"/><path id="XMLID_276_" class="st2" d="M403.3 4.5L398.9 0h-3.3l4.4 4.5z"/><path id="XMLID_275_" class="st1" d="M400 4.5L395.6 0h-3.3l4.4 4.5z"/><path id="XMLID_274_" class="st2" d="M396.7 4.5L392.3 0H389l4.4 4.5z"/><path id="XMLID_273_" class="st1" d="M393.4 4.5L389 0h-3.3l4.4 4.5z"/><path id="XMLID_272_" class="st2" d="M390.1 4.5L385.7 0h-3.3l4.4 4.5z"/><path id="XMLID_271_" class="st3" d="M386.8 4.5L382.4 0h-3.3l4.4 4.5z"/><path id="XMLID_270_" class="st2" d="M383.5 4.5L379.1 0h-3.3l4.4 4.5z"/><path id="XMLID_269_" class="st3" d="M380.2 4.5L375.8 0h-3.3l4.4 4.5z"/><path id="XMLID_268_" class="st2" d="M376.9 4.5L372.5 0h-3.3l4.4 4.5z"/><path id="XMLID_267_" class="st3" d="M373.6 4.5L369.2 0h-3.3l4.4 4.5z"/><path id="XMLID_266_" class="st2" d="M370.3 4.5L365.9 0h-3.3l4.4 4.5z"/><path id="XMLID_265_" class="st3" d="M367 4.5L362.6 0h-3.3l4.4 4.5z"/><path id="XMLID_264_" class="st2" d="M363.7 4.5L359.3 0H356l4.4 4.5z"/><path id="XMLID_263_" class="st3" d="M360.4 4.5L356 0h-3.3l4.4 4.5z"/><path id="XMLID_262_" class="st1" d="M502.2 4.5L497.8 0h-3.3l4.4 4.5z"/><path id="XMLID_261_" d="M498.9 4.5L494.5 0h-3.3l4.4 4.5z"/><path id="XMLID_260_" class="st2" d="M495.6 4.5L491.2 0h-3.3l4.4 4.5z"/><path id="XMLID_259_" d="M492.3 4.5L487.9 0h-3.3l4.4 4.5z"/><path id="XMLID_258_" class="st2" d="M489 4.5L484.6 0h-3.3l4.4 4.5z"/><path id="XMLID_257_" d="M485.7 4.5L481.3 0H478l4.4 4.5z"/><path id="XMLID_256_" class="st2" d="M482.4 4.5L478 0h-3.3l4.4 4.5z"/><path id="XMLID_255_" class="st1" d="M479.1 4.5L474.7 0h-3.3l4.4 4.5z"/><path id="XMLID_254_" class="st7" d="M475.8 4.5L471.4 0h-3.3l4.4 4.5z"/><path id="XMLID_253_" class="st1" d="M472.5 4.5L468.1 0h-3.3l4.4 4.5z"/><path id="XMLID_252_" class="st7" d="M469.2 4.5L464.8 0h-3.3l4.4 4.5z"/><path id="XMLID_251_" class="st9" d="M465.9 4.5L461.5 0h-3.3l4.4 4.5z"/><path id="XMLID_250_" class="st7" d="M462.6 4.5L458.2 0h-3.3l4.4 4.5z"/><path id="XMLID_249_" class="st9" d="M459.3 4.5L454.9 0h-3.3l4.4 4.5z"/><path id="XMLID_248_" class="st1" d="M456 4.5L451.6 0h-3.3l4.4 4.5z"/><path id="XMLID_247_" class="st9" d="M452.7 4.5L448.3 0H445l4.4 4.5z"/><path id="XMLID_246_" class="st2" d="M449.4 4.5L445 0h-3.3l4.4 4.5z"/><path id="XMLID_245_" class="st9" d="M446.1 4.5L441.7 0h-3.3l4.4 4.5z"/><path id="XMLID_244_" class="st2" d="M442.8 4.5L438.4 0h-3.3l4.4 4.5z"/><path id="XMLID_243_" class="st9" d="M439.5 4.5L435.1 0h-3.3l4.4 4.5z"/><path id="XMLID_242_" class="st2" d="M436.2 4.5L431.8 0h-3.3l4.4 4.5z"/><path id="XMLID_241_" class="st1" d="M432.9 4.5L428.5 0h-3.3l4.5 4.5z"/><path id="XMLID_240_" class="st1" d="M574.7 4.5L570.3 0H567l4.4 4.5z"/><path id="XMLID_239_" class="st0" d="M571.4 4.5L567 0h-3.3l4.4 4.5z"/><path id="XMLID_238_" class="st1" d="M568.1 4.5L563.7 0h-3.3l4.4 4.5z"/><path id="XMLID_237_" class="st0" d="M564.8 4.5L560.4 0h-3.3l4.4 4.5z"/><path id="XMLID_236_" class="st2" d="M561.5 4.5L557.1 0h-3.3l4.4 4.5z"/><path id="XMLID_235_" class="st0" d="M558.2 4.5L553.8 0h-3.3l4.4 4.5z"/><path id="XMLID_234_" class="st2" d="M554.9 4.5L550.5 0h-3.3l4.4 4.5z"/><path id="XMLID_233_" class="st0" d="M551.6 4.5L547.2 0h-3.3l4.4 4.5z"/><path id="XMLID_232_" class="st2" d="M548.3 4.5L543.9 0h-3.3l4.4 4.5z"/><path id="XMLID_231_" class="st9" d="M545 4.5L540.6 0h-3.3l4.4 4.5z"/><path id="XMLID_230_" class="st1" d="M541.7 4.5L537.3 0H534l4.4 4.5z"/><path id="XMLID_229_" class="st9" d="M538.4 4.5L534 0h-3.3l4.4 4.5z"/><path id="XMLID_228_" class="st1" d="M535.1 4.5L530.7 0h-3.3l4.4 4.5z"/><path id="XMLID_227_" class="st9" d="M531.8 4.5L527.4 0h-3.3l4.4 4.5z"/><path id="XMLID_226_" class="st1" d="M528.5 4.5L524.1 0h-3.3l4.4 4.5z"/><path id="XMLID_224_" class="st9" d="M525.2 4.5L520.8 0h-3.3l4.5 4.5z"/><path id="XMLID_222_" class="st7" d="M522 4.5L517.5 0h-3.3l4.5 4.5z"/><path id="XMLID_221_" class="st1" d="M518.7 4.5L514.2 0h-3.3l4.5 4.5z"/><path id="XMLID_220_" class="st7" d="M515.4 4.5L510.9 0h-3.3l4.5 4.5z"/><path id="XMLID_219_" class="st1" d="M512.1 4.5L507.6 0h-3.3l4.5 4.5z"/><path id="XMLID_218_" class="st7" d="M508.8 4.5L504.3 0h-3.2l4.4 4.5z"/><path id="XMLID_217_" d="M505.5 4.5L501.1 0h-3.3l4.4 4.5z"/><path id="XMLID_484_" class="st5" d="M647.2 4.5L642.8 0h-3.3l4.4 4.5z"/><path id="XMLID_483_" class="st0" d="M643.9 4.5L639.5 0h-3.3l4.4 4.5z"/><path id="XMLID_482_" class="st5" d="M640.6 4.5L636.2 0h-3.3l4.4 4.5z"/><path id="XMLID_481_" class="st2" d="M637.3 4.5L632.9 0h-3.3l4.4 4.5z"/><path id="XMLID_480_" class="st5" d="M634 4.5L629.6 0h-3.3l4.4 4.5z"/><path id="XMLID_479_" class="st2" d="M630.7 4.5L626.3 0H623l4.4 4.5z"/><path id="XMLID_478_" class="st10" d="M627.4 4.5L623 0h-3.3l4.4 4.5z"/><path id="XMLID_477_" class="st2" d="M624.1 4.5L619.7 0h-3.3l4.4 4.5z"/><path id="XMLID_476_" class="st10" d="M620.8 4.5L616.4 0h-3.3l4.4 4.5z"/><path id="XMLID_475_" class="st2" d="M617.5 4.5L613.1 0h-3.3l4.4 4.5z"/><path id="XMLID_474_" class="st10" d="M614.2 4.5L609.8 0h-3.3l4.5 4.5z"/><path id="XMLID_473_" class="st2" d="M611 4.5L606.5 0h-3.3l4.5 4.5z"/><path id="XMLID_472_" class="st10" d="M607.7 4.5L603.2 0h-3.3l4.5 4.5z"/><path id="XMLID_471_" class="st2" d="M604.4 4.5L599.9 0h-3.3l4.5 4.5z"/><path id="XMLID_470_" class="st10" d="M601.1 4.5L596.6 0h-3.2l4.4 4.5z"/><path id="XMLID_469_" d="M597.8 4.5L593.4 0h-3.3l4.4 4.5z"/><path id="XMLID_468_" class="st10" d="M594.5 4.5L590.1 0h-3.3l4.4 4.5z"/><path id="XMLID_467_" d="M591.2 4.5L586.8 0h-3.3l4.4 4.5z"/><path id="XMLID_466_" class="st1" d="M587.9 4.5L583.5 0h-3.3l4.4 4.5z"/><path id="XMLID_465_" d="M584.6 4.5L580.2 0h-3.3l4.4 4.5z"/><path id="XMLID_464_" class="st1" d="M581.3 4.5L576.9 0h-3.3l4.4 4.5z"/><path id="XMLID_463_" d="M578 4.5L573.6 0h-3.3l4.4 4.5z"/><path id="XMLID_462_" class="st4" d="M719.7 4.5L715.3 0H712l4.4 4.5z"/><path id="XMLID_461_" class="st7" d="M716.4 4.5L712 0h-3.3l4.4 4.5z"/><path id="XMLID_460_" class="st5" d="M713.1 4.5L708.7 0h-3.3l4.4 4.5z"/><path id="XMLID_459_" d="M709.8 4.5L705.4 0h-3.3l4.4 4.5z"/><path id="XMLID_458_" class="st5" d="M706.5 4.5L702.1 0h-3.3l4.5 4.5z"/><path id="XMLID_457_" d="M703.3 4.5L698.8 0h-3.3l4.5 4.5z"/><path id="XMLID_456_" class="st5" d="M700 4.5L695.5 0h-3.3l4.5 4.5z"/><path id="XMLID_455_" d="M696.7 4.5L692.2 0h-3.3l4.5 4.5z"/><path id="XMLID_454_" class="st5" d="M693.4 4.5L688.9 0h-3.2l4.4 4.5z"/><path id="XMLID_453_" d="M690.1 4.5L685.7 0h-3.3l4.4 4.5z"/><path id="XMLID_452_" class="st5" d="M686.8 4.5L682.4 0h-3.3l4.4 4.5z"/><path id="XMLID_451_" d="M683.5 4.5L679.1 0h-3.3l4.4 4.5z"/><path id="XMLID_450_" class="st7" d="M680.2 4.5L675.8 0h-3.3l4.4 4.5z"/><path id="XMLID_449_" class="st4" d="M676.9 4.5L672.5 0h-3.3l4.4 4.5z"/><path id="XMLID_448_" class="st7" d="M673.6 4.5L669.2 0h-3.3l4.4 4.5z"/><path id="XMLID_447_" class="st4" d="M670.3 4.5L665.9 0h-3.3l4.4 4.5z"/><path id="XMLID_446_" class="st5" d="M667 4.5L662.6 0h-3.3l4.4 4.5z"/><path id="XMLID_445_" class="st4" d="M663.7 4.5L659.3 0H656l4.4 4.5z"/><path id="XMLID_444_" class="st5" d="M660.4 4.5L656 0h-3.3l4.4 4.5z"/><path id="XMLID_443_" class="st0" d="M657.1 4.5L652.7 0h-3.3l4.4 4.5z"/><path id="XMLID_442_" class="st5" d="M653.8 4.5L649.4 0h-3.3l4.4 4.5z"/><path id="XMLID_441_" class="st0" d="M650.5 4.5L646.1 0h-3.3l4.4 4.5z"/><path id="XMLID_440_" class="st1" d="M792.3 4.5L787.8 0h-3.3l4.5 4.5z"/><path id="XMLID_439_" class="st2" d="M789 4.5L784.5 0h-3.3l4.5 4.5z"/><path id="XMLID_438_" class="st7" d="M785.7 4.5L781.2 0h-3.3l4.5 4.5z"/><path id="XMLID_437_" class="st2" d="M782.4 4.5L777.9 0h-3.2l4.4 4.5z"/><path id="XMLID_436_" class="st7" d="M779.1 4.5L774.7 0h-3.3l4.4 4.5z"/><path id="XMLID_435_" class="st1" d="M775.8 4.5L771.4 0h-3.3l4.4 4.5z"/><path id="XMLID_434_" class="st7" d="M772.5 4.5L768.1 0h-3.3l4.4 4.5z"/><path id="XMLID_433_" class="st1" d="M769.2 4.5L764.8 0h-3.3l4.4 4.5z"/><path id="XMLID_432_" class="st7" d="M765.9 4.5L761.5 0h-3.3l4.4 4.5z"/><path id="XMLID_431_" class="st1" d="M762.6 4.5L758.2 0h-3.3l4.4 4.5z"/><path id="XMLID_430_" class="st4" d="M759.3 4.5L754.9 0h-3.3l4.4 4.5z"/><path id="XMLID_429_" class="st1" d="M756 4.5L751.6 0h-3.3l4.4 4.5z"/><path id="XMLID_428_" class="st4" d="M752.7 4.5L748.3 0H745l4.4 4.5z"/><path id="XMLID_427_" class="st7" d="M749.4 4.5L745 0h-3.3l4.4 4.5z"/><path id="XMLID_426_" class="st4" d="M746.1 4.5L741.7 0h-3.3l4.4 4.5z"/><path id="XMLID_425_" class="st7" d="M742.8 4.5L738.4 0h-3.3l4.4 4.5z"/><path id="XMLID_424_" class="st4" d="M739.5 4.5L735.1 0h-3.3l4.4 4.5z"/><path id="XMLID_423_" class="st7" d="M736.2 4.5L731.8 0h-3.3l4.4 4.5z"/><path id="XMLID_422_" class="st4" d="M732.9 4.5L728.5 0h-3.3l4.4 4.5z"/><path id="XMLID_421_" class="st7" d="M729.6 4.5L725.2 0h-3.3l4.4 4.5z"/><path id="XMLID_420_" class="st4" d="M726.3 4.5L721.9 0h-3.3l4.4 4.5z"/><path id="XMLID_419_" class="st7" d="M723 4.5L718.6 0h-3.3l4.4 4.5z"/><path id="XMLID_418_" class="st1" d="M864.8 4.5L860.4 0h-3.3l4.4 4.5z"/><path id="XMLID_417_" class="st9" d="M861.5 4.5L857.1 0h-3.3l4.4 4.5z"/><path id="XMLID_416_" class="st4" d="M858.2 4.5L853.8 0h-3.3l4.4 4.5z"/><path id="XMLID_415_" class="st9" d="M854.9 4.5L850.5 0h-3.3l4.4 4.5z"/><path id="XMLID_414_" class="st4" d="M851.6 4.5L847.2 0h-3.3l4.4 4.5z"/><path id="XMLID_413_" class="st9" d="M848.3 4.5L843.9 0h-3.3l4.4 4.5z"/><path id="XMLID_412_" class="st4" d="M845 4.5L840.6 0h-3.3l4.4 4.5z"/><path id="XMLID_411_" class="st1" d="M841.7 4.5L837.3 0H834l4.4 4.5z"/><path id="XMLID_410_" class="st4" d="M838.4 4.5L834 0h-3.3l4.4 4.5z"/><path id="XMLID_409_" class="st1" d="M835.1 4.5L830.7 0h-3.3l4.4 4.5z"/><path id="XMLID_408_" class="st4" d="M831.8 4.5L827.4 0h-3.3l4.4 4.5z"/><path id="XMLID_407_" class="st2" d="M828.5 4.5L824.1 0h-3.3l4.4 4.5z"/><path id="XMLID_406_" class="st4" d="M825.2 4.5L820.8 0h-3.3l4.4 4.5z"/><path id="XMLID_405_" class="st2" d="M821.9 4.5L817.5 0h-3.3l4.4 4.5z"/><path id="XMLID_404_" class="st1" d="M818.6 4.5L814.2 0h-3.3l4.4 4.5z"/><path id="XMLID_403_" class="st2" d="M815.3 4.5L810.9 0h-3.3l4.4 4.5z"/><path id="XMLID_402_" class="st1" d="M812 4.5L807.6 0h-3.3l4.4 4.5z"/><path id="XMLID_401_" class="st2" d="M808.7 4.5L804.3 0H801l4.4 4.5z"/><path id="XMLID_400_" class="st1" d="M805.4 4.5L801 0h-3.3l4.4 4.5z"/><path id="XMLID_399_" class="st2" d="M802.1 4.5L797.7 0h-3.3l4.4 4.5z"/><path id="XMLID_398_" class="st1" d="M798.8 4.5L794.4 0h-3.3l4.5 4.5z"/><path id="XMLID_397_" class="st2" d="M795.6 4.5L791.1 0h-3.3l4.5 4.5z"/><path id="XMLID_396_" class="st11" d="M937.3 4.5L932.9 0h-3.3l4.4 4.5z"/><path id="XMLID_395_" class="st2" d="M934 4.5L929.6 0h-3.3l4.4 4.5z"/><path id="XMLID_394_" class="st11" d="M930.7 4.5L926.3 0H923l4.4 4.5z"/><path id="XMLID_393_" class="st2" d="M927.4 4.5L923 0h-3.3l4.4 4.5z"/><path id="XMLID_392_" class="st11" d="M924.1 4.5L919.7 0h-3.3l4.4 4.5z"/><path id="XMLID_391_" class="st2" d="M920.8 4.5L916.4 0h-3.3l4.4 4.5z"/><path id="XMLID_390_" class="st11" d="M917.5 4.5L913.1 0h-3.3l4.4 4.5z"/><path id="XMLID_389_" class="st2" d="M914.2 4.5L909.8 0h-3.3l4.4 4.5z"/><path id="XMLID_388_" class="st11" d="M910.9 4.5L906.5 0h-3.3l4.4 4.5z"/><path id="XMLID_387_" class="st2" d="M907.6 4.5L903.2 0h-3.3l4.4 4.5z"/><path id="XMLID_386_" class="st1" d="M904.3 4.5L899.9 0h-3.3l4.4 4.5z"/><path id="XMLID_385_" class="st2" d="M901 4.5L896.6 0h-3.3l4.4 4.5z"/><path id="XMLID_384_" d="M897.7 4.5L893.3 0H890l4.4 4.5z"/><path id="XMLID_383_" class="st1" d="M894.4 4.5L890 0h-3.3l4.4 4.5z"/><path id="XMLID_382_" d="M891.1 4.5L886.7 0h-3.3l4.5 4.5z"/><path id="XMLID_381_" class="st1" d="M887.9 4.5L883.4 0h-3.3l4.5 4.5z"/><path id="XMLID_380_" d="M884.6 4.5L880.1 0h-3.3l4.5 4.5z"/><path id="XMLID_379_" class="st1" d="M881.3 4.5L876.8 0h-3.3l4.5 4.5z"/><path id="XMLID_378_" d="M878 4.5L873.5 0h-3.3l4.5 4.5z"/><path id="XMLID_377_" class="st9" d="M874.7 4.5L870.2 0H867l4.4 4.5z"/><path id="XMLID_376_" d="M871.4 4.5L867 0h-3.3l4.4 4.5z"/><path id="XMLID_375_" class="st9" d="M868.1 4.5L863.7 0h-3.3l4.4 4.5z"/><path id="XMLID_374_" class="st1" d="M1009.8 4.5l-4.4-4.5h-3.3l4.4 4.5z"/><path id="XMLID_373_" class="st5" d="M1006.5 4.5l-4.4-4.5h-3.3l4.4 4.5z"/><path id="XMLID_372_" class="st1" d="M1003.2 4.5L998.8 0h-3.3l4.4 4.5z"/><path id="XMLID_371_" class="st5" d="M999.9 4.5L995.5 0h-3.3l4.4 4.5z"/><path id="XMLID_370_" class="st7" d="M996.6 4.5L992.2 0h-3.3l4.4 4.5z"/><path id="XMLID_369_" class="st5" d="M993.3 4.5L988.9 0h-3.3l4.4 4.5z"/><path id="XMLID_368_" class="st7" d="M990 4.5L985.6 0h-3.3l4.4 4.5z"/><path id="XMLID_367_" class="st1" d="M986.7 4.5L982.3 0H979l4.4 4.5z"/><path id="XMLID_366_" class="st7" d="M983.4 4.5L979 0h-3.3l4.4 4.5z"/><path id="XMLID_365_" class="st4" d="M980.1 4.5L975.7 0h-3.3l4.5 4.5z"/><path id="XMLID_364_" class="st7" d="M976.9 4.5L972.4 0h-3.3l4.5 4.5z"/><path id="XMLID_363_" class="st4" d="M973.6 4.5L969.1 0h-3.3l4.5 4.5z"/><path id="XMLID_362_" class="st7" d="M970.3 4.5L965.8 0h-3.3l4.5 4.5z"/><path id="XMLID_361_" class="st4" d="M967 4.5L962.5 0h-3.2l4.4 4.5z"/><path id="XMLID_360_" class="st1" d="M963.7 4.5L959.3 0H956l4.4 4.5z"/><path id="XMLID_359_" class="st4" d="M960.4 4.5L956 0h-3.3l4.4 4.5z"/><path id="XMLID_358_" class="st1" d="M957.1 4.5L952.7 0h-3.3l4.4 4.5z"/><path id="XMLID_357_" class="st4" d="M953.8 4.5L949.4 0h-3.3l4.4 4.5z"/><path id="XMLID_356_" class="st1" d="M950.5 4.5L946.1 0h-3.3l4.4 4.5z"/><path id="XMLID_355_" class="st4" d="M947.2 4.5L942.8 0h-3.3l4.4 4.5z"/><path id="XMLID_354_" class="st1" d="M943.9 4.5L939.5 0h-3.3l4.4 4.5z"/><path id="XMLID_353_" class="st4" d="M940.6 4.5L936.2 0h-3.3l4.4 4.5z"/><path id="XMLID_352_" class="st2" d="M1082.3 4.5l-4.4-4.5h-3.3l4.4 4.5z"/><path id="XMLID_351_" class="st7" d="M1079 4.5l-4.4-4.5h-3.3l4.4 4.5z"/><path id="XMLID_350_" class="st2" d="M1075.7 4.5l-4.4-4.5h-3.3l4.4 4.5z"/><path id="XMLID_349_" class="st7" d="M1072.4 4.5L1068 0h-3.3l4.5 4.5z"/><path id="XMLID_348_" class="st2" d="M1069.2 4.5l-4.5-4.5h-3.3l4.5 4.5z"/><path id="XMLID_347_" class="st1" d="M1065.9 4.5l-4.5-4.5h-3.3l4.5 4.5z"/><path id="XMLID_346_" class="st2" d="M1062.6 4.5l-4.5-4.5h-3.3l4.5 4.5z"/><path id="XMLID_345_" class="st1" d="M1059.3 4.5l-4.5-4.5h-3.2l4.4 4.5z"/><path id="XMLID_344_" class="st2" d="M1056 4.5l-4.4-4.5h-3.3l4.4 4.5z"/><path id="XMLID_343_" class="st1" d="M1052.7 4.5l-4.4-4.5h-3.3l4.4 4.5z"/><path id="XMLID_342_" class="st2" d="M1049.4 4.5L1045 0h-3.3l4.4 4.5z"/><path id="XMLID_341_" class="st1" d="M1046.1 4.5l-4.4-4.5h-3.3l4.4 4.5z"/><path id="XMLID_340_" class="st2" d="M1042.8 4.5l-4.4-4.5h-3.3l4.4 4.5z"/><path id="XMLID_339_" class="st5" d="M1039.5 4.5l-4.4-4.5h-3.3l4.4 4.5z"/><path id="XMLID_338_" class="st2" d="M1036.2 4.5l-4.4-4.5h-3.3l4.4 4.5z"/><path id="XMLID_337_" class="st5" d="M1032.9 4.5l-4.4-4.5h-3.3l4.4 4.5z"/><path id="XMLID_336_" class="st2" d="M1029.6 4.5l-4.4-4.5h-3.3l4.4 4.5z"/><path id="XMLID_335_" class="st5" d="M1026.3 4.5l-4.4-4.5h-3.3l4.4 4.5z"/><path id="XMLID_334_" class="st2" d="M1023 4.5l-4.4-4.5h-3.3l4.4 4.5z"/><path id="XMLID_333_" class="st5" d="M1019.7 4.5l-4.4-4.5h-3.3l4.4 4.5z"/><path id="XMLID_332_" class="st2" d="M1016.4 4.5L1012 0h-3.3l4.4 4.5z"/><path id="XMLID_331_" class="st5" d="M1013.1 4.5l-4.4-4.5h-3.3l4.4 4.5z"/><path id="XMLID_330_" class="st5" d="M1154.9 4.5l-4.5-4.5h-3.3l4.5 4.5z"/><path id="XMLID_329_" class="st1" d="M1151.6 4.5l-4.5-4.5h-3.3l4.5 4.5z"/><path id="XMLID_328_" class="st5" d="M1148.3 4.5l-4.5-4.5h-3.2l4.4 4.5z"/><path id="XMLID_327_" class="st7" d="M1145 4.5l-4.4-4.5h-3.3l4.4 4.5z"/><path id="XMLID_326_" class="st5" d="M1141.7 4.5l-4.4-4.5h-3.3l4.4 4.5z"/><path id="XMLID_325_" class="st7" d="M1138.4 4.5L1134 0h-3.3l4.4 4.5z"/><path id="XMLID_324_" class="st1" d="M1135.1 4.5l-4.4-4.5h-3.3l4.4 4.5z"/><path id="XMLID_323_" class="st7" d="M1131.8 4.5l-4.4-4.5h-3.3l4.4 4.5z"/><path id="XMLID_322_" class="st1" d="M1128.5 4.5l-4.4-4.5h-3.3l4.4 4.5z"/><path id="XMLID_321_" class="st7" d="M1125.2 4.5l-4.4-4.5h-3.3l4.4 4.5z"/><path id="XMLID_320_" class="st1" d="M1121.9 4.5l-4.4-4.5h-3.3l4.4 4.5z"/><path id="XMLID_319_" class="st7" d="M1118.6 4.5l-4.4-4.5h-3.3l4.4 4.5z"/><path id="XMLID_318_" class="st1" d="M1115.3 4.5l-4.4-4.5h-3.3l4.4 4.5z"/><path id="XMLID_317_" class="st7" d="M1112 4.5l-4.4-4.5h-3.3l4.4 4.5z"/><path id="XMLID_316_" class="st1" d="M1108.7 4.5l-4.4-4.5h-3.3l4.4 4.5z"/><path id="XMLID_315_" class="st7" d="M1105.4 4.5L1101 0h-3.3l4.4 4.5z"/><path id="XMLID_314_" class="st1" d="M1102.1 4.5l-4.4-4.5h-3.3l4.4 4.5z"/><path id="XMLID_313_" class="st7" d="M1098.8 4.5l-4.4-4.5h-3.3l4.4 4.5z"/><path id="XMLID_312_" class="st1" d="M1095.5 4.5l-4.4-4.5h-3.3l4.4 4.5z"/><path id="XMLID_311_" class="st7" d="M1092.2 4.5l-4.4-4.5h-3.3l4.4 4.5z"/><path id="XMLID_310_" class="st1" d="M1088.9 4.5l-4.4-4.5h-3.3l4.4 4.5z"/><path id="XMLID_309_" class="st7" d="M1085.6 4.5l-4.4-4.5h-3.3l4.4 4.5z"/><path id="XMLID_661_" class="st5" d="M1227.4 4.5L1223 0h-3.3l4.4 4.5z"/><path id="XMLID_660_" class="st2" d="M1224.1 4.5l-4.4-4.5h-3.3l4.4 4.5z"/><path id="XMLID_659_" class="st5" d="M1220.8 4.5l-4.4-4.5h-3.3l4.4 4.5z"/><path id="XMLID_658_" class="st2" d="M1217.5 4.5l-4.4-4.5h-3.3l4.4 4.5z"/><path id="XMLID_657_" class="st5" d="M1214.2 4.5l-4.4-4.5h-3.3l4.4 4.5z"/><path id="XMLID_656_" class="st2" d="M1210.9 4.5l-4.4-4.5h-3.3l4.4 4.5z"/><path id="XMLID_655_" class="st5" d="M1207.6 4.5l-4.4-4.5h-3.3l4.4 4.5z"/><path id="XMLID_654_" class="st2" d="M1204.3 4.5l-4.4-4.5h-3.3l4.4 4.5z"/><path id="XMLID_653_" class="st5" d="M1201 4.5l-4.4-4.5h-3.3l4.4 4.5z"/><path id="XMLID_652_" class="st2" d="M1197.7 4.5l-4.4-4.5h-3.3l4.4 4.5z"/><path id="XMLID_651_" class="st5" d="M1194.4 4.5L1190 0h-3.3l4.4 4.5z"/><path id="XMLID_650_" class="st2" d="M1191.1 4.5l-4.4-4.5h-3.3l4.4 4.5z"/><path id="XMLID_649_" class="st5" d="M1187.8 4.5l-4.4-4.5h-3.3l4.4 4.5z"/><path id="XMLID_648_" class="st12" d="M1184.5 4.5l-4.4-4.5h-3.3l4.4 4.5z"/><path id="XMLID_647_" class="st5" d="M1181.2 4.5l-4.4-4.5h-3.3l4.4 4.5z"/><path id="XMLID_646_" class="st12" d="M1177.9 4.5l-4.4-4.5h-3.3l4.4 4.5z"/><path id="XMLID_645_" class="st5" d="M1174.6 4.5l-4.4-4.5h-3.3l4.4 4.5z"/><path id="XMLID_644_" class="st12" d="M1171.3 4.5l-4.4-4.5h-3.3l4.4 4.5z"/><path id="XMLID_643_" class="st5" d="M1168 4.5l-4.4-4.5h-3.3l4.4 4.5z"/><path id="XMLID_642_" class="st12" d="M1164.7 4.5l-4.4-4.5h-3.3l4.5 4.5z"/><path id="XMLID_641_" class="st5" d="M1161.5 4.5L1157 0h-3.3l4.5 4.5z"/><path id="XMLID_640_" class="st1" d="M1158.2 4.5l-4.5-4.5h-3.3l4.5 4.5z"/><path id="XMLID_639_" class="st7" d="M1299.9 4.5l-4.4-4.5h-3.3l4.4 4.5z"/><path id="XMLID_638_" class="st9" d="M1296.6 4.5l-4.4-4.5h-3.3l4.4 4.5z"/><path id="XMLID_637_" class="st7" d="M1293.3 4.5l-4.4-4.5h-3.3l4.4 4.5z"/><path id="XMLID_636_" class="st9" d="M1290 4.5l-4.4-4.5h-3.3l4.4 4.5z"/><path id="XMLID_635_" class="st1" d="M1286.7 4.5l-4.4-4.5h-3.3l4.4 4.5z"/><path id="XMLID_634_" class="st9" d="M1283.4 4.5L1279 0h-3.3l4.4 4.5z"/><path id="XMLID_633_" class="st1" d="M1280.1 4.5l-4.4-4.5h-3.3l4.4 4.5z"/><path id="XMLID_632_" class="st9" d="M1276.8 4.5l-4.4-4.5h-3.3l4.4 4.5z"/><path id="XMLID_631_" class="st1" d="M1273.5 4.5l-4.4-4.5h-3.3l4.4 4.5z"/><path id="XMLID_630_" class="st2" d="M1270.2 4.5l-4.4-4.5h-3.3l4.4 4.5z"/><path id="XMLID_629_" class="st1" d="M1266.9 4.5l-4.4-4.5h-3.3l4.4 4.5z"/><path id="XMLID_628_" class="st2" d="M1263.6 4.5l-4.4-4.5h-3.3l4.4 4.5z"/><path id="XMLID_627_" class="st1" d="M1260.3 4.5l-4.4-4.5h-3.3l4.4 4.5z"/><path id="XMLID_626_" class="st2" d="M1257 4.5l-4.4-4.5h-3.3l4.5 4.5z"/><path id="XMLID_625_" class="st5" d="M1253.8 4.5l-4.5-4.5h-3.3l4.5 4.5z"/><path id="XMLID_624_" class="st2" d="M1250.5 4.5L1246 0h-3.3l4.5 4.5z"/><path id="XMLID_623_" class="st5" d="M1247.2 4.5l-4.5-4.5h-3.3l4.5 4.5z"/><path id="XMLID_622_" class="st2" d="M1243.9 4.5l-4.5-4.5h-3.3l4.5 4.5z"/><path id="XMLID_621_" class="st5" d="M1240.6 4.5l-4.5-4.5h-3.2l4.4 4.5z"/><path id="XMLID_620_" class="st2" d="M1237.3 4.5l-4.4-4.5h-3.3l4.4 4.5z"/><path id="XMLID_619_" class="st5" d="M1234 4.5l-4.4-4.5h-3.3l4.4 4.5z"/><path id="XMLID_618_" class="st2" d="M1230.7 4.5l-4.4-4.5h-3.3l4.4 4.5z"/><path id="XMLID_617_" class="st13" d="M1372.4 4.5L1368 0h-3.3l4.4 4.5z"/><path id="XMLID_616_" class="st2" d="M1369.1 4.5l-4.4-4.5h-3.3l4.4 4.5z"/><path id="XMLID_615_" class="st13" d="M1365.8 4.5l-4.4-4.5h-3.3l4.4 4.5z"/><path id="XMLID_614_" class="st2" d="M1362.5 4.5l-4.4-4.5h-3.3l4.4 4.5z"/><path id="XMLID_613_" class="st1" d="M1359.2 4.5l-4.4-4.5h-3.3l4.4 4.5z"/><path id="XMLID_612_" class="st2" d="M1355.9 4.5l-4.4-4.5h-3.3l4.4 4.5z"/><path id="XMLID_611_" class="st1" d="M1352.6 4.5l-4.4-4.5h-3.3l4.4 4.5z"/><path id="XMLID_610_" class="st2" d="M1349.3 4.5l-4.4-4.5h-3.3l4.4 4.5z"/><path id="XMLID_609_" class="st1" d="M1346 4.5l-4.4-4.5h-3.3l4.5 4.5z"/><path id="XMLID_608_" class="st2" d="M1342.8 4.5l-4.5-4.5h-3.3l4.5 4.5z"/><path id="XMLID_607_" class="st1" d="M1339.5 4.5L1335 0h-3.3l4.5 4.5z"/><path id="XMLID_606_" class="st2" d="M1336.2 4.5l-4.5-4.5h-3.3l4.5 4.5z"/><path id="XMLID_605_" class="st7" d="M1332.9 4.5l-4.5-4.5h-3.2l4.4 4.5z"/><path id="XMLID_604_" class="st1" d="M1329.6 4.5l-4.4-4.5h-3.3l4.4 4.5z"/><path id="XMLID_603_" class="st7" d="M1326.3 4.5l-4.4-4.5h-3.3l4.4 4.5z"/><path id="XMLID_602_" class="st1" d="M1323 4.5l-4.4-4.5h-3.3l4.4 4.5z"/><path id="XMLID_601_" class="st7" d="M1319.7 4.5l-4.4-4.5h-3.3l4.4 4.5z"/><path id="XMLID_600_" class="st1" d="M1316.4 4.5L1312 0h-3.3l4.4 4.5z"/><path id="XMLID_599_" class="st7" d="M1313.1 4.5l-4.4-4.5h-3.3l4.4 4.5z"/><path id="XMLID_598_" class="st9" d="M1309.8 4.5l-4.4-4.5h-3.3l4.4 4.5z"/><path id="XMLID_597_" class="st7" d="M1306.5 4.5l-4.4-4.5h-3.3l4.4 4.5z"/><path id="XMLID_596_" class="st9" d="M1303.2 4.5l-4.4-4.5h-3.3l4.4 4.5z"/><path id="XMLID_591_" class="st1" d="M1431.8 4.5l-4.5-4.5h-3.3l4.5 4.5z"/><path id="XMLID_590_" class="st7" d="M1428.5 4.5L1424 0h-3.3l4.5 4.5z"/><path id="XMLID_589_" class="st1" d="M1425.2 4.5l-4.5-4.5h-3.3l4.5 4.5z"/><path id="XMLID_588_" class="st7" d="M1421.9 4.5l-4.5-4.5h-3.2l4.4 4.5z"/><path id="XMLID_587_" class="st1" d="M1418.6 4.5l-4.4-4.5h-3.3l4.4 4.5z"/><path id="XMLID_586_" class="st7" d="M1415.3 4.5l-4.4-4.5h-3.3l4.4 4.5z"/><path id="XMLID_585_" class="st1" d="M1412 4.5l-4.4-4.5h-3.3l4.4 4.5z"/><path id="XMLID_584_" class="st7" d="M1408.7 4.5l-4.4-4.5h-3.3l4.4 4.5z"/><path id="XMLID_583_" class="st1" d="M1405.4 4.5L1401 0h-3.3l4.4 4.5z"/><path id="XMLID_582_" class="st7" d="M1402.1 4.5l-4.4-4.5h-3.3l4.4 4.5z"/><path id="XMLID_581_" class="st1" d="M1398.8 4.5l-4.4-4.5h-3.3l4.4 4.5z"/><path id="XMLID_580_" class="st7" d="M1395.5 4.5l-4.4-4.5h-3.3l4.4 4.5z"/><path id="XMLID_579_" class="st13" d="M1392.2 4.5l-4.4-4.5h-3.3l4.4 4.5z"/><path id="XMLID_578_" class="st7" d="M1388.9 4.5l-4.4-4.5h-3.3l4.4 4.5z"/><path id="XMLID_577_" class="st13" d="M1385.6 4.5l-4.4-4.5h-3.3l4.4 4.5z"/><path id="XMLID_576_" class="st1" d="M1382.3 4.5l-4.4-4.5h-3.3l4.4 4.5z"/><path id="XMLID_575_" class="st13" d="M1379 4.5l-4.4-4.5h-3.3l4.4 4.5z"/><path id="XMLID_574_" class="st1" d="M1375.7 4.5l-4.4-4.5h-3.3l4.4 4.5z"/><path id="XMLID_149_" class="st13" d="M1441.6 4.5l-4.4-4.5h-3.3l4.4 4.5z"/><path id="XMLID_148_" class="st1" d="M1438.3 4.5l-4.4-4.5h-3.3l4.5 4.5z"/><path id="XMLID_147_" class="st13" d="M1435.1 4.5l-4.5-4.5h-3.3l4.5 4.5z"/></svg>