<svg id="vecteurs" xmlns="http://www.w3.org/2000/svg" viewBox="455.8 419 160.3 4"><style>.st0{fill:#9f3}.st1{fill:#40d940}.st2{fill:#fff}.st3{fill:#d5dee3}.st4{fill:#546674}.st5{fill:#1f5e03}</style><path class="st0" d="M455.8 419h3.8v4h-3.8z"/><path class="st1" d="M459.6 419h3.8v4h-3.8z"/><path class="st2" d="M463.4 419h3.8v4h-3.8z"/><path class="st1" d="M467.3 419h3.8v4h-3.8z"/><path class="st2" d="M471.1 419h3.8v4h-3.8z"/><path class="st1" d="M474.9 419h3.8v4h-3.8z"/><path class="st3" d="M478.7 419h3.8v4h-3.8z"/><path class="st1" d="M482.5 419h3.8v4h-3.8z"/><path class="st3" d="M486.3 419h3.8v4h-3.8z"/><path class="st1" d="M490.2 419h3.8v4h-3.8z"/><path class="st3" d="M494 419h3.8v4H494z"/><path class="st0" d="M497.8 419h3.8v4h-3.8z"/><path class="st2" d="M501.6 419h3.8v4h-3.8z"/><path class="st0" d="M505.4 419h3.8v4h-3.8z"/><path class="st2" d="M509.2 419h3.8v4h-3.8z"/><path class="st4" d="M513.1 419h3.8v4h-3.8z"/><path class="st2" d="M516.9 419h3.8v4h-3.8z"/><path class="st4" d="M520.7 419h3.8v4h-3.8z"/><path class="st0" d="M524.5 419h3.8v4h-3.8z"/><path class="st4" d="M528.3 419h3.8v4h-3.8z"/><path class="st0" d="M532.1 419h3.8v4h-3.8z"/><path class="st4" d="M536 419h3.8v4H536z"/><path class="st0" d="M539.8 419h3.8v4h-3.8z"/><path class="st1" d="M543.6 419h3.8v4h-3.8z"/><path class="st5" d="M547.4 419h3.8v4h-3.8z"/><path class="st1" d="M551.2 419h3.8v4h-3.8z"/><path class="st5" d="M555 419h3.8v4H555z"/><path class="st2" d="M558.9 419h3.8v4h-3.8z"/><path class="st5" d="M562.7 419h3.8v4h-3.8z"/><path class="st1" d="M566.5 419h3.8v4h-3.8z"/><path d="M570.3 419h3.8v4h-3.8z"/><path class="st1" d="M574.1 419h3.8v4h-3.8z"/><path d="M577.9 419h3.8v4h-3.8z"/><path class="st1" d="M581.8 419h3.8v4h-3.8z"/><path d="M585.6 419h3.8v4h-3.8z"/><path class="st1" d="M589.4 419h3.8v4h-3.8z"/><path class="st2" d="M593.2 419h3.8v4h-3.8z"/><path class="st1" d="M597 419h3.8v4H597z"/><path class="st3" d="M600.8 419h3.8v4h-3.8z"/><path class="st0" d="M604.7 419h3.8v4h-3.8z"/><path class="st1" d="M608.5 419h3.8v4h-3.8z"/><path class="st0" d="M612.3 419h3.8v4h-3.8z"/></svg>