<?xml version="1.0" encoding="UTF-8"?>
<svg viewBox="0 0 159 21" version="1.1" xmlns="http://www.w3.org/2000/svg" xmlns:xlink="http://www.w3.org/1999/xlink" preserveAspectRatio="xMidYMid meet">
    <title>État de Vaud</title>
    <g id="ETATVAUD" fill="#000000">
      <path d="M0,4.3 L10.7,4.3 L10.7,7.2 L3.7,7.2 L3.7,11 L9.3,11 L9.3,13.7 L3.7,13.7 L3.7,17.8 L11.1,17.8 L11.1,20.7 L0,20.7 L0,4.3 L0,4.3 Z M5.3,0 L8.9,0 L6.6,3.2 L4.1,3.2 L5.3,0 L5.3,0 Z" id="XMLID_3_"></path>
      <polygon id="XMLID_6_" points="17.2 7.2 12.8 7.2 12.8 4.3 25.4 4.3 25.4 7.2 21 7.2 21 20.7 17.3 20.7 17.3 7.2"></polygon>
      <path d="M30.5,4.3 L35.4,4.3 L40.7,20.7 L36.8,20.7 L35.7,17 L29.7,17 L28.6,20.7 L25.1,20.7 L30.5,4.3 L30.5,4.3 Z M30.5,14.4 L34.8,14.4 L32.6,7.3 L30.5,14.4 L30.5,14.4 Z" id="XMLID_8_"></path>
      <polygon id="XMLID_11_" points="44.5 7.2 40.1 7.2 40.1 4.3 52.7 4.3 52.7 7.2 48.3 7.2 48.3 20.7 44.6 20.7 44.6 7.2"></polygon>
      <path d="M60.2,4.3 L65.6,4.3 C71.4,4.3 74.2,7.4 74.2,12.3 L74.2,12.5 C74.2,17.4 71.3,20.7 65.6,20.7 L60.2,20.7 L60.2,4.3 L60.2,4.3 Z M65.4,17.8 C68.7,17.8 70.3,15.9 70.3,12.5 L70.3,12.3 C70.3,8.9 68.9,7.1 65.4,7.1 L63.9,7.1 L63.9,17.7 L65.4,17.7 L65.4,17.8 Z" id="XMLID_13_"></path>
      <polygon id="XMLID_16_" points="76.9 4.3 87.6 4.3 87.6 7.2 80.6 7.2 80.6 11 86.2 11 86.2 13.7 80.6 13.7 80.6 17.8 88 17.8 88 20.7 76.9 20.7"></polygon>
      <polygon id="XMLID_18_" points="94.3 4.3 98.2 4.3 102.1 16.9 106 4.3 109.5 4.3 104 20.7 99.7 20.7"></polygon>
      <path d="M114.4,4.3 L119.3,4.3 L124.6,20.7 L120.7,20.7 L119.6,17 L113.6,17 L112.5,20.7 L109,20.7 L114.4,4.3 L114.4,4.3 Z M114.5,14.4 L118.8,14.4 L116.6,7.3 L114.5,14.4 L114.5,14.4 Z" id="XMLID_20_"></path>
      <path d="M126.1,14.3 L126.1,4.3 L129.8,4.3 L129.8,14.1 C129.8,16.8 130.6,18 132.9,18 C135.1,18 136.1,16.9 136.1,13.9 L136.1,4.3 L139.8,4.3 L139.8,14.2 C139.8,18.7 137.3,21 132.9,21 C128.5,21 126.1,18.7 126.1,14.3 L126.1,14.3 Z" id="XMLID_23_"></path>
      <path d="M143.5,4.3 L148.9,4.3 C154.7,4.3 157.5,7.4 157.5,12.3 L157.5,12.5 C157.5,17.4 154.6,20.7 148.9,20.7 L143.5,20.7 L143.5,4.3 L143.5,4.3 Z M148.7,17.8 C152,17.8 153.6,15.9 153.6,12.5 L153.6,12.3 C153.6,8.9 152.2,7.1 148.7,7.1 L147.2,7.1 L147.2,17.7 L148.7,17.7 L148.7,17.8 Z" id="XMLID_25_"></path>
    </g>
</svg>
