<?xml version="1.0" encoding="utf-8"?>
<!-- Generator: Adobe Illustrator 19.0.0, SVG Export Plug-In . SVG Version: 6.00 Build 0)  -->
<svg version="1.1" id="vecteurs" xmlns="http://www.w3.org/2000/svg" xmlns:xlink="http://www.w3.org/1999/xlink" x="0px" y="0px"
	 viewBox="464.8 423 208.7 54.2" style="enable-background:new 464.8 423 208.7 54.2;" xml:space="preserve">
<style type="text/css">
	.st0{fill:#99FF33;}
	.st1{fill:#40D940;}
	.st2{fill:#FFFFFF;}
	.st3{fill:#D5DEE3;}
	.st4{fill:#546674;}
	.st5{fill:#1F5E03;}
	.st6{fill:#231F20;}
</style>
<g>
	<g>
		<rect x="464.8" y="472.1" class="st0" width="5" height="5.1"/>
		<rect x="469.8" y="472.1" class="st1" width="5" height="5.1"/>
		<rect x="474.8" y="472.1" class="st2" width="5" height="5.1"/>
		<rect x="479.7" y="472.1" class="st1" width="5" height="5.1"/>
		<rect x="484.7" y="472.1" class="st2" width="5" height="5.1"/>
		<rect x="489.6" y="472.1" class="st1" width="5" height="5.1"/>
		<rect x="494.6" y="472.1" class="st3" width="5" height="5.1"/>
		<rect x="499.5" y="472.1" class="st1" width="5" height="5.1"/>
		<rect x="504.5" y="472.1" class="st3" width="5" height="5.1"/>
		<rect x="509.4" y="472.1" class="st1" width="5" height="5.1"/>
		<rect x="514.4" y="472.1" class="st3" width="5" height="5.1"/>
		<rect x="519.3" y="472.1" class="st0" width="5" height="5.1"/>
		<rect x="524.3" y="472.1" class="st2" width="5" height="5.1"/>
		<rect x="529.3" y="472.1" class="st0" width="5" height="5.1"/>
		<rect x="534.2" y="472.1" class="st2" width="5" height="5.1"/>
		<rect x="539.2" y="472.1" class="st4" width="5" height="5.1"/>
		<rect x="544.1" y="472.1" class="st2" width="5" height="5.1"/>
		<rect x="549.1" y="472.1" class="st4" width="5" height="5.1"/>
		<rect x="554" y="472.1" class="st0" width="5" height="5.1"/>
		<rect x="559" y="472.1" class="st4" width="5" height="5.1"/>
		<rect x="563.9" y="472.1" class="st0" width="5" height="5.1"/>
		<rect x="568.9" y="472.1" class="st4" width="5" height="5.1"/>
		<rect x="573.8" y="472.1" class="st0" width="5" height="5.1"/>
		<rect x="578.8" y="472.1" class="st1" width="5" height="5.1"/>
		<rect x="583.8" y="472.1" class="st5" width="5" height="5.1"/>
		<rect x="588.7" y="472.1" class="st1" width="5" height="5.1"/>
		<rect x="593.7" y="472.1" class="st5" width="5" height="5.1"/>
		<rect x="598.6" y="472.1" class="st2" width="5" height="5.1"/>
		<rect x="603.6" y="472.1" class="st5" width="5" height="5.1"/>
		<rect x="608.5" y="472.1" class="st1" width="5" height="5.1"/>
		<rect x="613.5" y="472.1" width="5" height="5.1"/>
		<rect x="618.4" y="472.1" class="st1" width="5" height="5.1"/>
		<rect x="623.4" y="472.1" width="5" height="5.1"/>
		<rect x="628.3" y="472.1" class="st1" width="5" height="5.1"/>
		<rect x="633.3" y="472.1" width="5" height="5.1"/>
		<rect x="638.3" y="472.1" class="st1" width="5" height="5.1"/>
		<rect x="643.2" y="472.1" class="st2" width="5" height="5.1"/>
		<rect x="648.2" y="472.1" class="st1" width="5" height="5.1"/>
		<rect x="653.1" y="472.1" class="st3" width="5" height="5.1"/>
		<rect x="658.1" y="472.1" class="st0" width="5" height="5.1"/>
		<rect x="663" y="472.1" class="st1" width="5" height="5.1"/>
		<rect x="668" y="472.1" class="st0" width="5" height="5.1"/>
	</g>
	<g>
		<path class="st6" d="M464.8,447.5h14.1v3.8h-9.2v5h7.4v3.6h-7.4v5.4h9.7v3.8h-14.6V447.5z M471.8,441.9h4.7l-3,4.2h-3.3
			L471.8,441.9z"/>
		<path class="st6" d="M488,451.3h-5.8v-3.8h16.6v3.8h-5.8v17.8H488V451.3z"/>
		<path class="st6" d="M505.2,447.5h6.4l7,21.6h-5.1l-1.5-4.8h-7.8l-1.5,4.8h-4.6L505.2,447.5z M505.2,460.8h5.7l-2.8-9.3
			L505.2,460.8z"/>
		<path class="st6" d="M524.1,451.3h-5.8v-3.8h16.6v3.8H529v17.8h-4.9V451.3z"/>
		<path class="st6" d="M545,447.5h7.1c7.6,0,11.3,4.1,11.3,10.6v0.2c0,6.5-3.8,10.8-11.4,10.8h-7V447.5z M551.9,465.3
			c4.3,0,6.4-2.4,6.4-6.9v-0.2c0-4.4-1.9-6.8-6.5-6.8h-1.9v14H551.9z"/>
		<path class="st6" d="M567.4,447.5h14.1v3.8h-9.2v5h7.4v3.6h-7.4v5.4h9.7v3.8h-14.6V447.5z"/>
		<path class="st6" d="M591.1,447.5h5.2l5.1,16.6l5.1-16.6h4.6l-7.2,21.6h-5.6L591.1,447.5z"/>
		<path class="st6" d="M617.3,447.5h6.4l7,21.6h-5.1l-1.5-4.8h-7.8l-1.5,4.8h-4.6L617.3,447.5z M617.3,460.8h5.7l-2.8-9.3
			L617.3,460.8z"/>
		<path class="st6" d="M632.5,460.7v-13.2h4.9v12.9c0,3.6,1.1,5.2,4,5.2c2.9,0,4.2-1.4,4.2-5.3v-12.7h4.9v13c0,5.9-3.3,8.9-9.1,8.9
			C635.8,469.4,632.5,466.4,632.5,460.7z"/>
		<path class="st6" d="M655.2,447.5h7.1c7.6,0,11.3,4.1,11.3,10.6v0.2c0,6.5-3.8,10.8-11.4,10.8h-7V447.5z M662.1,465.3
			c4.3,0,6.4-2.4,6.4-6.9v-0.2c0-4.4-1.9-6.8-6.5-6.8h-1.9v14H662.1z"/>
	</g>
	<g>
		<path d="M465,432h0.9c0.2,1.4,1,2.7,3.4,2.7c1.8,0,2.9-1,2.9-2.4c0-1.6-0.8-2.1-3-2.5c-2.5-0.4-3.7-1.2-3.7-3c0-1.8,1.4-3,3.6-3
			c2.1,0,3.4,1,3.7,2.9h-0.8c-0.3-1.4-1.2-2.1-2.8-2.1c-1.7,0-2.7,0.8-2.7,2.2c0,1.2,0.6,1.9,3,2.3c2.5,0.4,3.8,1.1,3.8,3.2
			c0,1.8-1.5,3.2-3.8,3.2C466.4,435.4,465.2,433.9,465,432z"/>
		<path d="M475,424.6c0-0.3,0.3-0.6,0.6-0.6c0.3,0,0.6,0.3,0.6,0.6c0,0.3-0.3,0.6-0.6,0.6C475.3,425.2,475,424.9,475,424.6z
			 M475.2,427h0.8v8.3h-0.8V427z"/>
		<path d="M479,433.3v-5.6h-1.2V427h1.2v-1.9h0.8v1.9h2.2v0.7h-2.2v5.5c0,1,0.5,1.5,1.2,1.5c0.4,0,0.8-0.1,1-0.2v0.7
			c-0.3,0.1-0.6,0.2-1.1,0.2C479.7,435.4,479,434.6,479,433.3z"/>
		<path d="M483.3,431.2v-0.1c0-2.5,1.6-4.2,3.8-4.2c2,0,3.6,1.3,3.6,4.1v0.3h-6.6c0,2.2,1.1,3.5,3.1,3.5c1.4,0,2.3-0.6,2.6-1.7h0.8
			c-0.3,1.6-1.7,2.4-3.4,2.4C484.9,435.4,483.3,433.7,483.3,431.2z M489.9,430.5c-0.1-2-1.1-3-2.8-3c-1.6,0-2.7,1.1-2.9,3H489.9z"/>
		<path d="M496.1,431.2v-0.1c0-2.5,1.8-4.2,4-4.2c2.2,0,4,1.7,4,4.2v0.1c0,2.5-1.8,4.2-4,4.2C497.8,435.4,496.1,433.6,496.1,431.2z
			 M503.2,431.2v-0.1c0-2.2-1.4-3.5-3.1-3.5c-1.8,0-3.1,1.3-3.1,3.5v0.1c0,2.1,1.3,3.5,3.1,3.5C501.9,434.7,503.2,433.3,503.2,431.2
			z"/>
		<path d="M506.4,427.7h-1.3V427h1.3v-1.4c0-1.7,1-2.5,2.4-2.5c0.4,0,0.6,0,0.9,0.1v0.7c-0.2-0.1-0.5-0.1-0.9-0.1
			c-0.9,0-1.5,0.5-1.5,1.7v1.4h3.6v-1.5c0-1.7,1-2.5,2.4-2.5c0.4,0,0.6,0,0.9,0.1v0.7c-0.2-0.1-0.5-0.1-0.9-0.1
			c-0.9,0-1.5,0.5-1.5,1.7v1.6h2.3v0.7h-2.3v7.6h-0.8v-7.6h-3.6v7.6h-0.8V427.7z"/>
		<path d="M515.6,424.6c0-0.3,0.3-0.6,0.6-0.6c0.3,0,0.6,0.3,0.6,0.6c0,0.3-0.3,0.6-0.6,0.6C515.9,425.2,515.6,424.9,515.6,424.6z
			 M515.8,427h0.8v8.3h-0.8V427z"/>
		<path d="M518.7,431.2v-0.1c0-2.5,1.8-4.2,4-4.2c1.7,0,3.2,0.9,3.5,2.8h-0.8c-0.2-1.4-1.3-2-2.6-2c-1.7,0-3.1,1.3-3.1,3.5v0.1
			c0,2.2,1.4,3.5,3.1,3.5c1.4,0,2.6-0.8,2.8-2.3h0.8c-0.2,1.8-1.7,3-3.5,3C520.4,435.4,518.7,433.7,518.7,431.2z"/>
		<path d="M528,424.6c0-0.3,0.3-0.6,0.6-0.6c0.3,0,0.6,0.3,0.6,0.6c0,0.3-0.3,0.6-0.6,0.6C528.3,425.2,528,424.9,528,424.6z
			 M528.2,427h0.8v8.3h-0.8V427z"/>
		<path d="M531,431.2v-0.1c0-2.5,1.6-4.2,3.8-4.2c2,0,3.6,1.3,3.6,4.1v0.3h-6.6c0,2.2,1.1,3.5,3.1,3.5c1.4,0,2.3-0.6,2.6-1.7h0.8
			c-0.3,1.6-1.7,2.4-3.4,2.4C532.6,435.4,531,433.7,531,431.2z M537.6,430.5c-0.1-2-1.1-3-2.8-3c-1.6,0-2.7,1.1-2.9,3H537.6z"/>
		<path d="M540.5,423h0.9v12.3h-0.9V423z"/>
	</g>
</g>
</svg>
