<svg xmlns="http://www.w3.org/2000/svg" id="vecteurs" version="1.1" width="208.8" height="35.3"><style id="style2">.st0{fill:#9f3}.st1{fill:#40d940}.st2{fill:#fff}.st3{fill:#d5dee3}.st4{fill:#546674}.st5{fill:#1f5e03}</style><path class="st0" d="M0 30.2h5v5.1H0z" id="path4" fill="#9f3"/><path class="st1" d="M5 30.2h5v5.1H5z" id="path6" fill="#40d940"/><path class="st2" d="M10 30.2h5v5.1h-5z" id="path8" fill="#fff"/><path class="st1" d="M14.9 30.2h5v5.1h-5z" id="path10" fill="#40d940"/><path class="st2" d="M19.9 30.2h5v5.1h-5z" id="path12" fill="#fff"/><path class="st1" d="M24.8 30.2h5v5.1h-5z" id="path14" fill="#40d940"/><path class="st3" d="M29.8 30.2h5v5.1h-5z" id="path16" fill="#d5dee3"/><path class="st1" d="M34.7 30.2h5v5.1h-5z" id="path18" fill="#40d940"/><path class="st3" d="M39.7 30.2h5v5.1h-5z" id="path20" fill="#d5dee3"/><path class="st1" d="M44.6 30.2h5v5.1h-5z" id="path22" fill="#40d940"/><path class="st3" d="M49.6 30.2h5v5.1h-5z" id="path24" fill="#d5dee3"/><path class="st0" d="M54.5 30.2h5v5.1h-5z" id="path26" fill="#9f3"/><path class="st2" d="M59.5 30.2h5v5.1h-5z" id="path28" fill="#fff"/><path class="st0" d="M64.5 30.2h5v5.1h-5z" id="path30" fill="#9f3"/><path class="st2" d="M69.4 30.2h5v5.1h-5z" id="path32" fill="#fff"/><path class="st4" d="M74.4 30.2h5v5.1h-5z" id="path34" fill="#546674"/><path class="st2" d="M79.3 30.2h5v5.1h-5z" id="path36" fill="#fff"/><path class="st4" d="M84.3 30.2h5v5.1h-5z" id="path38" fill="#546674"/><path class="st0" d="M89.2 30.2h5v5.1h-5z" id="path40" fill="#9f3"/><path class="st4" d="M94.2 30.2h5v5.1h-5z" id="path42" fill="#546674"/><path class="st0" d="M99.1 30.2h5v5.1h-5z" id="path44" fill="#9f3"/><path class="st4" d="M104.1 30.2h5v5.1h-5z" id="path46" fill="#546674"/><path class="st0" d="M109 30.2h5v5.1h-5z" id="path48" fill="#9f3"/><path class="st1" d="M114 30.2h5v5.1h-5z" id="path50" fill="#40d940"/><path class="st5" d="M119 30.2h5v5.1h-5z" id="path52" fill="#1f5e03"/><path class="st1" d="M123.9 30.2h5v5.1h-5z" id="path54" fill="#40d940"/><path class="st5" d="M128.9 30.2h5v5.1h-5z" id="path56" fill="#1f5e03"/><path class="st2" d="M133.8 30.2h5v5.1h-5z" id="path58" fill="#fff"/><path class="st5" d="M138.8 30.2h5v5.1h-5z" id="path60" fill="#1f5e03"/><path class="st1" d="M143.7 30.2h5v5.1h-5z" id="path62" fill="#40d940"/><path d="M148.7 30.2h5v5.1h-5z" id="path64"/><path class="st1" d="M153.6 30.2h5v5.1h-5z" id="path66" fill="#40d940"/><path d="M158.6 30.2h5v5.1h-5z" id="path68"/><path class="st1" d="M163.5 30.2h5v5.1h-5z" id="path70" fill="#40d940"/><path d="M168.5 30.2h5v5.1h-5z" id="path72"/><path class="st1" d="M173.5 30.2h5v5.1h-5z" id="path74" fill="#40d940"/><path class="st2" d="M178.4 30.2h5v5.1h-5z" id="path76" fill="#fff"/><path class="st1" d="M183.4 30.2h5v5.1h-5z" id="path78" fill="#40d940"/><path class="st3" d="M188.3 30.2h5v5.1h-5z" id="path80" fill="#d5dee3"/><path class="st0" d="M193.3 30.2h5v5.1h-5z" id="path82" fill="#9f3"/><path class="st1" d="M198.2 30.2h5v5.1h-5z" id="path84" fill="#40d940"/><path class="st0" d="M203.2 30.2h5v5.1h-5z" id="path86" fill="#9f3"/><g id="g90" transform="translate(-444.8 -502.9)"><path d="M444.8 508.5h14.1v3.8h-9.2v5h7.4v3.6h-7.4v5.4h9.7v3.8h-14.6zm7-5.6h4.7l-3 4.2h-3.3zm16.2 9.4h-5.8v-3.8h16.6v3.8H473v17.8h-5zm17.2-3.8h6.4l7 21.6h-5.1l-1.5-4.8h-7.8l-1.5 4.8h-4.6zm0 13.3h5.7l-2.8-9.3zm18.9-9.5h-5.8v-3.8h16.6v3.8H509v17.8h-4.9zm20.9-3.8h7.1c7.6 0 11.3 4.1 11.3 10.6v.2c0 6.5-3.8 10.8-11.4 10.8h-7zm6.9 17.8c4.3 0 6.4-2.4 6.4-6.9v-.2c0-4.4-1.9-6.8-6.5-6.8h-1.9v14h2zm15.5-17.8h14.1v3.8h-9.2v5h7.4v3.6h-7.4v5.4h9.7v3.8h-14.6zm23.7 0h5.2l5.1 16.6 5.1-16.6h4.6l-7.2 21.6h-5.6zm26.2 0h6.4l7 21.6h-5.1l-1.5-4.8h-7.8l-1.5 4.8h-4.6zm0 13.3h5.7l-2.8-9.3zm15.2-.1v-13.2h4.9v12.9c0 3.6 1.1 5.2 4 5.2s4.2-1.4 4.2-5.3v-12.7h4.9v13c0 5.9-3.3 8.9-9.1 8.9-5.6-.1-8.9-3.1-8.9-8.8zm22.7-13.2h7.1c7.6 0 11.3 4.1 11.3 10.6v.2c0 6.5-3.8 10.8-11.4 10.8h-7zm6.9 17.8c4.3 0 6.4-2.4 6.4-6.9v-.2c0-4.4-1.9-6.8-6.5-6.8h-1.9v14h2z" id="path88" fill="#231f20"/></g></svg>