<svg version="1" xmlns="http://www.w3.org/2000/svg" width="933.333" height="933.333" viewBox="0 0 700 700"><path d="M0 350v350h700V0H0v350zm575-183.8c-.1 78.5-1.3 102.9-7.1 135.8-16.6 94.2-64 183.2-137.9 259.4-26.2 26.9-58.6 54.3-74.1 62.6-5.7 3-5.9 3.1-9.1 1.4-23.4-12-70.9-55.2-103.9-94.4-61.2-72.7-99.6-155.3-112.4-241.8-3.8-26-4.5-42-4.5-112V109h449v57.2z"/><path d="M145.7 128.7c-1.1 1-.8 91.1.3 114.8 1.1 23.1 3.7 44.8 7.8 65.5l2.7 13.5 193.6.3 193.6.2.6-2.7c9.3-42.7 10.7-60.1 10.7-134.1V128H350.7c-112.4 0-204.7.3-205 .7zM457 152.5c0 1.2-6.4 7.5-7.6 7.5-1.9 0-1.8-1.6.3-5.1 1.3-2.1 2.5-2.9 4.5-2.9 1.5 0 2.8.2 2.8.5zm-218.8 27.7l.3 18.3 10.3.3c8.2.2 10.2.6 10.2 1.7 0 1.2-2.2 1.5-13 1.5h-13v-40h5l.2 18.2zm34.6 2l.2 19.8h-6v-19.3c0-10.7.3-19.7.7-20.1.4-.4 1.6-.6 2.8-.4 1.9.3 2 1 2.3 20zm30.3-19.2c3.7.7 6.1 1.8 7.7 3.6 3.7 4.2 2.5 11.6-2.1 13.4-2.2.8-2.2.8.5 1.9 4.1 1.6 6.2 5.4 5.5 10.2-1 7.6-5.7 9.9-20.6 9.9H285v-19.3c0-10.7.3-19.7.7-20 1-1 11.3-.8 17.4.3zm47.9 1c0 1.9-.7 2-10 2h-10v14h8c7.3 0 8 .2 8 2s-.7 2-8 2h-8v15h11c9.1 0 11 .3 11 1.5 0 1.3-2.2 1.5-14 1.5h-14v-19.3c0-10.7.3-19.7.7-20 .3-.4 6.2-.7 13-.7 11.6 0 12.3.1 12.3 2zm33.1.3c4.8 2 6.2 4.1 6.2 9.2s-1.8 7.6-6.6 9.6c-1.8.7-3.4 1.4-3.5 1.5-.2.1 2.3 3.9 5.7 8.3 3.4 4.4 6.1 8.2 6.1 8.5 0 .3-1.1.6-2.5.6-1.9 0-4-1.9-9.2-8.5-6-7.5-7.2-8.5-10-8.5H367v18h-6v-19.8c0-10.9.3-20.2.8-20.6 1.1-1.3 18.4.1 22.3 1.7zm43.7-.1c.3 1.6-.5 1.8-6.2 1.8H415v36h-5l-.2-17.8-.3-17.7-6.2-.3c-5.5-.3-6.3-.5-6.3-2.3 0-1.9.6-1.9 15.2-1.7 13.6.3 15.3.5 15.6 2zm34.2-.2c0 1.9-.7 2-10 2h-10v14h8.6c7.6 0 8.5.2 8.2 1.7-.3 1.5-1.6 1.8-8.6 2.1l-8.2.3V199h10.5c8.7 0 10.5.3 10.5 1.5 0 1.3-2.2 1.5-13.5 1.5H436v-40h13c12.3 0 13 .1 13 2zm-117 50.5c0 1.2-1.4 1.5-7 1.5h-7v10h5.5c4.2 0 5.5.3 5.5 1.5s-1.3 1.5-5.5 1.5H331v10h7.5c6 0 7.5.3 7.5 1.5s-1.7 1.5-9.5 1.5H327v-29h9c7.3 0 9 .3 9 1.5zm27 0c0 1.1-1.2 1.5-5 1.5h-5v12.5c0 10.3-.3 12.5-1.5 12.5s-1.5-2.3-1.7-12.3l-.3-12.2-4.2-.3c-2.9-.2-4.3-.8-4.3-1.8 0-1.1 2.1-1.4 11-1.4 9.1 0 11 .3 11 1.5zm-99.3 39.9c4.8 2.4 6.7 5.8 6 10.7-.9 7-4.7 9.5-15.6 10.5l-7.1.7v8.3c0 8.3 0 8.4-2.5 8.4H251v-41.3l9.3.5c5.8.3 10.4 1.1 12.4 2.2zm39 17.1c4 10.4 7.2 19.3 7.3 19.7 0 .5-1.1.8-2.4.8-2 0-2.8-.9-4.4-5.3l-2-5.2-9.5-.3-9.6-.3-2.2 6.1c-1.8 5-2.6 6-4.5 6-1.3 0-2.4-.2-2.4-.4s2.5-7 5.6-15.2c3.1-8.2 6.5-17.3 7.6-20.2 1.9-5.2 2.1-5.3 5.6-5l3.7.3 7.2 19zM351 254c0 1.8-.7 2-6.5 2H338v37h-5v-37h-7c-5.2 0-7-.3-7-1.3 0-.8.3-1.7.7-2 .3-.4 7.5-.7 16-.7 14.6 0 15.3.1 15.3 2zm28-.9c8.1 1.9 11.5 7.4 8.6 14.3-1.1 2.7-2.6 4.1-5.6 5.4l-4.1 1.7 6.6 8.8 6.6 8.7h-3c-2.5 0-3.8-1.2-9.2-8.5-6-8.1-6.5-8.5-10.1-8.5H365v9c0 8.9 0 9-2.5 9H360v-41h7.3c3.9 0 9.2.5 11.7 1.1zm26 19.4V293h-5v-41h5v20.5zm39-18.5c0 1.9-.7 2-10.5 2h-10.6l.3 6.7.3 6.8 8.3.3c7.4.3 8.2.5 8.2 2.2 0 1.8-.7 2-8.5 2H423v14h22v5h-27v-41h13c12.3 0 13 .1 13 2z"/><path d="M291 172.9v7.1h6c5.1 0 6.5-.4 8.5-2.5 2.9-2.9 3.2-5.5.8-8.4-1.4-1.7-3.4-2.3-8.5-2.8l-6.8-.6v7.2zm-.2 11.7c-.5.4-.8 3.8-.8 7.6v6.8h7.1c8 0 10.6-1 12-4.7 1.2-3.2-.4-7.8-2.9-8.8-2.8-1.1-14.6-1.8-15.4-.9zm76.2-10.1v7.5h3.3c12-.1 18.3-6.5 12.2-12.5-2.1-2.2-3.3-2.5-9-2.5H367v7.5zm-111 90.6v8.2l5.3-.6c7-.7 10.6-2.5 11.4-5.6 1.9-7-1.3-10.1-10.3-10.1H256v8.1zm41 .6c-1.8 4.9-3.5 9.4-3.8 10-.3 1 1.5 1.3 7.2 1.3 4.2 0 7.6-.2 7.6-.4 0-.6-7-19-7.4-19.3-.2-.2-1.8 3.6-3.6 8.4zm68.2-1.5c.3 6.9.4 7.3 2.8 7.7 1.4.1 4.9-.2 7.8-.9 5.6-1.2 7.2-2.9 7.2-7.9 0-4.4-3.1-6.1-11.3-6.1h-6.8l.3 7.2zm-98.5 206.2l93.7 127.5 5.9-4.7c3.3-2.6 7.7-6.3 9.8-8.2l3.8-3.5-87.7-119.2-87.7-119.2h-15.7l-15.7-.1 93.6 127.4zm-40-120.9c56.6 77.1 163.9 222.4 164.3 222.4.3 0 4.5-3.7 9.3-8.2l8.8-8.3-77.9-105.9-77.9-106-15.7-.3-15.7-.3 4.8 6.6zm44.3-6.1c0 .8 147.2 200.1 148 200.4.7.3 18.3-17.8 17.8-18.4-.2-.1-30.4-41.2-67.3-91.3l-67-91h-15.7c-8.7-.1-15.8.1-15.8.3zm50.6.8c.9 1.4 123.3 167.9 124.3 169 .8 1 15.6-17.6 15.6-19.6 0-.7-24.7-34.9-55-76l-55-74.6h-15.3c-12 0-15.2.3-14.6 1.2zm49.1 0c.6.7 22.9 31.2 49.8 67.8 26.8 36.6 49.3 67.1 50 67.8.9 1 2.6-.9 8.4-9.6l7.2-11-42.7-58.1-42.7-58.1h-15.5c-12.2 0-15.2.3-14.5 1.2zm48.3-.6c0 .5 72 98.5 74.1 100.8 1.2 1.3 2.4-.5 8.9-12.8l5.4-10.2-28.9-39.2-28.9-39.2h-15.3c-8.4 0-15.3.3-15.3.6zm51.2 2.6c1.4 1.8 11.8 16 23.3 31.6 11.4 15.6 21.1 28 21.5 27.5.4-.4 3.1-6.3 5.9-13l5.2-12.2-13.7-18.5-13.6-18.6h-31l2.4 3.2zm47.5-1.9c3.5 5.8 13.8 18.6 14.4 18 .8-.8 5.9-16.7 5.9-18.4 0-.5-4.6-.9-10.5-.9-8.5 0-10.4.3-9.8 1.3zm-346.3 27c18.8 52 49.3 103.6 88.4 149.6 13.9 16.3 38.7 41.7 53.2 54.5 12.3 10.8 28.9 24.1 29.4 23.5.3-.3-172.1-234.9-173.9-236.8-.4-.3 1 3.8 2.9 9.2z"/></svg>