<?xml version="1.0" standalone="no"?>
<!DOCTYPE svg PUBLIC "-//W3C//DTD SVG 20010904//EN"
 "http://www.w3.org/TR/2001/REC-SVG-20010904/DTD/svg10.dtd">
<svg version="1.0" xmlns="http://www.w3.org/2000/svg"
 width="700.000000pt" height="700.000000pt" viewBox="0 0 700.000000 700.000000"
 preserveAspectRatio="xMidYMid meet">
<metadata>
Created by potrace 1.11, written by Peter Selinger 2001-2013
</metadata>
<g transform="translate(0.000000,700.000000) scale(0.100000,-0.100000)"
fill="#000000" stroke="none">
<path d="M0 3500 l0 -3500 3500 0 3500 0 0 3500 0 3500 -3500 0 -3500 0 0
-3500z m5750 1838 c-1 -785 -13 -1029 -71 -1358 -166 -942 -640 -1832 -1379
-2594 -262 -269 -586 -543 -741 -626 -57 -30 -59 -31 -91 -14 -234 120 -709
552 -1039 944 -612 727 -996 1553 -1124 2418 -38 260 -45 420 -45 1120 l0 682
2245 0 2245 0 0 -572z"/>
<path d="M1457 5713 c-11 -10 -8 -911 3 -1148 11 -231 37 -448 78 -655 l27
-135 1936 -3 1936 -2 6 27 c93 427 107 601 107 1341 l0 582 -2043 0 c-1124 0
-2047 -3 -2050 -7z m3113 -238 c0 -12 -64 -75 -76 -75 -19 0 -18 16 3 51 13
21 25 29 45 29 15 0 28 -2 28 -5z m-2188 -277 l3 -183 103 -3 c82 -2 102 -6
102 -17 0 -12 -22 -15 -130 -15 l-130 0 0 200 0 200 25 0 25 0 2 -182z m346
-20 l2 -198 -30 0 -30 0 0 193 c0 107 3 197 7 201 4 4 16 6 28 4 19 -3 20 -10
23 -200z m303 192 c37 -7 61 -18 77 -36 37 -42 25 -116 -21 -134 -22 -8 -22
-8 5 -19 41 -16 62 -54 55 -102 -10 -76 -57 -99 -206 -99 l-91 0 0 193 c0 107
3 197 7 200 10 10 113 8 174 -3z m479 -10 c0 -19 -7 -20 -100 -20 l-100 0 0
-70 0 -70 80 0 c73 0 80 -2 80 -20 0 -18 -7 -20 -80 -20 l-80 0 0 -75 0 -75
110 0 c91 0 110 -3 110 -15 0 -13 -22 -15 -140 -15 l-140 0 0 193 c0 107 3
197 7 200 3 4 62 7 130 7 116 0 123 -1 123 -20z m331 -3 c48 -20 62 -41 62
-92 0 -51 -18 -76 -66 -96 -18 -7 -34 -14 -35 -15 -2 -1 23 -39 57 -83 34 -44
61 -82 61 -85 0 -3 -11 -6 -25 -6 -19 0 -40 19 -92 85 -60 75 -72 85 -100 85
l-33 0 0 -90 0 -90 -30 0 -30 0 0 198 c0 109 3 202 8 206 11 13 184 -1 223
-17z m437 1 c3 -16 -5 -18 -62 -18 l-66 0 0 -180 0 -180 -25 0 -25 0 -2 178
-3 177 -62 3 c-55 3 -63 5 -63 23 0 19 6 19 152 17 136 -3 153 -5 156 -20z
m342 2 c0 -19 -7 -20 -100 -20 l-100 0 0 -70 0 -70 86 0 c76 0 85 -2 82 -17
-3 -15 -16 -18 -86 -21 l-82 -3 0 -74 0 -75 105 0 c87 0 105 -3 105 -15 0 -13
-22 -15 -135 -15 l-135 0 0 200 0 200 130 0 c123 0 130 -1 130 -20z m-1170
-505 c0 -12 -14 -15 -70 -15 l-70 0 0 -50 0 -50 55 0 c42 0 55 -3 55 -15 0
-12 -13 -15 -55 -15 l-55 0 0 -50 0 -50 75 0 c60 0 75 -3 75 -15 0 -12 -17
-15 -95 -15 l-95 0 0 145 0 145 90 0 c73 0 90 -3 90 -15z m270 0 c0 -11 -12
-15 -50 -15 l-50 0 0 -125 c0 -103 -3 -125 -15 -125 -12 0 -15 23 -17 123 l-3
122 -42 3 c-29 2 -43 8 -43 18 0 11 21 14 110 14 91 0 110 -3 110 -15z m-993
-399 c48 -24 67 -58 60 -107 -9 -70 -47 -95 -156 -105 l-71 -7 0 -83 c0 -83 0
-84 -25 -84 l-25 0 0 206 0 207 93 -5 c58 -3 104 -11 124 -22z m390 -171 c40
-104 72 -193 73 -197 0 -5 -11 -8 -24 -8 -20 0 -28 9 -44 53 l-20 52 -95 3
-96 3 -22 -61 c-18 -50 -26 -60 -45 -60 -13 0 -24 2 -24 4 0 2 25 70 56 152
31 82 65 173 76 202 19 52 21 53 56 50 l37 -3 72 -190z m393 175 c0 -18 -7
-20 -65 -20 l-65 0 0 -185 0 -185 -25 0 -25 0 0 185 0 185 -70 0 c-52 0 -70 3
-70 13 0 8 3 17 7 20 3 4 75 7 160 7 146 0 153 -1 153 -20z m280 9 c81 -19
115 -74 86 -143 -11 -27 -26 -41 -56 -54 l-41 -17 66 -88 66 -87 -30 0 c-25 0
-38 12 -92 85 -60 81 -65 85 -101 85 l-38 0 0 -90 c0 -89 0 -90 -25 -90 l-25
0 0 205 0 205 73 0 c39 0 92 -5 117 -11z m260 -194 l0 -205 -25 0 -25 0 0 205
0 205 25 0 25 0 0 -205z m390 185 c0 -19 -7 -20 -105 -20 l-106 0 3 -67 3 -68
83 -3 c74 -3 82 -5 82 -22 0 -18 -7 -20 -85 -20 l-85 0 0 -70 0 -70 110 0 110
0 0 -25 0 -25 -135 0 -135 0 0 205 0 205 130 0 c123 0 130 -1 130 -20z"/>
<path d="M2910 5271 l0 -71 60 0 c51 0 65 4 85 25 29 29 32 55 8 84 -14 17
-34 23 -85 28 l-68 6 0 -72z"/>
<path d="M2908 5154 c-5 -4 -8 -38 -8 -76 l0 -68 71 0 c80 0 106 10 120 47 12
32 -4 78 -29 88 -28 11 -146 18 -154 9z"/>
<path d="M3670 5255 l0 -75 33 0 c120 1 183 65 122 125 -21 22 -33 25 -90 25
l-65 0 0 -75z"/>
<path d="M2560 4349 l0 -82 53 6 c70 7 106 25 114 56 19 70 -13 101 -103 101
l-64 0 0 -81z"/>
<path d="M2970 4343 c-18 -49 -35 -94 -38 -100 -3 -10 15 -13 72 -13 42 0 76
2 76 4 0 6 -70 190 -74 193 -2 2 -18 -36 -36 -84z"/>
<path d="M3652 4358 c3 -69 4 -73 28 -77 14 -1 49 2 78 9 56 12 72 29 72 79 0
44 -31 61 -113 61 l-68 0 3 -72z"/>
<path d="M2667 2296 l937 -1275 59 47 c33 26 77 63 98 82 l38 35 -877 1192
-877 1192 -157 0 -157 1 936 -1274z"/>
<path d="M2267 3505 c566 -771 1639 -2224 1643 -2224 3 0 45 37 93 82 l88 83
-779 1059 -779 1060 -157 3 -157 3 48 -66z"/>
<path d="M2710 3566 c0 -8 1472 -2001 1480 -2004 7 -3 183 178 178 184 -2 1
-304 412 -673 913 l-670 910 -157 0 c-87 1 -158 -1 -158 -3z"/>
<path d="M3216 3558 c9 -14 1233 -1679 1243 -1690 8 -10 156 176 156 196 0 7
-247 349 -550 760 l-550 746 -153 0 c-120 0 -152 -3 -146 -12z"/>
<path d="M3707 3558 c6 -7 229 -312 498 -678 268 -366 493 -671 500 -678 9
-10 26 9 84 96 l72 110 -427 581 -427 581 -155 0 c-122 0 -152 -3 -145 -12z"/>
<path d="M4190 3564 c0 -5 720 -985 741 -1008 12 -13 24 5 89 128 l54 102
-289 392 -289 392 -153 0 c-84 0 -153 -3 -153 -6z"/>
<path d="M4702 3538 c14 -18 118 -160 233 -316 114 -156 211 -280 215 -275 4
4 31 63 59 130 l52 122 -137 185 -136 186 -155 0 -155 0 24 -32z"/>
<path d="M5177 3557 c35 -58 138 -186 144 -180 8 8 59 167 59 184 0 5 -46 9
-105 9 -85 0 -104 -3 -98 -13z"/>
<path d="M1714 3287 c188 -520 493 -1036 884 -1496 139 -163 387 -417 532
-545 123 -108 289 -241 294 -235 3 3 -1721 2349 -1739 2368 -4 3 10 -38 29
-92z"/>
</g>
</svg>
