<?xml version="1.0" standalone="no"?>
<!DOCTYPE svg PUBLIC "-//W3C//DTD SVG 20010904//EN"
 "http://www.w3.org/TR/2001/REC-SVG-20010904/DTD/svg10.dtd">
<svg version="1.0" xmlns="http://www.w3.org/2000/svg"
 width="700.000000pt" height="700.000000pt" viewBox="0 0 700.000000 700.000000"
 preserveAspectRatio="xMidYMid meet">
<metadata>
Created by potrace 1.11, written by Peter Selinger 2001-2013
</metadata>
<g transform="translate(0.000000,700.000000) scale(0.100000,-0.100000)"
fill="#000000" stroke="none">
<path d="M0 3500 l0 -3500 3500 0 3500 0 0 3500 0 3500 -3500 0 -3500 0 0
-3500z m5917 1633 c-4 -841 -6 -867 -67 -1193 -150 -802 -520 -1563 -1092
-2246 -322 -383 -781 -803 -1022 -935 l-50 -27 -56 28 c-157 79 -544 410 -802
685 -697 745 -1145 1597 -1312 2495 -65 349 -76 548 -76 1343 l0 627 2241 0
2240 0 -4 -777z"/>
<path d="M1630 5208 c0 -528 9 -775 35 -983 17 -130 58 -367 75 -427 l11 -38
1932 3 1931 2 13 43 c18 65 60 299 79 452 15 113 18 244 21 798 l4 662 -2050
0 -2051 0 0 -512z m3098 240 c-14 -18 -35 -34 -47 -36 -21 -3 -21 -3 -4 32 14
29 22 36 46 36 l30 0 -25 -32z m-2168 -258 l0 -180 100 0 c82 0 100 -3 100
-15 0 -13 -21 -15 -125 -15 l-125 0 0 195 0 195 25 0 25 0 0 -180z m350 -15
l0 -195 -25 0 -25 0 0 195 0 195 25 0 25 0 0 -195z m350 180 c35 -18 50 -43
50 -84 0 -30 -29 -71 -50 -71 -5 0 -10 -4 -10 -10 0 -5 7 -10 15 -10 9 0 27
-11 40 -25 43 -43 26 -127 -32 -154 -15 -8 -74 -16 -130 -19 l-103 -5 0 197 0
196 95 0 c66 0 105 -5 125 -15z m430 0 c0 -12 -18 -15 -100 -15 l-100 0 0 -70
0 -70 80 0 c73 0 80 -2 80 -20 0 -18 -7 -20 -80 -20 l-80 0 0 -75 0 -75 110 0
c91 0 110 -3 110 -15 0 -13 -22 -15 -135 -15 l-135 0 0 195 0 195 125 0 c104
0 125 -2 125 -15z m335 1 c39 -17 57 -45 57 -92 0 -46 -24 -80 -67 -94 -19 -6
-35 -14 -35 -17 0 -4 27 -41 60 -84 33 -42 60 -80 60 -83 0 -3 -11 -6 -24 -6
-19 0 -41 20 -92 85 -60 76 -71 85 -101 85 l-33 0 0 -90 c0 -89 0 -90 -25 -90
l-25 0 0 200 0 200 95 0 c60 0 108 -5 130 -14z m435 -1 c0 -11 -16 -15 -67
-17 l-68 -3 -3 -177 c-2 -169 -3 -178 -22 -178 -19 0 -20 9 -22 178 l-3 177
-62 3 c-47 2 -63 7 -63 17 0 13 26 15 155 15 129 0 155 -2 155 -15z m340 0 c0
-12 -18 -15 -100 -15 l-100 0 0 -70 0 -70 80 0 c73 0 80 -2 80 -20 0 -18 -7
-20 -80 -20 l-80 0 0 -75 0 -75 110 0 c91 0 110 -3 110 -15 0 -13 -22 -15
-135 -15 l-135 0 0 195 0 195 125 0 c104 0 125 -2 125 -15z m-1160 -500 c0
-12 -15 -15 -75 -15 l-75 0 0 -50 0 -50 60 0 c47 0 60 -3 60 -15 0 -12 -13
-15 -60 -15 l-60 0 0 -50 0 -50 75 0 c60 0 75 -3 75 -15 0 -12 -17 -15 -90
-15 l-90 0 0 145 0 145 90 0 c73 0 90 -3 90 -15z m260 0 c0 -11 -12 -15 -45
-15 l-45 0 0 -125 c0 -118 -1 -125 -20 -125 -19 0 -20 7 -20 125 l0 125 -45 0
c-42 0 -54 7 -38 23 3 4 53 7 110 7 85 0 103 -3 103 -15z m-987 -400 c52 -25
72 -90 46 -148 -16 -35 -53 -50 -139 -57 l-75 -5 -3 -82 c-3 -81 -3 -83 -27
-83 l-25 0 0 193 c0 107 3 197 8 201 12 13 179 -1 215 -19z m390 -176 l75
-200 -26 3 c-22 2 -30 13 -47 58 l-21 55 -94 0 -95 0 -20 -57 c-16 -47 -24
-58 -42 -58 l-22 0 18 53 c17 46 91 246 120 320 9 22 17 27 44 27 l34 0 76
-201z m387 181 c0 -18 -7 -20 -65 -20 l-65 0 0 -180 0 -180 -25 0 -25 0 0 180
0 180 -65 0 c-58 0 -65 2 -65 20 0 19 7 20 155 20 148 0 155 -1 155 -20z m318
0 c56 -20 80 -100 46 -149 -9 -12 -34 -30 -55 -39 l-38 -17 65 -87 c64 -88 65
-88 37 -88 -24 0 -39 14 -93 85 -61 80 -67 85 -102 85 l-38 0 0 -85 c0 -84 0
-85 -25 -85 l-25 0 0 201 0 202 98 -6 c53 -3 112 -11 130 -17z m232 -180 l0
-200 -25 0 -25 0 0 200 0 200 25 0 25 0 0 -200z m380 180 c0 -19 -7 -20 -100
-20 l-100 0 0 -70 0 -70 80 0 c64 0 80 -3 80 -15 0 -12 -16 -15 -80 -15 l-80
0 0 -75 0 -75 105 0 c98 0 105 -1 105 -20 0 -19 -7 -20 -135 -20 l-135 0 0
200 0 200 130 0 c123 0 130 -1 130 -20z"/>
<path d="M3090 5270 l0 -70 63 0 c84 0 109 17 105 73 -4 52 -29 67 -110 67
l-58 0 0 -70z"/>
<path d="M3080 5079 l0 -82 72 6 c102 9 140 40 124 103 -9 34 -60 54 -136 54
l-60 0 0 -81z"/>
<path d="M3850 5255 l0 -75 43 0 c54 0 111 16 127 36 20 23 14 76 -11 96 -16
13 -39 18 -90 18 l-69 0 0 -75z"/>
<path d="M2745 4428 c-3 -8 -5 -46 -3 -84 l3 -69 58 1 c78 2 111 25 115 82 3
34 -1 43 -22 57 -36 24 -144 33 -151 13z"/>
<path d="M3149 4332 l-36 -97 39 -3 c21 -2 56 -2 77 0 l39 3 -37 97 c-20 54
-38 98 -41 98 -3 0 -21 -44 -41 -98z"/>
<path d="M3837 4433 c-4 -3 -7 -40 -7 -81 l0 -75 65 6 c77 7 103 19 116 54 14
36 -8 75 -51 90 -38 13 -113 17 -123 6z"/>
<path d="M2000 3448 c1085 -1475 1778 -2412 1786 -2415 14 -5 189 136 188 151
-1 6 -394 544 -874 1196 l-872 1185 -159 3 -159 2 90 -122z"/>
<path d="M2412 3561 c6 -18 1673 -2280 1680 -2281 16 0 179 164 174 176 -3 8
-353 486 -777 1064 l-772 1050 -154 0 c-85 0 -153 -4 -151 -9z"/>
<path d="M2919 3528 c127 -183 1449 -1963 1457 -1963 10 0 174 173 174 184 -1
3 -301 413 -669 911 l-668 905 -162 3 -162 3 30 -43z"/>
<path d="M3992 2753 c330 -450 613 -835 628 -856 l28 -38 80 102 c49 61 78
107 74 115 -4 6 -252 345 -552 752 l-545 741 -157 1 -157 0 601 -817z"/>
<path d="M3886 3558 c10 -15 994 -1349 1005 -1362 7 -8 149 196 149 214 0 5
-190 267 -423 582 l-423 573 -158 3 c-124 2 -156 0 -150 -10z"/>
<path d="M4381 3550 c76 -113 736 -998 743 -996 15 4 134 230 128 242 -4 7
-133 183 -287 393 l-280 380 -159 1 c-157 0 -158 0 -145 -20z"/>
<path d="M5090 3260 c126 -171 232 -311 237 -312 8 -1 111 227 112 249 1 7
-59 94 -131 193 l-133 180 -157 0 -157 0 229 -310z"/>
<path d="M5377 3532 c15 -21 48 -66 73 -100 25 -34 48 -62 51 -62 6 0 59 167
59 188 0 9 -28 12 -106 12 l-106 0 29 -38z"/>
<path d="M1868 3350 c122 -352 317 -738 545 -1080 288 -432 720 -900 1110
-1204 95 -73 120 -90 100 -63 -6 6 -401 543 -878 1192 -477 649 -874 1187
-882 1195 -10 11 -8 0 5 -40z"/>
</g>
</svg>
