<?xml version="1.0" encoding="utf-8"?>
<!-- Generator: Adobe Illustrator 19.0.0, SVG Export Plug-In . SVG Version: 6.00 Build 0)  -->
<svg version="1.1" id="long_x5F_pattern_x5F_squares_x5F_green"
	 xmlns="http://www.w3.org/2000/svg" xmlns:xlink="http://www.w3.org/1999/xlink" width="1503px" height="4px" x="0px" y="0px" viewBox="0 0 1503.7001 4"
	 enable-background="new 0 0 1503.7001 4" xml:space="preserve">
<rect fill="#40D940" width="3.8" height="4"/>
<rect x="3.8" fill="#99FF33" width="3.8" height="4"/>
<rect x="7.6" fill="#40D940" width="3.8" height="4"/>
<rect x="11.4" fill="#99FF33" width="3.8" height="4"/>
<rect x="15.3" fill="#40D940" width="3.8" height="4"/>
<rect x="19.1" fill="#99FF33" width="3.8" height="4"/>
<rect x="22.9" fill="#FFFFFF" width="3.8" height="4"/>
<rect x="26.7" fill="#99FF33" width="3.8" height="4"/>
<rect x="30.5" fill="#FFFFFF" width="3.8" height="4"/>
<rect x="34.3" fill="#99FF33" width="3.8" height="4"/>
<rect x="38.2" fill="#FFFFFF" width="3.8" height="4"/>
<rect x="42" fill="#99FF33" width="3.8" height="4"/>
<rect x="45.8" fill="#FFFFFF" width="3.8" height="4"/>
<rect x="49.6" fill="#99FF33" width="3.8" height="4"/>
<rect x="53.4" fill="#FFFFFF" width="3.8" height="4"/>
<rect x="57.2" fill="#99FF33" width="3.8" height="4"/>
<rect x="61.1" fill="#FFFFFF" width="3.8" height="4"/>
<rect x="64.9" fill="#99FF33" width="3.8" height="4"/>
<rect x="68.7" fill="#DCE3E8" width="3.8" height="4"/>
<rect x="72.5" fill="#536571" width="3.8" height="4"/>
<rect x="76.3" fill="#DCE3E8" width="3.8" height="4"/>
<rect x="80.1" fill="#536571" width="3.8" height="4"/>
<rect x="84" fill="#DCE3E8" width="3.8" height="4"/>
<rect x="87.8" fill="#536571" width="3.8" height="4"/>
<rect x="91.6" fill="#DCE3E8" width="3.8" height="4"/>
<rect x="95.4" fill="#536571" width="3.8" height="4"/>
<rect x="99.2" fill="#DCE3E8" width="3.8" height="4"/>
<rect x="103" fill="#40D940" width="3.8" height="4"/>
<rect x="106.9" fill="#DCE3E8" width="3.8" height="4"/>
<rect x="110.7" fill="#40D940" width="3.8" height="4"/>
<rect x="114.5" fill="#DCE3E8" width="3.8" height="4"/>
<rect x="118.3" fill="#40D940" width="3.8" height="4"/>
<rect x="122.1" fill="#DCE3E8" width="3.8" height="4"/>
<rect x="125.9" fill="#40D940" width="3.8" height="4"/>
<rect x="129.8" fill="#99FF33" width="3.8" height="4"/>
<rect x="133.6" fill="#40D940" width="3.8" height="4"/>
<rect x="137.4" fill="#FFFFFF" width="3.8" height="4"/>
<rect x="141.2" fill="#40D940" width="3.8" height="4"/>
<rect x="145" fill="#FFFFFF" width="3.8" height="4"/>
<rect x="148.8" fill="#40D940" width="3.8" height="4"/>
<rect x="152.7" fill="#028B02" width="3.8" height="4"/>
<rect x="156.5" fill="#99FF33" width="3.8" height="4"/>
<rect x="160.3" fill="#FFFFFF" width="3.8" height="4"/>
<rect x="164.1" fill="#273C46" width="3.8" height="4"/>
<rect x="167.9" fill="#99FF33" width="3.8" height="4"/>
<rect x="171.7" fill="#273C46" width="3.8" height="4"/>
<rect x="175.6" fill="#99FF33" width="3.8" height="4"/>
<rect x="179.4" fill="#273C46" width="3.8" height="4"/>
<rect x="183.2" fill="#DCE3E8" width="3.8" height="4"/>
<rect x="187" fill="#028B02" width="3.8" height="4"/>
<rect x="190.8" fill="#99FF33" width="3.8" height="4"/>
<rect x="194.6" fill="#40D940" width="3.8" height="4"/>
<rect x="198.5" fill="#DCE3E8" width="3.8" height="4"/>
<rect x="202.3" fill="#40D940" width="3.8" height="4"/>
<rect x="206.1" fill="#FFFFFF" width="3.8" height="4"/>
<rect x="209.9" fill="#40D940" width="3.8" height="4"/>
<rect x="213.7" fill="#FFFFFF" width="3.8" height="4"/>
<rect x="217.5" fill="#028B02" width="3.8" height="4"/>
<rect x="221.4" fill="#FFFFFF" width="3.8" height="4"/>
<rect x="225.2" fill="#028B02" width="3.8" height="4"/>
<rect x="229" fill="#FFFFFF" width="3.8" height="4"/>
<rect x="232.8" fill="#028B02" width="3.8" height="4"/>
<rect x="236.6" fill="#CCFF99" width="3.8" height="4"/>
<rect x="240.4" fill="#028B02" width="3.8" height="4"/>
<rect x="244.3" fill="#CCFF99" width="3.8" height="4"/>
<rect x="248.1" fill="#028B02" width="3.8" height="4"/>
<rect x="251.9" fill="#CCFF99" width="3.8" height="4"/>
<rect x="255.7" width="3.8" height="4"/>
<rect x="259.5" fill="#40D940" width="3.8" height="4"/>
<rect x="263.3" width="3.8" height="4"/>
<rect x="267.2" fill="#40D940" width="3.8" height="4"/>
<rect x="271" width="3.8" height="4"/>
<rect x="274.8" fill="#40D940" width="3.8" height="4"/>
<rect x="278.6" fill="#FFFFFF" width="3.8" height="4"/>
<rect x="282.4" fill="#40D940" width="3.8" height="4"/>
<rect x="286.2" fill="#028B02" width="3.8" height="4"/>
<rect x="290.1" fill="#40D940" width="3.8" height="4"/>
<rect x="293.9" fill="#028B02" width="3.8" height="4"/>
<rect x="297.7" fill="#40D940" width="3.8" height="4"/>
<rect x="301.5" fill="#028B02" width="3.8" height="4"/>
<rect x="305.3" fill="#CCFF99" width="3.8" height="4"/>
<rect x="309.1" fill="#99FF33" width="3.8" height="4"/>
<rect x="312.9" fill="#FFFFFF" width="3.8" height="4"/>
<rect x="316.8" fill="#99FF33" width="3.8" height="4"/>
<rect x="320.6" fill="#FFFFFF" width="3.8" height="4"/>
<rect x="324.4" fill="#99FF33" width="3.8" height="4"/>
<rect x="328.2" fill="#C3D1DC" width="3.8" height="4"/>
<rect x="332" fill="#99FF33" width="3.8" height="4"/>
<rect x="335.8" fill="#C3D1DC" width="3.8" height="4"/>
<rect x="339.7" fill="#99FF33" width="3.8" height="4"/>
<rect x="343.5" fill="#C3D1DC" width="3.8" height="4"/>
<rect x="347.3" fill="#99FF33" width="3.8" height="4"/>
<rect x="351.1" fill="#FFFFFF" width="3.8" height="4"/>
<rect x="354.9" fill="#40D940" width="3.8" height="4"/>
<rect x="358.7" fill="#FFFFFF" width="3.8" height="4"/>
<rect x="362.6" fill="#40D940" width="3.8" height="4"/>
<rect x="366.4" fill="#FFFFFF" width="3.8" height="4"/>
<rect x="370.2" fill="#40D940" width="3.8" height="4"/>
<rect x="374" fill="#FFFFFF" width="3.8" height="4"/>
<rect x="377.8" fill="#028B02" width="3.8" height="4"/>
<rect x="381.6" fill="#FFFFFF" width="3.8" height="4"/>
<rect x="385.5" fill="#028B02" width="3.8" height="4"/>
<rect x="389.3" fill="#FFFFFF" width="3.8" height="4"/>
<rect x="393.1" fill="#028B02" width="3.8" height="4"/>
<rect x="396.9" fill="#FFFFFF" width="3.8" height="4"/>
<rect x="400.7" fill="#028B02" width="3.8" height="4"/>
<rect x="404.5" fill="#FFFFFF" width="3.8" height="4"/>
<rect x="408.4" fill="#028B02" width="3.8" height="4"/>
<rect x="412.2" fill="#40D940" width="3.8" height="4"/>
<rect x="416" fill="#028B02" width="3.8" height="4"/>
<rect x="419.8" fill="#40D940" width="3.8" height="4"/>
<rect x="423.6" fill="#FFFFFF" width="3.8" height="4"/>
<rect x="427.4" fill="#40D940" width="3.8" height="4"/>
<rect x="431.3" fill="#99FF33" width="3.8" height="4"/>
<rect x="435.1" fill="#FFFFFF" width="3.8" height="4"/>
<rect x="438.9" fill="#40D940" width="3.8" height="4"/>
<rect x="442.7" fill="#FFFFFF" width="3.8" height="4"/>
<rect x="446.5" fill="#40D940" width="3.8" height="4"/>
<rect x="450.3" fill="#FFFFFF" width="3.8" height="4"/>
<rect x="454.2" fill="#40D940" width="3.8" height="4"/>
<rect x="458" fill="#99FF33" width="3.8" height="4"/>
<rect x="461.8" fill="#40D940" width="3.8" height="4"/>
<rect x="465.6" fill="#99FF33" width="3.8" height="4"/>
<rect x="469.4" fill="#40D940" width="3.8" height="4"/>
<rect x="473.2" fill="#99FF33" width="3.8" height="4"/>
<rect x="477.1" fill="#40D940" width="3.8" height="4"/>
<rect x="480.9" fill="#CCFF99" width="3.8" height="4"/>
<rect x="484.7" fill="#40D940" width="3.8" height="4"/>
<rect x="488.5" fill="#CCFF99" width="3.8" height="4"/>
<rect x="492.3" fill="#40D940" width="3.8" height="4"/>
<rect x="496.1" fill="#CCFF99" width="3.8" height="4"/>
<rect x="500" fill="#40D940" width="3.8" height="4"/>
<rect x="503.8" fill="#028B02" width="3.8" height="4"/>
<rect x="507.6" fill="#40D940" width="3.8" height="4"/>
<rect x="511.4" fill="#028B02" width="3.8" height="4"/>
<rect x="515.2" fill="#99FF33" width="3.8" height="4"/>
<rect x="519" fill="#1E5E02" width="3.8" height="4"/>
<rect x="522.9" fill="#99FF33" width="3.8" height="4"/>
<rect x="526.7" fill="#1E5E02" width="3.8" height="4"/>
<rect x="530.5" fill="#99FF33" width="3.8" height="4"/>
<rect x="534.3" fill="#1E5E02" width="3.8" height="4"/>
<rect x="538.1" fill="#99FF33" width="3.8" height="4"/>
<rect x="541.9" fill="#1E5E02" width="3.8" height="4"/>
<rect x="545.8" fill="#99FF33" width="3.8" height="4"/>
<rect x="549.6" fill="#DCE3E8" width="3.8" height="4"/>
<rect x="553.4" fill="#1E5E02" width="3.8" height="4"/>
<rect x="557.2" fill="#40D940" width="3.8" height="4"/>
<rect x="561" fill="#1E5E02" width="3.8" height="4"/>
<rect x="564.8" fill="#40D940" width="3.8" height="4"/>
<rect x="568.7" fill="#1E5E02" width="3.8" height="4"/>
<rect x="572.5" fill="#99FF33" width="3.8" height="4"/>
<rect x="576.3" fill="#1E5E02" width="3.8" height="4"/>
<rect x="580.1" fill="#028B02" width="3.8" height="4"/>
<rect x="583.9" fill="#99FF33" width="3.8" height="4"/>
<rect x="587.7" fill="#028B02" width="3.8" height="4"/>
<rect x="591.5" fill="#40D940" width="3.8" height="4"/>
<rect x="595.4" fill="#028B02" width="3.8" height="4"/>
<rect x="599.2" fill="#40D940" width="3.8" height="4"/>
<rect x="603" fill="#028B02" width="3.8" height="4"/>
<rect x="606.8" fill="#40D940" width="3.8" height="4"/>
<rect x="610.6" fill="#DCE3E8" width="3.8" height="4"/>
<rect x="614.4" fill="#40D940" width="3.8" height="4"/>
<rect x="618.3" fill="#DCE3E8" width="3.8" height="4"/>
<rect x="622.1" fill="#40D940" width="3.8" height="4"/>
<rect x="625.9" fill="#DCE3E8" width="3.8" height="4"/>
<rect x="629.7" fill="#40D940" width="3.8" height="4"/>
<rect x="633.5" fill="#FFFFFF" width="3.8" height="4"/>
<rect x="637.3" fill="#40D940" width="3.8" height="4"/>
<rect x="641.2" width="3.8" height="4"/>
<rect x="645" fill="#40D940" width="3.8" height="4"/>
<rect x="648.8" width="3.8" height="4"/>
<rect x="652.6" fill="#99FF33" width="3.8" height="4"/>
<rect x="656.4" width="3.8" height="4"/>
<rect x="660.2" fill="#99FF33" width="3.8" height="4"/>
<rect x="664.1" fill="#1E5E02" width="3.8" height="4"/>
<rect x="667.9" fill="#99FF33" width="3.8" height="4"/>
<rect x="671.7" fill="#028B02" width="3.8" height="4"/>
<rect x="675.5" fill="#99FF33" width="3.8" height="4"/>
<rect x="679.3" fill="#028B02" width="3.8" height="4"/>
<rect x="683.1" fill="#40D940" width="3.8" height="4"/>
<rect x="687" fill="#028B02" width="3.8" height="4"/>
<rect x="690.8" fill="#40D940" width="3.8" height="4"/>
<rect x="694.6" fill="#028B02" width="3.8" height="4"/>
<rect x="698.4" fill="#40D940" width="3.8" height="4"/>
<rect x="702.2" fill="#028B02" width="3.8" height="4"/>
<rect x="706" fill="#40D940" width="3.8" height="4"/>
<rect x="709.9" fill="#99FF33" width="3.8" height="4"/>
<rect x="713.7" fill="#028B02" width="3.8" height="4"/>
<rect x="717.5" fill="#99FF33" width="3.8" height="4"/>
<rect x="721.3" fill="#028B02" width="3.8" height="4"/>
<rect x="725.1" fill="#CCFF99" width="3.8" height="4"/>
<rect x="728.9" fill="#028B02" width="3.8" height="4"/>
<rect x="732.8" fill="#CCFF99" width="3.8" height="4"/>
<rect x="736.6" fill="#028B02" width="3.8" height="4"/>
<rect x="740.4" fill="#CCFF99" width="3.8" height="4"/>
<rect x="744.2" width="3.8" height="4"/>
<rect x="748" fill="#40D940" width="3.8" height="4"/>
<rect x="751.8" width="3.8" height="4"/>
<rect x="755.7" fill="#40D940" width="3.8" height="4"/>
<rect x="759.5" width="3.8" height="4"/>
<rect x="763.3" fill="#40D940" width="3.8" height="4"/>
<rect x="767.1" fill="#FFFFFF" width="3.8" height="4"/>
<rect x="770.9" fill="#40D940" width="3.8" height="4"/>
<rect x="774.7" fill="#FFFFFF" width="3.8" height="4"/>
<rect x="778.6" fill="#40D940" width="3.8" height="4"/>
<rect x="782.4" fill="#FFFFFF" width="3.8" height="4"/>
<rect x="786.2" fill="#40D940" width="3.8" height="4"/>
<rect x="790" fill="#FFFFFF" width="3.8" height="4"/>
<rect x="793.8" fill="#40D940" width="3.8" height="4"/>
<rect x="797.6" fill="#99FF33" width="3.8" height="4"/>
<rect x="801.5" fill="#40D940" width="3.8" height="4"/>
<rect x="805.3" fill="#99FF33" width="3.8" height="4"/>
<rect x="809.1" fill="#40D940" width="3.8" height="4"/>
<rect x="812.9" fill="#99FF33" width="3.8" height="4"/>
<rect x="816.7" fill="#40D940" width="3.8" height="4"/>
<rect x="820.5" fill="#99FF33" width="3.8" height="4"/>
<rect x="824.4" fill="#40D940" width="3.8" height="4"/>
<rect x="828.2" fill="#99FF33" width="3.8" height="4"/>
<rect x="832" fill="#40D940" width="3.8" height="4"/>
<rect x="835.8" fill="#99FF33" width="3.8" height="4"/>
<rect x="839.6" width="3.8" height="4"/>
<rect x="843.4" fill="#40D940" width="3.8" height="4"/>
<rect x="847.3" width="3.8" height="4"/>
<rect x="851.1" fill="#40D940" width="3.8" height="4"/>
<rect x="854.9" width="3.8" height="4"/>
<rect x="858.7" fill="#40D940" width="3.8" height="4"/>
<rect x="862.5" width="3.8" height="4"/>
<rect x="866.3" fill="#40D940" width="3.8" height="4"/>
<rect x="870.2" width="3.8" height="4"/>
<rect x="874" fill="#40D940" width="3.8" height="4"/>
<rect x="877.8" width="3.8" height="4"/>
<rect x="881.6" fill="#40D940" width="3.8" height="4"/>
<rect x="885.4" fill="#99FF33" width="3.8" height="4"/>
<rect x="889.2" fill="#40D940" width="3.8" height="4"/>
<rect x="893" fill="#99FF33" width="3.8" height="4"/>
<rect x="896.9" fill="#697983" width="3.8" height="4"/>
<rect x="900.7" fill="#40D940" width="3.8" height="4"/>
<rect x="904.5" fill="#697983" width="3.8" height="4"/>
<rect x="908.3" fill="#DCE3E8" width="3.8" height="4"/>
<rect x="912.1" fill="#697983" width="3.8" height="4"/>
<rect x="915.9" fill="#DCE3E8" width="3.8" height="4"/>
<rect x="919.8" fill="#697983" width="3.8" height="4"/>
<rect x="923.6" fill="#DCE3E8" width="3.8" height="4"/>
<rect x="927.4" fill="#697983" width="3.8" height="4"/>
<rect x="931.2" fill="#DCE3E8" width="3.8" height="4"/>
<rect x="935" fill="#697983" width="3.8" height="4"/>
<rect x="938.8" fill="#99FF33" width="3.8" height="4"/>
<rect x="942.7" fill="#697983" width="3.8" height="4"/>
<rect x="946.5" fill="#99FF33" width="3.8" height="4"/>
<rect x="950.3" fill="#697983" width="3.8" height="4"/>
<rect x="954.1" fill="#99FF33" width="3.8" height="4"/>
<rect x="957.9" fill="#697983" width="3.8" height="4"/>
<rect x="961.7" fill="#99FF33" width="3.8" height="4"/>
<rect x="965.6" fill="#FFFFFF" width="3.8" height="4"/>
<rect x="969.4" fill="#99FF33" width="3.8" height="4"/>
<rect x="973.2" fill="#FFFFFF" width="3.8" height="4"/>
<rect x="973.2" fill="#FFFFFF" width="3.8" height="4"/>
<rect x="977" fill="#40D940" width="3.8" height="4"/>
<rect x="980.8" fill="#FFFFFF" width="3.8" height="4"/>
<rect x="984.6" fill="#40D940" width="3.8" height="4"/>
<rect x="988.5" fill="#99FF33" width="3.8" height="4"/>
<rect x="992.3" fill="#FFFFFF" width="3.8" height="4"/>
<rect x="996.1" fill="#99FF33" width="3.8" height="4"/>
<rect x="999.9" fill="#FFFFFF" width="3.8" height="4"/>
<rect x="1003.7" fill="#99FF33" width="3.8" height="4"/>
<rect x="1007.5" fill="#FFFFFF" width="3.8" height="4"/>
<rect x="1011.4" fill="#99FF33" width="3.8" height="4"/>
<rect x="1015.2" fill="#FFFFFF" width="3.8" height="4"/>
<rect x="1019" fill="#99FF33" width="3.8" height="4"/>
<rect x="1022.8" fill="#FFFFFF" width="3.8" height="4"/>
<rect x="1026.6" fill="#99FF33" width="3.8" height="4"/>
<rect x="1030.4" fill="#028B02" width="3.8" height="4"/>
<rect x="1034.3" fill="#99FF33" width="3.8" height="4"/>
<rect x="1038.1" fill="#028B02" width="3.8" height="4"/>
<rect x="1041.9" fill="#99FF33" width="3.8" height="4"/>
<rect x="1045.7" fill="#DCE3E8" width="3.8" height="4"/>
<rect x="1049.5" fill="#028B02" width="3.8" height="4"/>
<rect x="1053.3" fill="#DCE3E8" width="3.8" height="4"/>
<rect x="1057.2" fill="#028B02" width="3.8" height="4"/>
<rect x="1061" fill="#DCE3E8" width="3.8" height="4"/>
<rect x="1064.8" fill="#40D940" width="3.8" height="4"/>
<rect x="1068.6" fill="#028B02" width="3.8" height="4"/>
<rect x="1072.4" fill="#40D940" width="3.8" height="4"/>
<rect x="1076.2" fill="#028B02" width="3.8" height="4"/>
<rect x="1080.1" fill="#40D940" width="3.8" height="4"/>
<rect x="1083.9" fill="#99FF33" width="3.8" height="4"/>
<rect x="1087.7" fill="#40D940" width="3.8" height="4"/>
<rect x="1091.5" fill="#99FF33" width="3.8" height="4"/>
<rect x="1095.3" fill="#40D940" width="3.8" height="4"/>
<rect x="1099.1" fill="#FFFFFF" width="3.8" height="4"/>
<rect x="1103" fill="#40D940" width="3.8" height="4"/>
<rect x="1106.8" fill="#FFFFFF" width="3.8" height="4"/>
<rect x="1110.6" fill="#40D940" width="3.8" height="4"/>
<rect x="1114.4" fill="#FFFFFF" width="3.8" height="4"/>
<rect x="1118.2" fill="#40D940" width="3.8" height="4"/>
<rect x="1122" fill="#99FF33" width="3.8" height="4"/>
<rect x="1125.9" fill="#40D940" width="3.8" height="4"/>
<rect x="1129.7" fill="#99FF33" width="3.8" height="4"/>
<rect x="1133.5" fill="#273C46" width="3.8" height="4"/>
<rect x="1137.3" fill="#99FF33" width="3.8" height="4"/>
<rect x="1141.1" fill="#273C46" width="3.8" height="4"/>
<rect x="1144.9" fill="#99FF33" width="3.8" height="4"/>
<rect x="1148.8" fill="#273C46" width="3.8" height="4"/>
<rect x="1152.6" fill="#DCE3E8" width="3.8" height="4"/>
<rect x="1156.4" fill="#273C46" width="3.8" height="4"/>
<rect x="1160.2" fill="#DCE3E8" width="3.8" height="4"/>
<rect x="1164" fill="#40D940" width="3.8" height="4"/>
<rect x="1167.8" fill="#DCE3E8" width="3.8" height="4"/>
<rect x="1171.7" fill="#40D940" width="3.8" height="4"/>
<rect x="1175.5" fill="#DCE3E8" width="3.8" height="4"/>
<rect x="1179.3" fill="#40D940" width="3.8" height="4"/>
<rect x="1183.1" fill="#FFFFFF" width="3.8" height="4"/>
<rect x="1186.9" fill="#028B02" width="3.8" height="4"/>
<rect x="1190.7" fill="#FFFFFF" width="3.8" height="4"/>
<rect x="1194.5" fill="#028B02" width="3.8" height="4"/>
<rect x="1198.4" fill="#FFFFFF" width="3.8" height="4"/>
<rect x="1202.2" fill="#028B02" width="3.8" height="4"/>
<rect x="1206" fill="#CCFF99" width="3.8" height="4"/>
<rect x="1209.8" fill="#028B02" width="3.8" height="4"/>
<rect x="1213.6" fill="#CCFF99" width="3.8" height="4"/>
<rect x="1217.4" fill="#028B02" width="3.8" height="4"/>
<rect x="1221.3" fill="#CCFF99" width="3.8" height="4"/>
<rect x="1225.1" width="3.8" height="4"/>
<rect x="1228.9" fill="#40D940" width="3.8" height="4"/>
<rect x="1232.7" width="3.8" height="4"/>
<rect x="1236.5" fill="#99FF33" width="3.8" height="4"/>
<rect x="1240.3" width="3.8" height="4"/>
<rect x="1244.2" fill="#99FF33" width="3.8" height="4"/>
<rect x="1248" fill="#FFFFFF" width="3.8" height="4"/>
<rect x="1251.8" fill="#99FF33" width="3.8" height="4"/>
<rect x="1255.6" fill="#FFFFFF" width="3.8" height="4"/>
<rect x="1259.4" fill="#40D940" width="3.8" height="4"/>
<rect x="1263.2" fill="#028B02" width="3.8" height="4"/>
<rect x="1267.1" fill="#40D940" width="3.8" height="4"/>
<rect x="1270.9" fill="#028B02" width="3.8" height="4"/>
<rect x="1274.7" fill="#CCFF99" width="3.8" height="4"/>
<rect x="1278.5" fill="#99FF33" width="3.8" height="4"/>
<rect x="1282.3" fill="#028B02" width="3.8" height="4"/>
<rect x="1286.1" fill="#99FF33" width="3.8" height="4"/>
<rect x="1290" fill="#028B02" width="3.8" height="4"/>
<rect x="1293.8" fill="#99FF33" width="3.8" height="4"/>
<rect x="1297.6" fill="#C3D1DC" width="3.8" height="4"/>
<rect x="1301.4" fill="#99FF33" width="3.8" height="4"/>
<rect x="1305.2" fill="#C3D1DC" width="3.8" height="4"/>
<rect x="1309" fill="#99FF33" width="3.8" height="4"/>
<rect x="1312.9" fill="#028B02" width="3.8" height="4"/>
<rect x="1316.7" fill="#99FF33" width="3.8" height="4"/>
<rect x="1320.5" fill="#028B02" width="3.8" height="4"/>
<rect x="1324.3" fill="#40D940" width="3.8" height="4"/>
<rect x="1328.1" fill="#028B02" width="3.8" height="4"/>
<rect x="1331.9" fill="#40D940" width="3.8" height="4"/>
<rect x="1335.8" fill="#99FF33" width="3.8" height="4"/>
<rect x="1339.6" fill="#40D940" width="3.8" height="4"/>
<rect x="1343.4" width="3.8" height="4"/>
<rect x="1347.2" fill="#40D940" width="3.8" height="4"/>
<rect x="1351" width="3.8" height="4"/>
<rect x="1354.8" fill="#40D940" width="3.8" height="4"/>
<rect x="1358.7" width="3.8" height="4"/>
<rect x="1362.5" fill="#40D940" width="3.8" height="4"/>
<rect x="1366.3" fill="#CCFF99" width="3.8" height="4"/>
<rect x="1370.1" fill="#40D940" width="3.8" height="4"/>
<rect x="1373.9" fill="#CCFF99" width="3.8" height="4"/>
<rect x="1377.7" fill="#40D940" width="3.8" height="4"/>
<rect x="1381.6" fill="#028B02" width="3.8" height="4"/>
<rect x="1385.4" fill="#99FF33" width="3.8" height="4"/>
<rect x="1389.2" fill="#028B02" width="3.8" height="4"/>
<rect x="1393" fill="#99FF33" width="3.8" height="4"/>
<rect x="1396.8" fill="#FFFFFF" width="3.8" height="4"/>
<rect x="1400.6" fill="#028B02" width="3.8" height="4"/>
<rect x="1404.5" fill="#FFFFFF" width="3.8" height="4"/>
<rect x="1408.3" fill="#028B02" width="3.8" height="4"/>
<rect x="1412.1" fill="#40D940" width="3.8" height="4"/>
<rect x="1415.9" fill="#FFFFFF" width="3.8" height="4"/>
<rect x="1419.7" fill="#40D940" width="3.8" height="4"/>
<rect x="1423.5" fill="#DCE3E8" width="3.8" height="4"/>
<rect x="1427.4" fill="#40D940" width="3.8" height="4"/>
<rect x="1431.2" fill="#028B02" width="3.8" height="4"/>
<rect x="1435" fill="#40D940" width="3.8" height="4"/>
<rect x="1438.8" fill="#CCFF99" width="3.8" height="4"/>
<rect x="1442.6" fill="#40D940" width="3.8" height="4"/>
<rect x="1446.4" fill="#CCFF99" width="3.8" height="4"/>
<rect x="1450.3" fill="#40D940" width="3.8" height="4"/>
<rect x="1454.1" fill="#028B02" width="3.8" height="4"/>
<rect x="1457.9" fill="#99FF33" width="3.8" height="4"/>
<rect x="1461.7" fill="#273C46" width="3.8" height="4"/>
<rect x="1465.5" fill="#99FF33" width="3.8" height="4"/>
<rect x="1469.3" fill="#028B02" width="3.8" height="4"/>
<rect x="1473.1" fill="#40D940" width="3.8" height="4"/>
<rect x="1477" fill="#99FF33" width="3.8" height="4"/>
<rect x="1480.8" fill="#FFFFFF" width="3.8" height="4"/>
<rect x="1484.6" fill="#99FF33" width="3.8" height="4"/>
<rect x="1488.4" fill="#273C46" width="3.8" height="4"/>
<rect x="1492.2" fill="#99FF33" width="3.8" height="4"/>
<rect x="1496" fill="#273C46" width="3.8" height="4"/>
<rect x="1499.9" fill="#99FF33" width="3.8" height="4"/>
</svg>
