<svg width="311" height="522" viewBox="0 0 311 522" xmlns="http://www.w3.org/2000/svg"><title>logo</title><g fill="#4A873F" fill-rule="evenodd"><path d="M48.036 324.226c0 6.162-3.174 10.713-8.71 12.487-2.162.697-4.96 1.037-8.561 1.037-3.599 0-6.5-.348-8.635-1.037-5.533-1.774-8.708-6.325-8.708-12.487 0-4.732 2.108-8.775 5.639-10.818.37-.223.765-.322 1.279-.322a1.99 1.99 0 0 1 2.011 2.009c0 .811-.399 1.489-1.191 2.016-2.346 1.67-3.444 3.934-3.444 7.115 0 4.141 2.009 6.959 5.801 8.158 1.853.616 3.951.866 7.248.866 3.248 0 5.323-.25 7.168-.864 3.801-1.201 5.805-4.019 5.805-8.16 0-3.183-1.093-5.447-3.448-7.123-.78-.513-1.184-1.193-1.184-2.008a1.99 1.99 0 0 1 2.014-2.009c.514 0 .912.099 1.284.326 3.524 2.039 5.632 6.082 5.632 10.814M32.093 296.638c0 6.178 1.784 8.819 5.96 8.819 4.756 0 5.754-4.166 5.754-7.664 0-5.526-2.622-8.957-6.842-8.957h-4.838l-.034 7.802zm15.944 1.768c0 6.976-3.92 11.482-9.984 11.482-6.482 0-10.052-4.511-10.052-12.707v-8.314l-2.346-.031c-5.686 0-8.007 2.339-8.007 8.072 0 2.857 1.031 5.611 1.995 7.234.288.438.458.985.458 1.487 0 1.224-.854 2.08-2.079 2.08-.655 0-1.303-.321-1.781-.881-1.77-2.33-2.818-6.11-2.818-10.123 0-8.299 3.8-12.162 11.96-12.162h13.148c1.82 0 2.434-.207 3.306-.643l2.446-1.289c.3-.154.77-.318 1.197-.318 1.265 0 2.145.939 2.145 2.283 0 .894-.426 1.56-1.34 2.096l-2.25 1.361c2.802 2.637 4.002 5.764 4.002 10.373zM47.625 253.169c0 1.365-.9 2.217-2.35 2.217h-18.19c-6.304 0-9.37 2.658-9.37 8.141 0 4.994 3.572 8.48 8.688 8.48h18.872c1.45 0 2.35.848 2.35 2.217 0 1.364-.9 2.213-2.35 2.213h-29.09c-1.454 0-2.356-.849-2.356-2.213 0-1.369.902-2.217 2.356-2.217h1.16c-2.57-2.035-3.924-5.226-3.924-9.298 0-7.36 4.778-11.757 12.778-11.757h19.076c1.45 0 2.35.852 2.35 2.217M47.559 232.458v.887c0 6.25-2.55 8.685-9.094 8.685H18.16l-.033 2.694c0 1.303-.788 2.144-2.013 2.144-1.221 0-2.011-.841-2.011-2.144v-2.658l-8.34-.036c-1.454 0-2.359-.849-2.359-2.212 0-1.368.905-2.217 2.359-2.217h8.307l.033-5.209c0-1.305.79-2.149 2.011-2.149 1.225 0 2.013.844 2.013 2.149v5.179l20.202.03c3.92 0 4.934-1.057 4.934-5.143 0-1.365.864-2.281 2.15-2.281 1.283 0 2.146.916 2.146 2.281M17.716 213.794c0 3.998 2.118 6.998 5.805 8.227 1.873.623 3.883.865 7.177.865 3.34 0 5.367-.242 7.234-.865 3.692-1.229 5.806-4.229 5.806-8.227 0-4.103-2.06-7.049-5.804-8.295-1.878-.625-3.907-.869-7.236-.869-3.284 0-5.297.244-7.177.869-3.744 1.246-5.805 4.192-5.805 8.295m30.32 0c0 6.113-3.174 10.664-8.706 12.484-2.519.788-5.018 1.108-8.632 1.108-3.572 0-6.051-.32-8.564-1.106-5.538-1.82-8.712-6.371-8.712-12.486 0-6.156 3.174-10.73 8.71-12.555 2.528-.787 5.01-1.109 8.566-1.109 3.602 0 6.1.322 8.626 1.107 5.538 1.827 8.712 6.401 8.712 12.557M47.625 170.671c0 1.365-.9 2.215-2.35 2.215h-18.19c-6.304 0-9.37 2.664-9.37 8.142 0 4.993 3.572 8.481 8.688 8.481h18.872c1.45 0 2.35.85 2.35 2.217 0 1.365-.9 2.213-2.35 2.213h-29.09c-1.454 0-2.356-.848-2.356-2.213 0-1.367.902-2.217 2.356-2.217h1.16c-2.57-2.035-3.924-5.227-3.924-9.299 0-7.361 4.778-11.754 12.778-11.754h19.076c1.45 0 2.35.85 2.35 2.215M17.716 137.271c0 3.927 1.992 6.754 5.604 7.955 1.924.625 3.991.867 7.378.867 3.474 0 5.489-.234 7.442-.867 3.612-1.201 5.598-4.028 5.598-7.955 0-4.049-1.864-6.825-5.394-8.024-1.704-.521-4.35-.797-7.646-.797-3.208 0-5.904.284-7.591.801-3.523 1.195-5.391 3.971-5.391 8.02m30.32.613c0 5.654-2.948 9.748-8.298 11.533-2.76.846-5.295 1.176-9.04 1.176-3.656 0-6.255-.34-8.971-1.174-5.359-1.787-8.305-5.881-8.305-11.535 0-4.391 1.302-7.49 3.97-9.434H2.355c-1.454 0-2.355-.849-2.355-2.216 0-1.366.901-2.213 2.355-2.213h42.92c1.451 0 2.351.847 2.351 2.213 0 1.367-.9 2.216-2.351 2.216h-1.212c2.67 1.944 3.973 5.045 3.973 9.434M17.579 104.441c0 4.13 2.084 7.076 5.874 8.293 1.292.41 2.686.593 4.516.593l.03-17.812c-1.86-.031-3.254.152-4.546.562-3.79 1.219-5.874 4.188-5.874 8.364m30.458-.413c0 6.458-3.036 10.872-8.776 12.76-2.252.746-4.654 1.039-8.564 1.039-3.84 0-6.242-.293-8.564-1.039-5.538-1.799-8.712-6.301-8.712-12.347 0-6.092 3.174-10.62 8.71-12.418 2.132-.707 4.64-1.039 7.884-1.039 1.224 0 2.078.855 2.078 2.08v20.232c2.756.031 4.048-.121 5.57-.629 3.976-1.324 6.076-4.383 6.076-8.84 0-3.545-1.066-6.092-3.566-8.521-.52-.524-.794-1.086-.794-1.631 0-1.149.836-2.014 1.944-2.014.562 0 1.052.168 1.462.494 3.384 2.678 5.252 6.893 5.252 11.873M152.251 305.531l-80.375 30.896c-1.172.395-1.958.588-2.932.588-2.544 0-5.086-1.759-5.086-5.279 0-2.736 1.76-4.301 3.91-5.088l73.53-28.156v-.195l-73.53-27.577c-2.15-.779-3.91-2.345-3.91-5.082 0-3.521 2.542-5.281 5.086-5.281.974 0 1.76.193 2.932.586l80.375 30.897c4.889 1.761 6.454 3.521 6.454 6.847 0 3.324-1.565 5.086-6.454 6.844M129.177 195.121h-13.886c-.78 0-1.174.39-1.174 1.172v22.293c0 18.58 5.67 26.402 18.185 26.402 11.541 0 17.6-8.018 17.6-23.076 0-16.035-7.82-26.791-20.725-26.791m24.444-16.623c2.931 0 5.084 2.152 5.084 5.476 0 2.153-.979 3.715-3.327 5.084l-7.429 4.496v.393c7.629 6.846 11.929 15.059 11.929 29.726 0 17.989-9.777 31.874-27.576 31.874-18.379 0-27.767-12.905-27.767-35.393v-23.861c0-.782-.391-1.172-1.172-1.172h-6.651c-15.449 0-24.055 5.867-24.055 24.246 0 8.021 2.738 16.037 5.869 21.318.781 1.174 1.171 2.545 1.171 3.715 0 2.936-1.954 4.887-4.89 4.887-1.562 0-3.126-.781-4.3-2.149-4.302-5.672-7.822-15.642-7.822-28.353 0-23.08 10.364-33.834 33.244-33.834h37.744c5.282 0 7.239-.588 9.971-1.955l7.043-3.715c.781-.393 1.953-.783 2.934-.783M153.035 101.849h-6.455v.195c8.41 5.277 13.298 14.078 13.298 27.182 0 20.537-12.908 32.265-35.589 32.265H69.53c-3.714 0-5.672-2.15-5.672-5.277 0-3.131 1.958-5.281 5.672-5.281h52.212c18.582 0 27.966-7.822 27.966-24.053 0-14.084-9.972-25.031-26.007-25.031H69.53c-3.714 0-5.672-2.153-5.672-5.282 0-3.132 1.958-5.283 5.672-5.283h83.505c3.711 0 5.67 2.151 5.67 5.283 0 3.129-1.959 5.282-5.67 5.282M133.478 13.085c-5.084-1.562-12.908-2.344-22.293-2.344-9.191 0-17.017.782-22.1 2.344-10.95 3.717-16.231 12.322-16.231 24.055 0 11.929 6.258 20.34 16.819 23.859 6.063 1.955 12.321 2.541 21.512 2.541 9.385 0 15.641-.586 21.705-2.541 10.561-3.519 16.818-11.93 16.818-23.859 0-11.733-5.277-20.338-16.23-24.055m19.557-2.344h-6.846v.194c8.018 4.496 13.689 12.711 13.689 27.965 0 15.841-8.41 27.181-23.074 32.072-7.627 2.347-14.865 3.322-25.619 3.322-10.56 0-17.799-.975-25.424-3.322C71.095 66.081 62.685 54.741 62.685 38.9c0-15.254 5.669-23.469 13.689-27.965v-.194H29.832c-3.72 0-5.672-2.152-5.672-5.283 0-3.127 1.952-5.277 5.672-5.277h123.203c3.711 0 5.67 2.15 5.67 5.277 0 3.131-1.959 5.283-5.67 5.283"/><g><path d="M112.905 401.398c0-.528.33-.88.88-.88h7.701c.594 0 .969.396.969.902 0 .529-.375.924-.969.924h-6.49c-.088 0-.133.044-.133.132v4.401c0 .088.045.132.133.132h5.412c.593 0 .968.396.968.902 0 .528-.375.925-.968.925h-5.412c-.088 0-.133.043-.133.131v4.554c0 .089.045.133.133.133h6.49c.594 0 .969.396.969.902 0 .528-.375.924-.969.924h-7.701c-.55 0-.88-.351-.88-.88v-13.202M105.931 401.465c0-.661.397-1.057.99-1.057.573 0 .969.396.969 1.057v13.069c0 .66-.396 1.056-.969 1.056-.593 0-.99-.396-.99-1.056v-13.069M99.398 404.831c0-1.563-1.033-2.487-2.772-2.487h-3.499c-.087 0-.131.044-.131.132v4.709c0 .088.044.132.131.132h3.499c1.739 0 2.772-.925 2.772-2.486zm-8.361 9.703v-13.136c0-.528.33-.88.881-.88h4.686c2.904 0 4.731 1.695 4.731 4.313 0 2.002-1.056 3.454-2.839 4.026l2.685 5.281c.088.176.131.33.131.528 0 .484-.352.924-.945.924-.397 0-.704-.198-.947-.616l-2.948-5.831h-3.345c-.087 0-.131.044-.131.132v5.259c0 .66-.397 1.056-.969 1.056-.594 0-.99-.396-.99-1.056zM86.529 400.518c.594 0 .969.396.969.924 0 .507-.375.902-.969.902h-3.454c-.088 0-.132.044-.132.132v12.058c0 .66-.397 1.056-.969 1.056-.594 0-.99-.396-.99-1.056v-12.058c0-.088-.043-.132-.131-.132h-3.455c-.594 0-.968-.395-.968-.902 0-.528.374-.924.968-.924h9.131M72.206 410.199L69.83 403.4h-.066l-2.42 6.799h4.862zm-8.295 4.049l4.599-12.741c.242-.703.616-1.099 1.276-1.099s1.078.396 1.32 1.099l4.533 12.741c.044.133.088.286.088.44 0 .55-.418.902-.924.902-.44 0-.792-.242-.946-.704l-1.012-2.882h-6.139l-1.013 2.882c-.153.462-.506.704-.945.704-.507 0-.925-.352-.925-.902 0-.154.044-.307.088-.44zM60.393 404.984c0-1.627-1.079-2.64-2.927-2.64h-3.344c-.088 0-.132.044-.132.132v5.017c0 .089.044.132.132.132h3.344c1.848 0 2.927-1.012 2.927-2.641zm-8.362-3.586c0-.528.33-.88.881-.88h4.62c2.992 0 4.797 1.804 4.797 4.466 0 2.663-1.805 4.467-4.797 4.467h-3.41c-.088 0-.132.045-.132.133v4.95c0 .66-.396 1.056-.969 1.056-.594 0-.99-.396-.99-1.056v-13.136zM94.945 386.543c.405 0 .717.327.717.687 0 .345-.312.672-.717.672h-2.356c-.059 0-.09.029-.09.09v7.596c0 .449-.326.776-.716.776-.405 0-.731-.327-.731-.776v-7.596c0-.061-.03-.09-.09-.09h-2.355c-.405 0-.717-.327-.717-.672 0-.36.312-.687.717-.687h6.338M79.024 387.143c0-.36.225-.6.6-.6h5.364c.404 0 .659.327.659.672 0 .36-.255.687-.659.687h-4.426c-.06 0-.09.029-.09.09v2.602c0 .06.03.09.09.09h3.69c.406 0 .66.327.66.672 0 .36-.254.687-.66.687h-3.69c-.06 0-.09.029-.09.089v2.708c0 .06.03.09.09.09h4.426c.404 0 .659.327.659.672 0 .361-.255.687-.659.687h-5.364c-.375 0-.6-.241-.6-.6v-8.546M126.194 362.671c.153-.176.33-.287.595-.287.418 0 .748.309.748.727 0 .22-.088.418-.221.572l-1.518 1.672c-.199.221-.396.33-.66.33a.71.71 0 0 1-.705-.704c0-.22.088-.418.242-.595l1.519-1.715zm-5.545 5.501c0-.529.33-.88.88-.88h7.701c.594 0 .969.395.969.901 0 .529-.375.925-.969.925h-6.49c-.088 0-.133.044-.133.132v4.4c0 .088.045.133.133.133h5.412c.594 0 .969.395.969.901 0 .529-.375.925-.969.925h-5.412c-.088 0-.133.043-.133.132v4.554c0 .088.045.132.133.132h6.49c.594 0 .969.397.969.903 0 .527-.375.924-.969.924h-7.701c-.55 0-.88-.352-.88-.88v-13.202zM116.14 367.292c.594 0 .969.395.969.923 0 .507-.375.903-.969.903h-3.454c-.088 0-.132.044-.132.132v12.057c0 .66-.396 1.056-.969 1.056-.593 0-.99-.396-.99-1.056V369.25c0-.088-.043-.132-.131-.132h-3.455c-.593 0-.968-.396-.968-.903 0-.528.375-.923.968-.923h9.131M101.092 371.604c0-1.562-1.034-2.486-2.772-2.486h-3.498c-.088 0-.133.044-.133.132v4.709c0 .088.045.131.133.131h3.498c1.738 0 2.772-.924 2.772-2.486zm-8.361 9.703v-13.135c0-.529.33-.88.88-.88h4.687c2.905 0 4.731 1.694 4.731 4.312 0 2.002-1.057 3.454-2.839 4.027l2.685 5.281c.087.176.131.33.131.527 0 .484-.352.924-.946.924-.395 0-.703-.197-.945-.615l-2.95-5.831h-3.343c-.088 0-.133.044-.133.131v5.259c0 .66-.395 1.056-.968 1.056-.595 0-.99-.396-.99-1.056zM79.025 368.172c0-.529.33-.88.881-.88h7.701c.594 0 .968.395.968.901 0 .529-.374.925-.968.925h-6.491c-.088 0-.132.044-.132.132v4.4c0 .088.044.133.132.133h5.413c.594 0 .968.395.968.901 0 .529-.374.925-.968.925h-5.413c-.088 0-.132.043-.132.132v4.554c0 .088.044.132.132.132h6.491c.594 0 .968.397.968.903 0 .527-.374.924-.968.924h-7.701c-.551 0-.881-.352-.881-.88v-13.202M66.508 380.471h3.498c1.783 0 2.751-.967 2.751-2.464 0-1.474-.968-2.464-2.751-2.464h-3.498c-.088 0-.132.044-.132.131v4.666c0 .087.044.131.132.131zm3.388-6.711c1.651 0 2.619-.946 2.619-2.333 0-1.429-.968-2.353-2.619-2.353h-3.388c-.088 0-.132.044-.132.132v4.423c0 .087.044.131.132.131h3.388zm-5.478-5.588c0-.529.33-.88.88-.88h4.642c2.993 0 4.511 1.54 4.511 3.917 0 1.738-.792 2.816-2.024 3.277v.045c1.078.285 2.288 1.496 2.288 3.454 0 2.816-1.804 4.269-4.841 4.269h-4.576c-.55 0-.88-.331-.88-.88v-13.202zM57.444 368.238c0-.66.396-1.057.99-1.057.572 0 .968.397.968 1.057v13.069c0 .66-.396 1.056-.968 1.056-.594 0-.99-.396-.99-1.056v-13.069M44.288 368.238c0-.66.396-1.057.968-1.057.573 0 .991.397.991 1.057v12.057c0 .088.043.132.131.132h6.492c.593 0 .967.397.967.903 0 .527-.374.924-.967.924h-7.636c-.594 0-.946-.374-.946-.969v-13.047"/><path d="M154.72 371.377c-.289 13.039-1.082 24.959-2.357 35.42-.666 5.281-1.686 10.697-3.033 16.124H24.933a137.747 137.747 0 0 1-3.007-16.131c-1.705-13.181-2.307-26.534-2.512-35.416a402.025 402.025 0 0 1-.092-14.005h135.463c.035 2.748.062 7.74-.065 14.008zm-9.77 65.891l-6.937-9.548h10.038a144.805 144.805 0 0 1-3.101 9.548zm-85.704-9.548l49.455 68.07a286.094 286.094 0 0 1-4.884 5.395L50.444 427.72h8.802zm12.509 0l43.677 60.116a252.34 252.34 0 0 1-4.71 5.63L62.954 427.72h8.801zm12.511 0l37.618 51.78a222.873 222.873 0 0 1-4.509 5.906L75.463 427.72h8.803zm12.51 0l31.233 42.992a195.664 195.664 0 0 1-4.273 6.232L87.973 427.72h8.803zm12.51 0l24.458 33.664a177.128 177.128 0 0 1-3.993 6.622l-29.267-40.286h8.802zm12.509 0l17.21 23.689a154.71 154.71 0 0 1-3.649 7.091l-22.362-30.78h8.801zm12.509 0l9.383 12.915a150.36 150.36 0 0 1-3.232 7.663l-14.951-20.578h8.8zm-37.588 80.909L37.933 427.72h8.802l54.993 75.692c-.404.428-.801.853-1.211 1.281-1.375 1.407-2.633 2.719-3.801 3.936zm-5.572 5.658a27.958 27.958 0 0 1-1.724 1.519l-62.674-86.265c-.18-.608-.372-1.213-.543-1.821h8.023l60.378 83.104c-1.278 1.322-2.439 2.502-3.46 3.463zm-14.667-6.709c-.858-.906-1.763-1.863-2.725-2.871-15.001-15.584-26.378-30.616-34.781-45.954a151.601 151.601 0 0 1-9.057-19.747l56.643 77.962c-.677-.319-1.776-1.054-3.528-2.701-1.805-1.674-4.005-3.998-6.552-6.689zm83.065-152.673a2.4 2.4 0 0 0-2.4-2.336H16.964a2.4 2.4 0 0 0-2.399 2.335c-.002.066-.179 6.799.05 16.581.208 8.997.819 22.532 2.549 35.909.641 5.153 1.59 10.266 2.847 15.527h-.048l.777 2.995a.019.019 0 0 1 .002.007l.001.002c3.123 12.043 7.84 23.864 14.018 35.135 8.61 15.715 20.232 31.081 35.525 46.969.951.995 1.851 1.946 2.705 2.849 2.605 2.752 4.854 5.129 6.763 6.899 2.998 2.816 5.158 4.075 7.224 4.212l.158.011.158-.012c2.066-.137 4.138-1.359 7.147-4.213 1.598-1.502 3.433-3.418 5.56-5.637 1.206-1.257 2.516-2.625 3.967-4.107 15.288-15.984 26.888-31.348 35.461-46.969 6.205-11.288 10.946-23.109 14.088-35.135l.785-3.006h-.05c1.254-5.223 2.23-10.433 2.874-15.533 1.295-10.629 2.1-22.709 2.393-35.91.199-9.779.024-16.506.023-16.573z"/></g><path d="M307.77 521.985a2.4 2.4 0 0 1-2.4-2.4V2.469a2.4 2.4 0 1 1 4.8 0v517.116a2.4 2.4 0 0 1-2.4 2.4"/></g></svg>