<?xml version="1.0" encoding="UTF-8" standalone="no"?>
<svg width="180px" height="180px" viewBox="0 0 180 180" version="1.1" xmlns="http://www.w3.org/2000/svg" xmlns:xlink="http://www.w3.org/1999/xlink" xmlns:sketch="http://www.bohemiancoding.com/sketch/ns">
    <!-- Generator: Sketch 3.3.3 (12072) - http://www.bohemiancoding.com/sketch -->
    <title>logo-square</title>
    <desc>Created with Sketch.</desc>
    <defs></defs>
    <g id="Logo" stroke="none" stroke-width="1" fill="none" fill-rule="evenodd" sketch:type="MSPage">
        <g id="logo-square" sketch:type="MSArtboardGroup" fill="#4A873F">
            <g id="Armoirie" sketch:type="MSLayerGroup" transform="translate(21.000000, 4.000000)">
                <g id="Devise" transform="translate(28.561644, 10.117647)" sketch:type="MSShapeGroup">
                    <path d="M65.6013356,39.8615059 C65.6013356,39.3272941 65.9155137,38.9711529 66.4391438,38.9711529 L73.7709178,38.9711529 C74.3364384,38.9711529 74.6934589,39.3718118 74.6934589,39.8837647 C74.6934589,40.4189882 74.3364384,40.8186353 73.7709178,40.8186353 L67.5920822,40.8186353 C67.5083014,40.8186353 67.4654589,40.8631529 67.4654589,40.9521882 L67.4654589,45.4049647 C67.4654589,45.494 67.5083014,45.5385176 67.5920822,45.5385176 L72.7446027,45.5385176 C73.3091712,45.5385176 73.6661918,45.9391765 73.6661918,46.4511294 C73.6661918,46.9853412 73.3091712,47.3870118 72.7446027,47.3870118 L67.5920822,47.3870118 C67.5083014,47.3870118 67.4654589,47.4305176 67.4654589,47.5195529 L67.4654589,52.1271294 C67.4654589,52.2171765 67.5083014,52.2616941 67.5920822,52.2616941 L73.7709178,52.2616941 C74.3364384,52.2616941 74.6934589,52.6623529 74.6934589,53.1743059 C74.6934589,53.7085176 74.3364384,54.1091765 73.7709178,54.1091765 L66.4391438,54.1091765 C65.9155137,54.1091765 65.6013356,53.7540471 65.6013356,53.2188235 L65.6013356,39.8615059" id="Path"></path>
                    <path d="M58.9617055,39.9292941 C58.9617055,39.2605176 59.3396712,38.8598588 59.9042397,38.8598588 C60.4497671,38.8598588 60.8267808,39.2605176 60.8267808,39.9292941 L60.8267808,53.1520471 C60.8267808,53.8198118 60.4497671,54.2204706 59.9042397,54.2204706 C59.3396712,54.2204706 58.9617055,53.8198118 58.9617055,53.1520471 L58.9617055,39.9292941" id="Fill-29"></path>
                    <path d="M52.7419315,43.3348941 C52.7419315,41.7535059 51.7584589,40.8186353 50.1028356,40.8186353 L46.7715959,40.8186353 C46.6887671,40.8186353 46.6468767,40.8631529 46.6468767,40.9521882 L46.6468767,45.7165882 C46.6468767,45.8056235 46.6887671,45.8501412 46.7715959,45.8501412 L50.1028356,45.8501412 C51.7584589,45.8501412 52.7419315,44.9142588 52.7419315,43.3348941 L52.7419315,43.3348941 Z M44.7818014,53.1520471 L44.7818014,39.8615059 C44.7818014,39.3272941 45.0959795,38.9711529 45.6205616,38.9711529 L50.0818904,38.9711529 C52.8466575,38.9711529 54.5860616,40.6860941 54.5860616,43.3348941 C54.5860616,45.3604471 53.5806918,46.8295294 51.8831781,47.4082588 L54.4394452,52.7513882 C54.523226,52.9294588 54.5641644,53.0852706 54.5641644,53.2856 C54.5641644,53.7752941 54.2290411,54.2204706 53.6644726,54.2204706 C53.2865068,54.2204706 52.994226,54.0201412 52.7628767,53.5972235 L49.9562192,47.6976235 L46.7715959,47.6976235 C46.6887671,47.6976235 46.6468767,47.7421412 46.6468767,47.8311765 L46.6468767,53.1520471 C46.6468767,53.8198118 46.268911,54.2204706 45.7243356,54.2204706 C45.1588151,54.2204706 44.7818014,53.8198118 44.7818014,53.1520471 L44.7818014,53.1520471 Z" id="Fill-28"></path>
                    <path d="M40.4899384,38.9711529 C41.0554589,38.9711529 41.4124795,39.3718118 41.4124795,39.9060235 C41.4124795,40.4189882 41.0554589,40.8186353 40.4899384,40.8186353 L37.2015411,40.8186353 C37.1177603,40.8186353 37.0758699,40.8631529 37.0758699,40.9521882 L37.0758699,53.1520471 C37.0758699,53.8198118 36.6979041,54.2204706 36.1533288,54.2204706 C35.5878082,54.2204706 35.2107945,53.8198118 35.2107945,53.1520471 L35.2107945,40.9521882 C35.2107945,40.8631529 35.1698562,40.8186353 35.0860753,40.8186353 L31.796726,40.8186353 C31.2312055,40.8186353 30.875137,40.4189882 30.875137,39.9060235 C30.875137,39.3718118 31.2312055,38.9711529 31.796726,38.9711529 L40.4899384,38.9711529" id="Fill-27"></path>
                    <path d="M26.8536575,48.7660471 L24.5915753,41.8870588 L24.5287397,41.8870588 L22.2247671,48.7660471 L26.8536575,48.7660471 L26.8536575,48.7660471 Z M18.956363,52.8626824 L23.334863,39.9717882 C23.5652603,39.2605176 23.9213288,38.8598588 24.5496849,38.8598588 C25.1780411,38.8598588 25.576,39.2605176 25.8063973,39.9717882 L30.1220616,52.8626824 C30.1639521,52.9972471 30.2058425,53.1520471 30.2058425,53.3078588 C30.2058425,53.8643294 29.8078836,54.2204706 29.3261438,54.2204706 C28.9072397,54.2204706 28.5721164,53.9756235 28.4255,53.5081882 L27.4620205,50.5922824 L21.6173562,50.5922824 L20.6529247,53.5081882 C20.5072603,53.9756235 20.1711849,54.2204706 19.7532329,54.2204706 C19.2705411,54.2204706 18.8725822,53.8643294 18.8725822,53.3078588 C18.8725822,53.1520471 18.9144726,52.9972471 18.956363,52.8626824 L18.956363,52.8626824 Z" id="Fill-26"></path>
                    <path d="M15.6070342,43.4896941 C15.6070342,41.8435529 14.5797671,40.8186353 12.8203699,40.8186353 L9.63669863,40.8186353 C9.55291781,40.8186353 9.5110274,40.8631529 9.5110274,40.9521882 L9.5110274,46.0282118 C9.5110274,46.1182588 9.55291781,46.1617647 9.63669863,46.1617647 L12.8203699,46.1617647 C14.5797671,46.1617647 15.6070342,45.1378588 15.6070342,43.4896941 L15.6070342,43.4896941 Z M7.64595205,39.8615059 C7.64595205,39.3272941 7.96013014,38.9711529 8.48471233,38.9711529 L12.8832055,38.9711529 C15.7317534,38.9711529 17.4502123,40.7963765 17.4502123,43.4896941 C17.4502123,46.1840235 15.7317534,48.0092471 12.8832055,48.0092471 L9.63669863,48.0092471 C9.55291781,48.0092471 9.5110274,48.0547765 9.5110274,48.1438118 L9.5110274,53.1520471 C9.5110274,53.8198118 9.1340137,54.2204706 8.5884863,54.2204706 C8.02296575,54.2204706 7.64595205,53.8198118 7.64595205,53.1520471 L7.64595205,39.8615059 L7.64595205,39.8615059 Z" id="Fill-25"></path>
                    <path d="M48.5024315,24.8317412 C48.8880137,24.8317412 49.1850548,25.1625882 49.1850548,25.5268235 C49.1850548,25.8758824 48.8880137,26.2067294 48.5024315,26.2067294 L46.2593904,26.2067294 C46.2032192,26.2067294 46.1737055,26.2360706 46.1737055,26.2977882 L46.1737055,33.9831529 C46.1737055,34.4374353 45.8633356,34.7682824 45.4920342,34.7682824 C45.1064521,34.7682824 44.7960822,34.4374353 44.7960822,33.9831529 L44.7960822,26.2977882 C44.7960822,26.2360706 44.7675205,26.2067294 44.7103973,26.2067294 L42.4683082,26.2067294 C42.082726,26.2067294 41.7856849,25.8758824 41.7856849,25.5268235 C41.7856849,25.1625882 42.082726,24.8317412 42.4683082,24.8317412 L48.5024315,24.8317412" id="Fill-24"></path>
                    <path d="M33.3447671,25.4388 C33.3447671,25.0745647 33.5589795,24.8317412 33.916,24.8317412 L39.0228219,24.8317412 C39.4074521,24.8317412 39.650226,25.1625882 39.650226,25.5116471 C39.650226,25.8758824 39.4074521,26.2067294 39.0228219,26.2067294 L34.8090274,26.2067294 C34.7519041,26.2067294 34.7233425,26.2360706 34.7233425,26.2977882 L34.7233425,28.9304 C34.7233425,28.9911059 34.7519041,29.0214588 34.8090274,29.0214588 L38.3221096,29.0214588 C38.7086438,29.0214588 38.9504658,29.3523059 38.9504658,29.7013647 C38.9504658,30.0656 38.7086438,30.3964471 38.3221096,30.3964471 L34.8090274,30.3964471 C34.7519041,30.3964471 34.7233425,30.4257882 34.7233425,30.4864941 L34.7233425,33.2263529 C34.7233425,33.2870588 34.7519041,33.3174118 34.8090274,33.3174118 L39.0228219,33.3174118 C39.4074521,33.3174118 39.650226,33.6482588 39.650226,33.9973176 C39.650226,34.3625647 39.4074521,34.6924 39.0228219,34.6924 L33.916,34.6924 C33.5589795,34.6924 33.3447671,34.4485647 33.3447671,34.0853412 L33.3447671,25.4388" id="Fill-23"></path>
                    <path d="M78.2531918,0.678894118 C78.3988562,0.500823529 78.5673699,0.388517647 78.8196644,0.388517647 C79.2176233,0.388517647 79.5318014,0.701152941 79.5318014,1.12407059 C79.5318014,1.34665882 79.4480205,1.54698824 79.3213973,1.7028 L77.8761781,3.39447059 C77.6867192,3.61807059 77.4991644,3.72835294 77.2478219,3.72835294 C76.8908014,3.72835294 76.5766233,3.41672941 76.5766233,3.01607059 C76.5766233,2.79348235 76.6604041,2.59315294 76.8070205,2.41407059 L78.2531918,0.678894118 L78.2531918,0.678894118 Z M72.9740479,6.24461176 C72.9740479,5.70938824 73.288226,5.35425882 73.8118562,5.35425882 L81.1436301,5.35425882 C81.7091507,5.35425882 82.0661712,5.75390588 82.0661712,6.26585882 C82.0661712,6.80108235 81.7091507,7.20174118 81.1436301,7.20174118 L74.9647945,7.20174118 C74.8810137,7.20174118 74.8381712,7.24625882 74.8381712,7.33529412 L74.8381712,11.7870588 C74.8381712,11.8760941 74.8810137,11.9216235 74.9647945,11.9216235 L80.1173151,11.9216235 C80.6828356,11.9216235 81.0398562,12.3212706 81.0398562,12.8332235 C81.0398562,13.3684471 80.6828356,13.7691059 80.1173151,13.7691059 L74.9647945,13.7691059 C74.8810137,13.7691059 74.8381712,13.8126118 74.8381712,13.9026588 L74.8381712,18.5102353 C74.8381712,18.5992706 74.8810137,18.6437882 74.9647945,18.6437882 L81.1436301,18.6437882 C81.7091507,18.6437882 82.0661712,19.0454588 82.0661712,19.5574118 C82.0661712,20.0906118 81.7091507,20.4922824 81.1436301,20.4922824 L73.8118562,20.4922824 C73.288226,20.4922824 72.9740479,20.1361412 72.9740479,19.6019294 L72.9740479,6.24461176 L72.9740479,6.24461176 Z" id="Fill-22"></path>
                    <path d="M68.6812329,5.35425882 C69.2467534,5.35425882 69.603774,5.75390588 69.603774,6.28811765 C69.603774,6.80108235 69.2467534,7.20174118 68.6812329,7.20174118 L65.3928356,7.20174118 C65.3090548,7.20174118 65.2671644,7.24625882 65.2671644,7.33529412 L65.2671644,19.5341412 C65.2671644,20.2019059 64.8901507,20.6025647 64.3446233,20.6025647 C63.7800548,20.6025647 63.402089,20.2019059 63.402089,19.5341412 L63.402089,7.33529412 C63.402089,7.24625882 63.3611507,7.20174118 63.2773699,7.20174118 L59.9880205,7.20174118 C59.4234521,7.20174118 59.0664315,6.80108235 59.0664315,6.28811765 C59.0664315,5.75390588 59.4234521,5.35425882 59.9880205,5.35425882 L68.6812329,5.35425882" id="Fill-21"></path>
                    <path d="M54.3547123,9.71698824 C54.3547123,8.13661176 53.3702877,7.20174118 51.7156164,7.20174118 L48.3853288,7.20174118 C48.3015479,7.20174118 48.2587055,7.24625882 48.2587055,7.33529412 L48.2587055,12.0996941 C48.2587055,12.1887294 48.3015479,12.2322353 48.3853288,12.2322353 L51.7156164,12.2322353 C53.3702877,12.2322353 54.3547123,11.2973647 54.3547123,9.71698824 L54.3547123,9.71698824 Z M46.3945822,19.5341412 L46.3945822,6.24461176 C46.3945822,5.70938824 46.7087603,5.35425882 47.2323904,5.35425882 L51.6946712,5.35425882 C54.4603904,5.35425882 56.1988425,7.06818824 56.1988425,9.71698824 C56.1988425,11.7425412 55.1925205,13.2116235 53.4959589,13.7913647 L56.052226,19.1344941 C56.1350548,19.3125647 56.1769452,19.4683765 56.1769452,19.6676941 C56.1769452,20.1573882 55.8418219,20.6025647 55.2763014,20.6025647 C54.9002397,20.6025647 54.6070068,20.4032471 54.3766096,19.9803294 L51.5680479,14.0807294 L48.3853288,14.0807294 C48.3015479,14.0807294 48.2587055,14.1252471 48.2587055,14.2132706 L48.2587055,19.5341412 C48.2587055,20.2019059 47.8826438,20.6025647 47.3371164,20.6025647 C46.7706438,20.6025647 46.3945822,20.2019059 46.3945822,19.5341412 L46.3945822,19.5341412 Z" id="Fill-20"></path>
                    <path d="M33.3457192,6.24461176 C33.3457192,5.70938824 33.6598973,5.35425882 34.1844795,5.35425882 L41.5162534,5.35425882 C42.081774,5.35425882 42.4378425,5.75390588 42.4378425,6.26585882 C42.4378425,6.80108235 42.081774,7.20174118 41.5162534,7.20174118 L35.3364658,7.20174118 C35.2526849,7.20174118 35.2107945,7.24625882 35.2107945,7.33529412 L35.2107945,11.7870588 C35.2107945,11.8760941 35.2526849,11.9216235 35.3364658,11.9216235 L40.4899384,11.9216235 C41.0554589,11.9216235 41.4115274,12.3212706 41.4115274,12.8332235 C41.4115274,13.3684471 41.0554589,13.7691059 40.4899384,13.7691059 L35.3364658,13.7691059 C35.2526849,13.7691059 35.2107945,13.8126118 35.2107945,13.9026588 L35.2107945,18.5102353 C35.2107945,18.5992706 35.2526849,18.6437882 35.3364658,18.6437882 L41.5162534,18.6437882 C42.081774,18.6437882 42.4378425,19.0454588 42.4378425,19.5574118 C42.4378425,20.0906118 42.081774,20.4922824 41.5162534,20.4922824 L34.1844795,20.4922824 C33.6598973,20.4922824 33.3457192,20.1361412 33.3457192,19.6019294 L33.3457192,6.24461176" id="Fill-19"></path>
                    <path d="M21.4288493,18.6883059 L24.759137,18.6883059 C26.4566507,18.6883059 27.3782397,17.7099294 27.3782397,16.1953176 C27.3782397,14.7039765 26.4566507,13.7023294 24.759137,13.7023294 L21.4288493,13.7023294 C21.3450685,13.7023294 21.3031781,13.7468471 21.3031781,13.8348706 L21.3031781,18.5557647 C21.3031781,18.6437882 21.3450685,18.6883059 21.4288493,18.6883059 L21.4288493,18.6883059 Z M24.654411,11.8983529 C26.2262534,11.8983529 27.1478425,10.9412235 27.1478425,9.53790588 C27.1478425,8.09209412 26.2262534,7.15722353 24.654411,7.15722353 L21.4288493,7.15722353 C21.3450685,7.15722353 21.3031781,7.20174118 21.3031781,7.29077647 L21.3031781,11.7658118 C21.3031781,11.8538353 21.3450685,11.8983529 21.4288493,11.8983529 L24.654411,11.8983529 L24.654411,11.8983529 Z M19.4390548,6.24461176 C19.4390548,5.70938824 19.7532329,5.35425882 20.276863,5.35425882 L24.6963014,5.35425882 C27.5458014,5.35425882 28.9910205,6.91237647 28.9910205,9.31734118 C28.9910205,11.0757882 28.2369932,12.1664706 27.0640616,12.6328941 L27.0640616,12.6784235 C28.0903767,12.9667765 29.242363,14.1920235 29.242363,16.1730588 C29.242363,19.0221882 27.5248562,20.4922824 24.6334658,20.4922824 L20.276863,20.4922824 C19.7532329,20.4922824 19.4390548,20.1573882 19.4390548,19.6019294 L19.4390548,6.24461176 L19.4390548,6.24461176 Z" id="Fill-18"></path>
                    <path d="M12.7994247,6.31138824 C12.7994247,5.64362353 13.1764384,5.24195294 13.7419589,5.24195294 C14.2865342,5.24195294 14.6635479,5.64362353 14.6635479,6.31138824 L14.6635479,19.5341412 C14.6635479,20.2019059 14.2865342,20.6025647 13.7419589,20.6025647 C13.1764384,20.6025647 12.7994247,20.2019059 12.7994247,19.5341412 L12.7994247,6.31138824" id="Fill-17"></path>
                    <path d="M0.274191781,6.31138824 C0.274191781,5.64362353 0.651205479,5.24195294 1.19578082,5.24195294 C1.74130822,5.24195294 2.13926712,5.64362353 2.13926712,6.31138824 L2.13926712,18.5102353 C2.13926712,18.5992706 2.18020548,18.6437882 2.2639863,18.6437882 L8.44472603,18.6437882 C9.00929452,18.6437882 9.36536301,19.0454588 9.36536301,19.5574118 C9.36536301,20.0906118 9.00929452,20.4922824 8.44472603,20.4922824 L1.17483562,20.4922824 C0.609315068,20.4922824 0.274191781,20.1138824 0.274191781,19.5118824 L0.274191781,6.31138824" id="Fill-16"></path>
                </g>
                <path d="M133.973151,19.6049647 C133.698007,32.7973647 132.943027,44.8576 131.729158,55.4416706 C131.095089,60.7848 130.123993,66.2645176 128.841575,71.7553647 L10.4088151,71.7553647 C9.11878082,66.2028 8.18005479,60.8475294 7.5459863,55.4345882 C5.92273288,42.0985176 5.34959589,28.5884235 5.15442466,19.6019294 C5.0144726,13.2591765 5.03541781,8.21047059 5.06683562,5.43216471 L134.035034,5.43216471 C134.068356,8.21249412 134.094062,13.2632235 133.973151,19.6049647 L133.973151,19.6049647 Z M124.671575,86.2711529 L118.067171,76.6108235 L127.623897,76.6108235 C126.754671,79.8515059 125.760726,83.0709412 124.671575,86.2711529 L124.671575,86.2711529 Z M43.0766712,76.6108235 L90.1605411,145.481647 C88.6572466,147.294729 87.1044452,149.113882 85.5107055,150.940118 L34.6966849,76.6108235 L43.0766712,76.6108235 L43.0766712,76.6108235 Z M54.9859247,76.6108235 L96.5688219,137.434071 C95.1226507,139.327082 93.6279247,141.226165 92.0846438,143.130306 L46.6068904,76.6108235 L54.9859247,76.6108235 L54.9859247,76.6108235 Z M66.8970822,76.6108235 L102.711479,129 C101.332904,130.988118 99.9019658,132.979271 98.4186644,134.975482 L58.5161438,76.6108235 L66.8970822,76.6108235 L66.8970822,76.6108235 Z M78.8072877,76.6108235 L108.542815,120.108612 C107.245164,122.209035 105.886582,124.310471 104.474685,126.413929 L70.4263493,76.6108235 L78.8072877,76.6108235 L78.8072877,76.6108235 Z M90.7174932,76.6108235 L114.002849,110.670871 C112.797548,112.906871 111.529411,115.138824 110.201295,117.370776 L82.3375068,76.6108235 L90.7174932,76.6108235 L90.7174932,76.6108235 Z M102.626747,76.6108235 L119.01161,100.578518 C117.916747,102.991576 116.758096,105.383388 115.537562,107.752941 L94.2477123,76.6108235 L102.626747,76.6108235 L102.626747,76.6108235 Z M114.536,76.6108235 L123.46913,89.6777647 C122.515171,92.2820471 121.488856,94.8660941 120.392089,97.4309176 L106.157918,76.6108235 L114.536,76.6108235 L114.536,76.6108235 Z M78.7501644,158.471694 L22.7855274,76.6108235 L31.1655137,76.6108235 L83.521863,153.193318 C83.1372329,153.626353 82.7592671,154.056353 82.3689247,154.489388 C81.0598493,155.912941 79.8621644,157.240376 78.7501644,158.471694 L78.7501644,158.471694 Z M73.4453151,164.196259 C72.8074384,164.838729 72.2723836,165.333482 71.8039726,165.733129 L12.1348904,78.4532471 C11.9635205,77.8380941 11.780726,77.2259765 11.6179247,76.6108235 L19.2562603,76.6108235 L76.7394247,160.692518 C75.5226986,162.030071 74.417363,163.223953 73.4453151,164.196259 L73.4453151,164.196259 Z M59.4815274,157.408329 C58.6646644,156.491671 57.8030548,155.523412 56.8871781,154.503553 C42.6054041,138.736212 31.7738767,123.527365 23.7737603,108.008918 C20.4225274,101.512376 17.5444658,94.8286588 15.151,88.0296 L69.0782397,166.9088 C68.4336986,166.586047 67.3873904,165.8424 65.7193904,164.176024 C64.0009315,162.482329 61.906411,160.130988 59.4815274,157.408329 L59.4815274,157.408329 Z M138.563959,2.93917647 C138.530637,1.62388235 137.517651,0.575694118 136.279027,0.575694118 L2.82189041,0.575694118 C1.58421918,0.575694118 0.571232877,1.62287059 0.537910959,2.93816471 C0.536006849,3.00494118 0.367493151,9.81715294 0.585513699,19.7142353 C0.783541096,28.8170824 1.36524658,42.5113176 3.01230137,56.0456941 C3.62256849,61.2593176 4.52606849,66.4324706 5.72280137,71.7553647 L5.67710274,71.7553647 L6.41684932,74.7856 C6.41780137,74.7876235 6.41875342,74.7906588 6.41875342,74.7926824 C6.41875342,74.7926824 6.41970548,74.7936941 6.41970548,74.7947059 C9.3929726,86.9793882 13.8838151,98.9394588 19.7656096,110.343059 C27.9628014,126.242941 39.0275822,141.789718 53.5873562,157.864635 C54.4927603,158.871341 55.3496096,159.833529 56.1626644,160.747153 C58.6427671,163.531529 60.7839384,165.936494 62.601411,167.727318 C65.4556712,170.576447 67.5121096,171.850259 69.4790548,171.988871 L69.6294795,172 L69.7799041,171.987859 C71.7468493,171.849247 73.7195068,170.612871 76.5842397,167.725294 C78.1056233,166.205624 79.8526438,164.267082 81.8776644,162.021976 C83.0258425,160.750188 84.2730342,159.366094 85.6544658,157.866659 C100.209479,141.694612 111.253315,126.149859 119.415281,110.345082 C125.322781,98.9242824 129.836473,86.9642118 132.827829,74.7967294 L133.575192,71.7553647 L133.527589,71.7553647 C134.721466,66.4709176 135.650671,61.1996235 136.263795,56.0396235 C137.496705,45.2855765 138.26311,33.0634588 138.542062,19.7071529 C138.731521,9.81310588 138.564911,3.00696471 138.563959,2.93917647 L138.563959,2.93917647 Z" id="Blason" sketch:type="MSShapeGroup"></path>
            </g>
        </g>
    </g>
</svg>