<?xml version="1.0" encoding="UTF-8" standalone="no"?>
<svg width="311px" height="522px" viewBox="0 0 311 522" version="1.1" xmlns="http://www.w3.org/2000/svg" xmlns:xlink="http://www.w3.org/1999/xlink" xmlns:sketch="http://www.bohemiancoding.com/sketch/ns">
    <!-- Generator: Sketch 3.3.3 (12072) - http://www.bohemiancoding.com/sketch -->
    <title>logo</title>
    <desc>Created with Sketch.</desc>
    <defs></defs>
    <g id="Logo" stroke="none" stroke-width="1" fill="none" fill-rule="evenodd" sketch:type="MSPage">
        <g id="logo" sketch:type="MSArtboardGroup" fill="#4A873F">
            <g id="Logo" sketch:type="MSLayerGroup">
                <g id="Texte" sketch:type="MSShapeGroup">
                    <path d="M48.036,324.226 C48.036,330.388 44.862,334.939 39.326,336.713 C37.164,337.41 34.366,337.75 30.765,337.75 C27.166,337.75 24.265,337.402 22.13,336.713 C16.597,334.939 13.422,330.388 13.422,324.226 C13.422,319.494 15.53,315.451 19.061,313.408 C19.431,313.185 19.826,313.086 20.34,313.086 C21.466,313.086 22.351,313.968 22.351,315.095 C22.351,315.906 21.952,316.584 21.16,317.111 C18.814,318.781 17.716,321.045 17.716,324.226 C17.716,328.367 19.725,331.185 23.517,332.384 C25.37,333 27.468,333.25 30.765,333.25 C34.013,333.25 36.088,333 37.933,332.386 C41.734,331.185 43.738,328.367 43.738,324.226 C43.738,321.043 42.645,318.779 40.29,317.103 C39.51,316.59 39.106,315.91 39.106,315.095 C39.106,313.968 39.992,313.086 41.12,313.086 C41.634,313.086 42.032,313.185 42.404,313.412 C45.928,315.451 48.036,319.494 48.036,324.226" id="Fill-1"></path>
                    <path d="M32.093,296.638 C32.093,302.816 33.877,305.457 38.053,305.457 C42.809,305.457 43.807,301.291 43.807,297.793 C43.807,292.267 41.185,288.836 36.965,288.836 L32.127,288.836 L32.093,296.638 L32.093,296.638 Z M48.037,298.406 C48.037,305.382 44.117,309.888 38.053,309.888 C31.571,309.888 28.001,305.377 28.001,297.181 L28.001,288.867 L25.655,288.836 C19.969,288.836 17.648,291.175 17.648,296.908 C17.648,299.765 18.679,302.519 19.643,304.142 C19.931,304.58 20.101,305.127 20.101,305.629 C20.101,306.853 19.247,307.709 18.022,307.709 C17.367,307.709 16.719,307.388 16.241,306.828 C14.471,304.498 13.423,300.718 13.423,296.705 C13.423,288.406 17.223,284.543 25.383,284.543 L38.531,284.543 C40.351,284.543 40.965,284.336 41.837,283.9 L44.283,282.611 C44.583,282.457 45.053,282.293 45.48,282.293 C46.745,282.293 47.625,283.232 47.625,284.576 C47.625,285.47 47.199,286.136 46.285,286.672 L44.035,288.033 C46.837,290.67 48.037,293.797 48.037,298.406 L48.037,298.406 Z" id="Fill-2"></path>
                    <path d="M47.625,253.169 C47.625,254.534 46.725,255.386 45.275,255.386 L27.085,255.386 C20.781,255.386 17.715,258.044 17.715,263.527 C17.715,268.521 21.287,272.007 26.403,272.007 L45.275,272.007 C46.725,272.007 47.625,272.855 47.625,274.224 C47.625,275.588 46.725,276.437 45.275,276.437 L16.185,276.437 C14.731,276.437 13.829,275.588 13.829,274.224 C13.829,272.855 14.731,272.007 16.185,272.007 L17.345,272.007 C14.775,269.972 13.421,266.781 13.421,262.709 C13.421,255.349 18.199,250.952 26.199,250.952 L45.275,250.952 C46.725,250.952 47.625,251.804 47.625,253.169" id="Fill-3"></path>
                    <path d="M47.559,232.458 L47.559,233.345 C47.559,239.595 45.009,242.03 38.465,242.03 L18.16,242.03 L18.127,244.724 C18.127,246.027 17.339,246.868 16.114,246.868 C14.893,246.868 14.103,246.027 14.103,244.724 L14.103,242.066 L5.763,242.03 C4.309,242.03 3.404,241.181 3.404,239.818 C3.404,238.45 4.309,237.601 5.763,237.601 L14.07,237.601 L14.103,232.392 C14.103,231.087 14.893,230.243 16.114,230.243 C17.339,230.243 18.127,231.087 18.127,232.392 L18.127,237.571 L38.329,237.601 C42.249,237.601 43.263,236.544 43.263,232.458 C43.263,231.093 44.127,230.177 45.413,230.177 C46.696,230.177 47.559,231.093 47.559,232.458" id="Fill-4"></path>
                    <path d="M17.716,213.794 C17.716,217.792 19.834,220.792 23.521,222.021 C25.394,222.644 27.404,222.886 30.698,222.886 C34.038,222.886 36.065,222.644 37.932,222.021 C41.624,220.792 43.738,217.792 43.738,213.794 C43.738,209.691 41.678,206.745 37.934,205.499 C36.056,204.874 34.027,204.63 30.698,204.63 C27.414,204.63 25.401,204.874 23.521,205.499 C19.777,206.745 17.716,209.691 17.716,213.794 M48.036,213.794 C48.036,219.907 44.862,224.458 39.33,226.278 C36.811,227.066 34.312,227.386 30.698,227.386 C27.126,227.386 24.647,227.066 22.134,226.28 C16.596,224.46 13.422,219.909 13.422,213.794 C13.422,207.638 16.596,203.064 22.132,201.239 C24.66,200.452 27.142,200.13 30.698,200.13 C34.3,200.13 36.798,200.452 39.324,201.237 C44.862,203.064 48.036,207.638 48.036,213.794" id="Fill-5"></path>
                    <path d="M47.625,170.671 C47.625,172.036 46.725,172.886 45.275,172.886 L27.085,172.886 C20.781,172.886 17.715,175.55 17.715,181.028 C17.715,186.021 21.287,189.509 26.403,189.509 L45.275,189.509 C46.725,189.509 47.625,190.359 47.625,191.726 C47.625,193.091 46.725,193.939 45.275,193.939 L16.185,193.939 C14.731,193.939 13.829,193.091 13.829,191.726 C13.829,190.359 14.731,189.509 16.185,189.509 L17.345,189.509 C14.775,187.474 13.421,184.282 13.421,180.21 C13.421,172.849 18.199,168.456 26.199,168.456 L45.275,168.456 C46.725,168.456 47.625,169.306 47.625,170.671" id="Fill-6"></path>
                    <path d="M17.716,137.271 C17.716,141.198 19.708,144.025 23.32,145.226 C25.244,145.851 27.311,146.093 30.698,146.093 C34.172,146.093 36.187,145.859 38.14,145.226 C41.752,144.025 43.738,141.198 43.738,137.271 C43.738,133.222 41.874,130.446 38.344,129.247 C36.64,128.726 33.994,128.45 30.698,128.45 C27.49,128.45 24.794,128.734 23.107,129.251 C19.584,130.446 17.716,133.222 17.716,137.271 M48.036,137.884 C48.036,143.538 45.088,147.632 39.738,149.417 C36.978,150.263 34.443,150.593 30.698,150.593 C27.042,150.593 24.443,150.253 21.727,149.419 C16.368,147.632 13.422,143.538 13.422,137.884 C13.422,133.493 14.724,130.394 17.392,128.45 L2.355,128.45 C0.901,128.45 0,127.601 0,126.234 C0,124.868 0.901,124.021 2.355,124.021 L45.275,124.021 C46.726,124.021 47.626,124.868 47.626,126.234 C47.626,127.601 46.726,128.45 45.275,128.45 L44.063,128.45 C46.733,130.394 48.036,133.495 48.036,137.884" id="Fill-7"></path>
                    <path d="M17.579,104.441 C17.579,108.571 19.663,111.517 23.453,112.734 C24.745,113.144 26.139,113.327 27.969,113.327 L27.999,95.515 C26.139,95.484 24.745,95.667 23.453,96.077 C19.663,97.296 17.579,100.265 17.579,104.441 M48.037,104.028 C48.037,110.486 45.001,114.9 39.261,116.788 C37.009,117.534 34.607,117.827 30.697,117.827 C26.857,117.827 24.455,117.534 22.133,116.788 C16.595,114.989 13.421,110.487 13.421,104.441 C13.421,98.349 16.595,93.821 22.131,92.023 C24.263,91.316 26.771,90.984 30.015,90.984 C31.239,90.984 32.093,91.839 32.093,93.064 L32.093,113.296 C34.849,113.327 36.141,113.175 37.663,112.667 C41.639,111.343 43.739,108.284 43.739,103.827 C43.739,100.282 42.673,97.735 40.173,95.306 C39.653,94.782 39.379,94.22 39.379,93.675 C39.379,92.526 40.215,91.661 41.323,91.661 C41.885,91.661 42.375,91.829 42.785,92.155 C46.169,94.833 48.037,99.048 48.037,104.028" id="Fill-8"></path>
                    <path d="M152.251,305.531 L71.876,336.427 C70.704,336.822 69.918,337.015 68.944,337.015 C66.4,337.015 63.858,335.256 63.858,331.736 C63.858,329 65.618,327.435 67.768,326.648 L141.298,298.492 L141.298,298.297 L67.768,270.72 C65.618,269.941 63.858,268.375 63.858,265.638 C63.858,262.117 66.4,260.357 68.944,260.357 C69.918,260.357 70.704,260.55 71.876,260.943 L152.251,291.84 C157.14,293.601 158.705,295.361 158.705,298.687 C158.705,302.011 157.14,303.773 152.251,305.531" id="Fill-9"></path>
                    <path d="M129.177,195.121 L115.291,195.121 C114.511,195.121 114.117,195.511 114.117,196.293 L114.117,218.586 C114.117,237.166 119.787,244.988 132.302,244.988 C143.843,244.988 149.902,236.97 149.902,221.912 C149.902,205.877 142.082,195.121 129.177,195.121 M153.621,178.498 C156.552,178.498 158.705,180.65 158.705,183.974 C158.705,186.127 157.726,187.689 155.378,189.058 L147.949,193.554 L147.949,193.947 C155.578,200.793 159.878,209.006 159.878,223.673 C159.878,241.662 150.101,255.547 132.302,255.547 C113.923,255.547 104.535,242.642 104.535,220.154 L104.535,196.293 C104.535,195.511 104.144,195.121 103.363,195.121 L96.712,195.121 C81.263,195.121 72.657,200.988 72.657,219.367 C72.657,227.388 75.395,235.404 78.526,240.685 C79.307,241.859 79.697,243.23 79.697,244.4 C79.697,247.336 77.743,249.287 74.807,249.287 C73.245,249.287 71.681,248.506 70.507,247.138 C66.205,241.466 62.685,231.496 62.685,218.785 C62.685,195.705 73.049,184.951 95.929,184.951 L133.673,184.951 C138.955,184.951 140.912,184.363 143.644,182.996 L150.687,179.281 C151.468,178.888 152.64,178.498 153.621,178.498" id="Fill-10"></path>
                    <path d="M153.035,101.849 L146.58,101.849 L146.58,102.044 C154.99,107.321 159.878,116.122 159.878,129.226 C159.878,149.763 146.97,161.491 124.289,161.491 L69.53,161.491 C65.816,161.491 63.858,159.341 63.858,156.214 C63.858,153.083 65.816,150.933 69.53,150.933 L121.742,150.933 C140.324,150.933 149.708,143.111 149.708,126.88 C149.708,112.796 139.736,101.849 123.701,101.849 L69.53,101.849 C65.816,101.849 63.858,99.696 63.858,96.567 C63.858,93.435 65.816,91.284 69.53,91.284 L153.035,91.284 C156.746,91.284 158.705,93.435 158.705,96.567 C158.705,99.696 156.746,101.849 153.035,101.849" id="Fill-11"></path>
                    <path d="M133.478,13.085 C128.394,11.523 120.57,10.741 111.185,10.741 C101.994,10.741 94.168,11.523 89.085,13.085 C78.135,16.802 72.854,25.407 72.854,37.14 C72.854,49.069 79.112,57.48 89.673,60.999 C95.736,62.954 101.994,63.54 111.185,63.54 C120.57,63.54 126.826,62.954 132.89,60.999 C143.451,57.48 149.708,49.069 149.708,37.14 C149.708,25.407 144.431,16.802 133.478,13.085 M153.035,10.741 L146.189,10.741 L146.189,10.935 C154.207,15.431 159.878,23.646 159.878,38.9 C159.878,54.741 151.468,66.081 136.804,70.972 C129.177,73.319 121.939,74.294 111.185,74.294 C100.625,74.294 93.386,73.319 85.761,70.972 C71.095,66.081 62.685,54.741 62.685,38.9 C62.685,23.646 68.354,15.431 76.374,10.935 L76.374,10.741 L29.832,10.741 C26.112,10.741 24.16,8.589 24.16,5.458 C24.16,2.331 26.112,0.181 29.832,0.181 L153.035,0.181 C156.746,0.181 158.705,2.331 158.705,5.458 C158.705,8.589 156.746,10.741 153.035,10.741" id="Fill-12"></path>
                </g>
                <g id="Armoirie" transform="translate(14.000000, 352.000000)" sketch:type="MSShapeGroup">
                    <g id="Devise" transform="translate(30.000000, 10.000000)">
                        <path d="M68.905,39.398 C68.905,38.87 69.235,38.518 69.785,38.518 L77.486,38.518 C78.08,38.518 78.455,38.914 78.455,39.42 C78.455,39.949 78.08,40.344 77.486,40.344 L70.996,40.344 C70.908,40.344 70.863,40.388 70.863,40.476 L70.863,44.877 C70.863,44.965 70.908,45.009 70.996,45.009 L76.408,45.009 C77.001,45.009 77.376,45.405 77.376,45.911 C77.376,46.439 77.001,46.836 76.408,46.836 L70.996,46.836 C70.908,46.836 70.863,46.879 70.863,46.967 L70.863,51.521 C70.863,51.61 70.908,51.654 70.996,51.654 L77.486,51.654 C78.08,51.654 78.455,52.05 78.455,52.556 C78.455,53.084 78.08,53.48 77.486,53.48 L69.785,53.48 C69.235,53.48 68.905,53.129 68.905,52.6 L68.905,39.398" id="Path"></path>
                        <path d="M61.931,39.465 C61.931,38.804 62.328,38.408 62.921,38.408 C63.494,38.408 63.89,38.804 63.89,39.465 L63.89,52.534 C63.89,53.194 63.494,53.59 62.921,53.59 C62.328,53.59 61.931,53.194 61.931,52.534 L61.931,39.465" id="Fill-29"></path>
                        <path d="M55.398,42.831 C55.398,41.268 54.365,40.344 52.626,40.344 L49.127,40.344 C49.04,40.344 48.996,40.388 48.996,40.476 L48.996,45.185 C48.996,45.273 49.04,45.317 49.127,45.317 L52.626,45.317 C54.365,45.317 55.398,44.392 55.398,42.831 L55.398,42.831 Z M47.037,52.534 L47.037,39.398 C47.037,38.87 47.367,38.518 47.918,38.518 L52.604,38.518 C55.508,38.518 57.335,40.213 57.335,42.831 C57.335,44.833 56.279,46.285 54.496,46.857 L57.181,52.138 C57.269,52.314 57.312,52.468 57.312,52.666 C57.312,53.15 56.96,53.59 56.367,53.59 C55.97,53.59 55.663,53.392 55.42,52.974 L52.472,47.143 L49.127,47.143 C49.04,47.143 48.996,47.187 48.996,47.275 L48.996,52.534 C48.996,53.194 48.599,53.59 48.027,53.59 C47.433,53.59 47.037,53.194 47.037,52.534 L47.037,52.534 Z" id="Fill-28"></path>
                        <path d="M42.529,38.518 C43.123,38.518 43.498,38.914 43.498,39.442 C43.498,39.949 43.123,40.344 42.529,40.344 L39.075,40.344 C38.987,40.344 38.943,40.388 38.943,40.476 L38.943,52.534 C38.943,53.194 38.546,53.59 37.974,53.59 C37.38,53.59 36.984,53.194 36.984,52.534 L36.984,40.476 C36.984,40.388 36.941,40.344 36.853,40.344 L33.398,40.344 C32.804,40.344 32.43,39.949 32.43,39.442 C32.43,38.914 32.804,38.518 33.398,38.518 L42.529,38.518" id="Fill-27"></path>
                        <path d="M28.206,48.199 L25.83,41.4 L25.764,41.4 L23.344,48.199 L28.206,48.199 L28.206,48.199 Z M19.911,52.248 L24.51,39.507 C24.752,38.804 25.126,38.408 25.786,38.408 C26.446,38.408 26.864,38.804 27.106,39.507 L31.639,52.248 C31.683,52.381 31.727,52.534 31.727,52.688 C31.727,53.238 31.309,53.59 30.803,53.59 C30.363,53.59 30.011,53.348 29.857,52.886 L28.845,50.004 L22.706,50.004 L21.693,52.886 C21.54,53.348 21.187,53.59 20.748,53.59 C20.241,53.59 19.823,53.238 19.823,52.688 C19.823,52.534 19.867,52.381 19.911,52.248 L19.911,52.248 Z" id="Fill-26"></path>
                        <path d="M16.393,42.984 C16.393,41.357 15.314,40.344 13.466,40.344 L10.122,40.344 C10.034,40.344 9.99,40.388 9.99,40.476 L9.99,45.493 C9.99,45.582 10.034,45.625 10.122,45.625 L13.466,45.625 C15.314,45.625 16.393,44.613 16.393,42.984 L16.393,42.984 Z M8.031,39.398 C8.031,38.87 8.361,38.518 8.912,38.518 L13.532,38.518 C16.524,38.518 18.329,40.322 18.329,42.984 C18.329,45.647 16.524,47.451 13.532,47.451 L10.122,47.451 C10.034,47.451 9.99,47.496 9.99,47.584 L9.99,52.534 C9.99,53.194 9.594,53.59 9.021,53.59 C8.427,53.59 8.031,53.194 8.031,52.534 L8.031,39.398 L8.031,39.398 Z" id="Fill-25"></path>
                        <path d="M50.945,24.543 C51.35,24.543 51.662,24.87 51.662,25.23 C51.662,25.575 51.35,25.902 50.945,25.902 L48.589,25.902 C48.53,25.902 48.499,25.931 48.499,25.992 L48.499,33.588 C48.499,34.037 48.173,34.364 47.783,34.364 C47.378,34.364 47.052,34.037 47.052,33.588 L47.052,25.992 C47.052,25.931 47.022,25.902 46.962,25.902 L44.607,25.902 C44.202,25.902 43.89,25.575 43.89,25.23 C43.89,24.87 44.202,24.543 44.607,24.543 L50.945,24.543" id="Fill-24"></path>
                        <path d="M35.024,25.143 C35.024,24.783 35.249,24.543 35.624,24.543 L40.988,24.543 C41.392,24.543 41.647,24.87 41.647,25.215 C41.647,25.575 41.392,25.902 40.988,25.902 L36.562,25.902 C36.502,25.902 36.472,25.931 36.472,25.992 L36.472,28.594 C36.472,28.654 36.502,28.684 36.562,28.684 L40.252,28.684 C40.658,28.684 40.912,29.011 40.912,29.356 C40.912,29.716 40.658,30.043 40.252,30.043 L36.562,30.043 C36.502,30.043 36.472,30.072 36.472,30.132 L36.472,32.84 C36.472,32.9 36.502,32.93 36.562,32.93 L40.988,32.93 C41.392,32.93 41.647,33.257 41.647,33.602 C41.647,33.963 41.392,34.289 40.988,34.289 L35.624,34.289 C35.249,34.289 35.024,34.048 35.024,33.689 L35.024,25.143" id="Fill-23"></path>
                        <path d="M82.194,0.671 C82.347,0.495 82.524,0.384 82.789,0.384 C83.207,0.384 83.537,0.693 83.537,1.111 C83.537,1.331 83.449,1.529 83.316,1.683 L81.798,3.355 C81.599,3.576 81.402,3.685 81.138,3.685 C80.763,3.685 80.433,3.377 80.433,2.981 C80.433,2.761 80.521,2.563 80.675,2.386 L82.194,0.671 L82.194,0.671 Z M76.649,6.172 C76.649,5.643 76.979,5.292 77.529,5.292 L85.23,5.292 C85.824,5.292 86.199,5.687 86.199,6.193 C86.199,6.722 85.824,7.118 85.23,7.118 L78.74,7.118 C78.652,7.118 78.607,7.162 78.607,7.25 L78.607,11.65 C78.607,11.738 78.652,11.783 78.74,11.783 L84.152,11.783 C84.746,11.783 85.121,12.178 85.121,12.684 C85.121,13.213 84.746,13.609 84.152,13.609 L78.74,13.609 C78.652,13.609 78.607,13.652 78.607,13.741 L78.607,18.295 C78.607,18.383 78.652,18.427 78.74,18.427 L85.23,18.427 C85.824,18.427 86.199,18.824 86.199,19.33 C86.199,19.857 85.824,20.254 85.23,20.254 L77.529,20.254 C76.979,20.254 76.649,19.902 76.649,19.374 L76.649,6.172 L76.649,6.172 Z" id="Fill-22"></path>
                        <path d="M72.14,5.292 C72.734,5.292 73.109,5.687 73.109,6.215 C73.109,6.722 72.734,7.118 72.14,7.118 L68.686,7.118 C68.598,7.118 68.554,7.162 68.554,7.25 L68.554,19.307 C68.554,19.967 68.158,20.363 67.585,20.363 C66.992,20.363 66.595,19.967 66.595,19.307 L66.595,7.25 C66.595,7.162 66.552,7.118 66.464,7.118 L63.009,7.118 C62.416,7.118 62.041,6.722 62.041,6.215 C62.041,5.687 62.416,5.292 63.009,5.292 L72.14,5.292" id="Fill-21"></path>
                        <path d="M57.092,9.604 C57.092,8.042 56.058,7.118 54.32,7.118 L50.822,7.118 C50.734,7.118 50.689,7.162 50.689,7.25 L50.689,11.959 C50.689,12.047 50.734,12.09 50.822,12.09 L54.32,12.09 C56.058,12.09 57.092,11.166 57.092,9.604 L57.092,9.604 Z M48.731,19.307 L48.731,6.172 C48.731,5.643 49.061,5.292 49.611,5.292 L54.298,5.292 C57.203,5.292 59.029,6.986 59.029,9.604 C59.029,11.606 57.972,13.058 56.19,13.631 L58.875,18.912 C58.962,19.088 59.006,19.242 59.006,19.439 C59.006,19.923 58.654,20.363 58.06,20.363 C57.665,20.363 57.357,20.166 57.115,19.748 L54.165,13.917 L50.822,13.917 C50.734,13.917 50.689,13.961 50.689,14.048 L50.689,19.307 C50.689,19.967 50.294,20.363 49.721,20.363 C49.126,20.363 48.731,19.967 48.731,19.307 L48.731,19.307 Z" id="Fill-20"></path>
                        <path d="M35.025,6.172 C35.025,5.643 35.355,5.292 35.906,5.292 L43.607,5.292 C44.201,5.292 44.575,5.687 44.575,6.193 C44.575,6.722 44.201,7.118 43.607,7.118 L37.116,7.118 C37.028,7.118 36.984,7.162 36.984,7.25 L36.984,11.65 C36.984,11.738 37.028,11.783 37.116,11.783 L42.529,11.783 C43.123,11.783 43.497,12.178 43.497,12.684 C43.497,13.213 43.123,13.609 42.529,13.609 L37.116,13.609 C37.028,13.609 36.984,13.652 36.984,13.741 L36.984,18.295 C36.984,18.383 37.028,18.427 37.116,18.427 L43.607,18.427 C44.201,18.427 44.575,18.824 44.575,19.33 C44.575,19.857 44.201,20.254 43.607,20.254 L35.906,20.254 C35.355,20.254 35.025,19.902 35.025,19.374 L35.025,6.172" id="Fill-19"></path>
                        <path d="M22.508,18.471 L26.006,18.471 C27.789,18.471 28.757,17.504 28.757,16.007 C28.757,14.533 27.789,13.543 26.006,13.543 L22.508,13.543 C22.42,13.543 22.376,13.587 22.376,13.674 L22.376,18.34 C22.376,18.427 22.42,18.471 22.508,18.471 L22.508,18.471 Z M25.896,11.76 C27.547,11.76 28.515,10.814 28.515,9.427 C28.515,7.998 27.547,7.074 25.896,7.074 L22.508,7.074 C22.42,7.074 22.376,7.118 22.376,7.206 L22.376,11.629 C22.376,11.716 22.42,11.76 22.508,11.76 L25.896,11.76 L25.896,11.76 Z M20.418,6.172 C20.418,5.643 20.748,5.292 21.298,5.292 L25.94,5.292 C28.933,5.292 30.451,6.832 30.451,9.209 C30.451,10.947 29.659,12.025 28.427,12.486 L28.427,12.531 C29.505,12.816 30.715,14.027 30.715,15.985 C30.715,18.801 28.911,20.254 25.874,20.254 L21.298,20.254 C20.748,20.254 20.418,19.923 20.418,19.374 L20.418,6.172 L20.418,6.172 Z" id="Fill-18"></path>
                        <path d="M13.444,6.238 C13.444,5.578 13.84,5.181 14.434,5.181 C15.006,5.181 15.402,5.578 15.402,6.238 L15.402,19.307 C15.402,19.967 15.006,20.363 14.434,20.363 C13.84,20.363 13.444,19.967 13.444,19.307 L13.444,6.238" id="Fill-17"></path>
                        <path d="M0.288,6.238 C0.288,5.578 0.684,5.181 1.256,5.181 C1.829,5.181 2.247,5.578 2.247,6.238 L2.247,18.295 C2.247,18.383 2.29,18.427 2.378,18.427 L8.87,18.427 C9.463,18.427 9.837,18.824 9.837,19.33 C9.837,19.857 9.463,20.254 8.87,20.254 L1.234,20.254 C0.64,20.254 0.288,19.88 0.288,19.285 L0.288,6.238" id="Fill-16"></path>
                    </g>
                    <path d="M140.72,19.377 C140.431,32.416 139.638,44.336 138.363,54.797 C137.697,60.078 136.677,65.494 135.33,70.921 L10.933,70.921 C9.578,65.433 8.592,60.14 7.926,54.79 C6.221,41.609 5.619,28.256 5.414,19.374 C5.267,13.105 5.289,8.115 5.322,5.369 L140.785,5.369 C140.82,8.117 140.847,13.109 140.72,19.377 L140.72,19.377 Z M130.95,85.268 L124.013,75.72 L134.051,75.72 C133.138,78.923 132.094,82.105 130.95,85.268 L130.95,85.268 Z M45.246,75.72 L94.701,143.79 C93.122,145.582 91.491,147.38 89.817,149.185 L36.444,75.72 L45.246,75.72 L45.246,75.72 Z M57.755,75.72 L101.432,135.836 C99.913,137.707 98.343,139.584 96.722,141.466 L48.954,75.72 L57.755,75.72 L57.755,75.72 Z M70.266,75.72 L107.884,127.5 C106.436,129.465 104.933,131.433 103.375,133.406 L61.463,75.72 L70.266,75.72 L70.266,75.72 Z M82.776,75.72 L114.009,118.712 C112.646,120.788 111.219,122.865 109.736,124.944 L73.973,75.72 L82.776,75.72 L82.776,75.72 Z M95.286,75.72 L119.744,109.384 C118.478,111.594 117.146,113.8 115.751,116.006 L86.484,75.72 L95.286,75.72 L95.286,75.72 Z M107.795,75.72 L125.005,99.409 C123.855,101.794 122.638,104.158 121.356,106.5 L98.994,75.72 L107.795,75.72 L107.795,75.72 Z M120.304,75.72 L129.687,88.635 C128.685,91.209 127.607,93.763 126.455,96.298 L111.504,75.72 L120.304,75.72 L120.304,75.72 Z M82.716,156.629 L23.933,75.72 L32.735,75.72 L87.728,151.412 C87.324,151.84 86.927,152.265 86.517,152.693 C85.142,154.1 83.884,155.412 82.716,156.629 L82.716,156.629 Z M77.144,162.287 C76.474,162.922 75.912,163.411 75.42,163.806 L12.746,77.541 C12.566,76.933 12.374,76.328 12.203,75.72 L20.226,75.72 L80.604,158.824 C79.326,160.146 78.165,161.326 77.144,162.287 L77.144,162.287 Z M62.477,155.578 C61.619,154.672 60.714,153.715 59.752,152.707 C44.751,137.123 33.374,122.091 24.971,106.753 C21.451,100.332 18.428,93.726 15.914,87.006 L72.557,164.968 C71.88,164.649 70.781,163.914 69.029,162.267 C67.224,160.593 65.024,158.269 62.477,155.578 L62.477,155.578 Z M145.542,2.905 C145.507,1.605 144.443,0.569 143.142,0.569 L2.964,0.569 C1.664,0.569 0.6,1.604 0.565,2.904 C0.563,2.97 0.386,9.703 0.615,19.485 C0.823,28.482 1.434,42.017 3.164,55.394 C3.805,60.547 4.754,65.66 6.011,70.921 L5.963,70.921 L6.74,73.916 C6.741,73.918 6.742,73.921 6.742,73.923 C6.742,73.923 6.743,73.924 6.743,73.925 C9.866,85.968 14.583,97.789 20.761,109.06 C29.371,124.775 40.993,140.141 56.286,156.029 C57.237,157.024 58.137,157.975 58.991,158.878 C61.596,161.63 63.845,164.007 65.754,165.777 C68.752,168.593 70.912,169.852 72.978,169.989 L73.136,170 L73.294,169.988 C75.36,169.851 77.432,168.629 80.441,165.775 C82.039,164.273 83.874,162.357 86.001,160.138 C87.207,158.881 88.517,157.513 89.968,156.031 C105.256,140.047 116.856,124.683 125.429,109.062 C131.634,97.774 136.375,85.953 139.517,73.927 L140.302,70.921 L140.252,70.921 C141.506,65.698 142.482,60.488 143.126,55.388 C144.421,44.759 145.226,32.679 145.519,19.478 C145.718,9.699 145.543,2.972 145.542,2.905 L145.542,2.905 Z" id="Blason"></path>
                </g>
                <path d="M307.77,521.985 C306.445,521.985 305.37,520.91 305.37,519.585 L305.37,2.469 C305.37,1.143 306.445,0.069 307.77,0.069 C309.095,0.069 310.17,1.143 310.17,2.469 L310.17,519.585 C310.17,520.91 309.095,521.985 307.77,521.985" id="vertical-border" sketch:type="MSShapeGroup"></path>
            </g>
        </g>
    </g>
</svg>