<?xml version="1.0" encoding="UTF-8" standalone="no"?>
<svg width="311px" height="522px" viewBox="0 0 311 522" version="1.1" xmlns="http://www.w3.org/2000/svg" xmlns:xlink="http://www.w3.org/1999/xlink" xmlns:sketch="http://www.bohemiancoding.com/sketch/ns">
    <!-- Generator: Sketch 3.3.3 (12072) - http://www.bohemiancoding.com/sketch -->
    <title>Untitled</title>
    <desc>Created with Sketch.</desc>
    <defs>
        <path id="path-1" d="M0,0.069 L310.17,0.069 L310.17,521.94 L0,521.94"></path>
        <path id="path-3" d="M0,0.069 L310.17,0.069 L310.17,521.94 L0,521.94"></path>
    </defs>
    <g id="Page-1" stroke="none" stroke-width="1" fill="none" fill-rule="evenodd" sketch:type="MSPage">
        <g id="vd_logo_neuf_pantone-363c" sketch:type="MSLayerGroup">
            <path d="M48.036,324.226 C48.036,330.388 44.862,334.939 39.326,336.713 C37.164,337.41 34.366,337.75 30.765,337.75 C27.166,337.75 24.265,337.402 22.13,336.713 C16.597,334.939 13.422,330.388 13.422,324.226 C13.422,319.494 15.53,315.451 19.061,313.408 C19.431,313.185 19.826,313.086 20.34,313.086 C21.466,313.086 22.351,313.968 22.351,315.095 C22.351,315.906 21.952,316.584 21.16,317.111 C18.814,318.781 17.716,321.045 17.716,324.226 C17.716,328.367 19.725,331.185 23.517,332.384 C25.37,333 27.468,333.25 30.765,333.25 C34.013,333.25 36.088,333 37.933,332.386 C41.734,331.185 43.738,328.367 43.738,324.226 C43.738,321.043 42.645,318.779 40.29,317.103 C39.51,316.59 39.106,315.91 39.106,315.095 C39.106,313.968 39.992,313.086 41.12,313.086 C41.634,313.086 42.032,313.185 42.404,313.412 C45.928,315.451 48.036,319.494 48.036,324.226" id="Fill-1" fill="#4A873F" sketch:type="MSShapeGroup"></path>
            <path d="M32.093,296.638 C32.093,302.816 33.877,305.457 38.053,305.457 C42.809,305.457 43.807,301.291 43.807,297.793 C43.807,292.267 41.185,288.836 36.965,288.836 L32.127,288.836 L32.093,296.638 L32.093,296.638 Z M48.037,298.406 C48.037,305.382 44.117,309.888 38.053,309.888 C31.571,309.888 28.001,305.377 28.001,297.181 L28.001,288.867 L25.655,288.836 C19.969,288.836 17.648,291.175 17.648,296.908 C17.648,299.765 18.679,302.519 19.643,304.142 C19.931,304.58 20.101,305.127 20.101,305.629 C20.101,306.853 19.247,307.709 18.022,307.709 C17.367,307.709 16.719,307.388 16.241,306.828 C14.471,304.498 13.423,300.718 13.423,296.705 C13.423,288.406 17.223,284.543 25.383,284.543 L38.531,284.543 C40.351,284.543 40.965,284.336 41.837,283.9 L44.283,282.611 C44.583,282.457 45.053,282.293 45.48,282.293 C46.745,282.293 47.625,283.232 47.625,284.576 C47.625,285.47 47.199,286.136 46.285,286.672 L44.035,288.033 C46.837,290.67 48.037,293.797 48.037,298.406 L48.037,298.406 Z" id="Fill-2" fill="#4A873F" sketch:type="MSShapeGroup"></path>
            <path d="M47.625,253.169 C47.625,254.534 46.725,255.386 45.275,255.386 L27.085,255.386 C20.781,255.386 17.715,258.044 17.715,263.527 C17.715,268.521 21.287,272.007 26.403,272.007 L45.275,272.007 C46.725,272.007 47.625,272.855 47.625,274.224 C47.625,275.588 46.725,276.437 45.275,276.437 L16.185,276.437 C14.731,276.437 13.829,275.588 13.829,274.224 C13.829,272.855 14.731,272.007 16.185,272.007 L17.345,272.007 C14.775,269.972 13.421,266.781 13.421,262.709 C13.421,255.349 18.199,250.952 26.199,250.952 L45.275,250.952 C46.725,250.952 47.625,251.804 47.625,253.169" id="Fill-3" fill="#4A873F" sketch:type="MSShapeGroup"></path>
            <path d="M47.559,232.458 L47.559,233.345 C47.559,239.595 45.009,242.03 38.465,242.03 L18.16,242.03 L18.127,244.724 C18.127,246.027 17.339,246.868 16.114,246.868 C14.893,246.868 14.103,246.027 14.103,244.724 L14.103,242.066 L5.763,242.03 C4.309,242.03 3.404,241.181 3.404,239.818 C3.404,238.45 4.309,237.601 5.763,237.601 L14.07,237.601 L14.103,232.392 C14.103,231.087 14.893,230.243 16.114,230.243 C17.339,230.243 18.127,231.087 18.127,232.392 L18.127,237.571 L38.329,237.601 C42.249,237.601 43.263,236.544 43.263,232.458 C43.263,231.093 44.127,230.177 45.413,230.177 C46.696,230.177 47.559,231.093 47.559,232.458" id="Fill-4" fill="#4A873F" sketch:type="MSShapeGroup"></path>
            <path d="M17.716,213.794 C17.716,217.792 19.834,220.792 23.521,222.021 C25.394,222.644 27.404,222.886 30.698,222.886 C34.038,222.886 36.065,222.644 37.932,222.021 C41.624,220.792 43.738,217.792 43.738,213.794 C43.738,209.691 41.678,206.745 37.934,205.499 C36.056,204.874 34.027,204.63 30.698,204.63 C27.414,204.63 25.401,204.874 23.521,205.499 C19.777,206.745 17.716,209.691 17.716,213.794 M48.036,213.794 C48.036,219.907 44.862,224.458 39.33,226.278 C36.811,227.066 34.312,227.386 30.698,227.386 C27.126,227.386 24.647,227.066 22.134,226.28 C16.596,224.46 13.422,219.909 13.422,213.794 C13.422,207.638 16.596,203.064 22.132,201.239 C24.66,200.452 27.142,200.13 30.698,200.13 C34.3,200.13 36.798,200.452 39.324,201.237 C44.862,203.064 48.036,207.638 48.036,213.794" id="Fill-5" fill="#4A873F" sketch:type="MSShapeGroup"></path>
            <path d="M47.625,170.671 C47.625,172.036 46.725,172.886 45.275,172.886 L27.085,172.886 C20.781,172.886 17.715,175.55 17.715,181.028 C17.715,186.021 21.287,189.509 26.403,189.509 L45.275,189.509 C46.725,189.509 47.625,190.359 47.625,191.726 C47.625,193.091 46.725,193.939 45.275,193.939 L16.185,193.939 C14.731,193.939 13.829,193.091 13.829,191.726 C13.829,190.359 14.731,189.509 16.185,189.509 L17.345,189.509 C14.775,187.474 13.421,184.282 13.421,180.21 C13.421,172.849 18.199,168.456 26.199,168.456 L45.275,168.456 C46.725,168.456 47.625,169.306 47.625,170.671" id="Fill-6" fill="#4A873F" sketch:type="MSShapeGroup"></path>
            <path d="M17.716,137.271 C17.716,141.198 19.708,144.025 23.32,145.226 C25.244,145.851 27.311,146.093 30.698,146.093 C34.172,146.093 36.187,145.859 38.14,145.226 C41.752,144.025 43.738,141.198 43.738,137.271 C43.738,133.222 41.874,130.446 38.344,129.247 C36.64,128.726 33.994,128.45 30.698,128.45 C27.49,128.45 24.794,128.734 23.107,129.251 C19.584,130.446 17.716,133.222 17.716,137.271 M48.036,137.884 C48.036,143.538 45.088,147.632 39.738,149.417 C36.978,150.263 34.443,150.593 30.698,150.593 C27.042,150.593 24.443,150.253 21.727,149.419 C16.368,147.632 13.422,143.538 13.422,137.884 C13.422,133.493 14.724,130.394 17.392,128.45 L2.355,128.45 C0.901,128.45 0,127.601 0,126.234 C0,124.868 0.901,124.021 2.355,124.021 L45.275,124.021 C46.726,124.021 47.626,124.868 47.626,126.234 C47.626,127.601 46.726,128.45 45.275,128.45 L44.063,128.45 C46.733,130.394 48.036,133.495 48.036,137.884" id="Fill-7" fill="#4A873F" sketch:type="MSShapeGroup"></path>
            <path d="M17.579,104.441 C17.579,108.571 19.663,111.517 23.453,112.734 C24.745,113.144 26.139,113.327 27.969,113.327 L27.999,95.515 C26.139,95.484 24.745,95.667 23.453,96.077 C19.663,97.296 17.579,100.265 17.579,104.441 M48.037,104.028 C48.037,110.486 45.001,114.9 39.261,116.788 C37.009,117.534 34.607,117.827 30.697,117.827 C26.857,117.827 24.455,117.534 22.133,116.788 C16.595,114.989 13.421,110.487 13.421,104.441 C13.421,98.349 16.595,93.821 22.131,92.023 C24.263,91.316 26.771,90.984 30.015,90.984 C31.239,90.984 32.093,91.839 32.093,93.064 L32.093,113.296 C34.849,113.327 36.141,113.175 37.663,112.667 C41.639,111.343 43.739,108.284 43.739,103.827 C43.739,100.282 42.673,97.735 40.173,95.306 C39.653,94.782 39.379,94.22 39.379,93.675 C39.379,92.526 40.215,91.661 41.323,91.661 C41.885,91.661 42.375,91.829 42.785,92.155 C46.169,94.833 48.037,99.048 48.037,104.028" id="Fill-8" fill="#4A873F" sketch:type="MSShapeGroup"></path>
            <path d="M152.251,305.531 L71.876,336.427 C70.704,336.822 69.918,337.015 68.944,337.015 C66.4,337.015 63.858,335.256 63.858,331.736 C63.858,329 65.618,327.435 67.768,326.648 L141.298,298.492 L141.298,298.297 L67.768,270.72 C65.618,269.941 63.858,268.375 63.858,265.638 C63.858,262.117 66.4,260.357 68.944,260.357 C69.918,260.357 70.704,260.55 71.876,260.943 L152.251,291.84 C157.14,293.601 158.705,295.361 158.705,298.687 C158.705,302.011 157.14,303.773 152.251,305.531" id="Fill-9" fill="#4A873F" sketch:type="MSShapeGroup"></path>
            <path d="M129.177,195.121 L115.291,195.121 C114.511,195.121 114.117,195.511 114.117,196.293 L114.117,218.586 C114.117,237.166 119.787,244.988 132.302,244.988 C143.843,244.988 149.902,236.97 149.902,221.912 C149.902,205.877 142.082,195.121 129.177,195.121 M153.621,178.498 C156.552,178.498 158.705,180.65 158.705,183.974 C158.705,186.127 157.726,187.689 155.378,189.058 L147.949,193.554 L147.949,193.947 C155.578,200.793 159.878,209.006 159.878,223.673 C159.878,241.662 150.101,255.547 132.302,255.547 C113.923,255.547 104.535,242.642 104.535,220.154 L104.535,196.293 C104.535,195.511 104.144,195.121 103.363,195.121 L96.712,195.121 C81.263,195.121 72.657,200.988 72.657,219.367 C72.657,227.388 75.395,235.404 78.526,240.685 C79.307,241.859 79.697,243.23 79.697,244.4 C79.697,247.336 77.743,249.287 74.807,249.287 C73.245,249.287 71.681,248.506 70.507,247.138 C66.205,241.466 62.685,231.496 62.685,218.785 C62.685,195.705 73.049,184.951 95.929,184.951 L133.673,184.951 C138.955,184.951 140.912,184.363 143.644,182.996 L150.687,179.281 C151.468,178.888 152.64,178.498 153.621,178.498" id="Fill-10" fill="#4A873F" sketch:type="MSShapeGroup"></path>
            <path d="M153.035,101.849 L146.58,101.849 L146.58,102.044 C154.99,107.321 159.878,116.122 159.878,129.226 C159.878,149.763 146.97,161.491 124.289,161.491 L69.53,161.491 C65.816,161.491 63.858,159.341 63.858,156.214 C63.858,153.083 65.816,150.933 69.53,150.933 L121.742,150.933 C140.324,150.933 149.708,143.111 149.708,126.88 C149.708,112.796 139.736,101.849 123.701,101.849 L69.53,101.849 C65.816,101.849 63.858,99.696 63.858,96.567 C63.858,93.435 65.816,91.284 69.53,91.284 L153.035,91.284 C156.746,91.284 158.705,93.435 158.705,96.567 C158.705,99.696 156.746,101.849 153.035,101.849" id="Fill-11" fill="#4A873F" sketch:type="MSShapeGroup"></path>
            <g id="Group-15">
                <mask id="mask-2" sketch:name="Clip 13" fill="white">
                    <use xlink:href="#path-1"></use>
                </mask>
                <g id="Clip-13"></g>
                <path d="M133.478,13.085 C128.394,11.523 120.57,10.741 111.185,10.741 C101.994,10.741 94.168,11.523 89.085,13.085 C78.135,16.802 72.854,25.407 72.854,37.14 C72.854,49.069 79.112,57.48 89.673,60.999 C95.736,62.954 101.994,63.54 111.185,63.54 C120.57,63.54 126.826,62.954 132.89,60.999 C143.451,57.48 149.708,49.069 149.708,37.14 C149.708,25.407 144.431,16.802 133.478,13.085 M153.035,10.741 L146.189,10.741 L146.189,10.935 C154.207,15.431 159.878,23.646 159.878,38.9 C159.878,54.741 151.468,66.081 136.804,70.972 C129.177,73.319 121.939,74.294 111.185,74.294 C100.625,74.294 93.386,73.319 85.761,70.972 C71.095,66.081 62.685,54.741 62.685,38.9 C62.685,23.646 68.354,15.431 76.374,10.935 L76.374,10.741 L29.832,10.741 C26.112,10.741 24.16,8.589 24.16,5.458 C24.16,2.331 26.112,0.181 29.832,0.181 L153.035,0.181 C156.746,0.181 158.705,2.331 158.705,5.458 C158.705,8.589 156.746,10.741 153.035,10.741" id="Fill-12" fill="#4A873F" sketch:type="MSShapeGroup" mask="url(#mask-2)"></path>
                <path d="M154.72,371.377 C154.431,384.416 153.638,396.336 152.363,406.797 C151.697,412.078 150.677,417.494 149.33,422.921 L24.933,422.921 C23.578,417.433 22.592,412.14 21.926,406.79 C20.221,393.609 19.619,380.256 19.414,371.374 C19.267,365.105 19.289,360.115 19.322,357.369 L154.785,357.369 C154.82,360.117 154.847,365.109 154.72,371.377 L154.72,371.377 Z M144.95,437.268 L138.013,427.72 L148.051,427.72 C147.138,430.923 146.094,434.105 144.95,437.268 L144.95,437.268 Z M59.246,427.72 L108.701,495.79 C107.122,497.582 105.491,499.38 103.817,501.185 L50.444,427.72 L59.246,427.72 L59.246,427.72 Z M71.755,427.72 L115.432,487.836 C113.913,489.707 112.343,491.584 110.722,493.466 L62.954,427.72 L71.755,427.72 L71.755,427.72 Z M84.266,427.72 L121.884,479.5 C120.436,481.465 118.933,483.433 117.375,485.406 L75.463,427.72 L84.266,427.72 L84.266,427.72 Z M96.776,427.72 L128.009,470.712 C126.646,472.788 125.219,474.865 123.736,476.944 L87.973,427.72 L96.776,427.72 L96.776,427.72 Z M109.286,427.72 L133.744,461.384 C132.478,463.594 131.146,465.8 129.751,468.006 L100.484,427.72 L109.286,427.72 L109.286,427.72 Z M121.795,427.72 L139.005,451.409 C137.855,453.794 136.638,456.158 135.356,458.5 L112.994,427.72 L121.795,427.72 L121.795,427.72 Z M134.304,427.72 L143.687,440.635 C142.685,443.209 141.607,445.763 140.455,448.298 L125.504,427.72 L134.304,427.72 L134.304,427.72 Z M96.716,508.629 L37.933,427.72 L46.735,427.72 L101.728,503.412 C101.324,503.84 100.927,504.265 100.517,504.693 C99.142,506.1 97.884,507.412 96.716,508.629 L96.716,508.629 Z M91.144,514.287 C90.474,514.922 89.912,515.411 89.42,515.806 L26.746,429.541 C26.566,428.933 26.374,428.328 26.203,427.72 L34.226,427.72 L94.604,510.824 C93.326,512.146 92.165,513.326 91.144,514.287 L91.144,514.287 Z M76.477,507.578 C75.619,506.672 74.714,505.715 73.752,504.707 C58.751,489.123 47.374,474.091 38.971,458.753 C35.451,452.332 32.428,445.726 29.914,439.006 L86.557,516.968 C85.88,516.649 84.781,515.914 83.029,514.267 C81.224,512.593 79.024,510.269 76.477,507.578 L76.477,507.578 Z M159.542,354.905 C159.507,353.605 158.443,352.569 157.142,352.569 L16.964,352.569 C15.664,352.569 14.6,353.604 14.565,354.904 C14.563,354.97 14.386,361.703 14.615,371.485 C14.823,380.482 15.434,394.017 17.164,407.394 C17.805,412.547 18.754,417.66 20.011,422.921 L19.963,422.921 L20.74,425.916 C20.741,425.918 20.742,425.921 20.742,425.923 C20.742,425.923 20.743,425.924 20.743,425.925 C23.866,437.968 28.583,449.789 34.761,461.06 C43.371,476.775 54.993,492.141 70.286,508.029 C71.237,509.024 72.137,509.975 72.991,510.878 C75.596,513.63 77.845,516.007 79.754,517.777 C82.752,520.593 84.912,521.852 86.978,521.989 L87.136,522 L87.294,521.988 C89.36,521.851 91.432,520.629 94.441,517.775 C96.039,516.273 97.874,514.357 100.001,512.138 C101.207,510.881 102.517,509.513 103.968,508.031 C119.256,492.047 130.856,476.683 139.429,461.062 C145.634,449.774 150.375,437.953 153.517,425.927 L154.302,422.921 L154.252,422.921 C155.506,417.698 156.482,412.488 157.126,407.388 C158.421,396.759 159.226,384.679 159.519,371.478 C159.718,361.699 159.543,354.972 159.542,354.905 L159.542,354.905 Z" id="Fill-14" fill="#4A873F" sketch:type="MSShapeGroup" mask="url(#mask-2)"></path>
            </g>
            <path d="M44.288,368.238 C44.288,367.578 44.684,367.181 45.256,367.181 C45.829,367.181 46.247,367.578 46.247,368.238 L46.247,380.295 C46.247,380.383 46.29,380.427 46.378,380.427 L52.87,380.427 C53.463,380.427 53.837,380.824 53.837,381.33 C53.837,381.857 53.463,382.254 52.87,382.254 L45.234,382.254 C44.64,382.254 44.288,381.88 44.288,381.285 L44.288,368.238" id="Fill-16" fill="#4A873F" sketch:type="MSShapeGroup"></path>
            <path d="M57.444,368.238 C57.444,367.578 57.84,367.181 58.434,367.181 C59.006,367.181 59.402,367.578 59.402,368.238 L59.402,381.307 C59.402,381.967 59.006,382.363 58.434,382.363 C57.84,382.363 57.444,381.967 57.444,381.307 L57.444,368.238" id="Fill-17" fill="#4A873F" sketch:type="MSShapeGroup"></path>
            <path d="M66.508,380.471 L70.006,380.471 C71.789,380.471 72.757,379.504 72.757,378.007 C72.757,376.533 71.789,375.543 70.006,375.543 L66.508,375.543 C66.42,375.543 66.376,375.587 66.376,375.674 L66.376,380.34 C66.376,380.427 66.42,380.471 66.508,380.471 L66.508,380.471 Z M69.896,373.76 C71.547,373.76 72.515,372.814 72.515,371.427 C72.515,369.998 71.547,369.074 69.896,369.074 L66.508,369.074 C66.42,369.074 66.376,369.118 66.376,369.206 L66.376,373.629 C66.376,373.716 66.42,373.76 66.508,373.76 L69.896,373.76 L69.896,373.76 Z M64.418,368.172 C64.418,367.643 64.748,367.292 65.298,367.292 L69.94,367.292 C72.933,367.292 74.451,368.832 74.451,371.209 C74.451,372.947 73.659,374.025 72.427,374.486 L72.427,374.531 C73.505,374.816 74.715,376.027 74.715,377.985 C74.715,380.801 72.911,382.254 69.874,382.254 L65.298,382.254 C64.748,382.254 64.418,381.923 64.418,381.374 L64.418,368.172 L64.418,368.172 Z" id="Fill-18" fill="#4A873F" sketch:type="MSShapeGroup"></path>
            <path d="M79.025,368.172 C79.025,367.643 79.355,367.292 79.906,367.292 L87.607,367.292 C88.201,367.292 88.575,367.687 88.575,368.193 C88.575,368.722 88.201,369.118 87.607,369.118 L81.116,369.118 C81.028,369.118 80.984,369.162 80.984,369.25 L80.984,373.65 C80.984,373.738 81.028,373.783 81.116,373.783 L86.529,373.783 C87.123,373.783 87.497,374.178 87.497,374.684 C87.497,375.213 87.123,375.609 86.529,375.609 L81.116,375.609 C81.028,375.609 80.984,375.652 80.984,375.741 L80.984,380.295 C80.984,380.383 81.028,380.427 81.116,380.427 L87.607,380.427 C88.201,380.427 88.575,380.824 88.575,381.33 C88.575,381.857 88.201,382.254 87.607,382.254 L79.906,382.254 C79.355,382.254 79.025,381.902 79.025,381.374 L79.025,368.172" id="Fill-19" fill="#4A873F" sketch:type="MSShapeGroup"></path>
            <path d="M101.092,371.604 C101.092,370.042 100.058,369.118 98.32,369.118 L94.822,369.118 C94.734,369.118 94.689,369.162 94.689,369.25 L94.689,373.959 C94.689,374.047 94.734,374.09 94.822,374.09 L98.32,374.09 C100.058,374.09 101.092,373.166 101.092,371.604 L101.092,371.604 Z M92.731,381.307 L92.731,368.172 C92.731,367.643 93.061,367.292 93.611,367.292 L98.298,367.292 C101.203,367.292 103.029,368.986 103.029,371.604 C103.029,373.606 101.972,375.058 100.19,375.631 L102.875,380.912 C102.962,381.088 103.006,381.242 103.006,381.439 C103.006,381.923 102.654,382.363 102.06,382.363 C101.665,382.363 101.357,382.166 101.115,381.748 L98.165,375.917 L94.822,375.917 C94.734,375.917 94.689,375.961 94.689,376.048 L94.689,381.307 C94.689,381.967 94.294,382.363 93.721,382.363 C93.126,382.363 92.731,381.967 92.731,381.307 L92.731,381.307 Z" id="Fill-20" fill="#4A873F" sketch:type="MSShapeGroup"></path>
            <path d="M116.14,367.292 C116.734,367.292 117.109,367.687 117.109,368.215 C117.109,368.722 116.734,369.118 116.14,369.118 L112.686,369.118 C112.598,369.118 112.554,369.162 112.554,369.25 L112.554,381.307 C112.554,381.967 112.158,382.363 111.585,382.363 C110.992,382.363 110.595,381.967 110.595,381.307 L110.595,369.25 C110.595,369.162 110.552,369.118 110.464,369.118 L107.009,369.118 C106.416,369.118 106.041,368.722 106.041,368.215 C106.041,367.687 106.416,367.292 107.009,367.292 L116.14,367.292" id="Fill-21" fill="#4A873F" sketch:type="MSShapeGroup"></path>
            <path d="M126.194,362.671 C126.347,362.495 126.524,362.384 126.789,362.384 C127.207,362.384 127.537,362.693 127.537,363.111 C127.537,363.331 127.449,363.529 127.316,363.683 L125.798,365.355 C125.599,365.576 125.402,365.685 125.138,365.685 C124.763,365.685 124.433,365.377 124.433,364.981 C124.433,364.761 124.521,364.563 124.675,364.386 L126.194,362.671 L126.194,362.671 Z M120.649,368.172 C120.649,367.643 120.979,367.292 121.529,367.292 L129.23,367.292 C129.824,367.292 130.199,367.687 130.199,368.193 C130.199,368.722 129.824,369.118 129.23,369.118 L122.74,369.118 C122.652,369.118 122.607,369.162 122.607,369.25 L122.607,373.65 C122.607,373.738 122.652,373.783 122.74,373.783 L128.152,373.783 C128.746,373.783 129.121,374.178 129.121,374.684 C129.121,375.213 128.746,375.609 128.152,375.609 L122.74,375.609 C122.652,375.609 122.607,375.652 122.607,375.741 L122.607,380.295 C122.607,380.383 122.652,380.427 122.74,380.427 L129.23,380.427 C129.824,380.427 130.199,380.824 130.199,381.33 C130.199,381.857 129.824,382.254 129.23,382.254 L121.529,382.254 C120.979,382.254 120.649,381.902 120.649,381.374 L120.649,368.172 L120.649,368.172 Z" id="Fill-22" fill="#4A873F" sketch:type="MSShapeGroup"></path>
            <path d="M79.024,387.143 C79.024,386.783 79.249,386.543 79.624,386.543 L84.988,386.543 C85.392,386.543 85.647,386.87 85.647,387.215 C85.647,387.575 85.392,387.902 84.988,387.902 L80.562,387.902 C80.502,387.902 80.472,387.931 80.472,387.992 L80.472,390.594 C80.472,390.654 80.502,390.684 80.562,390.684 L84.252,390.684 C84.658,390.684 84.912,391.011 84.912,391.356 C84.912,391.716 84.658,392.043 84.252,392.043 L80.562,392.043 C80.502,392.043 80.472,392.072 80.472,392.132 L80.472,394.84 C80.472,394.9 80.502,394.93 80.562,394.93 L84.988,394.93 C85.392,394.93 85.647,395.257 85.647,395.602 C85.647,395.963 85.392,396.289 84.988,396.289 L79.624,396.289 C79.249,396.289 79.024,396.048 79.024,395.689 L79.024,387.143" id="Fill-23" fill="#4A873F" sketch:type="MSShapeGroup"></path>
            <path d="M94.945,386.543 C95.35,386.543 95.662,386.87 95.662,387.23 C95.662,387.575 95.35,387.902 94.945,387.902 L92.589,387.902 C92.53,387.902 92.499,387.931 92.499,387.992 L92.499,395.588 C92.499,396.037 92.173,396.364 91.783,396.364 C91.378,396.364 91.052,396.037 91.052,395.588 L91.052,387.992 C91.052,387.931 91.022,387.902 90.962,387.902 L88.607,387.902 C88.202,387.902 87.89,387.575 87.89,387.23 C87.89,386.87 88.202,386.543 88.607,386.543 L94.945,386.543" id="Fill-24" fill="#4A873F" sketch:type="MSShapeGroup"></path>
            <path d="M60.393,404.984 C60.393,403.357 59.314,402.344 57.466,402.344 L54.122,402.344 C54.034,402.344 53.99,402.388 53.99,402.476 L53.99,407.493 C53.99,407.582 54.034,407.625 54.122,407.625 L57.466,407.625 C59.314,407.625 60.393,406.613 60.393,404.984 L60.393,404.984 Z M52.031,401.398 C52.031,400.87 52.361,400.518 52.912,400.518 L57.532,400.518 C60.524,400.518 62.329,402.322 62.329,404.984 C62.329,407.647 60.524,409.451 57.532,409.451 L54.122,409.451 C54.034,409.451 53.99,409.496 53.99,409.584 L53.99,414.534 C53.99,415.194 53.594,415.59 53.021,415.59 C52.427,415.59 52.031,415.194 52.031,414.534 L52.031,401.398 L52.031,401.398 Z" id="Fill-25" fill="#4A873F" sketch:type="MSShapeGroup"></path>
            <path d="M72.206,410.199 L69.83,403.4 L69.764,403.4 L67.344,410.199 L72.206,410.199 L72.206,410.199 Z M63.911,414.248 L68.51,401.507 C68.752,400.804 69.126,400.408 69.786,400.408 C70.446,400.408 70.864,400.804 71.106,401.507 L75.639,414.248 C75.683,414.381 75.727,414.534 75.727,414.688 C75.727,415.238 75.309,415.59 74.803,415.59 C74.363,415.59 74.011,415.348 73.857,414.886 L72.845,412.004 L66.706,412.004 L65.693,414.886 C65.54,415.348 65.187,415.59 64.748,415.59 C64.241,415.59 63.823,415.238 63.823,414.688 C63.823,414.534 63.867,414.381 63.911,414.248 L63.911,414.248 Z" id="Fill-26" fill="#4A873F" sketch:type="MSShapeGroup"></path>
            <path d="M86.529,400.518 C87.123,400.518 87.498,400.914 87.498,401.442 C87.498,401.949 87.123,402.344 86.529,402.344 L83.075,402.344 C82.987,402.344 82.943,402.388 82.943,402.476 L82.943,414.534 C82.943,415.194 82.546,415.59 81.974,415.59 C81.38,415.59 80.984,415.194 80.984,414.534 L80.984,402.476 C80.984,402.388 80.941,402.344 80.853,402.344 L77.398,402.344 C76.804,402.344 76.43,401.949 76.43,401.442 C76.43,400.914 76.804,400.518 77.398,400.518 L86.529,400.518" id="Fill-27" fill="#4A873F" sketch:type="MSShapeGroup"></path>
            <path d="M99.398,404.831 C99.398,403.268 98.365,402.344 96.626,402.344 L93.127,402.344 C93.04,402.344 92.996,402.388 92.996,402.476 L92.996,407.185 C92.996,407.273 93.04,407.317 93.127,407.317 L96.626,407.317 C98.365,407.317 99.398,406.392 99.398,404.831 L99.398,404.831 Z M91.037,414.534 L91.037,401.398 C91.037,400.87 91.367,400.518 91.918,400.518 L96.604,400.518 C99.508,400.518 101.335,402.213 101.335,404.831 C101.335,406.833 100.279,408.285 98.496,408.857 L101.181,414.138 C101.269,414.314 101.312,414.468 101.312,414.666 C101.312,415.15 100.96,415.59 100.367,415.59 C99.97,415.59 99.663,415.392 99.42,414.974 L96.472,409.143 L93.127,409.143 C93.04,409.143 92.996,409.187 92.996,409.275 L92.996,414.534 C92.996,415.194 92.599,415.59 92.027,415.59 C91.433,415.59 91.037,415.194 91.037,414.534 L91.037,414.534 Z" id="Fill-28" fill="#4A873F" sketch:type="MSShapeGroup"></path>
            <path d="M105.931,401.465 C105.931,400.804 106.328,400.408 106.921,400.408 C107.494,400.408 107.89,400.804 107.89,401.465 L107.89,414.534 C107.89,415.194 107.494,415.59 106.921,415.59 C106.328,415.59 105.931,415.194 105.931,414.534 L105.931,401.465" id="Fill-29" fill="#4A873F" sketch:type="MSShapeGroup"></path>
            <g id="Group-33">
                <mask id="mask-4" sketch:name="Clip 31" fill="white">
                    <use xlink:href="#path-3"></use>
                </mask>
                <g id="Clip-31"></g>
                <path d="M112.905,401.398 C112.905,400.87 113.235,400.518 113.785,400.518 L121.486,400.518 C122.08,400.518 122.455,400.914 122.455,401.42 C122.455,401.949 122.08,402.344 121.486,402.344 L114.996,402.344 C114.908,402.344 114.863,402.388 114.863,402.476 L114.863,406.877 C114.863,406.965 114.908,407.009 114.996,407.009 L120.408,407.009 C121.001,407.009 121.376,407.405 121.376,407.911 C121.376,408.439 121.001,408.836 120.408,408.836 L114.996,408.836 C114.908,408.836 114.863,408.879 114.863,408.967 L114.863,413.521 C114.863,413.61 114.908,413.654 114.996,413.654 L121.486,413.654 C122.08,413.654 122.455,414.05 122.455,414.556 C122.455,415.084 122.08,415.48 121.486,415.48 L113.785,415.48 C113.235,415.48 112.905,415.129 112.905,414.6 L112.905,401.398" id="Fill-30" fill="#4A873F" sketch:type="MSShapeGroup" mask="url(#mask-4)"></path>
                <path d="M307.77,521.985 C306.445,521.985 305.37,520.91 305.37,519.585 L305.37,2.469 C305.37,1.143 306.445,0.069 307.77,0.069 C309.095,0.069 310.17,1.143 310.17,2.469 L310.17,519.585 C310.17,520.91 309.095,521.985 307.77,521.985" id="Fill-32" fill="#4A873F" sketch:type="MSShapeGroup" mask="url(#mask-4)"></path>
            </g>
        </g>
    </g>
</svg>