<svg width="180" height="180" viewBox="0 0 180 180" xmlns="http://www.w3.org/2000/svg"><title>logo-square</title><g fill="#4A873F" fill-rule="evenodd"><path d="M115.163 53.98c0-.535.314-.891.838-.891h7.332c.565 0 .922.4.922.912 0 .536-.357.935-.922.935h-6.18c-.083 0-.126.045-.126.134v4.453c0 .089.043.133.127.133h5.152c.565 0 .922.4.922.913 0 .534-.357.936-.922.936h-5.152c-.084 0-.127.043-.127.132v4.608c0 .09.043.134.127.134h6.179c.565 0 .922.401.922.913 0 .534-.357.935-.922.935H116c-.524 0-.838-.355-.838-.89V53.978M108.523 54.047c0-.669.378-1.07.943-1.07.545 0 .922.401.922 1.07V67.27c0 .667-.377 1.068-.922 1.068-.565 0-.943-.4-.943-1.068V54.047M102.304 57.453c0-1.582-.984-2.517-2.64-2.517h-3.33c-.084 0-.125.045-.125.134v4.764c0 .09.041.134.124.134h3.331c1.656 0 2.64-.936 2.64-2.515zm-7.96 9.817V53.98c0-.535.314-.891.838-.891h4.462c2.764 0 4.504 1.715 4.504 4.364 0 2.025-1.006 3.494-2.703 4.073L104 66.869c.084.178.125.334.125.534 0 .49-.335.935-.9.935-.378 0-.67-.2-.901-.623l-2.807-5.9h-3.185c-.083 0-.124.045-.124.134v5.32c0 .668-.378 1.07-.923 1.07-.566 0-.943-.402-.943-1.07zM90.052 53.089c.565 0 .922.4.922.935 0 .513-.357.912-.922.912h-3.289c-.084 0-.125.045-.125.134v12.2c0 .667-.378 1.068-.923 1.068-.566 0-.943-.4-.943-1.068v-12.2c0-.09-.04-.134-.124-.134h-3.29c-.565 0-.921-.4-.921-.912 0-.535.356-.935.921-.935h8.694M76.415 62.884l-2.262-6.88h-.063l-2.304 6.88h4.63zm-7.897 4.096l4.379-12.89c.23-.712.586-1.112 1.214-1.112.629 0 1.027.4 1.257 1.111l4.316 12.891c.042.135.083.29.083.446 0 .556-.397.912-.88.912-.418 0-.753-.245-.9-.712l-.963-2.916h-5.845l-.964 2.916c-.146.467-.482.712-.9.712-.483 0-.88-.356-.88-.912 0-.156.041-.311.083-.446zM65.169 57.607c0-1.646-1.028-2.67-2.787-2.67h-3.184c-.083 0-.125.044-.125.133v5.076c0 .09.042.133.125.133h3.184c1.76 0 2.787-1.023 2.787-2.672zm-7.961-3.628c0-.534.314-.89.838-.89h4.399c2.848 0 4.567 1.825 4.567 4.518 0 2.695-1.719 4.52-4.567 4.52h-3.247c-.083 0-.125.045-.125.134v5.009c0 .667-.377 1.068-.923 1.068-.565 0-.942-.4-.942-1.068V53.98zM98.064 38.95c.386 0 .683.33.683.694 0 .35-.297.68-.683.68h-2.243c-.056 0-.086.03-.086.091v7.686c0 .454-.31.785-.681.785-.386 0-.696-.33-.696-.785v-7.686c0-.061-.029-.09-.086-.09H92.03a.693.693 0 0 1-.683-.68c0-.365.297-.696.683-.696h6.034M82.906 39.556c0-.364.215-.607.572-.607h5.106c.385 0 .628.331.628.68 0 .365-.243.695-.628.695h-4.213c-.057 0-.086.03-.086.091v2.633c0 .06.029.091.086.091h3.513c.386 0 .628.331.628.68 0 .364-.242.695-.628.695H84.37c-.057 0-.086.03-.086.09v2.74c0 .06.029.091.086.091h4.213c.385 0 .628.33.628.68 0 .365-.243.695-.628.695h-5.106c-.357 0-.572-.244-.572-.607v-8.647M127.815 14.797c.146-.179.314-.29.566-.29.398 0 .712.312.712.735a.917.917 0 0 1-.21.578l-1.445 1.692c-.19.224-.377.334-.629.334-.357 0-.67-.312-.67-.712 0-.223.083-.423.23-.602l1.446-1.735zm-5.28 5.565c0-.535.315-.89.839-.89h7.331c.566 0 .923.4.923.912 0 .535-.357.935-.923.935h-6.179c-.083 0-.126.045-.126.134v4.452c0 .089.043.134.126.134h5.153c.565 0 .923.4.923.912 0 .535-.358.936-.923.936h-5.153c-.083 0-.126.043-.126.133v4.608c0 .089.043.133.126.133h6.18c.565 0 .922.402.922.914 0 .533-.357.935-.923.935h-7.331c-.524 0-.838-.356-.838-.89V20.362zM118.243 19.472c.565 0 .922.4.922.934 0 .513-.357.913-.922.913h-3.289c-.083 0-.125.045-.125.134v12.199c0 .668-.377 1.068-.923 1.068-.564 0-.942-.4-.942-1.068v-12.2c0-.088-.041-.133-.125-.133h-3.29c-.564 0-.92-.4-.92-.913 0-.534.356-.934.92-.934h8.694M103.916 23.835c0-1.58-.984-2.516-2.639-2.516h-3.33c-.084 0-.127.045-.127.134v4.764c0 .09.043.133.127.133h3.33c1.655 0 2.64-.935 2.64-2.515zm-7.96 9.817v-13.29c0-.535.314-.89.838-.89h4.462c2.766 0 4.504 1.714 4.504 4.363 0 2.025-1.006 3.494-2.702 4.074l2.556 5.343c.083.178.125.334.125.533 0 .49-.336.935-.901.935-.376 0-.67-.2-.9-.622l-2.808-5.9h-3.183c-.084 0-.127.045-.127.133v5.32c0 .669-.376 1.07-.921 1.07-.567 0-.943-.401-.943-1.07zM82.907 20.362c0-.535.315-.89.84-.89h7.33c.566 0 .922.4.922.912 0 .535-.356.935-.921.935h-6.18c-.084 0-.126.045-.126.134v4.452c0 .089.042.134.126.134h5.154c.565 0 .921.4.921.912 0 .535-.356.936-.921.936h-5.154c-.084 0-.126.043-.126.133v4.608c0 .089.042.133.126.133h6.18c.565 0 .921.402.921.914 0 .533-.356.935-.921.935h-7.332c-.524 0-.839-.356-.839-.89V20.362M70.99 32.806h3.33c1.698 0 2.62-.978 2.62-2.493 0-1.491-.922-2.493-2.62-2.493h-3.33c-.083 0-.125.044-.125.133v4.72c0 .088.042.133.125.133zm3.226-6.79c1.572 0 2.493-.957 2.493-2.36 0-1.446-.921-2.381-2.493-2.381H70.99c-.083 0-.125.044-.125.133v4.475c0 .088.042.133.125.133h3.226zm-5.215-5.654c0-.535.314-.89.838-.89h4.419c2.85 0 4.295 1.558 4.295 3.963 0 1.758-.754 2.85-1.927 3.316v.045c1.026.288 2.178 1.514 2.178 3.495 0 2.849-1.717 4.319-4.609 4.319H69.84c-.524 0-.838-.335-.838-.89V20.362zM62.361 20.429c0-.668.377-1.07.943-1.07.544 0 .921.402.921 1.07v13.223c0 .668-.377 1.068-.921 1.068-.566 0-.943-.4-.943-1.068V20.429M49.836 20.429c0-.668.377-1.07.921-1.07.546 0 .944.402.944 1.07v12.199c0 .089.04.133.125.133h6.18c.565 0 .921.402.921.914 0 .533-.356.935-.92.935h-7.27c-.566 0-.901-.378-.901-.98V20.429"/><path d="M154.973 23.605c-.275 13.192-1.03 25.253-2.244 35.837a149.425 149.425 0 0 1-2.887 16.313H31.409a147.243 147.243 0 0 1-2.863-16.32c-1.623-13.336-2.196-26.847-2.392-35.833a432.26 432.26 0 0 1-.087-14.17h128.968c.033 2.78.06 7.831-.062 14.173zm-9.301 66.666l-6.605-9.66h9.557c-.87 3.24-1.863 6.46-2.952 9.66zm-81.595-9.66l47.084 68.87a284.122 284.122 0 0 1-4.65 5.46L55.697 80.61h8.38zm11.909 0l41.583 60.823a252.357 252.357 0 0 1-4.484 5.696L67.607 80.61h8.379zm11.911 0L123.711 133a224.635 224.635 0 0 1-4.292 5.975L79.516 80.611h8.381zm11.91 0l29.736 43.498a198.93 198.93 0 0 1-4.068 6.305L91.426 80.61h8.381zm11.91 0l23.286 34.06a181.792 181.792 0 0 1-3.802 6.7l-27.863-40.76h8.38zm11.91 0l16.385 23.968a160.4 160.4 0 0 1-3.474 7.174l-21.29-31.142h8.379zm11.909 0l8.933 13.067a157.491 157.491 0 0 1-3.077 7.753l-14.234-20.82h8.378zM99.75 162.47l-55.964-81.86h8.38l52.356 76.582c-.385.433-.763.863-1.153 1.296-1.31 1.424-2.507 2.751-3.619 3.983zm-5.305 5.725a27.194 27.194 0 0 1-1.641 1.537l-59.67-87.28c-.17-.615-.353-1.227-.516-1.842h7.638l57.483 84.082c-1.216 1.337-2.322 2.531-3.294 3.503zm-13.963-6.788c-.817-.916-1.679-1.885-2.595-2.904-14.282-15.768-25.113-30.977-33.113-46.495a158.147 158.147 0 0 1-8.623-19.98l53.927 78.88c-.644-.323-1.69-1.067-3.359-2.733-1.718-1.694-3.813-4.045-6.237-6.768zM159.564 6.94c-.033-1.315-1.046-2.363-2.285-2.363H23.822c-1.238 0-2.25 1.047-2.284 2.362-.002.067-.17 6.88.048 16.776.198 9.103.78 22.797 2.426 36.332.61 5.213 1.514 10.386 2.71 15.71h-.045l.74 3.03a.02.02 0 0 1 .002.007v.002c2.974 12.184 7.465 24.144 13.347 35.548 8.197 15.9 19.262 31.447 33.821 47.522a726.433 726.433 0 0 1 2.576 2.882c2.48 2.785 4.62 5.19 6.438 6.98 2.855 2.85 4.911 4.123 6.878 4.262l.15.011.15-.012c1.968-.139 3.94-1.375 6.805-4.263 1.522-1.52 3.269-3.458 5.294-5.703 1.148-1.272 2.395-2.656 3.776-4.155 14.555-16.172 25.6-31.717 33.761-47.522 5.908-11.42 10.421-23.38 13.413-35.548l.747-3.042h-.047c1.193-5.284 2.123-10.555 2.736-15.715 1.233-10.754 2-22.977 2.278-36.333.19-9.894.023-16.7.022-16.768z"/></g></svg>