<svg viewBox="0 0 160 522" xmlns="http://www.w3.org/2000/svg"><g fill="#3C8A2E" fill-rule="evenodd"><path d="M48.036 324.226c0 6.162-3.174 10.713-8.71 12.487-2.162.697-4.96 1.037-8.56 1.037-3.6 0-6.5-.348-8.636-1.037-5.533-1.774-8.708-6.325-8.708-12.487 0-4.732 2.108-8.775 5.64-10.818.37-.223.764-.322 1.278-.322 1.126 0 2.01.882 2.01 2.01 0 .81-.398 1.488-1.19 2.015-2.346 1.67-3.444 3.935-3.444 7.116 0 4.14 2.01 6.96 5.8 8.158 1.854.616 3.952.866 7.25.866 3.247 0 5.322-.25 7.167-.864 3.8-1.2 5.805-4.02 5.805-8.16 0-3.183-1.093-5.447-3.448-7.123-.78-.513-1.184-1.193-1.184-2.008 0-1.127.886-2.01 2.014-2.01.514 0 .912.1 1.284.327 3.524 2.04 5.632 6.082 5.632 10.814v-.001zm-15.943-27.588c0 6.178 1.784 8.82 5.96 8.82 4.756 0 5.754-4.167 5.754-7.665 0-5.526-2.622-8.957-6.842-8.957h-4.838l-.034 7.802zm15.944 1.768c0 6.976-3.92 11.482-9.984 11.482-6.482 0-10.052-4.51-10.052-12.707v-8.313l-2.345-.03c-5.686 0-8.007 2.338-8.007 8.07 0 2.858 1.03 5.612 1.995 7.235.288.438.458.985.458 1.487 0 1.223-.853 2.08-2.078 2.08-.655 0-1.303-.322-1.78-.882-1.77-2.33-2.82-6.11-2.82-10.123 0-8.3 3.8-12.162 11.96-12.162h13.15c1.82 0 2.433-.207 3.305-.643l2.446-1.29c.3-.153.77-.317 1.197-.317 1.265 0 2.145.94 2.145 2.283 0 .894-.426 1.56-1.34 2.096l-2.25 1.36c2.802 2.638 4.002 5.765 4.002 10.374h-.002zm-.412-45.236c0 1.364-.9 2.216-2.35 2.216h-18.19c-6.304 0-9.37 2.658-9.37 8.14 0 4.995 3.572 8.48 8.688 8.48h18.872c1.45 0 2.35.85 2.35 2.218 0 1.364-.9 2.213-2.35 2.213h-29.09c-1.454 0-2.356-.85-2.356-2.213 0-1.37.9-2.217 2.355-2.217h1.16c-2.57-2.035-3.924-5.226-3.924-9.298 0-7.36 4.78-11.758 12.78-11.758h19.075c1.45 0 2.35.852 2.35 2.217v.002zm-.065-20.712v.887c0 6.25-2.55 8.685-9.095 8.685H18.16l-.033 2.694c0 1.303-.788 2.144-2.013 2.144-1.22 0-2.01-.84-2.01-2.144v-2.658l-8.34-.036c-1.455 0-2.36-.85-2.36-2.212 0-1.368.905-2.217 2.36-2.217h8.306l.033-5.208c0-1.305.79-2.15 2.01-2.15 1.226 0 2.014.845 2.014 2.15v5.18l20.202.03c3.92 0 4.933-1.058 4.933-5.144 0-1.365.864-2.28 2.15-2.28 1.283 0 2.146.915 2.146 2.28l.002-.001zm-29.844-18.664c0 3.998 2.118 6.998 5.805 8.227 1.874.624 3.884.866 7.178.866 3.34 0 5.367-.242 7.234-.865 3.692-1.228 5.806-4.228 5.806-8.226 0-4.103-2.06-7.05-5.804-8.295-1.878-.626-3.907-.87-7.236-.87-3.284 0-5.297.244-7.177.87-3.743 1.245-5.804 4.19-5.804 8.294l-.002-.001zm30.322.001c0 6.113-3.174 10.664-8.706 12.484-2.52.788-5.018 1.108-8.632 1.108-3.572 0-6.05-.32-8.564-1.106-5.538-1.82-8.712-6.37-8.712-12.486 0-6.156 3.174-10.73 8.71-12.555 2.528-.788 5.01-1.11 8.566-1.11 3.602 0 6.1.322 8.626 1.107 5.538 1.827 8.712 6.4 8.712 12.557v.001zm-.413-43.125c0 1.366-.9 2.216-2.35 2.216h-18.19c-6.304 0-9.37 2.664-9.37 8.142 0 4.993 3.572 8.48 8.688 8.48h18.872c1.45 0 2.35.85 2.35 2.218 0 1.365-.9 2.213-2.35 2.213h-29.09c-1.454 0-2.356-.85-2.356-2.214 0-1.367.9-2.217 2.355-2.217h1.16c-2.57-2.036-3.924-5.228-3.924-9.3 0-7.36 4.78-11.754 12.78-11.754h19.075c1.45 0 2.35.85 2.35 2.215v.001zm-29.909-33.4c0 3.928 1.992 6.755 5.604 7.956 1.924.625 3.99.867 7.378.867 3.474 0 5.49-.234 7.442-.867 3.612-1.2 5.598-4.028 5.598-7.955 0-4.048-1.864-6.824-5.394-8.023-1.704-.52-4.35-.797-7.646-.797-3.208 0-5.904.284-7.59.8-3.524 1.196-5.392 3.972-5.392 8.02v-.001zm30.32.615c0 5.654-2.948 9.748-8.298 11.533-2.76.846-5.295 1.176-9.04 1.176-3.656 0-6.255-.34-8.97-1.174-5.36-1.788-8.306-5.882-8.306-11.536 0-4.39 1.302-7.49 3.97-9.434H2.355C.9 128.45 0 127.6 0 126.234s.9-2.213 2.355-2.213h42.92c1.45 0 2.35.848 2.35 2.214 0 1.367-.9 2.216-2.35 2.216h-1.212c2.67 1.944 3.973 5.045 3.973 9.434zM17.58 104.44c0 4.13 2.083 7.077 5.873 8.294 1.292.41 2.686.593 4.516.593L28 95.515c-1.86-.03-3.255.152-4.547.562-3.79 1.22-5.874 4.188-5.874 8.364l.001-.001zm30.456-.411c0 6.458-3.036 10.872-8.776 12.76-2.25.746-4.653 1.04-8.563 1.04-3.84 0-6.242-.294-8.564-1.04-5.538-1.8-8.712-6.3-8.712-12.347 0-6.09 3.175-10.62 8.71-12.417 2.133-.707 4.64-1.04 7.885-1.04 1.224 0 2.078.856 2.078 2.08v20.233c2.756.03 4.048-.12 5.57-.63 3.976-1.323 6.076-4.382 6.076-8.84 0-3.544-1.067-6.09-3.567-8.52-.52-.524-.794-1.086-.794-1.63 0-1.15.835-2.015 1.943-2.015.562 0 1.052.17 1.462.495 3.384 2.678 5.252 6.893 5.252 11.873v-.002zM152.25 305.53l-80.374 30.897c-1.172.395-1.958.588-2.932.588-2.544 0-5.086-1.76-5.086-5.28 0-2.735 1.76-4.3 3.91-5.087l73.53-28.156v-.195l-73.53-27.577c-2.15-.78-3.91-2.345-3.91-5.082 0-3.52 2.542-5.28 5.086-5.28.974 0 1.76.192 2.932.585l80.375 30.897c4.89 1.76 6.455 3.52 6.455 6.847 0 3.324-1.565 5.086-6.454 6.844l-.002-.001zm-23.073-110.41H115.29c-.78 0-1.173.39-1.173 1.173v22.293c0 18.58 5.67 26.402 18.185 26.402 11.54 0 17.6-8.018 17.6-23.076 0-16.035-7.82-26.79-20.725-26.79v-.002zm24.444-16.622c2.932 0 5.085 2.152 5.085 5.476 0 2.153-.98 3.715-3.327 5.084l-7.43 4.496v.393c7.63 6.846 11.93 15.06 11.93 29.726 0 17.99-9.777 31.874-27.576 31.874-18.38 0-27.767-12.905-27.767-35.393v-23.86c0-.783-.39-1.173-1.172-1.173h-6.65c-15.45 0-24.056 5.868-24.056 24.247 0 8.02 2.738 16.037 5.87 21.318.78 1.174 1.17 2.545 1.17 3.715 0 2.936-1.954 4.887-4.89 4.887-1.562 0-3.126-.78-4.3-2.15-4.302-5.67-7.822-15.64-7.822-28.352 0-23.08 10.364-33.834 33.244-33.834h37.743c5.282 0 7.24-.587 9.97-1.954l7.044-3.715c.78-.392 1.953-.782 2.934-.782v-.003zm-.586-76.648h-6.455v.194c8.41 5.277 13.298 14.078 13.298 27.182 0 20.537-12.908 32.265-35.59 32.265H69.53c-3.714 0-5.672-2.15-5.672-5.276 0-3.13 1.958-5.28 5.672-5.28h52.212c18.582 0 27.966-7.823 27.966-24.054 0-14.084-9.972-25.03-26.007-25.03H69.53c-3.714 0-5.672-2.154-5.672-5.283 0-3.132 1.958-5.283 5.672-5.283h83.505c3.71 0 5.67 2.15 5.67 5.283 0 3.13-1.96 5.282-5.67 5.282zm-19.557-88.765c-5.084-1.562-12.908-2.344-22.293-2.344-9.19 0-17.017.783-22.1 2.345-10.95 3.717-16.23 12.322-16.23 24.055 0 11.93 6.257 20.34 16.818 23.86 6.063 1.954 12.32 2.54 21.512 2.54 9.385 0 15.64-.586 21.705-2.54 10.56-3.52 16.818-11.93 16.818-23.86 0-11.733-5.277-20.338-16.23-24.055v-.001zm19.557-2.343h-6.846v.195c8.017 4.496 13.688 12.71 13.688 27.965 0 15.84-8.41 27.18-23.074 32.072-7.627 2.347-14.865 3.322-25.62 3.322-10.56 0-17.798-.975-25.423-3.322-14.665-4.89-23.075-16.23-23.075-32.072 0-15.254 5.67-23.47 13.69-27.965v-.194H29.83c-3.72 0-5.672-2.15-5.672-5.282C24.16 2.33 26.112.18 29.832.18h123.203c3.71 0 5.67 2.15 5.67 5.278 0 3.13-1.96 5.283-5.67 5.283v.001zm-40.13 390.656c0-.528.33-.88.88-.88h7.7c.595 0 .97.396.97.902 0 .53-.375.924-.97.924h-6.49c-.087 0-.132.044-.132.132v4.4c0 .09.045.133.133.133h5.412c.593 0 .968.395.968.9 0 .53-.375.926-.968.926h-5.412c-.088 0-.133.043-.133.13v4.555c0 .09.045.134.133.134h6.49c.594 0 .97.396.97.902 0 .528-.376.924-.97.924h-7.7c-.55 0-.88-.35-.88-.88v-13.202h-.001zm-6.975.067c0-.66.398-1.057.99-1.057.574 0 .97.396.97 1.057v13.07c0 .66-.396 1.055-.97 1.055-.592 0-.99-.396-.99-1.056v-13.07.001zm-6.532 3.365c0-1.562-1.033-2.486-2.772-2.486h-3.5c-.086 0-.13.044-.13.132v4.71c0 .087.044.13.13.13h3.5c1.74 0 2.772-.924 2.772-2.485v-.001zm-8.36 9.704v-13.136c0-.528.33-.88.88-.88h4.686c2.904 0 4.73 1.695 4.73 4.313 0 2.003-1.055 3.455-2.838 4.027l2.685 5.28c.09.177.132.33.132.53 0 .483-.352.923-.945.923-.397 0-.704-.198-.947-.616l-2.948-5.83h-3.345c-.087 0-.13.043-.13.13v5.26c0 .66-.398 1.056-.97 1.056-.594 0-.99-.396-.99-1.056v-.001zm-4.508-14.016c.593 0 .968.396.968.924 0 .507-.375.902-.97.902h-3.453c-.088 0-.132.044-.132.132v12.058c0 .66-.397 1.056-.97 1.056-.593 0-.99-.396-.99-1.056v-12.058c0-.088-.042-.132-.13-.132h-3.455c-.594 0-.968-.395-.968-.902 0-.528.374-.924.968-.924h9.132zM72.206 410.2l-2.376-6.8h-.066l-2.42 6.8h4.862zm-8.295 4.048l4.6-12.74c.242-.704.616-1.1 1.276-1.1s1.078.396 1.32 1.1l4.533 12.74c.043.133.087.286.087.44 0 .55-.418.902-.924.902-.44 0-.792-.242-.946-.704l-1.012-2.882h-6.14l-1.012 2.882c-.153.462-.506.704-.945.704-.507 0-.925-.352-.925-.902 0-.154.044-.307.088-.44zm-3.518-9.264c0-1.627-1.08-2.64-2.927-2.64h-3.344c-.088 0-.132.044-.132.132v5.017c0 .09.044.132.132.132h3.344c1.848 0 2.927-1.012 2.927-2.64v-.001zm-8.362-3.586c0-.528.33-.88.882-.88h4.62c2.992 0 4.797 1.804 4.797 4.466 0 2.663-1.806 4.467-4.798 4.467h-3.41c-.088 0-.132.046-.132.134v4.95c0 .66-.396 1.056-.97 1.056-.593 0-.99-.396-.99-1.056v-13.136l.001-.001zm42.914-14.855c.405 0 .717.327.717.687 0 .345-.312.672-.717.672H92.59c-.06 0-.09.03-.09.09v7.596c0 .45-.327.776-.717.776-.405 0-.73-.327-.73-.776v-7.596c0-.06-.03-.09-.09-.09h-2.356c-.405 0-.717-.327-.717-.672 0-.36.312-.687.717-.687h6.338zm-15.921.6c0-.36.225-.6.6-.6h5.364c.404 0 .66.327.66.672 0 .36-.256.687-.66.687h-4.426c-.06 0-.09.03-.09.09v2.602c0 .06.03.09.09.09h3.69c.406 0 .66.327.66.672 0 .36-.254.687-.66.687h-3.69c-.06 0-.09.03-.09.09v2.707c0 .06.03.09.09.09h4.426c.404 0 .66.327.66.672 0 .36-.256.687-.66.687h-5.364c-.375 0-.6-.242-.6-.6v-8.547.001zm47.17-24.473c.153-.175.33-.286.595-.286.417 0 .747.31.747.727a.88.88 0 0 1-.22.573l-1.52 1.672c-.198.22-.395.33-.66.33a.709.709 0 0 1-.704-.704c0-.22.088-.417.242-.594l1.52-1.715v-.003zm-5.545 5.502c0-.53.33-.88.88-.88h7.7c.594 0 .97.395.97.9 0 .53-.376.926-.97.926h-6.49c-.088 0-.133.044-.133.132v4.4c0 .088.045.133.133.133h5.412c.594 0 .97.395.97.9 0 .53-.376.926-.97.926h-5.412c-.088 0-.133.042-.133.13v4.555c0 .088.045.132.133.132h6.49c.594 0 .97.397.97.903 0 .527-.376.924-.97.924h-7.7c-.55 0-.88-.352-.88-.88v-13.202.001zm-4.509-.88c.594 0 .97.395.97.923 0 .507-.376.903-.97.903h-3.454c-.088 0-.132.044-.132.132v12.057c0 .66-.396 1.056-.97 1.056-.592 0-.99-.396-.99-1.056V369.25c0-.088-.042-.132-.13-.132h-3.455c-.594 0-.97-.396-.97-.903 0-.528.376-.923.97-.923h9.131zm-15.048 4.312c0-1.562-1.034-2.486-2.772-2.486h-3.498c-.088 0-.133.044-.133.132v4.71c0 .087.044.13.132.13h3.498c1.738 0 2.772-.924 2.772-2.486h.001zm-8.36 9.703v-13.135c0-.53.33-.88.88-.88h4.686c2.905 0 4.73 1.694 4.73 4.312 0 2.002-1.056 3.454-2.838 4.027l2.685 5.282c.087.176.13.33.13.527 0 .483-.35.923-.945.923-.395 0-.703-.197-.945-.615l-2.95-5.83h-3.343c-.088 0-.133.043-.133.13v5.26c0 .66-.396 1.055-.97 1.055-.594 0-.99-.396-.99-1.056h.003zm-13.707-13.135c0-.53.33-.88.88-.88h7.702c.594 0 .968.395.968.9 0 .53-.374.926-.968.926h-6.49c-.09 0-.133.044-.133.132v4.4c0 .088.044.133.132.133h5.413c.593 0 .967.395.967.9 0 .53-.374.926-.968.926h-5.414c-.088 0-.132.042-.132.13v4.555c0 .088.044.132.132.132h6.49c.595 0 .97.397.97.903 0 .527-.375.924-.97.924h-7.7c-.55 0-.88-.352-.88-.88v-13.202l.001.001zM66.508 380.47h3.498c1.783 0 2.75-.966 2.75-2.463 0-1.474-.967-2.464-2.75-2.464h-3.498c-.088 0-.132.044-.132.13v4.667c0 .087.044.13.132.13zm3.388-6.71c1.65 0 2.62-.946 2.62-2.333 0-1.43-.97-2.353-2.62-2.353h-3.388c-.088 0-.132.044-.132.132v4.423c0 .086.044.13.132.13h3.388v.001zm-5.478-5.588c0-.53.33-.88.88-.88h4.642c2.993 0 4.51 1.54 4.51 3.917 0 1.737-.79 2.815-2.023 3.276v.045c1.078.286 2.288 1.497 2.288 3.455 0 2.816-1.804 4.27-4.84 4.27h-4.577c-.55 0-.88-.332-.88-.88V368.17v.002zm-6.974.066c0-.66.396-1.057.99-1.057.572 0 .968.398.968 1.058v13.07c0 .66-.396 1.055-.968 1.055-.594 0-.99-.396-.99-1.056v-13.07zm-13.156 0c0-.66.396-1.057.968-1.057.573 0 .99.398.99 1.058v12.057c0 .088.044.132.132.132h6.492c.593 0 .967.397.967.903 0 .527-.374.924-.967.924h-7.636c-.594 0-.946-.374-.946-.97v-13.047z"/><path d="M154.72 371.377c-.29 13.04-1.082 24.96-2.357 35.42-.666 5.28-1.686 10.697-3.033 16.124H24.933a137.9 137.9 0 0 1-3.007-16.13c-1.705-13.18-2.307-26.534-2.512-35.416-.147-6.27-.125-11.26-.092-14.005h135.463c.035 2.747.062 7.74-.065 14.007zm-9.77 65.89l-6.937-9.547h10.038a144.204 144.204 0 0 1-3.1 9.548l-.001-.001zm-85.704-9.547l49.455 68.07a286.007 286.007 0 0 1-4.883 5.395L50.444 427.72h8.802zm12.51 0l43.676 60.116c-1.52 1.87-3.09 3.748-4.71 5.63L62.954 427.72h8.802zm12.51 0l37.618 51.78a218.72 218.72 0 0 1-4.51 5.906l-41.91-57.686h8.802zm12.51 0l31.233 42.992a195.709 195.709 0 0 1-4.274 6.232L87.973 427.72h8.803zm12.51 0l24.458 33.664a177.128 177.128 0 0 1-3.993 6.622l-29.266-40.286h8.802-.001zm12.51 0l17.21 23.69a155.217 155.217 0 0 1-3.65 7.09l-22.362-30.78h8.802zm12.508 0l9.383 12.915a150.36 150.36 0 0 1-3.232 7.663l-14.95-20.578h8.8-.001zm-37.588 80.91l-58.783-80.91h8.802l54.993 75.692c-.404.428-.8.853-1.21 1.28-1.376 1.408-2.634 2.72-3.802 3.937v.001zm-5.572 5.657a28.36 28.36 0 0 1-1.724 1.52L26.746 429.54c-.18-.607-.372-1.212-.543-1.82h8.023l60.378 83.104c-1.278 1.322-2.44 2.502-3.46 3.463zm-14.667-6.71c-.858-.905-1.763-1.862-2.725-2.87-15-15.584-26.378-30.616-34.78-45.954a151.547 151.547 0 0 1-9.058-19.747l56.643 77.962c-.677-.32-1.776-1.054-3.528-2.7-1.806-1.675-4.006-4-6.553-6.69l.001-.001zm83.065-152.672a2.401 2.401 0 0 0-2.4-2.336H16.964a2.4 2.4 0 0 0-2.4 2.334c0 .066-.178 6.8.05 16.58.21 8.998.82 22.533 2.55 35.91.64 5.153 1.59 10.266 2.847 15.527h-.047l.777 2.996.002.007v.002c3.124 12.043 7.84 23.864 14.02 35.135 8.61 15.715 20.23 31.08 35.524 46.97.95.994 1.85 1.945 2.705 2.848 2.606 2.752 4.855 5.13 6.764 6.9 2.998 2.815 5.158 4.074 7.224 4.21l.158.012.158-.012c2.066-.137 4.138-1.36 7.147-4.213 1.6-1.502 3.434-3.418 5.56-5.637 1.207-1.257 2.517-2.625 3.968-4.107 15.288-15.983 26.888-31.347 35.46-46.968 6.206-11.288 10.947-23.11 14.09-35.135l.784-3.006h-.05c1.254-5.222 2.23-10.432 2.874-15.532 1.295-10.63 2.1-22.71 2.393-35.91.198-9.78.023-16.506.022-16.573l-.002-.002z"/></g></svg>