<?xml version="1.0" encoding="UTF-8"?>
<svg viewBox="0 0 160 522" version="1.1" xmlns="http://www.w3.org/2000/svg" xmlns:xlink="http://www.w3.org/1999/xlink">
    <!-- Generator: Sketch 40.3 (33839) - http://www.bohemiancoding.com/sketch -->
    <title>logo--white</title>
    <desc>Created with Sketch.</desc>
    <defs></defs>
    <g id="Page-1" stroke="none" stroke-width="1" fill="none" fill-rule="evenodd">
        <g id="logo--white" fill="#FFFFFF">
            <g id="Group">
                <path d="M48.036,324.226 C48.036,330.388 44.862,334.939 39.326,336.713 C37.164,337.41 34.366,337.75 30.766,337.75 C27.166,337.75 24.266,337.402 22.13,336.713 C16.597,334.939 13.422,330.388 13.422,324.226 C13.422,319.494 15.53,315.451 19.062,313.408 C19.432,313.185 19.826,313.086 20.34,313.086 C21.466,313.086 22.35,313.968 22.35,315.096 C22.35,315.906 21.952,316.584 21.16,317.111 C18.814,318.781 17.716,321.046 17.716,324.227 C17.716,328.367 19.726,331.187 23.516,332.385 C25.37,333.001 27.468,333.251 30.766,333.251 C34.013,333.251 36.088,333.001 37.933,332.387 C41.733,331.187 43.738,328.367 43.738,324.227 C43.738,321.044 42.645,318.78 40.29,317.104 C39.51,316.591 39.106,315.911 39.106,315.096 C39.106,313.969 39.992,313.086 41.12,313.086 C41.634,313.086 42.032,313.186 42.404,313.413 C45.928,315.453 48.036,319.495 48.036,324.227 L48.036,324.226 Z M32.093,296.638 C32.093,302.816 33.877,305.458 38.053,305.458 C42.809,305.458 43.807,301.291 43.807,297.793 C43.807,292.267 41.185,288.836 36.965,288.836 L32.127,288.836 L32.093,296.638 L32.093,296.638 Z M48.037,298.406 C48.037,305.382 44.117,309.888 38.053,309.888 C31.571,309.888 28.001,305.378 28.001,297.181 L28.001,288.868 L25.656,288.838 C19.97,288.838 17.649,291.176 17.649,296.908 C17.649,299.766 18.679,302.52 19.644,304.143 C19.932,304.581 20.102,305.128 20.102,305.63 C20.102,306.853 19.249,307.71 18.024,307.71 C17.369,307.71 16.721,307.388 16.244,306.828 C14.474,304.498 13.424,300.718 13.424,296.705 C13.424,288.405 17.224,284.543 25.384,284.543 L38.534,284.543 C40.354,284.543 40.967,284.336 41.839,283.9 L44.285,282.61 C44.585,282.457 45.055,282.293 45.482,282.293 C46.747,282.293 47.627,283.233 47.627,284.576 C47.627,285.47 47.201,286.136 46.287,286.672 L44.037,288.032 C46.839,290.67 48.039,293.797 48.039,298.406 L48.037,298.406 Z M47.625,253.17 C47.625,254.534 46.725,255.386 45.275,255.386 L27.085,255.386 C20.781,255.386 17.715,258.044 17.715,263.526 C17.715,268.521 21.287,272.006 26.403,272.006 L45.275,272.006 C46.725,272.006 47.625,272.856 47.625,274.224 C47.625,275.588 46.725,276.437 45.275,276.437 L16.185,276.437 C14.731,276.437 13.829,275.587 13.829,274.224 C13.829,272.854 14.729,272.007 16.184,272.007 L17.344,272.007 C14.774,269.972 13.42,266.781 13.42,262.709 C13.42,255.349 18.2,250.951 26.2,250.951 L45.275,250.951 C46.725,250.951 47.625,251.803 47.625,253.168 L47.625,253.17 Z M47.56,232.458 L47.56,233.345 C47.56,239.595 45.01,242.03 38.465,242.03 L18.16,242.03 L18.127,244.724 C18.127,246.027 17.339,246.868 16.114,246.868 C14.894,246.868 14.104,246.028 14.104,244.724 L14.104,242.066 L5.764,242.03 C4.309,242.03 3.404,241.18 3.404,239.818 C3.404,238.45 4.309,237.601 5.764,237.601 L14.07,237.601 L14.103,232.393 C14.103,231.088 14.893,230.243 16.113,230.243 C17.339,230.243 18.127,231.088 18.127,232.393 L18.127,237.573 L38.329,237.603 C42.249,237.603 43.262,236.545 43.262,232.459 C43.262,231.094 44.126,230.179 45.412,230.179 C46.695,230.179 47.558,231.094 47.558,232.459 L47.56,232.458 Z M17.716,213.794 C17.716,217.792 19.834,220.792 23.521,222.021 C25.395,222.645 27.405,222.887 30.699,222.887 C34.039,222.887 36.066,222.645 37.933,222.022 C41.625,220.794 43.739,217.794 43.739,213.796 C43.739,209.693 41.679,206.746 37.935,205.501 C36.057,204.875 34.028,204.631 30.699,204.631 C27.415,204.631 25.402,204.875 23.522,205.501 C19.779,206.746 17.718,209.691 17.718,213.795 L17.716,213.794 Z M48.038,213.795 C48.038,219.908 44.864,224.459 39.332,226.279 C36.812,227.067 34.314,227.387 30.7,227.387 C27.128,227.387 24.65,227.067 22.136,226.281 C16.598,224.461 13.424,219.911 13.424,213.795 C13.424,207.639 16.598,203.065 22.134,201.24 C24.662,200.452 27.144,200.13 30.7,200.13 C34.302,200.13 36.8,200.452 39.326,201.237 C44.864,203.064 48.038,207.637 48.038,213.794 L48.038,213.795 Z M47.625,170.67 C47.625,172.036 46.725,172.886 45.275,172.886 L27.085,172.886 C20.781,172.886 17.715,175.55 17.715,181.028 C17.715,186.021 21.287,189.508 26.403,189.508 L45.275,189.508 C46.725,189.508 47.625,190.358 47.625,191.726 C47.625,193.091 46.725,193.939 45.275,193.939 L16.185,193.939 C14.731,193.939 13.829,193.089 13.829,191.725 C13.829,190.358 14.729,189.508 16.184,189.508 L17.344,189.508 C14.774,187.472 13.42,184.28 13.42,180.208 C13.42,172.848 18.2,168.454 26.2,168.454 L45.275,168.454 C46.725,168.454 47.625,169.304 47.625,170.669 L47.625,170.67 Z M17.716,137.27 C17.716,141.198 19.708,144.025 23.32,145.226 C25.244,145.851 27.31,146.093 30.698,146.093 C34.172,146.093 36.188,145.859 38.14,145.226 C41.752,144.026 43.738,141.198 43.738,137.271 C43.738,133.223 41.874,130.447 38.344,129.248 C36.64,128.728 33.994,128.451 30.698,128.451 C27.49,128.451 24.794,128.735 23.108,129.251 C19.584,130.447 17.716,133.223 17.716,137.271 L17.716,137.27 Z M48.036,137.885 C48.036,143.539 45.088,147.633 39.738,149.418 C36.978,150.264 34.443,150.594 30.698,150.594 C27.042,150.594 24.443,150.254 21.728,149.42 C16.368,147.632 13.422,143.538 13.422,137.884 C13.422,133.494 14.724,130.394 17.392,128.45 L2.355,128.45 C0.9,128.45 0,127.6 0,126.234 C0,124.868 0.9,124.021 2.355,124.021 L45.275,124.021 C46.725,124.021 47.625,124.869 47.625,126.235 C47.625,127.602 46.725,128.451 45.275,128.451 L44.063,128.451 C46.733,130.395 48.036,133.496 48.036,137.885 L48.036,137.885 Z M17.58,104.44 C17.58,108.57 19.663,111.517 23.453,112.734 C24.745,113.144 26.139,113.327 27.969,113.327 L28,95.515 C26.14,95.485 24.745,95.667 23.453,96.077 C19.663,97.297 17.579,100.265 17.579,104.441 L17.58,104.44 Z M48.036,104.029 C48.036,110.487 45,114.901 39.26,116.789 C37.01,117.535 34.607,117.829 30.697,117.829 C26.857,117.829 24.455,117.535 22.133,116.789 C16.595,114.989 13.421,110.489 13.421,104.442 C13.421,98.352 16.596,93.822 22.131,92.025 C24.264,91.318 26.771,90.985 30.016,90.985 C31.24,90.985 32.094,91.841 32.094,93.065 L32.094,113.298 C34.85,113.328 36.142,113.178 37.664,112.668 C41.64,111.345 43.74,108.286 43.74,103.828 C43.74,100.284 42.673,97.738 40.173,95.308 C39.653,94.784 39.379,94.222 39.379,93.678 C39.379,92.528 40.214,91.663 41.322,91.663 C41.884,91.663 42.374,91.833 42.784,92.158 C46.168,94.836 48.036,99.051 48.036,104.031 L48.036,104.029 Z M152.25,305.53 L71.876,336.427 C70.704,336.822 69.918,337.015 68.944,337.015 C66.4,337.015 63.858,335.255 63.858,331.735 C63.858,329 65.618,327.435 67.768,326.648 L141.298,298.492 L141.298,298.297 L67.768,270.72 C65.618,269.94 63.858,268.375 63.858,265.638 C63.858,262.118 66.4,260.358 68.944,260.358 C69.918,260.358 70.704,260.55 71.876,260.943 L152.251,291.84 C157.141,293.6 158.706,295.36 158.706,298.687 C158.706,302.011 157.141,303.773 152.252,305.531 L152.25,305.53 Z M129.177,195.12 L115.29,195.12 C114.51,195.12 114.117,195.51 114.117,196.293 L114.117,218.586 C114.117,237.166 119.787,244.988 132.302,244.988 C143.842,244.988 149.902,236.97 149.902,221.912 C149.902,205.877 142.082,195.122 129.177,195.122 L129.177,195.12 Z M153.621,178.498 C156.553,178.498 158.706,180.65 158.706,183.974 C158.706,186.127 157.726,187.689 155.379,189.058 L147.949,193.554 L147.949,193.947 C155.579,200.793 159.879,209.007 159.879,223.673 C159.879,241.663 150.102,255.547 132.303,255.547 C113.923,255.547 104.536,242.642 104.536,220.154 L104.536,196.294 C104.536,195.511 104.146,195.121 103.364,195.121 L96.714,195.121 C81.264,195.121 72.658,200.989 72.658,219.368 C72.658,227.388 75.396,235.405 78.528,240.686 C79.308,241.86 79.698,243.231 79.698,244.401 C79.698,247.337 77.744,249.288 74.808,249.288 C73.246,249.288 71.682,248.508 70.508,247.138 C66.206,241.468 62.686,231.498 62.686,218.786 C62.686,195.706 73.05,184.952 95.93,184.952 L133.673,184.952 C138.955,184.952 140.913,184.365 143.643,182.998 L150.687,179.283 C151.467,178.891 152.64,178.501 153.621,178.501 L153.621,178.498 Z M153.035,101.85 L146.58,101.85 L146.58,102.044 C154.99,107.321 159.878,116.122 159.878,129.226 C159.878,149.763 146.97,161.491 124.288,161.491 L69.53,161.491 C65.816,161.491 63.858,159.341 63.858,156.215 C63.858,153.085 65.816,150.935 69.53,150.935 L121.742,150.935 C140.324,150.935 149.708,143.112 149.708,126.881 C149.708,112.797 139.736,101.851 123.701,101.851 L69.53,101.851 C65.816,101.851 63.858,99.697 63.858,96.568 C63.858,93.436 65.816,91.285 69.53,91.285 L153.035,91.285 C156.745,91.285 158.705,93.435 158.705,96.568 C158.705,99.698 156.745,101.85 153.035,101.85 L153.035,101.85 Z M133.478,13.085 C128.394,11.523 120.57,10.741 111.185,10.741 C101.995,10.741 94.168,11.524 89.085,13.086 C78.135,16.803 72.855,25.408 72.855,37.141 C72.855,49.071 79.112,57.481 89.673,61.001 C95.736,62.955 101.993,63.541 111.185,63.541 C120.57,63.541 126.825,62.955 132.89,61.001 C143.45,57.481 149.708,49.071 149.708,37.141 C149.708,25.408 144.431,16.803 133.478,13.086 L133.478,13.085 Z M153.035,10.742 L146.189,10.742 L146.189,10.937 C154.206,15.433 159.877,23.647 159.877,38.902 C159.877,54.742 151.467,66.082 136.803,70.974 C129.176,73.321 121.938,74.296 111.183,74.296 C100.623,74.296 93.385,73.321 85.76,70.974 C71.095,66.084 62.685,54.744 62.685,38.902 C62.685,23.648 68.355,15.432 76.375,10.937 L76.375,10.743 L29.83,10.743 C26.11,10.743 24.158,8.593 24.158,5.461 C24.16,2.33 26.112,0.18 29.832,0.18 L153.035,0.18 C156.745,0.18 158.705,2.33 158.705,5.458 C158.705,8.588 156.745,10.741 153.035,10.741 L153.035,10.742 Z" id="Shape"></path>
                <g transform="translate(14.000000, 352.000000)" id="Shape">
                    <path d="M98.905,49.398 C98.905,48.87 99.235,48.518 99.785,48.518 L107.485,48.518 C108.08,48.518 108.455,48.914 108.455,49.42 C108.455,49.95 108.08,50.344 107.485,50.344 L100.995,50.344 C100.908,50.344 100.863,50.388 100.863,50.476 L100.863,54.876 C100.863,54.966 100.908,55.009 100.996,55.009 L106.408,55.009 C107.001,55.009 107.376,55.404 107.376,55.909 C107.376,56.439 107.001,56.835 106.408,56.835 L100.996,56.835 C100.908,56.835 100.863,56.878 100.863,56.965 L100.863,61.52 C100.863,61.61 100.908,61.654 100.996,61.654 L107.486,61.654 C108.08,61.654 108.456,62.05 108.456,62.556 C108.456,63.084 108.08,63.48 107.486,63.48 L99.786,63.48 C99.236,63.48 98.906,63.13 98.906,62.6 L98.906,49.398 L98.905,49.398 Z M91.93,49.465 C91.93,48.805 92.328,48.408 92.92,48.408 C93.494,48.408 93.89,48.804 93.89,49.465 L93.89,62.535 C93.89,63.195 93.494,63.59 92.92,63.59 C92.328,63.59 91.93,63.194 91.93,62.534 L91.93,49.464 L91.93,49.465 Z M85.398,52.83 C85.398,51.268 84.365,50.344 82.626,50.344 L79.126,50.344 C79.04,50.344 78.996,50.388 78.996,50.476 L78.996,55.186 C78.996,55.273 79.04,55.316 79.126,55.316 L82.626,55.316 C84.366,55.316 85.398,54.392 85.398,52.831 L85.398,52.83 Z M77.038,62.534 L77.038,49.398 C77.038,48.87 77.368,48.518 77.918,48.518 L82.604,48.518 C85.508,48.518 87.334,50.213 87.334,52.831 C87.334,54.834 86.279,56.286 84.496,56.858 L87.181,62.138 C87.271,62.315 87.313,62.468 87.313,62.668 C87.313,63.151 86.961,63.591 86.368,63.591 C85.971,63.591 85.664,63.393 85.421,62.975 L82.473,57.145 L79.128,57.145 C79.041,57.145 78.998,57.188 78.998,57.275 L78.998,62.535 C78.998,63.195 78.6,63.591 78.028,63.591 C77.434,63.591 77.038,63.195 77.038,62.535 L77.038,62.534 Z M72.53,48.518 C73.123,48.518 73.498,48.914 73.498,49.442 C73.498,49.949 73.123,50.344 72.528,50.344 L69.075,50.344 C68.987,50.344 68.943,50.388 68.943,50.476 L68.943,62.534 C68.943,63.194 68.546,63.59 67.973,63.59 C67.38,63.59 66.983,63.194 66.983,62.534 L66.983,50.476 C66.983,50.388 66.941,50.344 66.853,50.344 L63.398,50.344 C62.804,50.344 62.43,49.949 62.43,49.442 C62.43,48.914 62.804,48.518 63.398,48.518 L72.528,48.518 L72.53,48.518 Z M58.206,58.2 L55.83,51.4 L55.764,51.4 L53.344,58.2 L58.206,58.2 L58.206,58.2 Z M49.911,62.248 L54.511,49.508 C54.753,48.804 55.127,48.408 55.787,48.408 C56.447,48.408 56.865,48.804 57.107,49.508 L61.64,62.248 C61.683,62.381 61.727,62.534 61.727,62.688 C61.727,63.238 61.309,63.59 60.803,63.59 C60.363,63.59 60.011,63.348 59.857,62.886 L58.845,60.004 L52.705,60.004 L51.693,62.886 C51.54,63.348 51.187,63.59 50.748,63.59 C50.241,63.59 49.823,63.238 49.823,62.688 C49.823,62.534 49.867,62.381 49.911,62.248 L49.911,62.248 Z M46.393,52.984 C46.393,51.357 45.313,50.344 43.466,50.344 L40.122,50.344 C40.034,50.344 39.99,50.388 39.99,50.476 L39.99,55.493 C39.99,55.583 40.034,55.625 40.122,55.625 L43.466,55.625 C45.314,55.625 46.393,54.613 46.393,52.985 L46.393,52.984 Z M38.031,49.398 C38.031,48.87 38.361,48.518 38.913,48.518 L43.533,48.518 C46.525,48.518 48.33,50.322 48.33,52.984 C48.33,55.647 46.524,57.451 43.532,57.451 L40.122,57.451 C40.034,57.451 39.99,57.497 39.99,57.585 L39.99,62.535 C39.99,63.195 39.594,63.591 39.02,63.591 C38.427,63.591 38.03,63.195 38.03,62.535 L38.03,49.399 L38.031,49.398 Z M80.945,34.543 C81.35,34.543 81.662,34.87 81.662,35.23 C81.662,35.575 81.35,35.902 80.945,35.902 L78.59,35.902 C78.53,35.902 78.5,35.932 78.5,35.992 L78.5,43.588 C78.5,44.038 78.173,44.364 77.783,44.364 C77.378,44.364 77.053,44.037 77.053,43.588 L77.053,35.992 C77.053,35.932 77.023,35.902 76.963,35.902 L74.607,35.902 C74.202,35.902 73.89,35.575 73.89,35.23 C73.89,34.87 74.202,34.543 74.607,34.543 L80.945,34.543 L80.945,34.543 Z M65.024,35.143 C65.024,34.783 65.249,34.543 65.624,34.543 L70.988,34.543 C71.392,34.543 71.648,34.87 71.648,35.215 C71.648,35.575 71.392,35.902 70.988,35.902 L66.562,35.902 C66.502,35.902 66.472,35.932 66.472,35.992 L66.472,38.594 C66.472,38.654 66.502,38.684 66.562,38.684 L70.252,38.684 C70.658,38.684 70.912,39.011 70.912,39.356 C70.912,39.716 70.658,40.043 70.252,40.043 L66.562,40.043 C66.502,40.043 66.472,40.073 66.472,40.133 L66.472,42.84 C66.472,42.9 66.502,42.93 66.562,42.93 L70.988,42.93 C71.392,42.93 71.648,43.257 71.648,43.602 C71.648,43.962 71.392,44.289 70.988,44.289 L65.624,44.289 C65.249,44.289 65.024,44.047 65.024,43.689 L65.024,35.142 L65.024,35.143 Z M112.194,10.67 C112.347,10.495 112.524,10.384 112.789,10.384 C113.206,10.384 113.536,10.694 113.536,11.111 C113.536,11.331 113.448,11.531 113.316,11.684 L111.796,13.356 C111.598,13.576 111.401,13.686 111.136,13.686 C110.762,13.686 110.432,13.378 110.432,12.982 C110.432,12.762 110.52,12.565 110.674,12.388 L112.194,10.673 L112.194,10.67 Z M106.649,16.172 C106.649,15.642 106.979,15.292 107.529,15.292 L115.229,15.292 C115.823,15.292 116.199,15.687 116.199,16.192 C116.199,16.722 115.823,17.118 115.229,17.118 L108.739,17.118 C108.651,17.118 108.606,17.162 108.606,17.25 L108.606,21.65 C108.606,21.738 108.651,21.783 108.739,21.783 L114.151,21.783 C114.745,21.783 115.121,22.178 115.121,22.683 C115.121,23.213 114.745,23.609 114.151,23.609 L108.739,23.609 C108.651,23.609 108.606,23.651 108.606,23.739 L108.606,28.294 C108.606,28.382 108.651,28.426 108.739,28.426 L115.229,28.426 C115.823,28.426 116.199,28.823 116.199,29.329 C116.199,29.856 115.823,30.253 115.229,30.253 L107.529,30.253 C106.979,30.253 106.649,29.901 106.649,29.373 L106.649,16.171 L106.649,16.172 Z M102.14,15.292 C102.734,15.292 103.11,15.687 103.11,16.215 C103.11,16.722 102.734,17.118 102.14,17.118 L98.686,17.118 C98.598,17.118 98.554,17.162 98.554,17.25 L98.554,29.307 C98.554,29.967 98.158,30.363 97.584,30.363 C96.992,30.363 96.594,29.967 96.594,29.307 L96.594,17.25 C96.594,17.162 96.552,17.118 96.464,17.118 L93.009,17.118 C92.415,17.118 92.039,16.722 92.039,16.215 C92.039,15.687 92.415,15.292 93.009,15.292 L102.139,15.292 L102.14,15.292 Z M87.092,19.604 C87.092,18.042 86.058,17.118 84.32,17.118 L80.822,17.118 C80.734,17.118 80.689,17.162 80.689,17.25 L80.689,21.96 C80.689,22.047 80.733,22.09 80.821,22.09 L84.319,22.09 C86.057,22.09 87.091,21.166 87.091,19.604 L87.092,19.604 Z M78.732,29.307 L78.732,16.172 C78.732,15.642 79.062,15.292 79.612,15.292 L84.298,15.292 C87.203,15.292 89.028,16.986 89.028,19.604 C89.028,21.606 87.972,23.058 86.19,23.631 L88.875,28.913 C88.962,29.089 89.005,29.243 89.005,29.44 C89.005,29.923 88.655,30.363 88.06,30.363 C87.665,30.363 87.357,30.166 87.115,29.748 L84.165,23.918 L80.822,23.918 C80.734,23.918 80.689,23.961 80.689,24.048 L80.689,29.308 C80.689,29.968 80.293,30.363 79.719,30.363 C79.125,30.363 78.729,29.967 78.729,29.307 L78.732,29.307 Z M65.025,16.172 C65.025,15.642 65.355,15.292 65.905,15.292 L73.607,15.292 C74.201,15.292 74.575,15.687 74.575,16.192 C74.575,16.722 74.201,17.118 73.607,17.118 L67.117,17.118 C67.027,17.118 66.984,17.162 66.984,17.25 L66.984,21.65 C66.984,21.738 67.028,21.783 67.116,21.783 L72.529,21.783 C73.122,21.783 73.496,22.178 73.496,22.683 C73.496,23.213 73.122,23.609 72.528,23.609 L67.114,23.609 C67.026,23.609 66.982,23.651 66.982,23.739 L66.982,28.294 C66.982,28.382 67.026,28.426 67.114,28.426 L73.604,28.426 C74.199,28.426 74.574,28.823 74.574,29.329 C74.574,29.856 74.199,30.253 73.604,30.253 L65.904,30.253 C65.354,30.253 65.024,29.901 65.024,29.373 L65.024,16.171 L65.025,16.172 Z M52.508,28.47 L56.006,28.47 C57.789,28.47 58.756,27.504 58.756,26.007 C58.756,24.533 57.789,23.543 56.006,23.543 L52.508,23.543 C52.42,23.543 52.376,23.587 52.376,23.673 L52.376,28.34 C52.376,28.427 52.42,28.47 52.508,28.47 L52.508,28.47 Z M55.896,21.76 C57.546,21.76 58.516,20.814 58.516,19.427 C58.516,17.997 57.546,17.074 55.896,17.074 L52.508,17.074 C52.42,17.074 52.376,17.118 52.376,17.206 L52.376,21.629 C52.376,21.715 52.42,21.759 52.508,21.759 L55.896,21.759 L55.896,21.76 Z M50.418,16.172 C50.418,15.642 50.748,15.292 51.298,15.292 L55.94,15.292 C58.933,15.292 60.45,16.832 60.45,19.209 C60.45,20.946 59.66,22.024 58.427,22.485 L58.427,22.53 C59.505,22.816 60.715,24.027 60.715,25.985 C60.715,28.801 58.911,30.255 55.875,30.255 L51.298,30.255 C50.748,30.255 50.418,29.923 50.418,29.375 L50.418,16.17 L50.418,16.172 Z M43.444,16.238 C43.444,15.578 43.84,15.181 44.434,15.181 C45.006,15.181 45.402,15.579 45.402,16.239 L45.402,29.309 C45.402,29.969 45.006,30.364 44.434,30.364 C43.84,30.364 43.444,29.968 43.444,29.308 L43.444,16.238 L43.444,16.238 Z M30.288,16.238 C30.288,15.578 30.684,15.181 31.256,15.181 C31.829,15.181 32.246,15.579 32.246,16.239 L32.246,28.296 C32.246,28.384 32.29,28.428 32.378,28.428 L38.87,28.428 C39.463,28.428 39.837,28.825 39.837,29.331 C39.837,29.858 39.463,30.255 38.87,30.255 L31.234,30.255 C30.64,30.255 30.288,29.881 30.288,29.285 L30.288,16.24 L30.288,16.238 Z"></path>
                    <path d="M140.72,19.377 C140.43,32.417 139.638,44.337 138.363,54.797 C137.697,60.077 136.677,65.494 135.33,70.921 L10.933,70.921 C9.578,65.434 8.593,60.141 7.926,54.791 C6.221,41.611 5.619,28.257 5.414,19.375 C5.267,13.105 5.289,8.115 5.322,5.37 L140.785,5.37 C140.82,8.117 140.847,13.11 140.72,19.377 L140.72,19.377 Z M130.95,85.267 L124.013,75.72 L134.051,75.72 C133.139,78.923 132.095,82.105 130.951,85.268 L130.95,85.267 Z M45.246,75.72 L94.701,143.79 C93.123,145.582 91.491,147.38 89.818,149.185 L36.444,75.72 L45.246,75.72 L45.246,75.72 Z M57.756,75.72 L101.432,135.836 C99.912,137.706 98.342,139.584 96.722,141.466 L48.954,75.72 L57.754,75.72 L57.756,75.72 Z M70.266,75.72 L107.884,127.5 C106.436,129.465 104.934,131.433 103.374,133.406 L61.464,75.72 L70.266,75.72 L70.266,75.72 Z M82.776,75.72 L114.009,118.712 C112.645,120.788 111.219,122.865 109.735,124.944 L73.973,75.72 L82.776,75.72 L82.776,75.72 Z M95.286,75.72 L119.744,109.384 C118.478,111.594 117.146,113.8 115.751,116.006 L86.485,75.72 L95.287,75.72 L95.286,75.72 Z M107.796,75.72 L125.006,99.41 C123.856,101.794 122.638,104.158 121.356,106.5 L98.994,75.72 L107.794,75.72 L107.796,75.72 Z M120.304,75.72 L129.687,88.635 C128.685,91.209 127.607,93.763 126.455,96.298 L111.505,75.72 L120.305,75.72 L120.304,75.72 Z M82.716,156.63 L23.933,75.72 L32.735,75.72 L87.728,151.412 C87.324,151.84 86.928,152.265 86.518,152.692 C85.142,154.1 83.884,155.412 82.716,156.629 L82.716,156.63 Z M77.144,162.287 C76.474,162.922 75.912,163.411 75.42,163.807 L12.746,77.54 C12.566,76.933 12.374,76.328 12.203,75.72 L20.226,75.72 L80.604,158.824 C79.326,160.146 78.164,161.326 77.144,162.287 L77.144,162.287 Z M62.477,155.577 C61.619,154.672 60.714,153.715 59.752,152.707 C44.752,137.123 33.374,122.091 24.972,106.753 C21.452,100.333 18.428,93.726 15.914,87.006 L72.557,164.968 C71.88,164.648 70.781,163.914 69.029,162.268 C67.223,160.593 65.023,158.268 62.476,155.578 L62.477,155.577 Z M145.542,2.905 C145.507,1.605 144.442,0.569 143.142,0.569 L2.964,0.569 C1.664,0.569 0.6,1.603 0.564,2.903 C0.564,2.969 0.386,9.703 0.614,19.483 C0.824,28.481 1.434,42.016 3.164,55.393 C3.804,60.546 4.754,65.659 6.011,70.92 L5.964,70.92 L6.741,73.916 L6.743,73.923 L6.743,73.925 C9.867,85.968 14.583,97.789 20.763,109.06 C29.373,124.775 40.993,140.14 56.287,156.03 C57.237,157.024 58.137,157.975 58.992,158.878 C61.598,161.63 63.847,164.008 65.756,165.778 C68.754,168.593 70.914,169.852 72.98,169.988 L73.138,170 L73.296,169.988 C75.362,169.851 77.434,168.628 80.443,165.775 C82.043,164.273 83.877,162.357 86.003,160.138 C87.21,158.881 88.52,157.513 89.971,156.031 C105.259,140.048 116.859,124.684 125.431,109.063 C131.637,97.775 136.378,85.953 139.521,73.928 L140.305,70.922 L140.255,70.922 C141.509,65.7 142.485,60.49 143.129,55.39 C144.424,44.76 145.229,32.68 145.522,19.48 C145.72,9.7 145.545,2.974 145.544,2.907 L145.542,2.905 Z"></path>
                </g>
            </g>
        </g>
    </g>
</svg>
