<?xml version="1.0" standalone="no"?>
<!DOCTYPE svg PUBLIC "-//W3C//DTD SVG 1.1//EN" "http://www.w3.org/Graphics/SVG/1.1/DTD/svg11.dtd" >
<svg xmlns="http://www.w3.org/2000/svg">
<metadata></metadata>
<defs>
<font id="museo_sans_cond700_italic" horiz-adv-x="488" >
<font-face units-per-em="1000" ascent="750" descent="-250" />
<missing-glyph horiz-adv-x="198" />
<glyph unicode="&#xfb01;" horiz-adv-x="522" d="M291 0l80 412h-153l-80 -412h-120l80 412h-48l19 98h48l4 19q39 185 201 185q29 0 45 -2l-20 -106q-6 2 -21 2q-69 0 -87 -84l-2 -14h273l-100 -510h-119zM406 596l22 114h120l-22 -114h-120z" />
<glyph unicode="&#xfb02;" horiz-adv-x="548" d="M315 105q0 30 7 64l105 541h120l-103 -533q-6 -27 -6 -42q0 -30 28 -30q11 0 21 3l-22 -109q-15 -3 -39 -3q-50 0 -80.5 22t-30.5 87zM18 0l79 405h-48l19 98h48l5 27q9 47 27.5 82.5t39.5 54.5t47.5 30t46 14t40.5 3q17 0 45 -2l-20 -106q-6 2 -20 2q-71 0 -87 -85 l-4 -20h77l-18 -98h-78l-79 -405h-120z" />
<glyph unicode="&#xfb03;" horiz-adv-x="815" d="M50 412l20 98h48l2 14q37 190 212 190q23 0 36 -2l-20 -102q-4 2 -20 2q-71 0 -88 -90l-2 -12h173l3 14q37 190 212 190q22 0 35 -2l-19 -102q-4 2 -21 2q-70 0 -88 -90l-1 -12h271l-99 -510h-120l79 412h-151l-80 -412h-120l79 412h-173l-79 -412h-120l79 412h-48z M698 596l23 114h120l-22 -114h-121z" />
<glyph unicode="&#xfb04;" horiz-adv-x="841" d="M50 412l20 98h48l2 14q37 190 212 190q24 0 36 -2l-20 -102q-6 2 -20 2q-71 0 -88 -90l-2 -12h173l3 14q37 190 212 190q22 0 35 -2l-19 -102q-6 2 -21 2q-70 0 -88 -90l-1 -12h77l-20 -98h-77l-80 -412h-120l79 412h-173l-79 -412h-120l79 412h-48zM608 105q0 30 7 64 l105 541h120l-103 -533q-6 -27 -6 -42q0 -30 28 -30q11 0 21 3l-22 -109q-15 -3 -39 -3q-50 0 -80.5 22t-30.5 87z" />
<glyph horiz-adv-x="0" />
<glyph horiz-adv-x="333" />
<glyph unicode=" "  horiz-adv-x="198" />
<glyph unicode="&#x09;" horiz-adv-x="198" />
<glyph unicode="&#xa0;" horiz-adv-x="198" />
<glyph unicode="!" horiz-adv-x="246" d="M54 205l86 505h125l-109 -505h-102zM10 0l22 118h111l-22 -118h-111z" />
<glyph unicode="&#x22;" horiz-adv-x="332" d="M234 514l40 209h86l-40 -209h-86zM96 514l40 209h86l-40 -209h-86z" />
<glyph unicode="#" horiz-adv-x="563" d="M35 0l60 187h-83l31 89h82l47 145h-81l31 89h81l66 200h91l-66 -200h99l66 200h92l-66 -200h86l-31 -89h-85l-47 -145h84l-31 -89h-85l-59 -187h-92l61 187h-100l-60 -187h-91zM217 276h99l47 145h-98z" />
<glyph unicode="$" horiz-adv-x="458" d="M-15 70l71 95q20 -22 51.5 -36.5t61.5 -14.5q47 0 79 28t32 66q0 30 -19.5 55.5t-47.5 46t-56 44t-47.5 60t-19.5 82.5q0 75 50.5 134.5t131.5 75.5l21 105h77l-20 -100q82 -9 136 -50l-61 -100q-46 35 -103 35q-49 0 -79 -29t-30 -65q0 -30 19.5 -54.5t47.5 -44 t56.5 -41.5t48 -57.5t19.5 -81.5q0 -79 -52.5 -142t-138.5 -78l-21 -104h-77l19 102q-94 11 -149 69z" />
<glyph unicode="%" horiz-adv-x="660" d="M197 406q-53 0 -83.5 34.5t-30.5 89.5q0 71 46 131.5t118 60.5q52 0 82 -36.5t30 -92.5q0 -75 -48.5 -131t-113.5 -56zM3 0l572 710h102l-571 -710h-103zM207 495q27 0 44 28t17 66q0 44 -34 44q-29 0 -45 -30t-16 -64q0 -44 34 -44zM325 113q0 70 45.5 130.5t117.5 60.5 q53 0 83 -36.5t30 -92.5q0 -74 -49 -130.5t-113 -56.5q-53 0 -83.5 35t-30.5 90zM415 121q0 -44 34 -44q27 0 44 28t17 66q0 45 -34 45q-29 0 -45 -30.5t-16 -64.5z" />
<glyph unicode="&#x26;" horiz-adv-x="537" d="M16 157q0 71 37.5 133.5t102.5 86.5l1 5q-52 36 -52 120q0 106 67 163t150 57q42 0 81 -16l-42 -97q-11 7 -39 7q-39 0 -67.5 -36t-28.5 -83q0 -33 16 -53t45 -20h65l18 89h119l-19 -89h70l-21 -109h-69l-21 -103q-20 -108 -84.5 -166t-153.5 -58q-81 0 -128 46t-47 123z M143 175q0 -72 62 -72q37 0 66.5 29.5t42.5 96.5l16 86h-71q-51 0 -83.5 -43t-32.5 -97z" />
<glyph unicode="'" horiz-adv-x="196" d="M96 514l40 209h88l-40 -209h-88z" />
<glyph unicode="(" horiz-adv-x="259" d="M55 -95q-30 104 -30 236q0 325 193 600h102q-190 -286 -190 -618q0 -119 24 -218h-99z" />
<glyph unicode=")" horiz-adv-x="261" d="M-50 -95q90 148 141 311t51 312q0 111 -27 213h97q36 -126 36 -241q0 -150 -55 -310t-141 -285h-102z" />
<glyph unicode="*" horiz-adv-x="413" d="M156 321l-81 59l98 110l-95 32l59 106l79 -48l17 130h106l-33 -130l97 48l21 -108l-110 -32l53 -108l-99 -59l-35 110z" />
<glyph unicode="+" d="M24 236l18 99h161l47 237h96l-46 -237h160l-19 -99h-160l-46 -236h-96l46 236h-161z" />
<glyph unicode="," horiz-adv-x="240" d="M-58 -105l100 235h118l-127 -235h-91z" />
<glyph unicode="-" horiz-adv-x="342" d="M39 230l22 112h237l-21 -112h-238z" />
<glyph unicode="." horiz-adv-x="221" d="M-4 0l24 127h115l-24 -127h-115z" />
<glyph unicode="/" horiz-adv-x="368" d="M-32 -42l349 788h105l-350 -788h-104z" />
<glyph unicode="0" horiz-adv-x="511" d="M40 212q0 55 8.5 118t31 134t54.5 127.5t85 93.5t118 37q156 0 156 -223q0 -71 -15 -152.5t-47 -165t-93 -138.5t-141 -55q-157 0 -157 224zM164 199q0 -95 49 -95q36 0 67.5 46.5t49.5 113t28.5 132t10.5 111.5q0 99 -49 99q-36 0 -67.5 -47.5t-49.5 -115t-28.5 -133.5 t-10.5 -111z" />
<glyph unicode="1" horiz-adv-x="418" d="M-8 0l20 105h117l76 389l12 46h-2q-3 -12 -26 -32l-51 -48l-63 75l187 175h103l-117 -605h118l-20 -105h-354z" />
<glyph unicode="2" horiz-adv-x="464" d="M-7 0q0 41 7 77t24 67.5t30 53.5t42 49.5t42 40t48.5 40t44.5 35.5q106 91 106 167q0 37 -20 55.5t-51 18.5q-29 0 -55 -17t-42 -44l-76 74q32 45 84.5 75t108.5 30q75 0 127 -47t52 -130q0 -42 -14 -80.5t-42.5 -74t-57.5 -63t-74 -63.5q-6 -5 -24.5 -19.5t-26.5 -21 t-23.5 -20t-23 -23t-17.5 -22t-15 -25t-7 -25.5h248l-21 -108h-374z" />
<glyph unicode="3" horiz-adv-x="453" d="M-18 52l70 93q43 -38 99 -38q55 0 92 37t37 93q0 92 -120 92h-32l-12 64l149 167q10 12 20.5 22.5t16.5 15.5l5 4v2q-15 -2 -48 -2h-148l21 108h342l-16 -82l-190 -212q60 -14 97.5 -57t37.5 -115q0 -102 -69.5 -179t-184.5 -77q-106 0 -167 64z" />
<glyph unicode="4" horiz-adv-x="487" d="M1 182l14 80l296 448h160l-81 -419h67l-21 -109h-67l-36 -182h-120l36 182h-248zM142 291h128l42 216l18 74h-2q-19 -40 -37 -68l-149 -220v-2z" />
<glyph unicode="5" horiz-adv-x="459" d="M-15 51l70 93q37 -37 99 -37q60 0 98 45t38 105q0 48 -27 73t-67 25q-16 0 -31.5 -3.5t-23.5 -7.5l-8 -3l-60 26l89 343h301l-21 -108h-195l-32 -118l-11 -33h3q19 6 44 6q67 0 116 -51.5t49 -140.5q0 -114 -76.5 -195.5t-185.5 -81.5q-95 0 -169 63z" />
<glyph unicode="6" horiz-adv-x="493" d="M220 -12q-82 0 -132 62t-50 175q0 76 22 159.5t63 160.5t110 127t153 50q64 0 116 -28l-51 -104q-29 17 -73 17q-119 0 -176 -190h1q41 43 103 43q73 0 111 -49.5t38 -132.5q0 -117 -69 -203.5t-166 -86.5zM226 103q46 0 75 53t29 116q0 89 -68 89q-29 0 -50 -14 t-31.5 -37.5t-14.5 -46.5t-4 -48q0 -112 64 -112z" />
<glyph unicode="7" horiz-adv-x="433" d="M-5 0l312 533l43 69l1 2q-14 -2 -36 -2h-229l21 108h388l-17 -90l-358 -620h-125z" />
<glyph unicode="8" horiz-adv-x="491" d="M11 152q0 64 37 126.5t107 103.5q-52 57 -52 134q0 83 54 144.5t157 61.5q83 0 129.5 -42t46.5 -109q0 -47 -26 -96.5t-49 -74.5t-47 -45q66 -57 66 -142q0 -91 -63 -158t-171 -67q-89 0 -139 46t-50 118zM310 210q0 26 -13 48.5t-26 34.5t-41 32q-96 -69 -96 -149 q0 -37 19 -57t54 -20q47 0 75 34t28 77zM222 519q0 -37 16.5 -60t51.5 -50q82 70 82 138q0 64 -67 64q-42 0 -62.5 -26.5t-20.5 -65.5z" />
<glyph unicode="9" horiz-adv-x="494" d="M14 16l51 103q27 -16 72 -16q68 0 109 51.5t68 137.5h-1q-40 -42 -105 -42q-70 0 -107.5 49.5t-37.5 132.5q0 117 68.5 203.5t164.5 86.5q82 0 132 -61.5t50 -174.5q0 -76 -22 -160t-63 -161t-110 -127t-153 -50q-70 0 -116 28zM254 349q29 0 50.5 14t31.5 37.5 t14.5 46.5t4.5 48q0 46 -15.5 79t-49.5 33q-45 0 -73.5 -53.5t-28.5 -115.5q0 -89 66 -89z" />
<glyph unicode=":" horiz-adv-x="220" d="M69 382l25 128h115l-25 -128h-115zM-5 0l25 127h114l-24 -127h-115z" />
<glyph unicode=";" horiz-adv-x="256" d="M96 382l26 128h111l-25 -128h-112zM-52 -105l100 235h118l-127 -235h-91z" />
<glyph unicode="&#x3c;" d="M41 246l3 80l399 216l-4 -113l-274 -144v-2l244 -142l-4 -111z" />
<glyph unicode="=" d="M56 339l4 99h385l-4 -99h-385zM42 133l4 99h385l-4 -99h-385z" />
<glyph unicode="&#x3e;" d="M45 30l5 113l273 143l1 2l-245 143l4 111l364 -216l-3 -80z" />
<glyph unicode="?" horiz-adv-x="399" d="M94 205l8 41q8 42 30.5 77.5t47.5 60t49.5 47.5t40.5 50t16 58q0 37 -18.5 54t-47.5 17q-42 0 -82 -28l-39 95q64 47 147 47q74 0 120 -42.5t46 -120.5q0 -46 -18 -85.5t-45 -69t-54.5 -56t-50.5 -57.5t-30 -62l-5 -26h-115zM56 0l23 118h111l-22 -118h-112z" />
<glyph unicode="@" horiz-adv-x="652" d="M24 166q0 59 16 121t48 120.5t76.5 104.5t106.5 73.5t132 27.5q90 0 139 -42.5t49 -115.5q0 -22 -5 -50l-52 -263h57l-16 -88h-205q-71 0 -107.5 42.5t-36.5 108.5q0 87 54.5 152.5t145.5 65.5h51q1 7 1 21q0 35 -24.5 52.5t-61.5 17.5q-104 0 -178 -107.5t-74 -243.5 q0 -89 40 -141.5t118 -52.5l-19 -96q-116 0 -185.5 81t-69.5 212zM331 207q0 -65 55 -65h37l39 203h-34q-46 0 -71.5 -44t-25.5 -94z" />
<glyph unicode="A" horiz-adv-x="517" d="M-49 0l324 710h131l50 -710h-119l-9 184h-174l-79 -184h-124zM193 285h135l-7 191l1 109h-4q-24 -68 -41 -109z" />
<glyph unicode="B" horiz-adv-x="507" d="M8 0l137 710h181q61 0 101 -23q72 -38 72 -128q0 -59 -32.5 -111.5t-85.5 -76.5v-2q81 -35 81 -135q0 -72 -40.5 -130.5t-108.5 -84.5q-47 -19 -98 -19h-207zM210 420h69q38 0 67.5 34.5t29.5 78.5q0 69 -71 69h-59zM151 108h64q32 0 58 16q31 15 48 46.5t17 69.5 q0 77 -69 77h-78z" />
<glyph unicode="C" horiz-adv-x="544" d="M37 274q0 78 25.5 156t71.5 144t120 107t162 41q111 0 173 -61l-67 -98q-40 42 -113 42q-105 0 -176 -95.5t-71 -217.5q0 -86 38 -137t109 -51q76 0 138 49l41 -100q-37 -30 -91.5 -47.5t-108.5 -17.5q-117 0 -184 78.5t-67 207.5z" />
<glyph unicode="D" horiz-adv-x="585" d="M8 0l137 710h189q112 0 174.5 -70t62.5 -197q0 -75 -23 -151t-65.5 -142t-113.5 -108t-158 -42h-203zM151 109h70q56 0 101.5 33t71 84t38.5 106t13 106q0 163 -129 163h-70z" />
<glyph unicode="E" horiz-adv-x="442" d="M8 0l137 710h339l-22 -108h-216l-36 -190h173l-22 -108h-173l-37 -196h228l-22 -108h-349z" />
<glyph unicode="F" horiz-adv-x="417" d="M9 0l137 710h329l-22 -108h-206l-40 -205h173l-21 -108h-173l-56 -289h-121z" />
<glyph unicode="G" horiz-adv-x="602" d="M37 275q0 61 15.5 124t47 121t75.5 103t106.5 72t133.5 27q49 0 93.5 -15t65 -28.5t27.5 -22.5l-69 -95q-7 8 -20 16.5t-41 18t-58 9.5q-106 0 -178.5 -94t-72.5 -224q0 -87 37 -135t101 -48q36 0 70.5 16.5t56.5 46.5l19 100h-79l21 108h188l-73 -375h-97l5 26l7 27h-2 q-58 -65 -152 -65q-98 0 -162.5 78t-64.5 209z" />
<glyph unicode="H" horiz-adv-x="593" d="M8 0l137 710h122l-58 -302h218l59 302h122l-138 -710h-122l58 300h-218l-58 -300h-122z" />
<glyph unicode="I" horiz-adv-x="253" d="M8 0l138 710h122l-138 -710h-122z" />
<glyph unicode="J" horiz-adv-x="438" d="M-9 152q0 26 6 56l8 44h122l-9 -45q-5 -33 -5 -50q0 -56 45 -56q59 0 80 106l76 395h-134l21 108h256l-98 -501q-43 -221 -211 -221q-66 0 -111.5 42.5t-45.5 121.5z" />
<glyph unicode="K" horiz-adv-x="514" d="M8 0l138 710h122l-57 -290h55l179 290h136l-223 -348v-2l92 -360h-130l-72 312h-58l-60 -312h-122z" />
<glyph unicode="L" horiz-adv-x="423" d="M8 0l138 710h122l-117 -602h229l-21 -108h-351z" />
<glyph unicode="M" horiz-adv-x="686" d="M-14 0l183 710h131l29 -346l1 -107h3q24 65 43 107l162 346h138l-91 -710h-113l51 395l21 109h-3q-28 -71 -47 -113l-129 -269h-112l-24 269l-4 114h-4q-9 -63 -22 -110l-100 -395h-113z" />
<glyph unicode="N" horiz-adv-x="590" d="M8 0l137 710h129l101 -403l19 -107h3q6 67 15 109l78 401h114l-138 -710h-127l-102 403l-19 109h-4q-5 -68 -13 -109l-78 -403h-115z" />
<glyph unicode="O" horiz-adv-x="647" d="M37 269q0 74 22 151.5t64 146t111.5 112t154.5 43.5q115 0 178.5 -75.5t63.5 -208.5q0 -186 -105 -318t-251 -132q-112 0 -175 77t-63 204zM162 268q0 -77 32 -120.5t89 -43.5q87 0 154 98.5t67 238.5q0 164 -123 164q-55 0 -99.5 -34t-69 -86.5t-37.5 -108.5t-13 -108z " />
<glyph unicode="P" horiz-adv-x="498" d="M8 0l137 710h191q54 0 95 -23q88 -49 88 -168q0 -82 -40.5 -148.5t-105.5 -99.5q-49 -26 -105 -26h-92l-46 -245h-122zM198 353h59q35 0 65 19q72 44 72 136q0 45 -23.5 69.5t-63.5 24.5h-61z" />
<glyph unicode="Q" horiz-adv-x="646" d="M36 268q0 75 22.5 152.5t64.5 146t112 112t155 43.5q114 0 177.5 -75.5t63.5 -207.5q0 -189 -118 -326l53 -60l-77 -73l-52 64q-83 -56 -164 -56q-111 0 -174 76.5t-63 203.5zM162 268q0 -78 32 -122.5t88 -44.5q46 0 85 30l-66 80l76 72l59 -78q70 98 70 236 q0 164 -126 164q-55 0 -99 -34t-69 -86.5t-37.5 -108.5t-12.5 -108z" />
<glyph unicode="R" horiz-adv-x="514" d="M8 0l137 710h190q41 0 83 -17q97 -42 97 -162q0 -79 -44 -142.5t-108 -90.5v-2q7 -12 14 -37l72 -259h-128l-63 266h-77l-51 -266h-122zM201 373h66q46 0 85 41.5t39 106.5q0 40 -22 60t-60 20h-63z" />
<glyph unicode="S" horiz-adv-x="442" d="M-23 60l71 95q18 -19 48.5 -35.5t64.5 -16.5q47 0 78.5 30.5t31.5 73.5q0 26 -14 48.5t-35 38t-45.5 36t-45.5 41.5t-35 53.5t-14 72.5q0 93 67.5 159t170.5 66q45 0 88.5 -15t68.5 -36l-60 -100q-46 36 -103 36q-49 0 -79.5 -31.5t-30.5 -72.5q0 -25 14 -47t35.5 -37 t46 -34.5t46 -39t35.5 -52t14 -72.5q0 -93 -66.5 -163t-170.5 -70q-98 0 -181 72z" />
<glyph unicode="T" horiz-adv-x="485" d="M124 0l116 602h-171l21 108h464l-21 -108h-171l-117 -602h-121z" />
<glyph unicode="U" horiz-adv-x="572" d="M42 183q0 20 5 50l93 477h121l-93 -480q-5 -28 -5 -43q0 -86 85 -86q48 0 82.5 32t47.5 97l93 480h121l-94 -485q-23 -119 -90 -178t-170 -59q-90 0 -143 55t-53 140z" />
<glyph unicode="V" horiz-adv-x="522" d="M139 0l-59 710h128l19 -462l-3 -103h3q21 62 38 103l200 462h132l-333 -710h-125z" />
<glyph unicode="W" horiz-adv-x="742" d="M84 0l3 710h117l-18 -493l-9 -75h4q8 34 23 75l184 493h109l-9 -493q0 -18 -2 -37t-4 -28l-1 -10h4q8 34 23 75l172 493h125l-272 -710h-139l8 422q0 10 0.5 20t1 19t1 17.5t1 15t1 11.5t1.5 7v3h-3q-13 -47 -29 -92l-157 -423h-135z" />
<glyph unicode="X" horiz-adv-x="498" d="M-48 0l238 360l-99 350h130l40 -175l13 -83h2q21 41 46 83l108 175h138l-235 -351l99 -359h-128l-41 190l-15 81h-2q-19 -39 -44 -82l-115 -189h-135z" />
<glyph unicode="Y" horiz-adv-x="483" d="M120 0l58 297l-102 413h129l39 -208l10 -93h3q23 49 47 93l119 208h138l-261 -413l-59 -297h-121z" />
<glyph unicode="Z" horiz-adv-x="476" d="M-32 0l16 84l320 453q13 19 25.5 35.5t18.5 23.5l7 6l1 2q-16 -2 -40 -2h-221l22 108h408l-16 -83l-321 -454q-13 -19 -26 -35.5t-20 -23.5l-6 -7v-2q16 3 41 3h234l-20 -108h-423z" />
<glyph unicode="[" horiz-adv-x="272" d="M-13 -95l163 836h175l-17 -89h-74l-128 -658h75l-19 -89h-175z" />
<glyph unicode="\" horiz-adv-x="348" d="M157 -42l-44 788h99l44 -788h-99z" />
<glyph unicode="]" horiz-adv-x="272" d="M-25 -6h75l127 658h-75l17 89h175l-162 -836h-176z" />
<glyph unicode="^" horiz-adv-x="481" d="M72 245l155 465h76l155 -465h-102l-91 308l-91 -308h-102z" />
<glyph unicode="_" horiz-adv-x="472" d="M-41 0h449l-20 -99h-447z" />
<glyph unicode="`" horiz-adv-x="376" d="M365 757l-59 137h116l35 -137h-92z" />
<glyph unicode="a" horiz-adv-x="432" d="M-10 118q0 51 23 91.5t59.5 63t77 34t81.5 11.5h36q6 30 6 45q0 57 -57 57q-51 0 -113 -34l-27 93q27 17 74.5 30t91.5 13q150 0 150 -147q0 -28 -6 -64l-61 -311h-106l6 33l10 39h-2q-23 -36 -56.5 -60t-71.5 -24q-52 0 -83.5 35.5t-31.5 94.5zM101 138q0 -24 11.5 -39 t30.5 -15q39 0 68 42t36 80l7 33h-26q-47 0 -87 -25t-40 -76z" />
<glyph unicode="b" horiz-adv-x="497" d="M-3 0l138 710h120l-41 -209l-11 -45h2q16 30 49.5 48t71.5 18q68 0 103.5 -50.5t35.5 -141.5q0 -142 -69.5 -242t-169.5 -100q-38 0 -67.5 19.5t-41.5 54.5h-2q0 -21 -4 -39l-4 -23h-110zM152 178q0 -87 64 -87q49 0 88 65t39 170q0 90 -63 90q-33 0 -59 -26t-40.5 -65 t-21.5 -77t-7 -70z" />
<glyph unicode="c" horiz-adv-x="435" d="M15 202q0 79 32 150.5t99 120.5t154 49q91 0 138 -53l-62 -84q-31 33 -77 33q-68 0 -113.5 -63.5t-45.5 -141.5q0 -56 24 -88.5t71 -32.5q53 0 108 46l32 -92q-69 -58 -166 -58q-95 0 -144.5 58.5t-49.5 155.5z" />
<glyph unicode="d" horiz-adv-x="493" d="M14 172q0 52 12.5 108.5t38.5 112.5t74 92.5t110 36.5q35 0 63.5 -15.5t39.5 -45.5h2q0 16 5 40l41 209h120l-138 -710h-112l6 34l9 32h-2q-19 -35 -55 -56.5t-78 -21.5q-65 0 -100.5 49t-35.5 135zM136 185q0 -94 59 -94q56 0 92 74.5t36 159.5q0 91 -59 91 q-35 0 -62 -26t-40.5 -65t-19.5 -74.5t-6 -65.5z" />
<glyph unicode="e" horiz-adv-x="445" d="M15 198q0 52 16.5 107.5t46.5 104.5t80.5 80.5t110.5 31.5q76 0 113.5 -46.5t37.5 -115.5q0 -45 -22 -127h-259q-3 -15 -3 -37q0 -103 88 -103q59 0 113 45l31 -90q-31 -28 -78 -44t-94 -16q-89 0 -135 58t-46 152zM153 313h149q6 27 6 48q0 66 -53 66q-67 0 -102 -114z " />
<glyph unicode="f" horiz-adv-x="293" d="M18 0l79 405h-48l19 98h48l5 27q9 47 27.5 82.5t39.5 54.5t47.5 30t46 14t40.5 3q17 0 45 -2l-20 -106q-6 2 -20 2q-71 0 -87 -85l-4 -20h77l-18 -98h-78l-79 -405h-120z" />
<glyph unicode="g" d="M26 -74q43 -31 103 -31q51 0 86 32t46 93l5 25l6 26h-1q-48 -61 -116 -61t-102 48t-34 133t28.5 160.5t83 123t122.5 47.5q36 0 64.5 -18t38.5 -50h2q0 13 3 24l6 32h109l-96 -490q-22 -117 -92 -173.5t-157 -56.5q-85 0 -146 37zM140 214q0 -99 59 -99q41 0 70 40.5 t40 87t11 88.5q0 86 -56 86q-55 0 -89.5 -62.5t-34.5 -140.5z" />
<glyph unicode="h" horiz-adv-x="491" d="M-3 0l137 710h120l-44 -230l-10 -33h2q59 75 141 75q113 0 113 -120q0 -26 -6 -60l-67 -342h-120l61 313q7 28 7 48q0 48 -41 48q-44 0 -77.5 -43.5t-42.5 -89.5l-54 -276h-119z" />
<glyph unicode="i" horiz-adv-x="227" d="M111 596l23 114h120l-22 -114h-121zM-3 0l99 510h120l-100 -510h-119z" />
<glyph unicode="j" horiz-adv-x="228" d="M111 596l23 114h119l-22 -114h-120zM-4 5l100 505h120l-102 -526q-9 -47 -28.5 -83t-42 -56t-49.5 -32t-47.5 -16t-40.5 -4t-39 4l20 104q15 -3 19 -3q27 0 53.5 23.5t36.5 83.5z" />
<glyph unicode="k" horiz-adv-x="453" d="M-3 0l137 710h120l-74 -380h43l122 180h130l-166 -241v-2l80 -267h-123l-60 223h-47l-43 -223h-119z" />
<glyph unicode="l" horiz-adv-x="253" d="M22 105q0 30 7 64l105 541h120l-103 -533q-6 -27 -6 -42q0 -30 28 -30q11 0 21 3l-22 -109q-15 -3 -39 -3q-50 0 -80.5 22t-30.5 87z" />
<glyph unicode="m" horiz-adv-x="714" d="M-3 0l99 510h115l-6 -31l-10 -35h2q58 78 136 78q81 0 96 -78h4q61 78 143 78q104 0 104 -113q0 -31 -7 -65l-67 -344h-120l65 331q4 22 4 33q0 45 -36 45q-34 0 -64 -38.5t-40 -90.5l-54 -280h-120l64 329q5 30 5 35q0 45 -36 45q-34 0 -64.5 -41.5t-40.5 -94.5 l-53 -273h-119z" />
<glyph unicode="n" horiz-adv-x="491" d="M-3 0l99 510h115l-7 -36l-9 -30h2q60 78 146 78q54 0 83.5 -30t29.5 -88q0 -28 -6 -62l-67 -342h-120l65 331q3 20 3 32q0 46 -43 46q-42 0 -75.5 -43t-42.5 -89l-54 -277h-119z" />
<glyph unicode="o" horiz-adv-x="504" d="M14 192q0 55 18 112t50.5 106t86.5 80.5t119 31.5q86 0 135 -56t49 -155q0 -131 -80.5 -227t-194.5 -96q-82 0 -132.5 54.5t-50.5 149.5zM136 198q0 -48 18 -77t54 -29q57 0 100.5 64.5t43.5 150.5q0 111 -74 111q-43 0 -77 -37t-49.5 -86t-15.5 -97z" />
<glyph unicode="p" horiz-adv-x="496" d="M-42 -200l138 710h108l-6 -33l-10 -35h2q19 37 55 58.5t79 21.5q139 0 139 -196q0 -140 -71 -239t-168 -99q-74 0 -99 60h-2q-2 -20 -6 -44l-40 -204h-119zM151 180q0 -89 60 -89q56 0 93.5 67.5t37.5 156.5q0 101 -60 101q-43 0 -75 -44.5t-44 -96t-12 -95.5z" />
<glyph unicode="q" horiz-adv-x="495" d="M16 180q0 139 68 240.5t168 101.5q38 0 68.5 -19.5t40.5 -54.5h2q0 12 5 39l5 23h110l-138 -710h-120l42 214l10 41h-2q-17 -31 -51.5 -49t-72.5 -18q-66 0 -100.5 49t-34.5 143zM137 193q0 -102 60 -102q59 0 93.5 75.5t34.5 155.5q0 94 -59 94q-55 0 -92 -66.5 t-37 -156.5z" />
<glyph unicode="r" horiz-adv-x="327" d="M-3 0l99 510h115l-15 -75l-9 -36h2q24 50 62.5 84t78.5 34q12 0 24 -3l-24 -122q-14 2 -26 2q-56 0 -94 -55t-53 -129l-41 -210h-119z" />
<glyph unicode="s" horiz-adv-x="365" d="M-28 45l62 86q42 -42 95 -42q30 0 49 16.5t19 43.5q0 25 -23 46t-50.5 35.5t-50.5 46.5t-23 78q0 74 53 120.5t132 46.5q77 0 128 -41l-49 -90q-37 29 -84 29q-30 0 -48.5 -16t-18.5 -43q0 -17 11 -31.5t27.5 -24t35.5 -22.5t35.5 -27t27.5 -39t11 -56q0 -71 -51 -122 t-136 -51q-90 0 -152 57z" />
<glyph unicode="t" horiz-adv-x="297" d="M39 132q0 30 7 62l41 211h-51l19 98h54l28 146h118l-29 -146h85l-19 -98h-85l-40 -204q-4 -17 -4 -35q0 -61 57 -61q11 0 20 3l-21 -110q-18 -2 -35 -2q-25 0 -46.5 5t-45.5 18t-38.5 42t-14.5 71z" />
<glyph unicode="u" horiz-adv-x="487" d="M18 107q0 26 7 61l66 342h120l-65 -332q-3 -21 -3 -27q0 -50 41 -50q44 0 76 42.5t41 90.5l54 276h120l-100 -510h-114l6 37l9 28h-2q-62 -77 -149 -77q-107 0 -107 119z" />
<glyph unicode="v" horiz-adv-x="444" d="M91 0l-41 510h124l10 -314l-3 -77h3q15 46 27 77l133 314h128l-235 -510h-146z" />
<glyph unicode="w" horiz-adv-x="648" d="M65 0l-15 510h116l-6 -338l-4 -54h3q7 27 17 54l127 337h113l-6 -337l-4 -54h3q8 27 17 54l127 338h118l-213 -510h-134l3 293l4 55h-3q-7 -29 -17 -55l-110 -293h-136z" />
<glyph unicode="x" horiz-adv-x="421" d="M-46 0l175 266l-72 244h122l29 -132l6 -36h3q10 23 19 36l85 132h126l-169 -247l74 -263h-114l-40 154l-4 32h-3q-9 -19 -18 -32l-98 -154h-121z" />
<glyph unicode="y" horiz-adv-x="437" d="M-32 -93q20 -16 45 -16q49 0 82 71l19 41l-70 507h127l19 -291l-3 -70h4q15 48 23 67l124 294h127l-269 -581q-65 -139 -179 -139q-47 0 -89 28z" />
<glyph unicode="z" horiz-adv-x="413" d="M-30 0l12 68l231 294l41 47l1 2q-10 -2 -35 -2h-165l21 101h346l-13 -69l-231 -293q-10 -13 -20 -25t-16 -17l-5 -5l-1 -2q9 3 35 3h176l-19 -102h-358z" />
<glyph unicode="{" horiz-adv-x="303" d="M45 14q0 24 6 57l18 98q4 19 4 35q0 62 -49 69l22 109q33 4 55 34t30 72l17 87q11 53 33 89.5t50 52.5t50 21.5t46 5.5q21 0 30 -1l-17 -92q-6 2 -16 2q-60 0 -77 -85l-21 -111q-17 -91 -89 -128v-2q43 -18 43 -85q0 -20 -4 -41l-24 -123q-4 -26 -4 -33q0 -52 46 -52 q6 0 18 2l-18 -92q-12 -2 -30 -2q-119 0 -119 113z" />
<glyph unicode="|" horiz-adv-x="284" d="M95 -161v957h100v-957h-100z" />
<glyph unicode="}" horiz-adv-x="302" d="M-27 -5q2 -2 16 -2q58 0 76 85l23 123q21 97 90 126v2q-44 21 -44 88q0 20 4 39l22 112q4 26 4 33q0 52 -45 52q-6 0 -18 -2l18 92q4 1 30 1q120 0 120 -114q0 -24 -6 -54l-18 -88q-3 -19 -3 -35q0 -63 48 -71l-20 -109q-33 -4 -55.5 -32t-30.5 -72l-19 -97 q-8 -44 -25.5 -76.5t-36.5 -50t-43 -28t-41 -13.5t-34 -3q-20 0 -30 2z" />
<glyph unicode="~" horiz-adv-x="481" d="M38 198q0 91 32.5 137t91.5 46q31 0 55 -14t35.5 -31.5t25.5 -31.5t27 -14q21 0 31.5 25t10.5 62h92q0 -91 -32.5 -137t-89.5 -46q-26 0 -46 9.5t-33 22.5t-23 26.5t-20.5 23t-21.5 9.5q-20 0 -30.5 -24.5t-10.5 -62.5h-94z" />
<glyph unicode="&#xa1;" horiz-adv-x="230" d="M78 391l22 119h111l-23 -119h-110zM-44 -200l109 505h103l-87 -505h-125z" />
<glyph unicode="&#xa2;" horiz-adv-x="458" d="M39 284q0 128 65 231t162 122l16 84h79l-17 -84q42 -9 74.5 -44.5t41.5 -90.5l-105 -43q-11 64 -62 64q-53 0 -92.5 -72.5t-39.5 -161.5q0 -102 63 -102q46 0 83 67l103 -45q-67 -120 -176 -135l-17 -87h-78l17 86q-53 16 -85 72.5t-32 138.5z" />
<glyph unicode="&#xa3;" horiz-adv-x="458" d="M37 311l17 87h45l22 112q20 101 77 156.5t139 55.5q41 0 81 -15.5t64 -44.5l-73 -82q-9 11 -31 19.5t-40 8.5q-36 0 -59.5 -25.5t-31.5 -66.5l-23 -118h130l-17 -87h-130l-39 -203h230l-21 -108h-397l20 109h43l40 202h-46z" />
<glyph unicode="&#xa5;" horiz-adv-x="458" d="M19 194l15 77h126l7 33l-10 49h-107l15 76h74l-55 289h130l27 -206l4 -97h3q18 48 42 97l107 206h138l-167 -289h73l-15 -76h-106l-30 -49l-6 -33h125l-14 -77h-126l-37 -194h-123l37 194h-127z" />
<glyph unicode="&#xa7;" horiz-adv-x="398" d="M75 139l8 342q-1 98 54 169.5t146 71.5q97 0 147 -51l-58 -77q-36 31 -90 31q-55 0 -79 -45t-24 -108l-9 -333h-95zM39 66q36 -31 90 -31q55 0 78.5 44.5t23.5 107.5l11 334h95l-9 -342q0 -101 -53.5 -171t-146.5 -70q-90 0 -147 50z" />
<glyph unicode="&#xa8;" horiz-adv-x="375" d="M402 777l24 117h88l-23 -117h-89zM249 777l23 117h88l-23 -117h-88z" />
<glyph unicode="&#xa9;" horiz-adv-x="652" d="M57 355q0 160 77.5 263.5t202.5 103.5q128 0 204 -103t76 -264t-76 -264t-204 -103q-125 0 -202.5 103.5t-77.5 263.5zM139 355q0 -129 52.5 -209t145.5 -80q94 0 146.5 79.5t52.5 209.5q0 129 -52.5 209t-146.5 80q-93 0 -145.5 -80t-52.5 -209zM203 353q0 81 37 138 t103 57q43 0 76.5 -29.5t42.5 -72.5l-65 -25q-2 18 -16.5 33t-33.5 15q-29 0 -44 -34t-15 -84q0 -113 57 -113q20 0 34.5 15t20.5 36l62 -29q-11 -44 -43.5 -73t-75.5 -29q-67 0 -103.5 57.5t-36.5 137.5z" />
<glyph unicode="&#xaa;" horiz-adv-x="343" d="M155 382q-29 0 -48.5 22t-19.5 64q0 32 13.5 56t31.5 36t41 19.5t38 9.5t27 2h18q4 17 4 31q-1 31 -34 31q-29 0 -64 -20l-20 60q49 27 102 27q100 0 100 -87q0 -21 -4 -42l-39 -202h-73l10 47h-2q-13 -23 -35 -38.5t-46 -15.5zM188 451q16 0 31 16t22 45l5 22h-12 q-26 0 -49 -12t-23 -40q0 -31 26 -31zM50 266l13 69h230l-12 -69h-231z" />
<glyph unicode="&#xab;" horiz-adv-x="494" d="M303 77l-85 205l164 206h118l-173 -214l83 -197h-107zM113 77l-86 205l167 206h118l-176 -214l83 -197h-106z" />
<glyph unicode="&#xac;" horiz-adv-x="523" d="M66 339v99h386v-295h-96v196h-290z" />
<glyph unicode="&#xad;" horiz-adv-x="339" d="M47 230l22 112h237l-21 -112h-238z" />
<glyph unicode="&#xae;" horiz-adv-x="653" d="M57 355q0 160 77.5 263.5t202.5 103.5q128 0 204 -103t76 -264t-76 -264t-204 -103q-125 0 -202.5 103.5t-77.5 263.5zM139 355q0 -129 52.5 -209t145.5 -80q94 0 146.5 79.5t52.5 209.5q0 129 -52.5 209t-146.5 80q-93 0 -145.5 -80t-52.5 -209zM237 174v365h125 q43 0 68.5 -31t25.5 -84q0 -38 -16 -63t-33 -32v-2q5 -5 11 -22l46 -131h-82l-41 135h-26v-135h-78zM315 370h26q36 0 36 54q0 53 -34 53h-28v-107z" />
<glyph unicode="&#xaf;" horiz-adv-x="375" d="M268 783l16 88h208l-17 -88h-207z" />
<glyph unicode="&#xb0;" horiz-adv-x="342" d="M196 407q-52 0 -82 35t-30 91q0 74 47.5 132t114.5 58q52 0 83 -36.5t31 -93.5q0 -74 -48.5 -130t-115.5 -56zM208 496q28 0 45.5 27.5t17.5 64.5q0 47 -35 47q-28 0 -45.5 -28.5t-17.5 -65.5q0 -45 35 -45z" />
<glyph unicode="&#xb1;" d="M19 238v96h160v238h97v-238h161v-96h-161v-238h-97v238h-160zM27 -88h401v-96h-401v96z" />
<glyph unicode="&#xb2;" horiz-adv-x="309" d="M60 423q0 56 22 101t53.5 72t63 50t53.5 47t22 51q0 41 -42 41q-36 0 -64 -34l-47 58q53 63 132 63q47 0 79.5 -28t32.5 -81q0 -40 -19 -75t-47 -59t-56 -44.5t-50 -41.5t-26 -40h152l-15 -80h-244z" />
<glyph unicode="&#xb3;" horiz-adv-x="309" d="M165 413q-72 0 -109 40l51 67q21 -24 57 -24q30 0 53 21t23 56q0 48 -70 48h-29l-7 42l88 93l28 25v2q-10 -1 -33 -1h-84l15 80h224l-11 -60l-116 -120q86 -17 86 -104q0 -66 -48 -115.5t-118 -49.5z" />
<glyph unicode="&#xb4;" horiz-adv-x="376" d="M274 757l89 137h121l-115 -137h-95z" />
<glyph unicode="&#xb6;" horiz-adv-x="511" d="M144 -50l56 291q-62 0 -101.5 51.5t-39.5 133.5q0 116 68 200t165 84h259l-22 -112h-175l-125 -648h-85zM275 -50l117 593h85l-116 -593h-86z" />
<glyph unicode="&#xb7;" horiz-adv-x="216" d="M38 228l26 128h111l-26 -128h-111z" />
<glyph unicode="&#xb8;" horiz-adv-x="375" d="M98 -134q16 -8 33 -8q15 0 26.5 9.5t11.5 26.5q0 25 -33 25q-7 0 -15 -1l42 107l52 -12l-17 -58q18 -3 31 -19t13 -44q0 -47 -32 -73.5t-72 -26.5q-22 0 -54 7z" />
<glyph unicode="&#xb9;" horiz-adv-x="309" d="M72 423l15 78h76l42 220l8 28h-2q-5 -9 -19 -23l-29 -28l-41 52l120 112h75l-70 -361h73l-15 -78h-233z" />
<glyph unicode="&#xba;" horiz-adv-x="379" d="M213 384q-53 0 -84.5 37.5t-31.5 99.5q0 82 51 140.5t118 58.5q52 0 84 -36.5t32 -99.5q0 -83 -51 -141.5t-118 -58.5zM222 464q28 0 51 35t23 82q0 28 -10.5 44t-27.5 16q-29 0 -52.5 -34.5t-23.5 -82.5q0 -60 40 -60zM57 266l13 69h256l-13 -69h-256z" />
<glyph unicode="&#xbb;" horiz-adv-x="493" d="M176 77l176 214l-83 197h107l85 -205l-167 -206h-118zM-11 77l173 214l-83 197h107l85 -205l-164 -206h-118z" />
<glyph unicode="&#xbc;" horiz-adv-x="792" d="M581 0l19 104h-160l7 56l191 279h109l-51 -263h45l-15 -72h-44l-19 -104h-82zM539 176h76l24 123l13 50h-2q-12 -25 -24 -43l-87 -129v-1zM254 0h-92l397 710h91zM42 272l15 78h76l42 220l8 28h-2q-5 -9 -19 -23l-29 -28l-41 52l120 112h75l-70 -361h73l-15 -78h-233z " />
<glyph unicode="&#xbd;" horiz-adv-x="788" d="M452 0q0 56 22 101t53.5 72t63 50t53.5 47t22 51q0 41 -42 41q-36 0 -64 -34l-47 58q53 63 132 63q47 0 79.5 -28t32.5 -81q0 -40 -19 -75t-47 -59t-56 -44.5t-50 -41.5t-26 -40h152l-15 -80h-244zM256 0h-92l397 710h91zM42 272l15 78h76l42 220l8 28h-2q-5 -9 -19 -23 l-29 -28l-41 52l120 112h75l-70 -361h73l-15 -78h-233z" />
<glyph unicode="&#xbe;" horiz-adv-x="789" d="M577 0l19 104h-160l7 56l191 279h109l-51 -263h45l-15 -72h-44l-19 -104h-82zM535 176h76l24 123l13 50h-2q-12 -25 -24 -43l-87 -129v-1zM142 262q-72 0 -109 40l51 67q21 -24 57 -24q30 0 53 21t23 56q0 48 -70 48h-29l-7 42l88 93l28 25v2q-10 -1 -33 -1h-84l15 80 h224l-11 -60l-116 -120q86 -17 86 -104q0 -66 -48 -115.5t-118 -49.5zM247 0h-92l397 710h91z" />
<glyph unicode="&#xbf;" horiz-adv-x="396" d="M190 391l23 119h111l-22 -119h-112zM-32 -52q0 46 18 86t45 69t55 55.5t51 57.5t30 62l5 27h115l-8 -42q-8 -42 -30 -77.5t-47.5 -60t-50 -47.5t-40.5 -50t-16 -58q0 -36 19 -53.5t47 -17.5q43 0 81 29l40 -95q-25 -19 -66.5 -33.5t-81.5 -14.5q-73 0 -119.5 42.5 t-46.5 120.5z" />
<glyph unicode="&#xc0;" horiz-adv-x="517" d="M-49 0l324 710h131l50 -710h-119l-9 184h-174l-79 -184h-124zM193 285h135l-7 191l1 109h-4q-24 -68 -41 -109zM306 757l-59 137h116l35 -137h-92z" />
<glyph unicode="&#xc1;" horiz-adv-x="517" d="M-49 0l324 710h131l50 -710h-119l-9 184h-174l-79 -184h-124zM193 285h135l-7 191l1 109h-4q-24 -68 -41 -109zM296 757l89 137h121l-115 -137h-95z" />
<glyph unicode="&#xc2;" horiz-adv-x="517" d="M-49 0l324 710h131l50 -710h-119l-9 184h-174l-79 -184h-124zM193 285h135l-7 191l1 109h-4q-24 -68 -41 -109zM219 757l102 137h118l47 -137h-93l-21 82h-2l-53 -82h-98z" />
<glyph unicode="&#xc3;" horiz-adv-x="517" d="M-49 0l324 710h131l50 -710h-119l-9 184h-174l-79 -184h-124zM193 285h135l-7 191l1 109h-4q-24 -68 -41 -109zM200 758q23 138 109 138q23 0 39.5 -10t24 -22.5t17 -22.5t18.5 -10q27 0 40 62h79q-22 -138 -105 -138q-29 0 -48 16.5t-31 32.5t-23 16q-13 0 -24 -18 t-17 -44h-79z" />
<glyph unicode="&#xc4;" horiz-adv-x="517" d="M-49 0l324 710h131l50 -710h-119l-9 184h-174l-79 -184h-124zM193 285h135l-7 191l1 109h-4q-24 -68 -41 -109zM388 777l24 117h88l-23 -117h-89zM235 777l23 117h88l-23 -117h-88z" />
<glyph unicode="&#xc5;" horiz-adv-x="517" d="M-49 0l324 710h131l50 -710h-119l-9 184h-174l-79 -184h-124zM193 285h135l-7 191l1 109h-4q-24 -68 -41 -109zM356 745q-30 0 -52 17.5t-22 49.5q0 39 29.5 65t64.5 26q29 0 50.5 -17.5t21.5 -50.5q0 -40 -28.5 -65t-63.5 -25zM358 788q15 0 25 14t10 32q0 25 -20 25 q-14 0 -24.5 -13.5t-10.5 -31.5q0 -26 20 -26z" />
<glyph unicode="&#xc6;" horiz-adv-x="722" d="M-56 0l367 710h453l-22 -108h-216l-36 -190h173l-21 -108h-174l-37 -196h227l-21 -108h-349l51 262h-139l-132 -262h-124zM368 598l-116 -231h107l45 231h-36z" />
<glyph unicode="&#xc7;" horiz-adv-x="545" d="M191 -134q16 -8 33 -8q15 0 26.5 9.5t11.5 26.5q0 25 -33 25q-7 0 -15 -1l29 74q-97 15 -151.5 90.5t-54.5 191.5q0 78 25.5 156t71.5 144t120 107t162 41q111 0 173 -61l-67 -98q-40 42 -113 42q-105 0 -176 -95.5t-71 -217.5q0 -86 38 -137t109 -51q76 0 138 49 l41 -100q-74 -60 -188 -65l-9 -33q18 -3 31 -19t13 -44q0 -47 -32 -73.5t-72 -26.5q-23 0 -54 7z" />
<glyph unicode="&#xc8;" horiz-adv-x="442" d="M8 0l137 710h339l-22 -108h-216l-36 -190h173l-22 -108h-173l-37 -196h228l-22 -108h-349zM284 757l-59 137h116l35 -137h-92z" />
<glyph unicode="&#xc9;" horiz-adv-x="442" d="M274 757l89 137h121l-115 -137h-95zM8 0l137 710h339l-22 -108h-216l-36 -190h173l-22 -108h-173l-37 -196h228l-22 -108h-349z" />
<glyph unicode="&#xca;" horiz-adv-x="442" d="M197 757l102 137h118l47 -137h-93l-21 82h-2l-53 -82h-98zM8 0l137 710h339l-22 -108h-216l-36 -190h173l-22 -108h-173l-37 -196h228l-22 -108h-349z" />
<glyph unicode="&#xcb;" horiz-adv-x="442" d="M365 777l24 117h88l-23 -117h-89zM212 777l23 117h88l-23 -117h-88zM8 0l137 710h339l-22 -108h-216l-36 -190h173l-22 -108h-173l-37 -196h228l-22 -108h-349z" />
<glyph unicode="&#xcc;" horiz-adv-x="253" d="M8 0l138 710h122l-138 -710h-122zM172 757l-59 137h116l35 -137h-92z" />
<glyph unicode="&#xcd;" horiz-adv-x="253" d="M8 0l138 710h122l-138 -710h-122zM164 757l89 137h121l-115 -137h-95z" />
<glyph unicode="&#xce;" horiz-adv-x="253" d="M8 0l138 710h122l-138 -710h-122zM86 757l102 137h118l47 -137h-93l-21 82h-2l-53 -82h-98z" />
<glyph unicode="&#xcf;" horiz-adv-x="253" d="M8 0l138 710h122l-138 -710h-122zM255 777l24 117h88l-23 -117h-89zM102 777l23 117h88l-23 -117h-88z" />
<glyph unicode="&#xd0;" horiz-adv-x="589" d="M22 302l19 103h49l59 305h189q112 0 174.5 -70t62.5 -197q0 -75 -23 -151t-65.5 -142t-113.5 -108t-158 -42h-202l58 302h-49zM155 109h70q56 0 101.5 33t71 84t38.5 106t13 106q0 163 -129 163h-70l-38 -196h99l-20 -103h-99z" />
<glyph unicode="&#xd1;" horiz-adv-x="590" d="M8 0l137 710h129l101 -403l19 -107h3q6 67 15 109l78 401h114l-138 -710h-127l-102 403l-19 109h-4q-5 -68 -13 -109l-78 -403h-115zM233 758q23 138 109 138q23 0 39.5 -10t24 -22.5t17 -22.5t18.5 -10q27 0 40 62h79q-22 -138 -105 -138q-29 0 -48 16.5t-31 32.5 t-23 16q-13 0 -24 -18t-17 -44h-79z" />
<glyph unicode="&#xd2;" horiz-adv-x="647" d="M37 269q0 74 22 151.5t64 146t111.5 112t154.5 43.5q115 0 178.5 -75.5t63.5 -208.5q0 -186 -105 -318t-251 -132q-112 0 -175 77t-63 204zM162 268q0 -77 32 -120.5t89 -43.5q87 0 154 98.5t67 238.5q0 164 -123 164q-55 0 -99.5 -34t-69 -86.5t-37.5 -108.5t-13 -108z M365 757l-59 137h116l35 -137h-92z" />
<glyph unicode="&#xd3;" horiz-adv-x="647" d="M356 757l89 137h121l-115 -137h-95zM37 269q0 74 22 151.5t64 146t111.5 112t154.5 43.5q115 0 178.5 -75.5t63.5 -208.5q0 -186 -105 -318t-251 -132q-112 0 -175 77t-63 204zM162 268q0 -77 32 -120.5t89 -43.5q87 0 154 98.5t67 238.5q0 164 -123 164q-55 0 -99.5 -34 t-69 -86.5t-37.5 -108.5t-13 -108z" />
<glyph unicode="&#xd4;" horiz-adv-x="647" d="M278 757l102 137h118l47 -137h-93l-21 82h-2l-53 -82h-98zM37 269q0 74 22 151.5t64 146t111.5 112t154.5 43.5q115 0 178.5 -75.5t63.5 -208.5q0 -186 -105 -318t-251 -132q-112 0 -175 77t-63 204zM162 268q0 -77 32 -120.5t89 -43.5q87 0 154 98.5t67 238.5 q0 164 -123 164q-55 0 -99.5 -34t-69 -86.5t-37.5 -108.5t-13 -108z" />
<glyph unicode="&#xd5;" horiz-adv-x="647" d="M37 269q0 74 22 151.5t64 146t111.5 112t154.5 43.5q115 0 178.5 -75.5t63.5 -208.5q0 -186 -105 -318t-251 -132q-112 0 -175 77t-63 204zM162 268q0 -77 32 -120.5t89 -43.5q87 0 154 98.5t67 238.5q0 164 -123 164q-55 0 -99.5 -34t-69 -86.5t-37.5 -108.5t-13 -108z M259 758q23 138 109 138q23 0 39.5 -10t24 -22.5t17 -22.5t18.5 -10q27 0 40 62h79q-22 -138 -105 -138q-29 0 -48 16.5t-31 32.5t-23 16q-13 0 -24 -18t-17 -44h-79z" />
<glyph unicode="&#xd6;" horiz-adv-x="647" d="M447 777l24 117h88l-23 -117h-89zM294 777l23 117h88l-23 -117h-88zM37 269q0 74 22 151.5t64 146t111.5 112t154.5 43.5q115 0 178.5 -75.5t63.5 -208.5q0 -186 -105 -318t-251 -132q-112 0 -175 77t-63 204zM162 268q0 -77 32 -120.5t89 -43.5q87 0 154 98.5t67 238.5 q0 164 -123 164q-55 0 -99.5 -34t-69 -86.5t-37.5 -108.5t-13 -108z" />
<glyph unicode="&#xd7;" d="M27 58l154 222l-156 224l77 64l141 -203l141 203l77 -64l-157 -224l155 -222l-77 -64l-139 200l-139 -200z" />
<glyph unicode="&#xd8;" horiz-adv-x="646" d="M37 268q0 75 22.5 152.5t64.5 146t112 112t155 43.5q82 0 138 -41l47 64l53 -37l-54 -72q56 -69 56 -197q0 -187 -105.5 -319t-252.5 -132q-88 0 -146 49l-46 -63l-51 39l55 71q-48 68 -48 184zM504 441q0 52 -13 85l-288 -389q27 -33 80 -33q87 0 154 98.5t67 238.5z M162 268q0 -39 9 -69l283 383q-26 23 -73 23q-55 0 -99.5 -34t-69 -86.5t-37.5 -108.5t-13 -108z" />
<glyph unicode="&#xd9;" horiz-adv-x="572" d="M42 183q0 20 5 50l93 477h121l-93 -480q-5 -28 -5 -43q0 -86 85 -86q48 0 82.5 32t47.5 97l93 480h121l-94 -485q-23 -119 -90 -178t-170 -59q-90 0 -143 55t-53 140zM329 757l-59 137h116l35 -137h-92z" />
<glyph unicode="&#xda;" horiz-adv-x="572" d="M319 757l89 137h121l-115 -137h-95zM42 183q0 20 5 50l93 477h121l-93 -480q-5 -28 -5 -43q0 -86 85 -86q48 0 82.5 32t47.5 97l93 480h121l-94 -485q-23 -119 -90 -178t-170 -59q-90 0 -143 55t-53 140z" />
<glyph unicode="&#xdb;" horiz-adv-x="572" d="M241 757l102 137h118l47 -137h-93l-21 82h-2l-53 -82h-98zM42 183q0 20 5 50l93 477h121l-93 -480q-5 -28 -5 -43q0 -86 85 -86q48 0 82.5 32t47.5 97l93 480h121l-94 -485q-23 -119 -90 -178t-170 -59q-90 0 -143 55t-53 140z" />
<glyph unicode="&#xdc;" horiz-adv-x="572" d="M410 777l24 117h88l-23 -117h-89zM257 777l23 117h88l-23 -117h-88zM42 183q0 20 5 50l93 477h121l-93 -480q-5 -28 -5 -43q0 -86 85 -86q48 0 82.5 32t47.5 97l93 480h121l-94 -485q-23 -119 -90 -178t-170 -59q-90 0 -143 55t-53 140z" />
<glyph unicode="&#xdd;" horiz-adv-x="483" d="M120 0l58 297l-102 413h129l39 -208l10 -93h3q23 49 47 93l119 208h138l-261 -413l-59 -297h-121zM274 757l89 137h121l-115 -137h-95z" />
<glyph unicode="&#xde;" horiz-adv-x="494" d="M8 0l137 710h122l-22 -115h73q82 0 130 -49.5t48 -132.5q0 -120 -75 -201.5t-176 -81.5h-91l-24 -130h-122zM176 238h59q55 0 94.5 45.5t39.5 113.5q0 42 -22.5 66t-60.5 24h-62z" />
<glyph unicode="&#xdf;" horiz-adv-x="490" d="M-3 0l102 528q19 98 79.5 146t134.5 48q70 0 113.5 -39.5t43.5 -106.5q0 -40 -16 -74t-35 -53.5t-35 -42t-16 -42.5q0 -17 12 -36.5t26 -36t26 -46t12 -64.5q0 -84 -53 -136t-130 -52q-55 0 -90 26l20 104q30 -26 66 -26q31 0 50.5 19.5t19.5 52.5q0 29 -19 55.5t-38 56 t-19 66.5q0 36 16.5 67.5t36 50t36 45.5t16.5 56q0 52 -50 52q-69 0 -89 -98l-101 -520h-119z" />
<glyph unicode="&#xe0;" horiz-adv-x="432" d="M-10 118q0 51 23 91.5t59.5 63t77 34t81.5 11.5h36q6 30 6 45q0 57 -57 57q-51 0 -113 -34l-27 93q27 17 74.5 30t91.5 13q150 0 150 -147q0 -28 -6 -64l-61 -311h-106l6 33l10 39h-2q-23 -36 -56.5 -60t-71.5 -24q-52 0 -83.5 35.5t-31.5 94.5zM101 138q0 -24 11.5 -39 t30.5 -15q39 0 68 42t36 80l7 33h-26q-47 0 -87 -25t-40 -76zM219 575l-59 137h116l35 -137h-92z" />
<glyph unicode="&#xe1;" horiz-adv-x="432" d="M-10 118q0 51 23 91.5t59.5 63t77 34t81.5 11.5h36q6 30 6 45q0 57 -57 57q-51 0 -113 -34l-27 93q27 17 74.5 30t91.5 13q150 0 150 -147q0 -28 -6 -64l-61 -311h-106l6 33l10 39h-2q-23 -36 -56.5 -60t-71.5 -24q-52 0 -83.5 35.5t-31.5 94.5zM101 138q0 -24 11.5 -39 t30.5 -15q39 0 68 42t36 80l7 33h-26q-47 0 -87 -25t-40 -76zM211 575l89 137h121l-115 -137h-95z" />
<glyph unicode="&#xe2;" horiz-adv-x="432" d="M-10 118q0 51 23 91.5t59.5 63t77 34t81.5 11.5h36q6 30 6 45q0 57 -57 57q-51 0 -113 -34l-27 93q27 17 74.5 30t91.5 13q150 0 150 -147q0 -28 -6 -64l-61 -311h-106l6 33l10 39h-2q-23 -36 -56.5 -60t-71.5 -24q-52 0 -83.5 35.5t-31.5 94.5zM101 138q0 -24 11.5 -39 t30.5 -15q39 0 68 42t36 80l7 33h-26q-47 0 -87 -25t-40 -76zM133 575l102 137h118l47 -137h-93l-21 82h-2l-53 -82h-98z" />
<glyph unicode="&#xe3;" horiz-adv-x="432" d="M-10 118q0 51 23 91.5t59.5 63t77 34t81.5 11.5h36q6 30 6 45q0 57 -57 57q-51 0 -113 -34l-27 93q27 17 74.5 30t91.5 13q150 0 150 -147q0 -28 -6 -64l-61 -311h-106l6 33l10 39h-2q-23 -36 -56.5 -60t-71.5 -24q-52 0 -83.5 35.5t-31.5 94.5zM101 138q0 -24 11.5 -39 t30.5 -15q39 0 68 42t36 80l7 33h-26q-47 0 -87 -25t-40 -76zM114 576q23 138 109 138q23 0 39.5 -10t24 -22.5t17 -22.5t18.5 -10q27 0 40 62h79q-22 -138 -105 -138q-29 0 -48 16.5t-31 32.5t-23 16q-13 0 -24 -18t-17 -44h-79z" />
<glyph unicode="&#xe4;" horiz-adv-x="432" d="M-10 118q0 51 23 91.5t59.5 63t77 34t81.5 11.5h36q6 30 6 45q0 57 -57 57q-51 0 -113 -34l-27 93q27 17 74.5 30t91.5 13q150 0 150 -147q0 -28 -6 -64l-61 -311h-106l6 33l10 39h-2q-23 -36 -56.5 -60t-71.5 -24q-52 0 -83.5 35.5t-31.5 94.5zM101 138q0 -24 11.5 -39 t30.5 -15q39 0 68 42t36 80l7 33h-26q-47 0 -87 -25t-40 -76zM301 595l24 117h88l-23 -117h-89zM148 595l23 117h88l-23 -117h-88z" />
<glyph unicode="&#xe5;" horiz-adv-x="432" d="M-10 118q0 51 23 91.5t59.5 63t77 34t81.5 11.5h36q6 30 6 45q0 57 -57 57q-51 0 -113 -34l-27 93q27 17 74.5 30t91.5 13q150 0 150 -147q0 -28 -6 -64l-61 -311h-106l6 33l10 39h-2q-23 -36 -56.5 -60t-71.5 -24q-52 0 -83.5 35.5t-31.5 94.5zM101 138q0 -24 11.5 -39 t30.5 -15q39 0 68 42t36 80l7 33h-26q-47 0 -87 -25t-40 -76zM269 563q-30 0 -52 17.5t-22 49.5q0 39 29.5 65t64.5 26q29 0 50.5 -17.5t21.5 -50.5q0 -40 -28.5 -65t-63.5 -25zM271 606q15 0 25 14t10 32q0 25 -20 25q-14 0 -24.5 -13.5t-10.5 -31.5q0 -26 20 -26z" />
<glyph unicode="&#xe6;" horiz-adv-x="671" d="M-12 117q0 92 73 144.5t175 52.5h29q7 38 7 51q0 55 -55 55q-56 0 -117 -33l-16 94q68 41 152 41q97 0 124 -70h3q55 70 130 70q77 0 116 -45t39 -118q0 -45 -21 -125h-260q-3 -20 -3 -38q-1 -52 23.5 -77.5t65.5 -25.5q65 0 122 45l16 -94q-27 -25 -73.5 -40.5 t-89.5 -15.5q-117 0 -155 102h-3q-63 -102 -152 -102q-60 0 -95 34t-35 95zM382 314h149q4 34 4 47q0 66 -51 66q-69 0 -102 -113zM98 137q0 -53 47 -53q38 0 65 38t35 82l6 30h-15q-56 0 -97 -23t-41 -74z" />
<glyph unicode="&#xe7;" horiz-adv-x="435" d="M105 -134q16 -8 33 -8q15 0 26.5 9.5t11.5 26.5q0 25 -33 25q-7 0 -15 -1l29 76q-70 15 -106 70.5t-36 137.5q0 79 32 150.5t99 120.5t154 49q91 0 138 -53l-62 -84q-31 33 -77 33q-68 0 -113.5 -63.5t-45.5 -141.5q0 -56 24 -88.5t71 -32.5q53 0 108 46l32 -92 q-66 -55 -161 -58l-9 -33q18 -3 31 -19t13 -44q0 -47 -32 -73.5t-72 -26.5q-22 0 -54 7z" />
<glyph unicode="&#xe8;" horiz-adv-x="445" d="M15 198q0 52 16.5 107.5t46.5 104.5t80.5 80.5t110.5 31.5q76 0 113.5 -46.5t37.5 -115.5q0 -45 -22 -127h-259q-3 -15 -3 -37q0 -103 88 -103q59 0 113 45l31 -90q-31 -28 -78 -44t-94 -16q-89 0 -135 58t-46 152zM153 313h149q6 27 6 48q0 66 -53 66q-67 0 -102 -114z M243 575l-59 137h116l35 -137h-92z" />
<glyph unicode="&#xe9;" horiz-adv-x="445" d="M235 575l89 137h121l-115 -137h-95zM15 198q0 52 16.5 107.5t46.5 104.5t80.5 80.5t110.5 31.5q76 0 113.5 -46.5t37.5 -115.5q0 -45 -22 -127h-259q-3 -15 -3 -37q0 -103 88 -103q59 0 113 45l31 -90q-31 -28 -78 -44t-94 -16q-89 0 -135 58t-46 152zM153 313h149 q6 27 6 48q0 66 -53 66q-67 0 -102 -114z" />
<glyph unicode="&#xea;" horiz-adv-x="445" d="M156 575l102 137h118l47 -137h-93l-21 82h-2l-53 -82h-98zM15 198q0 52 16.5 107.5t46.5 104.5t80.5 80.5t110.5 31.5q76 0 113.5 -46.5t37.5 -115.5q0 -45 -22 -127h-259q-3 -15 -3 -37q0 -103 88 -103q59 0 113 45l31 -90q-31 -28 -78 -44t-94 -16q-89 0 -135 58 t-46 152zM153 313h149q6 27 6 48q0 66 -53 66q-67 0 -102 -114z" />
<glyph unicode="&#xeb;" horiz-adv-x="445" d="M324 595l24 117h88l-23 -117h-89zM171 595l23 117h88l-23 -117h-88zM15 198q0 52 16.5 107.5t46.5 104.5t80.5 80.5t110.5 31.5q76 0 113.5 -46.5t37.5 -115.5q0 -45 -22 -127h-259q-3 -15 -3 -37q0 -103 88 -103q59 0 113 45l31 -90q-31 -28 -78 -44t-94 -16 q-89 0 -135 58t-46 152zM153 313h149q6 27 6 48q0 66 -53 66q-67 0 -102 -114z" />
<glyph unicode="&#xec;" horiz-adv-x="227" d="M-3 0l99 510h120l-100 -510h-119zM121 575l-59 137h116l35 -137h-92z" />
<glyph unicode="&#xed;" horiz-adv-x="227" d="M116 575l89 137h121l-115 -137h-95zM-3 0l99 510h120l-100 -510h-119z" />
<glyph unicode="&#xee;" horiz-adv-x="227" d="M38 575l102 137h118l47 -137h-93l-21 82h-2l-53 -82h-98zM-3 0l99 510h120l-100 -510h-119z" />
<glyph unicode="&#xef;" horiz-adv-x="227" d="M203 595l24 117h88l-23 -117h-89zM50 595l23 117h88l-23 -117h-88zM-3 0l99 510h120l-100 -510h-119z" />
<glyph unicode="&#xf0;" horiz-adv-x="463" d="M12 182q0 61 25.5 124.5t76.5 109.5t114 46q28 0 48.5 -8.5t27.5 -17.5l7 -8l4 2q-4 67 -50 111l-169 -81l17 76l101 49q-31 26 -84 45l51 96q92 -25 157 -84l136 67l-17 -80l-76 -38q56 -85 56 -210q0 -91 -28 -179t-88 -151t-137 -63q-83 0 -127.5 57t-44.5 137z M133 175q0 -83 54 -83q35 0 64 40t41.5 85t12.5 78q0 35 -15 54.5t-42 19.5q-37 0 -64.5 -35t-39 -77.5t-11.5 -81.5z" />
<glyph unicode="&#xf1;" horiz-adv-x="491" d="M-3 0l99 510h115l-7 -36l-9 -30h2q60 78 146 78q54 0 83.5 -30t29.5 -88q0 -28 -6 -62l-67 -342h-120l65 331q3 20 3 32q0 46 -43 46q-42 0 -75.5 -43t-42.5 -89l-54 -277h-119zM157 576q23 138 109 138q23 0 39.5 -10t24 -22.5t17 -22.5t18.5 -10q27 0 40 62h79 q-22 -138 -105 -138q-29 0 -48 16.5t-31 32.5t-23 16q-13 0 -24 -18t-17 -44h-79z" />
<glyph unicode="&#xf2;" horiz-adv-x="504" d="M14 192q0 55 18 112t50.5 106t86.5 80.5t119 31.5q86 0 135 -56t49 -155q0 -131 -80.5 -227t-194.5 -96q-82 0 -132.5 54.5t-50.5 149.5zM136 198q0 -48 18 -77t54 -29q57 0 100.5 64.5t43.5 150.5q0 111 -74 111q-43 0 -77 -37t-49.5 -86t-15.5 -97zM262 575l-59 137 h116l35 -137h-92z" />
<glyph unicode="&#xf3;" horiz-adv-x="504" d="M253 575l89 137h121l-115 -137h-95zM14 192q0 55 18 112t50.5 106t86.5 80.5t119 31.5q86 0 135 -56t49 -155q0 -131 -80.5 -227t-194.5 -96q-82 0 -132.5 54.5t-50.5 149.5zM136 198q0 -48 18 -77t54 -29q57 0 100.5 64.5t43.5 150.5q0 111 -74 111q-43 0 -77 -37 t-49.5 -86t-15.5 -97z" />
<glyph unicode="&#xf4;" horiz-adv-x="504" d="M175 575l102 137h118l47 -137h-93l-21 82h-2l-53 -82h-98zM14 192q0 55 18 112t50.5 106t86.5 80.5t119 31.5q86 0 135 -56t49 -155q0 -131 -80.5 -227t-194.5 -96q-82 0 -132.5 54.5t-50.5 149.5zM136 198q0 -48 18 -77t54 -29q57 0 100.5 64.5t43.5 150.5 q0 111 -74 111q-43 0 -77 -37t-49.5 -86t-15.5 -97z" />
<glyph unicode="&#xf5;" horiz-adv-x="504" d="M14 192q0 55 18 112t50.5 106t86.5 80.5t119 31.5q86 0 135 -56t49 -155q0 -131 -80.5 -227t-194.5 -96q-82 0 -132.5 54.5t-50.5 149.5zM136 198q0 -48 18 -77t54 -29q57 0 100.5 64.5t43.5 150.5q0 111 -74 111q-43 0 -77 -37t-49.5 -86t-15.5 -97zM157 576 q23 138 109 138q23 0 39.5 -10t24 -22.5t17 -22.5t18.5 -10q27 0 40 62h79q-22 -138 -105 -138q-29 0 -48 16.5t-31 32.5t-23 16q-13 0 -24 -18t-17 -44h-79z" />
<glyph unicode="&#xf6;" horiz-adv-x="504" d="M344 595l24 117h88l-23 -117h-89zM191 595l23 117h88l-23 -117h-88zM14 192q0 55 18 112t50.5 106t86.5 80.5t119 31.5q86 0 135 -56t49 -155q0 -131 -80.5 -227t-194.5 -96q-82 0 -132.5 54.5t-50.5 149.5zM136 198q0 -48 18 -77t54 -29q57 0 100.5 64.5t43.5 150.5 q0 111 -74 111q-43 0 -77 -37t-49.5 -86t-15.5 -97z" />
<glyph unicode="&#xf7;" d="M194 437v109h103v-109h-103zM39 236v99h414v-99h-414zM194 26v109h103v-109h-103z" />
<glyph unicode="&#xf8;" horiz-adv-x="504" d="M15 192q0 75 29.5 148.5t94 127.5t149.5 54q64 0 99 -26l42 57l43 -33l-44 -60q44 -51 44 -149q0 -131 -80 -227t-194 -96q-57 0 -97 26l-44 -58l-42 32l44 62q-44 51 -44 142zM136 198q0 -28 4 -41l180 247q-14 14 -42 14q-63 0 -102.5 -71.5t-39.5 -148.5zM352 307 q0 31 -5 45l-179 -246q15 -14 41 -14q57 0 100 64.5t43 150.5z" />
<glyph unicode="&#xf9;" horiz-adv-x="487" d="M18 107q0 26 7 61l66 342h120l-65 -332q-3 -21 -3 -27q0 -50 41 -50q44 0 76 42.5t41 90.5l54 276h120l-100 -510h-114l6 37l9 28h-2q-62 -77 -149 -77q-107 0 -107 119zM248 575l-59 137h116l35 -137h-92z" />
<glyph unicode="&#xfa;" horiz-adv-x="487" d="M240 575l89 137h121l-115 -137h-95zM18 107q0 26 7 61l66 342h120l-65 -332q-3 -21 -3 -27q0 -50 41 -50q44 0 76 42.5t41 90.5l54 276h120l-100 -510h-114l6 37l9 28h-2q-62 -77 -149 -77q-107 0 -107 119z" />
<glyph unicode="&#xfb;" horiz-adv-x="487" d="M162 575l102 137h118l47 -137h-93l-21 82h-2l-53 -82h-98zM18 107q0 26 7 61l66 342h120l-65 -332q-3 -21 -3 -27q0 -50 41 -50q44 0 76 42.5t41 90.5l54 276h120l-100 -510h-114l6 37l9 28h-2q-62 -77 -149 -77q-107 0 -107 119z" />
<glyph unicode="&#xfc;" horiz-adv-x="487" d="M331 595l24 117h88l-23 -117h-89zM178 595l23 117h88l-23 -117h-88zM18 107q0 26 7 61l66 342h120l-65 -332q-3 -21 -3 -27q0 -50 41 -50q44 0 76 42.5t41 90.5l54 276h120l-100 -510h-114l6 37l9 28h-2q-62 -77 -149 -77q-107 0 -107 119z" />
<glyph unicode="&#xfd;" horiz-adv-x="437" d="M-32 -93q20 -16 45 -16q49 0 82 71l19 41l-70 507h127l19 -291l-3 -70h4q15 48 23 67l124 294h127l-269 -581q-65 -139 -179 -139q-47 0 -89 28zM220 575l89 137h121l-115 -137h-95z" />
<glyph unicode="&#xfe;" horiz-adv-x="491" d="M-42 -200l176 910h120l-42 -219l-10 -35h2q19 31 54 48.5t73 17.5q86 0 117.5 -75.5t3.5 -198.5q-27 -120 -89.5 -190t-143.5 -70q-34 0 -60 14.5t-35 43.5h-2q0 -17 -5 -42l-40 -204h-119zM163 263q-11 -47 -11.5 -83.5t14.5 -62.5t48 -26q81 0 117 154q19 78 6 124.5 t-57 46.5q-82 0 -117 -153z" />
<glyph unicode="&#xff;" horiz-adv-x="437" d="M-32 -93q20 -16 45 -16q49 0 82 71l19 41l-70 507h127l19 -291l-3 -70h4q15 48 23 67l124 294h127l-269 -581q-65 -139 -179 -139q-47 0 -89 28zM311 595l24 117h88l-23 -117h-89zM158 595l23 117h88l-23 -117h-88z" />
<glyph unicode="&#x152;" horiz-adv-x="751" d="M35 263q0 59 14 121.5t44 123t71.5 108t102 77t129.5 29.5q18 0 59 -6t63 -6h275l-21 -108h-217l-36 -190h174l-22 -108h-174l-38 -196h228l-20 -108h-262q-27 0 -73.5 -6t-64.5 -6q-110 0 -171 74.5t-61 200.5zM161 263q0 -79 31.5 -122.5t89.5 -43.5q31 0 55 9l97 498 q-23 8 -53 8q-56 0 -100.5 -35.5t-69.5 -91t-37.5 -112.5t-12.5 -110z" />
<glyph unicode="&#x153;" horiz-adv-x="770" d="M14 192q0 55 18 112t50.5 106t86.5 80.5t119 31.5q100 0 145 -97h2q68 97 160 97q76 0 113 -46.5t37 -115.5q0 -57 -21 -127h-260q-3 -10 -3 -36q-1 -104 89 -104q58 0 112 45l32 -90q-30 -27 -77 -43.5t-96 -16.5q-104 0 -146 99h-2q-76 -99 -176 -99q-82 0 -132.5 54.5 t-50.5 149.5zM478 313h149q7 25 7 48q0 66 -54 66q-68 0 -102 -114zM136 198q0 -48 18 -77t54 -29q57 0 100.5 64.5t43.5 150.5q0 111 -74 111q-43 0 -77 -37t-49.5 -86t-15.5 -97z" />
<glyph unicode="&#x178;" horiz-adv-x="483" d="M120 0l58 297l-102 413h129l39 -208l10 -93h3q23 49 47 93l119 208h138l-261 -413l-59 -297h-121zM366 777l24 117h88l-23 -117h-89zM213 777l23 117h88l-23 -117h-88z" />
<glyph unicode="&#x2c6;" horiz-adv-x="376" d="M233 757l102 137h118l47 -137h-93l-21 82h-2l-53 -82h-98z" />
<glyph unicode="&#x2dc;" horiz-adv-x="376" d="M216 758q23 138 109 138q23 0 39.5 -10t24 -22.5t17 -22.5t18.5 -10q27 0 40 62h79q-22 -138 -105 -138q-29 0 -48 16.5t-31 32.5t-23 16q-13 0 -24 -18t-17 -44h-79z" />
<glyph unicode="&#x2000;" horiz-adv-x="451" />
<glyph unicode="&#x2001;" horiz-adv-x="903" />
<glyph unicode="&#x2002;" horiz-adv-x="451" />
<glyph unicode="&#x2003;" horiz-adv-x="903" />
<glyph unicode="&#x2004;" horiz-adv-x="301" />
<glyph unicode="&#x2005;" horiz-adv-x="225" />
<glyph unicode="&#x2006;" horiz-adv-x="150" />
<glyph unicode="&#x2007;" horiz-adv-x="150" />
<glyph unicode="&#x2008;" horiz-adv-x="112" />
<glyph unicode="&#x2009;" horiz-adv-x="180" />
<glyph unicode="&#x200a;" horiz-adv-x="50" />
<glyph unicode="&#x2010;" horiz-adv-x="342" d="M39 230l22 112h237l-21 -112h-238z" />
<glyph unicode="&#x2011;" horiz-adv-x="342" d="M39 230l22 112h237l-21 -112h-238z" />
<glyph unicode="&#x2012;" horiz-adv-x="342" d="M39 230l22 112h237l-21 -112h-238z" />
<glyph unicode="&#x2013;" horiz-adv-x="554" d="M42 236l19 99h446l-19 -99h-446z" />
<glyph unicode="&#x2014;" horiz-adv-x="722" d="M49 236l19 99h600l-18 -99h-601z" />
<glyph unicode="&#x2018;" horiz-adv-x="223" d="M79 503l106 219h84l-81 -219h-109z" />
<glyph unicode="&#x2019;" horiz-adv-x="219" d="M83 504l82 219h109l-105 -219h-86z" />
<glyph unicode="&#x201a;" horiz-adv-x="225" d="M-44 -90l83 220h106l-107 -220h-82z" />
<glyph unicode="&#x201c;" horiz-adv-x="370" d="M224 503l106 219h86l-82 -219h-110zM79 503l106 219h86l-82 -219h-110z" />
<glyph unicode="&#x201d;" horiz-adv-x="365" d="M228 504l82 219h110l-106 -219h-86zM83 504l82 219h111l-107 -219h-86z" />
<glyph unicode="&#x201e;" horiz-adv-x="365" d="M97 -90l82 220h106l-107 -220h-81zM-44 -90l83 220h106l-107 -220h-82z" />
<glyph unicode="&#x2022;" horiz-adv-x="412" d="M204 124q-61 0 -99 48t-38 119t38 119t99 48t99.5 -48t38.5 -119t-38.5 -119t-99.5 -48z" />
<glyph unicode="&#x2026;" horiz-adv-x="693" d="M472 0l24 127h111l-23 -127h-112zM234 0l24 127h111l-24 -127h-111zM-4 0l24 127h111l-24 -127h-111z" />
<glyph unicode="&#x202f;" horiz-adv-x="180" />
<glyph unicode="&#x2039;" horiz-adv-x="305" d="M113 77l-86 205l167 206h118l-176 -214l83 -197h-106z" />
<glyph unicode="&#x203a;" horiz-adv-x="305" d="M-12 77l176 214l-84 197h107l85 -205l-166 -206h-118z" />
<glyph unicode="&#x205f;" horiz-adv-x="225" />
<glyph unicode="&#x20ac;" horiz-adv-x="458" d="M9 253l13 66h52q3 43 13 81h-48l11 66h55q45 130 131 193t183 63q47 0 89 -15l-44 -111q-15 9 -62 9q-51 0 -95 -37t-72 -102h182l-24 -66h-178q-11 -46 -14 -81h163l-22 -66h-140q3 -63 30.5 -104.5t85.5 -41.5q34 0 61 12v-118q-37 -13 -89 -13q-101 0 -158.5 77.5 t-59.5 187.5h-63z" />
<glyph unicode="&#x2122;" horiz-adv-x="860" d="M449 267l27 443h93l53 -203l8 -50h4q4 33 8 50l54 203h92l26 -443h-88l-10 227l3 58h-4l-49 -204h-68l-48 204h-5q3 -43 3 -58l-11 -227h-88zM235 267v361h-111v82h311v-82h-111v-361h-89z" />
<glyph unicode="&#x25fc;" horiz-adv-x="510" d="M0 510h510v-510h-510v510z" />
</font>
</defs>
</svg>
